<svg width="412" height="184" viewBox="0 0 412 184" fill="none" xmlns="http://www.w3.org/2000/svg">
<mask id="path-1-outside-1_2178_1532" maskUnits="userSpaceOnUse" x="10" y="7" width="401" height="176" fill="black">
<rect fill="white" x="10" y="7" width="401" height="176"/>
<path d="M15.7 82V12H49.4C55.9333 12 61.5667 13.0667 66.3 15.2C71.1 17.3333 74.8 20.4 77.4 24.4C80 28.3333 81.3 33 81.3 38.4C81.3 43.8 80 48.4667 77.4 52.4C74.8 56.3333 71.1 59.4 66.3 61.6C61.5667 63.7333 55.9333 64.8 49.4 64.8H28.8L39.3 54.7V82H15.7ZM39.3 57.3L28.8 46.6H47.9C51.1667 46.6 53.5667 45.8667 55.1 44.4C56.7 42.9333 57.5 40.9333 57.5 38.4C57.5 35.8667 56.7 33.8667 55.1 32.4C53.5667 30.9333 51.1667 30.2 47.9 30.2H28.8L39.3 19.5V57.3ZM87.5398 82V12H111.14V63.7H142.74V82H87.5398ZM141.135 82L171.735 12H194.935L225.535 82H201.135L178.535 23.2H187.735L165.135 82H141.135ZM159.335 69.8L165.335 52.8H197.535L203.535 69.8H159.335ZM227.802 82V12H247.202L282.802 54.6H273.802V12H296.802V82H277.402L241.802 39.4H250.802V82H227.802ZM321.873 82V30.3H301.373V12H365.973V30.3H345.473V82H321.873ZM15.7 178V108H50.2C58 108 64.8667 109.433 70.8 112.3C76.7333 115.1 81.3667 119.1 84.7 124.3C88.0333 129.5 89.7 135.7 89.7 142.9C89.7 150.167 88.0333 156.433 84.7 161.7C81.3667 166.9 76.7333 170.933 70.8 173.8C64.8667 176.6 58 178 50.2 178H15.7ZM39.3 159.6H49.2C52.5333 159.6 55.4333 158.967 57.9 157.7C60.4333 156.433 62.4 154.567 63.8 152.1C65.2 149.567 65.9 146.5 65.9 142.9C65.9 139.367 65.2 136.367 63.8 133.9C62.4 131.433 60.4333 129.567 57.9 128.3C55.4333 127.033 52.5333 126.4 49.2 126.4H39.3V159.6ZM88.2406 178L118.841 108H142.041L172.641 178H148.241L125.641 119.2H134.841L112.241 178H88.2406ZM106.441 165.8L112.441 148.8H144.641L150.641 165.8H106.441ZM174.907 178V108H209.407C217.207 108 224.074 109.433 230.007 112.3C235.94 115.1 240.574 119.1 243.907 124.3C247.24 129.5 248.907 135.7 248.907 142.9C248.907 150.167 247.24 156.433 243.907 161.7C240.574 166.9 235.94 170.933 230.007 173.8C224.074 176.6 217.207 178 209.407 178H174.907ZM198.507 159.6H208.407C211.74 159.6 214.64 158.967 217.107 157.7C219.64 156.433 221.607 154.567 223.007 152.1C224.407 149.567 225.107 146.5 225.107 142.9C225.107 139.367 224.407 136.367 223.007 133.9C221.607 131.433 219.64 129.567 217.107 128.3C214.64 127.033 211.74 126.4 208.407 126.4H198.507V159.6ZM256.024 178V108H290.524C298.324 108 305.191 109.433 311.124 112.3C317.058 115.1 321.691 119.1 325.024 124.3C328.358 129.5 330.024 135.7 330.024 142.9C330.024 150.167 328.358 156.433 325.024 161.7C321.691 166.9 317.058 170.933 311.124 173.8C305.191 176.6 298.324 178 290.524 178H256.024ZM279.624 159.6H289.524C292.858 159.6 295.758 158.967 298.224 157.7C300.758 156.433 302.724 154.567 304.124 152.1C305.524 149.567 306.224 146.5 306.224 142.9C306.224 139.367 305.524 136.367 304.124 133.9C302.724 131.433 300.758 129.567 298.224 128.3C295.758 127.033 292.858 126.4 289.524 126.4H279.624V159.6ZM352.114 178V147.3L357.514 161.4L325.714 108H350.614L372.114 144.5H357.614L379.314 108H402.114L370.514 161.4L375.714 147.3V178H352.114Z"/>
</mask>
<path d="M15.7 82H10.7V87H15.7V82ZM15.7 12V7H10.7V12H15.7ZM66.3 15.2L64.2455 19.7584L64.2574 19.7638L64.2693 19.7691L66.3 15.2ZM77.4 24.4L73.2078 27.1249L73.2183 27.1411L73.2289 27.1572L77.4 24.4ZM77.4 52.4L73.2289 49.6428L73.2289 49.6428L77.4 52.4ZM66.3 61.6L68.3545 66.1584L68.3689 66.1519L68.3833 66.1453L66.3 61.6ZM28.8 64.8L25.3338 61.1965L16.3895 69.8H28.8V64.8ZM39.3 54.7H44.3V42.9528L35.8338 51.0965L39.3 54.7ZM39.3 82V87H44.3V82H39.3ZM39.3 57.3L35.7313 60.802L44.3 69.534V57.3H39.3ZM28.8 46.6V41.6H16.8882L25.2313 50.102L28.8 46.6ZM55.1 44.4L51.7214 40.7142L51.6822 40.7501L51.6439 40.7868L55.1 44.4ZM55.1 32.4L51.6439 36.0132L51.6823 36.0499L51.7214 36.0858L55.1 32.4ZM28.8 30.2L25.2313 26.698L16.8882 35.2H28.8V30.2ZM39.3 19.5H44.3V7.26603L35.7313 15.998L39.3 19.5ZM15.7 82H20.7V12H15.7H10.7V82H15.7ZM15.7 12V17H49.4V12V7H15.7V12ZM49.4 12V17C55.4022 17 60.3021 17.9811 64.2455 19.7584L66.3 15.2L68.3545 10.6416C62.8313 8.15224 56.4645 7 49.4 7V12ZM66.3 15.2L64.2693 19.7691C68.2783 21.5508 71.1875 24.0168 73.2078 27.1249L77.4 24.4L81.5922 21.6751C78.4125 16.7832 73.9217 13.1158 68.3307 10.6309L66.3 15.2ZM77.4 24.4L73.2289 27.1572C75.2128 30.1584 76.3 33.8339 76.3 38.4H81.3H86.3C86.3 32.1661 84.7872 26.5083 81.5711 21.6428L77.4 24.4ZM81.3 38.4H76.3C76.3 42.9661 75.2128 46.6416 73.2289 49.6428L77.4 52.4L81.5711 55.1572C84.7872 50.2917 86.3 44.6339 86.3 38.4H81.3ZM77.4 52.4L73.2289 49.6428C71.2042 52.7059 68.2722 55.1959 64.2167 57.0547L66.3 61.6L68.3833 66.1453C73.9279 63.6041 78.3958 59.9608 81.5711 55.1572L77.4 52.4ZM66.3 61.6L64.2455 57.0416C60.3021 58.8189 55.4022 59.8 49.4 59.8V64.8V69.8C56.4645 69.8 62.8313 68.6478 68.3545 66.1584L66.3 61.6ZM49.4 64.8V59.8H28.8V64.8V69.8H49.4V64.8ZM28.8 64.8L32.2662 68.4035L42.7662 58.3035L39.3 54.7L35.8338 51.0965L25.3338 61.1965L28.8 64.8ZM39.3 54.7H34.3V82H39.3H44.3V54.7H39.3ZM39.3 82V77H15.7V82V87H39.3V82ZM39.3 57.3L42.8687 53.798L32.3687 43.098L28.8 46.6L25.2313 50.102L35.7313 60.802L39.3 57.3ZM28.8 46.6V51.6H47.9V46.6V41.6H28.8V46.6ZM47.9 46.6V51.6C51.7794 51.6 55.6981 50.747 58.5561 48.0132L55.1 44.4L51.6439 40.7868C51.4352 40.9864 50.5539 41.6 47.9 41.6V46.6ZM55.1 44.4L58.4786 48.0858C61.2868 45.5116 62.5 42.0784 62.5 38.4H57.5H52.5C52.5 39.7883 52.1132 40.3551 51.7214 40.7142L55.1 44.4ZM57.5 38.4H62.5C62.5 34.7216 61.2868 31.2884 58.4786 28.7142L55.1 32.4L51.7214 36.0858C52.1132 36.4449 52.5 37.0117 52.5 38.4H57.5ZM55.1 32.4L58.5561 28.7868C55.6981 26.053 51.7794 25.2 47.9 25.2V30.2V35.2C50.5539 35.2 51.4352 35.8136 51.6439 36.0132L55.1 32.4ZM47.9 30.2V25.2H28.8V30.2V35.2H47.9V30.2ZM28.8 30.2L32.3687 33.702L42.8687 23.002L39.3 19.5L35.7313 15.998L25.2313 26.698L28.8 30.2ZM39.3 19.5H34.3V57.3H39.3H44.3V19.5H39.3ZM87.5398 82H82.5398V87H87.5398V82ZM87.5398 12V7H82.5398V12H87.5398ZM111.14 12H116.14V7H111.14V12ZM111.14 63.7H106.14V68.7H111.14V63.7ZM142.74 63.7H147.74V58.7H142.74V63.7ZM142.74 82V87H147.74V82H142.74ZM87.5398 82H92.5398V12H87.5398H82.5398V82H87.5398ZM87.5398 12V17H111.14V12V7H87.5398V12ZM111.14 12H106.14V63.7H111.14H116.14V12H111.14ZM111.14 63.7V68.7H142.74V63.7V58.7H111.14V63.7ZM142.74 63.7H137.74V82H142.74H147.74V63.7H142.74ZM142.74 82V77H87.5398V82V87H142.74V82ZM141.135 82L136.554 79.9973L133.493 87H141.135V82ZM171.735 12V7H168.464L167.154 9.99727L171.735 12ZM194.935 12L199.517 9.99727L198.206 7H194.935V12ZM225.535 82V87H233.178L230.117 79.9973L225.535 82ZM201.135 82L196.468 83.7938L197.7 87H201.135V82ZM178.535 23.2V18.2H171.257L173.868 24.9938L178.535 23.2ZM187.735 23.2L192.402 24.9938L195.014 18.2H187.735V23.2ZM165.135 82V87H168.57L169.802 83.7938L165.135 82ZM159.335 69.8L154.62 68.1359L152.268 74.8H159.335V69.8ZM165.335 52.8V47.8H161.798L160.62 51.1359L165.335 52.8ZM197.535 52.8L202.25 51.1359L201.073 47.8H197.535V52.8ZM203.535 69.8V74.8H210.602L208.25 68.1359L203.535 69.8ZM141.135 82L145.717 84.0027L176.317 14.0027L171.735 12L167.154 9.99727L136.554 79.9973L141.135 82ZM171.735 12V17H194.935V12V7H171.735V12ZM194.935 12L190.354 14.0027L220.954 84.0027L225.535 82L230.117 79.9973L199.517 9.99727L194.935 12ZM225.535 82V77H201.135V82V87H225.535V82ZM201.135 82L205.802 80.2062L183.202 21.4062L178.535 23.2L173.868 24.9938L196.468 83.7938L201.135 82ZM178.535 23.2V28.2H187.735V23.2V18.2H178.535V23.2ZM187.735 23.2L183.068 21.4062L160.468 80.2062L165.135 82L169.802 83.7938L192.402 24.9938L187.735 23.2ZM165.135 82V77H141.135V82V87H165.135V82ZM159.335 69.8L164.05 71.4641L170.05 54.4641L165.335 52.8L160.62 51.1359L154.62 68.1359L159.335 69.8ZM165.335 52.8V57.8H197.535V52.8V47.8H165.335V52.8ZM197.535 52.8L192.82 54.4641L198.82 71.4641L203.535 69.8L208.25 68.1359L202.25 51.1359L197.535 52.8ZM203.535 69.8V64.8H159.335V69.8V74.8H203.535V69.8ZM227.802 82H222.802V87H227.802V82ZM227.802 12V7H222.802V12H227.802ZM247.202 12L251.038 8.79376L249.539 7H247.202V12ZM282.802 54.6V59.6H293.496L286.638 51.3938L282.802 54.6ZM273.802 54.6H268.802V59.6H273.802V54.6ZM273.802 12V7H268.802V12H273.802ZM296.802 12H301.802V7H296.802V12ZM296.802 82V87H301.802V82H296.802ZM277.402 82L273.565 85.2062L275.064 87H277.402V82ZM241.802 39.4V34.4H231.107L237.965 42.6062L241.802 39.4ZM250.802 39.4H255.802V34.4H250.802V39.4ZM250.802 82V87H255.802V82H250.802ZM227.802 82H232.802V12H227.802H222.802V82H227.802ZM227.802 12V17H247.202V12V7H227.802V12ZM247.202 12L243.365 15.2062L278.965 57.8062L282.802 54.6L286.638 51.3938L251.038 8.79376L247.202 12ZM282.802 54.6V49.6H273.802V54.6V59.6H282.802V54.6ZM273.802 54.6H278.802V12H273.802H268.802V54.6H273.802ZM273.802 12V17H296.802V12V7H273.802V12ZM296.802 12H291.802V82H296.802H301.802V12H296.802ZM296.802 82V77H277.402V82V87H296.802V82ZM277.402 82L281.238 78.7938L245.638 36.1938L241.802 39.4L237.965 42.6062L273.565 85.2062L277.402 82ZM241.802 39.4V44.4H250.802V39.4V34.4H241.802V39.4ZM250.802 39.4H245.802V82H250.802H255.802V39.4H250.802ZM250.802 82V77H227.802V82V87H250.802V82ZM321.873 82H316.873V87H321.873V82ZM321.873 30.3H326.873V25.3H321.873V30.3ZM301.373 30.3H296.373V35.3H301.373V30.3ZM301.373 12V7H296.373V12H301.373ZM365.973 12H370.973V7H365.973V12ZM365.973 30.3V35.3H370.973V30.3H365.973ZM345.473 30.3V25.3H340.473V30.3H345.473ZM345.473 82V87H350.473V82H345.473ZM321.873 82H326.873V30.3H321.873H316.873V82H321.873ZM321.873 30.3V25.3H301.373V30.3V35.3H321.873V30.3ZM301.373 30.3H306.373V12H301.373H296.373V30.3H301.373ZM301.373 12V17H365.973V12V7H301.373V12ZM365.973 12H360.973V30.3H365.973H370.973V12H365.973ZM365.973 30.3V25.3H345.473V30.3V35.3H365.973V30.3ZM345.473 30.3H340.473V82H345.473H350.473V30.3H345.473ZM345.473 82V77H321.873V82V87H345.473V82ZM15.7 178H10.7V183H15.7V178ZM15.7 108V103H10.7V108H15.7ZM70.8 112.3L68.6248 116.802L68.6454 116.812L68.6661 116.822L70.8 112.3ZM84.7 124.3L80.4906 126.998L80.4906 126.998L84.7 124.3ZM84.7 161.7L88.9094 164.398L88.9172 164.386L88.9249 164.374L84.7 161.7ZM70.8 173.8L72.9339 178.322L72.9546 178.312L72.9752 178.302L70.8 173.8ZM39.3 159.6H34.3V164.6H39.3V159.6ZM57.9 157.7L55.6639 153.228L55.6399 153.24L55.616 153.252L57.9 157.7ZM63.8 152.1L68.1484 154.568L68.1625 154.543L68.1762 154.518L63.8 152.1ZM63.8 133.9L68.1484 131.432L68.1484 131.432L63.8 133.9ZM57.9 128.3L55.616 132.748L55.6399 132.76L55.6639 132.772L57.9 128.3ZM39.3 126.4V121.4H34.3V126.4H39.3ZM15.7 178H20.7V108H15.7H10.7V178H15.7ZM15.7 108V113H50.2V108V103H15.7V108ZM50.2 108V113C57.3839 113 63.4834 114.318 68.6248 116.802L70.8 112.3L72.9752 107.798C66.25 104.549 58.6161 103 50.2 103V108ZM70.8 112.3L68.6661 116.822C73.8053 119.247 77.6961 122.639 80.4906 126.998L84.7 124.3L88.9094 121.602C85.0372 115.561 79.6614 110.953 72.9339 107.778L70.8 112.3ZM84.7 124.3L80.4906 126.998C83.2269 131.267 84.7 136.495 84.7 142.9H89.7H94.7C94.7 134.905 92.8398 127.733 88.9094 121.602L84.7 124.3ZM89.7 142.9H84.7C84.7 149.38 83.2229 154.684 80.4751 159.026L84.7 161.7L88.9249 164.374C92.8438 158.182 94.7 150.953 94.7 142.9H89.7ZM84.7 161.7L80.4906 159.002C77.6893 163.372 73.7844 166.805 68.6248 169.298L70.8 173.8L72.9752 178.302C79.6822 175.062 85.044 170.428 88.9094 164.398L84.7 161.7ZM70.8 173.8L68.6661 169.278C63.5144 171.709 57.3999 173 50.2 173V178V183C58.6001 183 66.219 181.491 72.9339 178.322L70.8 173.8ZM50.2 178V173H15.7V178V183H50.2V178ZM39.3 159.6V164.6H49.2V159.6V154.6H39.3V159.6ZM49.2 159.6V164.6C53.1686 164.6 56.8816 163.844 60.184 162.148L57.9 157.7L55.616 153.252C53.9851 154.09 51.8981 154.6 49.2 154.6V159.6ZM57.9 157.7L60.1361 162.172C63.5581 160.461 66.2595 157.896 68.1484 154.568L63.8 152.1L59.4516 149.632C58.5406 151.237 57.3086 152.406 55.6639 153.228L57.9 157.7ZM63.8 152.1L68.1762 154.518C70.0736 151.085 70.9 147.143 70.9 142.9H65.9H60.9C60.9 145.857 60.3264 148.048 59.4238 149.682L63.8 152.1ZM65.9 142.9H70.9C70.9 138.711 70.0684 134.815 68.1484 131.432L63.8 133.9L59.4516 136.368C60.3316 137.919 60.9 140.022 60.9 142.9H65.9ZM63.8 133.9L68.1484 131.432C66.2595 128.104 63.5581 125.539 60.1361 123.828L57.9 128.3L55.6639 132.772C57.3086 133.594 58.5406 134.763 59.4516 136.368L63.8 133.9ZM57.9 128.3L60.184 123.852C56.8816 122.156 53.1686 121.4 49.2 121.4V126.4V131.4C51.8981 131.4 53.9851 131.91 55.616 132.748L57.9 128.3ZM49.2 126.4V121.4H39.3V126.4V131.4H49.2V126.4ZM39.3 126.4H34.3V159.6H39.3H44.3V126.4H39.3ZM88.2406 178L83.6592 175.997L80.598 183H88.2406V178ZM118.841 108V103H115.569L114.259 105.997L118.841 108ZM142.041 108L146.622 105.997L145.312 103H142.041V108ZM172.641 178V183H180.283L177.222 175.997L172.641 178ZM148.241 178L143.573 179.794L144.806 183H148.241V178ZM125.641 119.2V114.2H118.362L120.973 120.994L125.641 119.2ZM134.841 119.2L139.508 120.994L142.119 114.2H134.841V119.2ZM112.241 178V183H115.675L116.908 179.794L112.241 178ZM106.441 165.8L101.726 164.136L99.3736 170.8H106.441V165.8ZM112.441 148.8V143.8H108.903L107.726 147.136L112.441 148.8ZM144.641 148.8L149.356 147.136L148.178 143.8H144.641V148.8ZM150.641 165.8V170.8H157.708L155.356 164.136L150.641 165.8ZM88.2406 178L92.822 180.003L123.422 110.003L118.841 108L114.259 105.997L83.6592 175.997L88.2406 178ZM118.841 108V113H142.041V108V103H118.841V108ZM142.041 108L137.459 110.003L168.059 180.003L172.641 178L177.222 175.997L146.622 105.997L142.041 108ZM172.641 178V173H148.241V178V183H172.641V178ZM148.241 178L152.908 176.206L130.308 117.406L125.641 119.2L120.973 120.994L143.573 179.794L148.241 178ZM125.641 119.2V124.2H134.841V119.2V114.2H125.641V119.2ZM134.841 119.2L130.173 117.406L107.573 176.206L112.241 178L116.908 179.794L139.508 120.994L134.841 119.2ZM112.241 178V173H88.2406V178V183H112.241V178ZM106.441 165.8L111.156 167.464L117.156 150.464L112.441 148.8L107.726 147.136L101.726 164.136L106.441 165.8ZM112.441 148.8V153.8H144.641V148.8V143.8H112.441V148.8ZM144.641 148.8L139.926 150.464L145.926 167.464L150.641 165.8L155.356 164.136L149.356 147.136L144.641 148.8ZM150.641 165.8V160.8H106.441V165.8V170.8H150.641V165.8ZM174.907 178H169.907V183H174.907V178ZM174.907 108V103H169.907V108H174.907ZM230.007 112.3L227.832 116.802L227.852 116.812L227.873 116.822L230.007 112.3ZM243.907 124.3L239.698 126.998L239.698 126.998L243.907 124.3ZM243.907 161.7L248.116 164.398L248.124 164.386L248.132 164.374L243.907 161.7ZM230.007 173.8L232.141 178.322L232.162 178.312L232.182 178.302L230.007 173.8ZM198.507 159.6H193.507V164.6H198.507V159.6ZM217.107 157.7L214.871 153.228L214.847 153.24L214.823 153.252L217.107 157.7ZM223.007 152.1L227.355 154.568L227.369 154.543L227.383 154.518L223.007 152.1ZM223.007 133.9L227.355 131.432L227.355 131.432L223.007 133.9ZM217.107 128.3L214.823 132.748L214.847 132.76L214.871 132.772L217.107 128.3ZM198.507 126.4V121.4H193.507V126.4H198.507ZM174.907 178H179.907V108H174.907H169.907V178H174.907ZM174.907 108V113H209.407V108V103H174.907V108ZM209.407 108V113C216.591 113 222.69 114.318 227.832 116.802L230.007 112.3L232.182 107.798C225.457 104.549 217.823 103 209.407 103V108ZM230.007 112.3L227.873 116.822C233.012 119.247 236.903 122.639 239.698 126.998L243.907 124.3L248.116 121.602C244.244 115.561 238.868 110.953 232.141 107.778L230.007 112.3ZM243.907 124.3L239.698 126.998C242.434 131.267 243.907 136.495 243.907 142.9H248.907H253.907C253.907 134.905 252.047 127.733 248.116 121.602L243.907 124.3ZM248.907 142.9H243.907C243.907 149.38 242.43 154.684 239.682 159.026L243.907 161.7L248.132 164.374C252.051 158.182 253.907 150.953 253.907 142.9H248.907ZM243.907 161.7L239.698 159.002C236.896 163.372 232.991 166.805 227.832 169.298L230.007 173.8L232.182 178.302C238.889 175.062 244.251 170.428 248.116 164.398L243.907 161.7ZM230.007 173.8L227.873 169.278C222.721 171.709 216.607 173 209.407 173V178V183C217.807 183 225.426 181.491 232.141 178.322L230.007 173.8ZM209.407 178V173H174.907V178V183H209.407V178ZM198.507 159.6V164.6H208.407V159.6V154.6H198.507V159.6ZM208.407 159.6V164.6C212.376 164.6 216.089 163.844 219.391 162.148L217.107 157.7L214.823 153.252C213.192 154.09 211.105 154.6 208.407 154.6V159.6ZM217.107 157.7L219.343 162.172C222.765 160.461 225.466 157.896 227.355 154.568L223.007 152.1L218.659 149.632C217.748 151.237 216.516 152.406 214.871 153.228L217.107 157.7ZM223.007 152.1L227.383 154.518C229.281 151.085 230.107 147.143 230.107 142.9H225.107H220.107C220.107 145.857 219.533 148.048 218.631 149.682L223.007 152.1ZM225.107 142.9H230.107C230.107 138.711 229.275 134.815 227.355 131.432L223.007 133.9L218.659 136.368C219.539 137.919 220.107 140.022 220.107 142.9H225.107ZM223.007 133.9L227.355 131.432C225.466 128.104 222.765 125.539 219.343 123.828L217.107 128.3L214.871 132.772C216.516 133.594 217.748 134.763 218.659 136.368L223.007 133.9ZM217.107 128.3L219.391 123.852C216.089 122.156 212.376 121.4 208.407 121.4V126.4V131.4C211.105 131.4 213.192 131.91 214.823 132.748L217.107 128.3ZM208.407 126.4V121.4H198.507V126.4V131.4H208.407V126.4ZM198.507 126.4H193.507V159.6H198.507H203.507V126.4H198.507ZM256.024 178H251.024V183H256.024V178ZM256.024 108V103H251.024V108H256.024ZM311.124 112.3L308.949 116.802L308.97 116.812L308.99 116.822L311.124 112.3ZM325.024 124.3L320.815 126.998L320.815 126.998L325.024 124.3ZM325.024 161.7L329.234 164.398L329.241 164.386L329.249 164.374L325.024 161.7ZM311.124 173.8L313.258 178.322L313.279 178.312L313.299 178.302L311.124 173.8ZM279.624 159.6H274.624V164.6H279.624V159.6ZM298.224 157.7L295.988 153.228L295.964 153.24L295.94 153.252L298.224 157.7ZM304.124 152.1L308.473 154.568L308.487 154.543L308.5 154.518L304.124 152.1ZM304.124 133.9L308.473 131.432L308.473 131.432L304.124 133.9ZM298.224 128.3L295.94 132.748L295.964 132.76L295.988 132.772L298.224 128.3ZM279.624 126.4V121.4H274.624V126.4H279.624ZM256.024 178H261.024V108H256.024H251.024V178H256.024ZM256.024 108V113H290.524V108V103H256.024V108ZM290.524 108V113C297.708 113 303.808 114.318 308.949 116.802L311.124 112.3L313.299 107.798C306.574 104.549 298.94 103 290.524 103V108ZM311.124 112.3L308.99 116.822C314.13 119.247 318.02 122.639 320.815 126.998L325.024 124.3L329.234 121.602C325.361 115.561 319.986 110.953 313.258 107.778L311.124 112.3ZM325.024 124.3L320.815 126.998C323.551 131.267 325.024 136.495 325.024 142.9H330.024H335.024C335.024 134.905 333.164 127.733 329.234 121.602L325.024 124.3ZM330.024 142.9H325.024C325.024 149.38 323.547 154.684 320.799 159.026L325.024 161.7L329.249 164.374C333.168 158.182 335.024 150.953 335.024 142.9H330.024ZM325.024 161.7L320.815 159.002C318.014 163.372 314.109 166.805 308.949 169.298L311.124 173.8L313.299 178.302C320.006 175.062 325.368 170.428 329.234 164.398L325.024 161.7ZM311.124 173.8L308.99 169.278C303.839 171.709 297.724 173 290.524 173V178V183C298.924 183 306.543 181.491 313.258 178.322L311.124 173.8ZM290.524 178V173H256.024V178V183H290.524V178ZM279.624 159.6V164.6H289.524V159.6V154.6H279.624V159.6ZM289.524 159.6V164.6C293.493 164.6 297.206 163.844 300.508 162.148L298.224 157.7L295.94 153.252C294.309 154.09 292.222 154.6 289.524 154.6V159.6ZM298.224 157.7L300.46 162.172C303.882 160.461 306.584 157.896 308.473 154.568L304.124 152.1L299.776 149.632C298.865 151.237 297.633 152.406 295.988 153.228L298.224 157.7ZM304.124 152.1L308.5 154.518C310.398 151.085 311.224 147.143 311.224 142.9H306.224H301.224C301.224 145.857 300.651 148.048 299.748 149.682L304.124 152.1ZM306.224 142.9H311.224C311.224 138.711 310.393 134.815 308.473 131.432L304.124 133.9L299.776 136.368C300.656 137.919 301.224 140.022 301.224 142.9H306.224ZM304.124 133.9L308.473 131.432C306.584 128.104 303.882 125.539 300.46 123.828L298.224 128.3L295.988 132.772C297.633 133.594 298.865 134.763 299.776 136.368L304.124 133.9ZM298.224 128.3L300.508 123.852C297.206 122.156 293.493 121.4 289.524 121.4V126.4V131.4C292.222 131.4 294.309 131.91 295.94 132.748L298.224 128.3ZM289.524 126.4V121.4H279.624V126.4V131.4H289.524V126.4ZM279.624 126.4H274.624V159.6H279.624H284.624V126.4H279.624ZM352.114 178H347.114V183H352.114V178ZM352.114 147.3L356.783 145.512L347.114 147.3H352.114ZM357.514 161.4L353.218 163.958L362.183 159.612L357.514 161.4ZM325.714 108V103H316.917L321.418 110.558L325.714 108ZM350.614 108L354.922 105.462L353.472 103H350.614V108ZM372.114 144.5V149.5H380.862L376.422 141.962L372.114 144.5ZM357.614 144.5L353.316 141.945L348.825 149.5H357.614V144.5ZM379.314 108V103H376.47L375.016 105.445L379.314 108ZM402.114 108L406.417 110.546L410.883 103H402.114V108ZM370.514 161.4L365.823 159.67L374.817 163.946L370.514 161.4ZM375.714 147.3H380.714L371.023 145.57L375.714 147.3ZM375.714 178V183H380.714V178H375.714ZM352.114 178H357.114V147.3H352.114H347.114V178H352.114ZM352.114 147.3L347.445 149.088L352.845 163.188L357.514 161.4L362.183 159.612L356.783 145.512L352.114 147.3ZM357.514 161.4L361.81 158.842L330.01 105.442L325.714 108L321.418 110.558L353.218 163.958L357.514 161.4ZM325.714 108V113H350.614V108V103H325.714V108ZM350.614 108L346.306 110.538L367.806 147.038L372.114 144.5L376.422 141.962L354.922 105.462L350.614 108ZM372.114 144.5V139.5H357.614V144.5V149.5H372.114V144.5ZM357.614 144.5L361.912 147.055L383.612 110.555L379.314 108L375.016 105.445L353.316 141.945L357.614 144.5ZM379.314 108V113H402.114V108V103H379.314V108ZM402.114 108L397.811 105.454L366.211 158.854L370.514 161.4L374.817 163.946L406.417 110.546L402.114 108ZM370.514 161.4L375.205 163.13L380.405 149.03L375.714 147.3L371.023 145.57L365.823 159.67L370.514 161.4ZM375.714 147.3H370.714V178H375.714H380.714V147.3H375.714ZM375.714 178V173H352.114V178V183H375.714V178Z" fill="#4A8164" mask="url(#path-1-outside-1_2178_1532)"/>
<path d="M5.7 75V5H39.4C45.9333 5 51.5667 6.06666 56.3 8.2C61.1 10.3333 64.8 13.4 67.4 17.4C70 21.3333 71.3 26 71.3 31.4C71.3 36.8 70 41.4667 67.4 45.4C64.8 49.3333 61.1 52.4 56.3 54.6C51.5667 56.7333 45.9333 57.8 39.4 57.8H18.8L29.3 47.7V75H5.7ZM29.3 50.3L18.8 39.6H37.9C41.1667 39.6 43.5667 38.8667 45.1 37.4C46.7 35.9333 47.5 33.9333 47.5 31.4C47.5 28.8667 46.7 26.8667 45.1 25.4C43.5667 23.9333 41.1667 23.2 37.9 23.2H18.8L29.3 12.5V50.3ZM77.5398 75V5H101.14V56.7H132.74V75H77.5398ZM131.135 75L161.735 5H184.935L215.535 75H191.135L168.535 16.2H177.735L155.135 75H131.135ZM149.335 62.8L155.335 45.8H187.535L193.535 62.8H149.335ZM217.802 75V5H237.202L272.802 47.6H263.802V5H286.802V75H267.402L231.802 32.4H240.802V75H217.802ZM311.873 75V23.3H291.373V5H355.973V23.3H335.473V75H311.873ZM5.7 171V101H40.2C48 101 54.8667 102.433 60.8 105.3C66.7333 108.1 71.3667 112.1 74.7 117.3C78.0333 122.5 79.7 128.7 79.7 135.9C79.7 143.167 78.0333 149.433 74.7 154.7C71.3667 159.9 66.7333 163.933 60.8 166.8C54.8667 169.6 48 171 40.2 171H5.7ZM29.3 152.6H39.2C42.5333 152.6 45.4333 151.967 47.9 150.7C50.4333 149.433 52.4 147.567 53.8 145.1C55.2 142.567 55.9 139.5 55.9 135.9C55.9 132.367 55.2 129.367 53.8 126.9C52.4 124.433 50.4333 122.567 47.9 121.3C45.4333 120.033 42.5333 119.4 39.2 119.4H29.3V152.6ZM78.2406 171L108.841 101H132.041L162.641 171H138.241L115.641 112.2H124.841L102.241 171H78.2406ZM96.4406 158.8L102.441 141.8H134.641L140.641 158.8H96.4406ZM164.907 171V101H199.407C207.207 101 214.074 102.433 220.007 105.3C225.94 108.1 230.574 112.1 233.907 117.3C237.24 122.5 238.907 128.7 238.907 135.9C238.907 143.167 237.24 149.433 233.907 154.7C230.574 159.9 225.94 163.933 220.007 166.8C214.074 169.6 207.207 171 199.407 171H164.907ZM188.507 152.6H198.407C201.74 152.6 204.64 151.967 207.107 150.7C209.64 149.433 211.607 147.567 213.007 145.1C214.407 142.567 215.107 139.5 215.107 135.9C215.107 132.367 214.407 129.367 213.007 126.9C211.607 124.433 209.64 122.567 207.107 121.3C204.64 120.033 201.74 119.4 198.407 119.4H188.507V152.6ZM246.024 171V101H280.524C288.324 101 295.191 102.433 301.124 105.3C307.058 108.1 311.691 112.1 315.024 117.3C318.358 122.5 320.024 128.7 320.024 135.9C320.024 143.167 318.358 149.433 315.024 154.7C311.691 159.9 307.058 163.933 301.124 166.8C295.191 169.6 288.324 171 280.524 171H246.024ZM269.624 152.6H279.524C282.858 152.6 285.758 151.967 288.224 150.7C290.758 149.433 292.724 147.567 294.124 145.1C295.524 142.567 296.224 139.5 296.224 135.9C296.224 132.367 295.524 129.367 294.124 126.9C292.724 124.433 290.758 122.567 288.224 121.3C285.758 120.033 282.858 119.4 279.524 119.4H269.624V152.6ZM342.114 171V140.3L347.514 154.4L315.714 101H340.614L362.114 137.5H347.614L369.314 101H392.114L360.514 154.4L365.714 140.3V171H342.114Z" fill="#223B2E"/>
</svg>
