<svg width="412" height="184" viewBox="0 0 412 184" fill="none" xmlns="http://www.w3.org/2000/svg">
<mask id="path-1-outside-1_2178_1532" maskUnits="userSpaceOnUse" x="11" y="7" width="401" height="176" fill="black">
<rect fill="white" x="11" y="7" width="401" height="176"/>
<path d="M49.2977 82V12H82.9977C89.531 12 95.1643 13.0667 99.8977 15.2C104.698 17.3333 108.398 20.4 110.998 24.4C113.598 28.3333 114.898 33 114.898 38.4C114.898 43.8 113.598 48.4667 110.998 52.4C108.398 56.3333 104.698 59.4 99.8977 61.6C95.1643 63.7333 89.531 64.8 82.9977 64.8H62.3977L72.8977 54.7V82H49.2977ZM72.8977 57.3L62.3977 46.6H81.4977C84.7643 46.6 87.1643 45.8667 88.6977 44.4C90.2977 42.9333 91.0977 40.9333 91.0977 38.4C91.0977 35.8667 90.2977 33.8667 88.6977 32.4C87.1643 30.9333 84.7643 30.2 81.4977 30.2H62.3977L72.8977 19.5V57.3ZM121.138 82V12H144.738V63.7H176.338V82H121.138ZM174.733 82L205.333 12H228.533L259.133 82H234.733L212.133 23.2H221.333L198.733 82H174.733ZM192.933 69.8L198.933 52.8H231.133L237.133 69.8H192.933ZM261.399 82V12H280.799L316.399 54.6H307.399V12H330.399V82H310.999L275.399 39.4H284.399V82H261.399ZM355.47 82V30.3H334.97V12H399.57V30.3H379.07V82H355.47ZM16.2898 178V108H50.7898C58.5898 108 65.4565 109.433 71.3898 112.3C77.3232 115.1 81.9565 119.1 85.2898 124.3C88.6232 129.5 90.2898 135.7 90.2898 142.9C90.2898 150.167 88.6232 156.433 85.2898 161.7C81.9565 166.9 77.3232 170.933 71.3898 173.8C65.4565 176.6 58.5898 178 50.7898 178H16.2898ZM39.8898 159.6H49.7898C53.1232 159.6 56.0232 158.967 58.4898 157.7C61.0232 156.433 62.9898 154.567 64.3898 152.1C65.7898 149.567 66.4898 146.5 66.4898 142.9C66.4898 139.367 65.7898 136.367 64.3898 133.9C62.9898 131.433 61.0232 129.567 58.4898 128.3C56.0232 127.033 53.1232 126.4 49.7898 126.4H39.8898V159.6ZM88.8305 178L119.43 108H142.63L173.23 178H148.83L126.23 119.2H135.43L112.83 178H88.8305ZM107.03 165.8L113.03 148.8H145.23L151.23 165.8H107.03ZM175.497 178V108H209.997C217.797 108 224.664 109.433 230.597 112.3C236.53 115.1 241.164 119.1 244.497 124.3C247.83 129.5 249.497 135.7 249.497 142.9C249.497 150.167 247.83 156.433 244.497 161.7C241.164 166.9 236.53 170.933 230.597 173.8C224.664 176.6 217.797 178 209.997 178H175.497ZM199.097 159.6H208.997C212.33 159.6 215.23 158.967 217.697 157.7C220.23 156.433 222.197 154.567 223.597 152.1C224.997 149.567 225.697 146.5 225.697 142.9C225.697 139.367 224.997 136.367 223.597 133.9C222.197 131.433 220.23 129.567 217.697 128.3C215.23 127.033 212.33 126.4 208.997 126.4H199.097V159.6ZM256.614 178V108H291.114C298.914 108 305.781 109.433 311.714 112.3C317.647 115.1 322.281 119.1 325.614 124.3C328.947 129.5 330.614 135.7 330.614 142.9C330.614 150.167 328.947 156.433 325.614 161.7C322.281 166.9 317.647 170.933 311.714 173.8C305.781 176.6 298.914 178 291.114 178H256.614ZM280.214 159.6H290.114C293.447 159.6 296.347 158.967 298.814 157.7C301.347 156.433 303.314 154.567 304.714 152.1C306.114 149.567 306.814 146.5 306.814 142.9C306.814 139.367 306.114 136.367 304.714 133.9C303.314 131.433 301.347 129.567 298.814 128.3C296.347 127.033 293.447 126.4 290.114 126.4H280.214V159.6ZM352.704 178V147.3L358.104 161.4L326.304 108H351.204L372.704 144.5H358.204L379.904 108H402.704L371.104 161.4L376.304 147.3V178H352.704Z"/>
</mask>
<path d="M49.2977 82H44.2977V87H49.2977V82ZM49.2977 12V7H44.2977V12H49.2977ZM99.8977 15.2L97.8432 19.7584L97.8551 19.7638L97.867 19.7691L99.8977 15.2ZM110.998 24.4L106.805 27.1249L106.816 27.1411L106.827 27.1572L110.998 24.4ZM110.998 52.4L106.827 49.6428L106.827 49.6428L110.998 52.4ZM99.8977 61.6L101.952 66.1584L101.967 66.1519L101.981 66.1453L99.8977 61.6ZM62.3977 64.8L58.9314 61.1965L49.9872 69.8H62.3977V64.8ZM72.8977 54.7H77.8977V42.9528L69.4314 51.0965L72.8977 54.7ZM72.8977 82V87H77.8977V82H72.8977ZM72.8977 57.3L69.3289 60.802L77.8977 69.534V57.3H72.8977ZM62.3977 46.6V41.6H50.4858L58.8289 50.102L62.3977 46.6ZM88.6977 44.4L85.319 40.7142L85.2799 40.7501L85.2415 40.7868L88.6977 44.4ZM88.6977 32.4L85.2415 36.0132L85.2799 36.0499L85.319 36.0858L88.6977 32.4ZM62.3977 30.2L58.8289 26.698L50.4858 35.2H62.3977V30.2ZM72.8977 19.5H77.8977V7.26603L69.3289 15.998L72.8977 19.5ZM54.2977 82V12H44.2977V82H54.2977ZM49.2977 17H82.9977V7H49.2977V17ZM82.9977 17C88.9998 17 93.8997 17.9811 97.8432 19.7584L101.952 10.6416C96.4289 8.15224 90.0622 7 82.9977 7V17ZM97.867 19.7691C101.876 21.5508 104.785 24.0168 106.805 27.1249L115.19 21.6751C112.01 16.7832 107.519 13.1158 101.928 10.6309L97.867 19.7691ZM106.827 27.1572C108.81 30.1584 109.898 33.8339 109.898 38.4H119.898C119.898 32.1661 118.385 26.5083 115.169 21.6428L106.827 27.1572ZM109.898 38.4C109.898 42.9661 108.81 46.6416 106.827 49.6428L115.169 55.1572C118.385 50.2917 119.898 44.6339 119.898 38.4H109.898ZM106.827 49.6428C104.802 52.7059 101.87 55.1959 97.8144 57.0547L101.981 66.1453C107.526 63.6041 111.993 59.9608 115.169 55.1572L106.827 49.6428ZM97.8432 57.0416C93.8997 58.8189 88.9998 59.8 82.9977 59.8V69.8C90.0622 69.8 96.4289 68.6478 101.952 66.1584L97.8432 57.0416ZM82.9977 59.8H62.3977V69.8H82.9977V59.8ZM65.8639 68.4035L76.3639 58.3035L69.4314 51.0965L58.9314 61.1965L65.8639 68.4035ZM67.8977 54.7V82H77.8977V54.7H67.8977ZM72.8977 77H49.2977V87H72.8977V77ZM76.4664 53.798L65.9664 43.098L58.8289 50.102L69.3289 60.802L76.4664 53.798ZM62.3977 51.6H81.4977V41.6H62.3977V51.6ZM81.4977 51.6C85.3771 51.6 89.2958 50.747 92.1538 48.0132L85.2415 40.7868C85.0329 40.9864 84.1516 41.6 81.4977 41.6V51.6ZM92.0763 48.0858C94.8845 45.5116 96.0977 42.0784 96.0977 38.4H86.0977C86.0977 39.7883 85.7108 40.3551 85.319 40.7142L92.0763 48.0858ZM96.0977 38.4C96.0977 34.7216 94.8845 31.2884 92.0763 28.7142L85.319 36.0858C85.7108 36.4449 86.0977 37.0117 86.0977 38.4H96.0977ZM92.1538 28.7868C89.2958 26.053 85.3771 25.2 81.4977 25.2V35.2C84.1516 35.2 85.0329 35.8136 85.2415 36.0132L92.1538 28.7868ZM81.4977 25.2H62.3977V35.2H81.4977V25.2ZM65.9664 33.702L76.4664 23.002L69.3289 15.998L58.8289 26.698L65.9664 33.702ZM67.8977 19.5V57.3H77.8977V19.5H67.8977ZM121.138 82H116.138V87H121.138V82ZM121.138 12V7H116.138V12H121.138ZM144.738 12H149.738V7H144.738V12ZM144.738 63.7H139.738V68.7H144.738V63.7ZM176.338 63.7H181.338V58.7H176.338V63.7ZM176.338 82V87H181.338V82H176.338ZM126.138 82V12H116.138V82H126.138ZM121.138 17H144.738V7H121.138V17ZM139.738 12V63.7H149.738V12H139.738ZM144.738 68.7H176.338V58.7H144.738V68.7ZM171.338 63.7V82H181.338V63.7H171.338ZM176.338 77H121.138V87H176.338V77ZM174.733 82L170.151 79.9973L167.09 87H174.733V82ZM205.333 12V7H202.062L200.751 9.99727L205.333 12ZM228.533 12L233.114 9.99727L231.804 7H228.533V12ZM259.133 82V87H266.775L263.714 79.9973L259.133 82ZM234.733 82L230.066 83.7938L231.298 87H234.733V82ZM212.133 23.2V18.2H204.854L207.466 24.9938L212.133 23.2ZM221.333 23.2L226 24.9938L228.611 18.2H221.333V23.2ZM198.733 82V87H202.168L203.4 83.7938L198.733 82ZM192.933 69.8L188.218 68.1359L185.866 74.8H192.933V69.8ZM198.933 52.8V47.8H195.395L194.218 51.1359L198.933 52.8ZM231.133 52.8L235.848 51.1359L234.67 47.8H231.133V52.8ZM237.133 69.8V74.8H244.2L241.848 68.1359L237.133 69.8ZM179.314 84.0027L209.914 14.0027L200.751 9.99727L170.151 79.9973L179.314 84.0027ZM205.333 17H228.533V7H205.333V17ZM223.951 14.0027L254.551 84.0027L263.714 79.9973L233.114 9.99727L223.951 14.0027ZM259.133 77H234.733V87H259.133V77ZM239.4 80.2062L216.8 21.4062L207.466 24.9938L230.066 83.7938L239.4 80.2062ZM212.133 28.2H221.333V18.2H212.133V28.2ZM216.666 21.4062L194.066 80.2062L203.4 83.7938L226 24.9938L216.666 21.4062ZM198.733 77H174.733V87H198.733V77ZM197.648 71.4641L203.648 54.4641L194.218 51.1359L188.218 68.1359L197.648 71.4641ZM198.933 57.8H231.133V47.8H198.933V57.8ZM226.418 54.4641L232.418 71.4641L241.848 68.1359L235.848 51.1359L226.418 54.4641ZM237.133 64.8H192.933V74.8H237.133V64.8ZM261.399 82H256.399V87H261.399V82ZM261.399 12V7H256.399V12H261.399ZM280.799 12L284.636 8.79376L283.137 7H280.799V12ZM316.399 54.6V59.6H327.094L320.236 51.3938L316.399 54.6ZM307.399 54.6H302.399V59.6H307.399V54.6ZM307.399 12V7H302.399V12H307.399ZM330.399 12H335.399V7H330.399V12ZM330.399 82V87H335.399V82H330.399ZM310.999 82L307.163 85.2062L308.662 87H310.999V82ZM275.399 39.4V34.4H264.705L271.563 42.6062L275.399 39.4ZM284.399 39.4H289.399V34.4H284.399V39.4ZM284.399 82V87H289.399V82H284.399ZM266.399 82V12H256.399V82H266.399ZM261.399 17H280.799V7H261.399V17ZM276.963 15.2062L312.563 57.8062L320.236 51.3938L284.636 8.79376L276.963 15.2062ZM316.399 49.6H307.399V59.6H316.399V49.6ZM312.399 54.6V12H302.399V54.6H312.399ZM307.399 17H330.399V7H307.399V17ZM325.399 12V82H335.399V12H325.399ZM330.399 77H310.999V87H330.399V77ZM314.836 78.7938L279.236 36.1938L271.563 42.6062L307.163 85.2062L314.836 78.7938ZM275.399 44.4H284.399V34.4H275.399V44.4ZM279.399 39.4V82H289.399V39.4H279.399ZM284.399 77H261.399V87H284.399V77ZM355.47 82H350.47V87H355.47V82ZM355.47 30.3H360.47V25.3H355.47V30.3ZM334.97 30.3H329.97V35.3H334.97V30.3ZM334.97 12V7H329.97V12H334.97ZM399.57 12H404.57V7H399.57V12ZM399.57 30.3V35.3H404.57V30.3H399.57ZM379.07 30.3V25.3H374.07V30.3H379.07ZM379.07 82V87H384.07V82H379.07ZM360.47 82V30.3H350.47V82H360.47ZM355.47 25.3H334.97V35.3H355.47V25.3ZM339.97 30.3V12H329.97V30.3H339.97ZM334.97 17H399.57V7H334.97V17ZM394.57 12V30.3H404.57V12H394.57ZM399.57 25.3H379.07V35.3H399.57V25.3ZM374.07 30.3V82H384.07V30.3H374.07ZM379.07 77H355.47V87H379.07V77ZM16.2898 178H11.2898V183H16.2898V178ZM16.2898 108V103H11.2898V108H16.2898ZM71.3898 112.3L69.2147 116.802L69.2353 116.812L69.256 116.822L71.3898 112.3ZM85.2898 124.3L81.0805 126.998L81.0805 126.998L85.2898 124.3ZM85.2898 161.7L89.4992 164.398L89.507 164.386L89.5147 164.374L85.2898 161.7ZM71.3898 173.8L73.5237 178.322L73.5444 178.312L73.565 178.302L71.3898 173.8ZM39.8898 159.6H34.8898V164.6H39.8898V159.6ZM58.4898 157.7L56.2538 153.228L56.2297 153.24L56.2058 153.252L58.4898 157.7ZM64.3898 152.1L68.7383 154.568L68.7523 154.543L68.7661 154.518L64.3898 152.1ZM64.3898 133.9L68.7383 131.432L68.7383 131.432L64.3898 133.9ZM58.4898 128.3L56.2058 132.748L56.2297 132.76L56.2538 132.772L58.4898 128.3ZM39.8898 126.4V121.4H34.8898V126.4H39.8898ZM21.2898 178V108H11.2898V178H21.2898ZM16.2898 113H50.7898V103H16.2898V113ZM50.7898 113C57.9738 113 64.0732 114.318 69.2147 116.802L73.565 107.798C66.8398 104.549 59.2059 103 50.7898 103V113ZM69.256 116.822C74.3951 119.247 78.2859 122.639 81.0805 126.998L89.4992 121.602C85.6271 115.561 80.2512 110.953 73.5237 107.778L69.256 116.822ZM81.0805 126.998C83.8168 131.267 85.2898 136.495 85.2898 142.9H95.2898C95.2898 134.905 93.4296 127.733 89.4992 121.602L81.0805 126.998ZM85.2898 142.9C85.2898 149.38 83.8127 154.684 81.0649 159.026L89.5147 164.374C93.4336 158.182 95.2898 150.953 95.2898 142.9H85.2898ZM81.0805 159.002C78.2792 163.372 74.3743 166.805 69.2147 169.298L73.565 178.302C80.2721 175.062 85.6338 170.428 89.4992 164.398L81.0805 159.002ZM69.256 169.278C64.1042 171.709 57.9898 173 50.7898 173V183C59.1899 183 66.8088 181.491 73.5237 178.322L69.256 169.278ZM50.7898 173H16.2898V183H50.7898V173ZM39.8898 164.6H49.7898V154.6H39.8898V164.6ZM49.7898 164.6C53.7584 164.6 57.4714 163.844 60.7739 162.148L56.2058 153.252C54.575 154.09 52.4879 154.6 49.7898 154.6V164.6ZM60.7259 162.172C64.1479 160.461 66.8493 157.896 68.7383 154.568L60.0414 149.632C59.1304 151.237 57.8984 152.406 56.2538 153.228L60.7259 162.172ZM68.7661 154.518C70.6634 151.085 71.4898 147.143 71.4898 142.9H61.4898C61.4898 145.857 60.9163 148.048 60.0136 149.682L68.7661 154.518ZM71.4898 142.9C71.4898 138.711 70.6583 134.815 68.7383 131.432L60.0414 136.368C60.9214 137.919 61.4898 140.022 61.4898 142.9H71.4898ZM68.7383 131.432C66.8493 128.104 64.1479 125.539 60.7259 123.828L56.2538 132.772C57.8984 133.594 59.1304 134.763 60.0414 136.368L68.7383 131.432ZM60.7739 123.852C57.4714 122.156 53.7584 121.4 49.7898 121.4V131.4C52.4879 131.4 54.575 131.91 56.2058 132.748L60.7739 123.852ZM49.7898 121.4H39.8898V131.4H49.7898V121.4ZM34.8898 126.4V159.6H44.8898V126.4H34.8898ZM88.8305 178L84.2491 175.997L81.1879 183H88.8305V178ZM119.43 108V103H116.159L114.849 105.997L119.43 108ZM142.63 108L147.212 105.997L145.902 103H142.63V108ZM173.23 178V183H180.873L177.812 175.997L173.23 178ZM148.83 178L144.163 179.794L145.396 183H148.83V178ZM126.23 119.2V114.2H118.952L121.563 120.994L126.23 119.2ZM135.43 119.2L140.098 120.994L142.709 114.2H135.43V119.2ZM112.83 178V183H116.265L117.498 179.794L112.83 178ZM107.03 165.8L102.316 164.136L99.9635 170.8H107.03V165.8ZM113.03 148.8V143.8H109.493L108.316 147.136L113.03 148.8ZM145.23 148.8L149.945 147.136L148.768 143.8H145.23V148.8ZM151.23 165.8V170.8H158.297L155.945 164.136L151.23 165.8ZM93.4119 180.003L124.012 110.003L114.849 105.997L84.2491 175.997L93.4119 180.003ZM119.43 113H142.63V103H119.43V113ZM138.049 110.003L168.649 180.003L177.812 175.997L147.212 105.997L138.049 110.003ZM173.23 173H148.83V183H173.23V173ZM153.498 176.206L130.898 117.406L121.563 120.994L144.163 179.794L153.498 176.206ZM126.23 124.2H135.43V114.2H126.23V124.2ZM130.763 117.406L108.163 176.206L117.498 179.794L140.098 120.994L130.763 117.406ZM112.83 173H88.8305V183H112.83V173ZM111.745 167.464L117.745 150.464L108.316 147.136L102.316 164.136L111.745 167.464ZM113.03 153.8H145.23V143.8H113.03V153.8ZM140.516 150.464L146.516 167.464L155.945 164.136L149.945 147.136L140.516 150.464ZM151.23 160.8H107.03V170.8H151.23V160.8ZM175.497 178H170.497V183H175.497V178ZM175.497 108V103H170.497V108H175.497ZM230.597 112.3L228.422 116.802L228.442 116.812L228.463 116.822L230.597 112.3ZM244.497 124.3L240.287 126.998L240.287 126.998L244.497 124.3ZM244.497 161.7L248.706 164.398L248.714 164.386L248.722 164.374L244.497 161.7ZM230.597 173.8L232.731 178.322L232.751 178.312L232.772 178.302L230.597 173.8ZM199.097 159.6H194.097V164.6H199.097V159.6ZM217.697 157.7L215.461 153.228L215.437 153.24L215.413 153.252L217.697 157.7ZM223.597 152.1L227.945 154.568L227.959 154.543L227.973 154.518L223.597 152.1ZM223.597 133.9L227.945 131.432L227.945 131.432L223.597 133.9ZM217.697 128.3L215.413 132.748L215.437 132.76L215.461 132.772L217.697 128.3ZM199.097 126.4V121.4H194.097V126.4H199.097ZM180.497 178V108H170.497V178H180.497ZM175.497 113H209.997V103H175.497V113ZM209.997 113C217.181 113 223.28 114.318 228.422 116.802L232.772 107.798C226.047 104.549 218.413 103 209.997 103V113ZM228.463 116.822C233.602 119.247 237.493 122.639 240.287 126.998L248.706 121.602C244.834 115.561 239.458 110.953 232.731 107.778L228.463 116.822ZM240.287 126.998C243.024 131.267 244.497 136.495 244.497 142.9H254.497C254.497 134.905 252.637 127.733 248.706 121.602L240.287 126.998ZM244.497 142.9C244.497 149.38 243.02 154.684 240.272 159.026L248.722 164.374C252.641 158.182 254.497 150.953 254.497 142.9H244.497ZM240.287 159.002C237.486 163.372 233.581 166.805 228.422 169.298L232.772 178.302C239.479 175.062 244.841 170.428 248.706 164.398L240.287 159.002ZM228.463 169.278C223.311 171.709 217.197 173 209.997 173V183C218.397 183 226.016 181.491 232.731 178.322L228.463 169.278ZM209.997 173H175.497V183H209.997V173ZM199.097 164.6H208.997V154.6H199.097V164.6ZM208.997 164.6C212.965 164.6 216.678 163.844 219.981 162.148L215.413 153.252C213.782 154.09 211.695 154.6 208.997 154.6V164.6ZM219.933 162.172C223.355 160.461 226.056 157.896 227.945 154.568L219.248 149.632C218.337 151.237 217.105 152.406 215.461 153.228L219.933 162.172ZM227.973 154.518C229.87 151.085 230.697 147.143 230.697 142.9H220.697C220.697 145.857 220.123 148.048 219.221 149.682L227.973 154.518ZM230.697 142.9C230.697 138.711 229.865 134.815 227.945 131.432L219.248 136.368C220.128 137.919 220.697 140.022 220.697 142.9H230.697ZM227.945 131.432C226.056 128.104 223.355 125.539 219.933 123.828L215.461 132.772C217.105 133.594 218.337 134.763 219.248 136.368L227.945 131.432ZM219.981 123.852C216.678 122.156 212.965 121.4 208.997 121.4V131.4C211.695 131.4 213.782 131.91 215.413 132.748L219.981 123.852ZM208.997 121.4H199.097V131.4H208.997V121.4ZM194.097 126.4V159.6H204.097V126.4H194.097ZM256.614 178H251.614V183H256.614V178ZM256.614 108V103H251.614V108H256.614ZM311.714 112.3L309.539 116.802L309.56 116.812L309.58 116.822L311.714 112.3ZM325.614 124.3L321.405 126.998L321.405 126.998L325.614 124.3ZM325.614 161.7L329.823 164.398L329.831 164.386L329.839 164.374L325.614 161.7ZM311.714 173.8L313.848 178.322L313.869 178.312L313.889 178.302L311.714 173.8ZM280.214 159.6H275.214V164.6H280.214V159.6ZM298.814 157.7L296.578 153.228L296.554 153.24L296.53 153.252L298.814 157.7ZM304.714 152.1L309.062 154.568L309.077 154.543L309.09 154.518L304.714 152.1ZM304.714 133.9L309.062 131.432L309.062 131.432L304.714 133.9ZM298.814 128.3L296.53 132.748L296.554 132.76L296.578 132.772L298.814 128.3ZM280.214 126.4V121.4H275.214V126.4H280.214ZM261.614 178V108H251.614V178H261.614ZM256.614 113H291.114V103H256.614V113ZM291.114 113C298.298 113 304.397 114.318 309.539 116.802L313.889 107.798C307.164 104.549 299.53 103 291.114 103V113ZM309.58 116.822C314.719 119.247 318.61 122.639 321.405 126.998L329.823 121.602C325.951 115.561 320.575 110.953 313.848 107.778L309.58 116.822ZM321.405 126.998C324.141 131.267 325.614 136.495 325.614 142.9H335.614C335.614 134.905 333.754 127.733 329.823 121.602L321.405 126.998ZM325.614 142.9C325.614 149.38 324.137 154.684 321.389 159.026L329.839 164.374C333.758 158.182 335.614 150.953 335.614 142.9H325.614ZM321.405 159.002C318.603 163.372 314.698 166.805 309.539 169.298L313.889 178.302C320.596 175.062 325.958 170.428 329.823 164.398L321.405 159.002ZM309.58 169.278C304.428 171.709 298.314 173 291.114 173V183C299.514 183 307.133 181.491 313.848 178.322L309.58 169.278ZM291.114 173H256.614V183H291.114V173ZM280.214 164.6H290.114V154.6H280.214V164.6ZM290.114 164.6C294.083 164.6 297.796 163.844 301.098 162.148L296.53 153.252C294.899 154.09 292.812 154.6 290.114 154.6V164.6ZM301.05 162.172C304.472 160.461 307.174 157.896 309.062 154.568L300.366 149.632C299.455 151.237 298.223 152.406 296.578 153.228L301.05 162.172ZM309.09 154.518C310.988 151.085 311.814 147.143 311.814 142.9H301.814C301.814 145.857 301.24 148.048 300.338 149.682L309.09 154.518ZM311.814 142.9C311.814 138.711 310.982 134.815 309.062 131.432L300.366 136.368C301.246 137.919 301.814 140.022 301.814 142.9H311.814ZM309.062 131.432C307.174 128.104 304.472 125.539 301.05 123.828L296.578 132.772C298.223 133.594 299.455 134.763 300.366 136.368L309.062 131.432ZM301.098 123.852C297.796 122.156 294.083 121.4 290.114 121.4V131.4C292.812 131.4 294.899 131.91 296.53 132.748L301.098 123.852ZM290.114 121.4H280.214V131.4H290.114V121.4ZM275.214 126.4V159.6H285.214V126.4H275.214ZM352.704 178H347.704V183H352.704V178ZM352.704 147.3L357.373 145.512L347.704 147.3H352.704ZM358.104 161.4L353.808 163.958L362.773 159.612L358.104 161.4ZM326.304 108V103H317.507L322.008 110.558L326.304 108ZM351.204 108L355.512 105.462L354.062 103H351.204V108ZM372.704 144.5V149.5H381.452L377.012 141.962L372.704 144.5ZM358.204 144.5L353.906 141.945L349.414 149.5H358.204V144.5ZM379.904 108V103H377.06L375.606 105.445L379.904 108ZM402.704 108L407.007 110.546L411.473 103H402.704V108ZM371.104 161.4L366.413 159.67L375.407 163.946L371.104 161.4ZM376.304 147.3H381.304L371.613 145.57L376.304 147.3ZM376.304 178V183H381.304V178H376.304ZM357.704 178V147.3H347.704V178H357.704ZM348.035 149.088L353.435 163.188L362.773 159.612L357.373 145.512L348.035 149.088ZM362.4 158.842L330.6 105.442L322.008 110.558L353.808 163.958L362.4 158.842ZM326.304 113H351.204V103H326.304V113ZM346.896 110.538L368.396 147.038L377.012 141.962L355.512 105.462L346.896 110.538ZM372.704 139.5H358.204V149.5H372.704V139.5ZM362.502 147.055L384.202 110.555L375.606 105.445L353.906 141.945L362.502 147.055ZM379.904 113H402.704V103H379.904V113ZM398.401 105.454L366.801 158.854L375.407 163.946L407.007 110.546L398.401 105.454ZM375.795 163.13L380.995 149.03L371.613 145.57L366.413 159.67L375.795 163.13ZM371.304 147.3V178H381.304V147.3H371.304ZM376.304 173H352.704V183H376.304V173Z" fill="#4A8164" mask="url(#path-1-outside-1_2178_1532)"/>
<path d="M39.2977 75V5H72.9977C79.531 5 85.1643 6.06666 89.8977 8.2C94.6977 10.3333 98.3977 13.4 100.998 17.4C103.598 21.3333 104.898 26 104.898 31.4C104.898 36.8 103.598 41.4667 100.998 45.4C98.3977 49.3333 94.6977 52.4 89.8977 54.6C85.1643 56.7333 79.531 57.8 72.9977 57.8H52.3977L62.8977 47.7V75H39.2977ZM62.8977 50.3L52.3977 39.6H71.4977C74.7643 39.6 77.1643 38.8667 78.6977 37.4C80.2977 35.9333 81.0977 33.9333 81.0977 31.4C81.0977 28.8667 80.2977 26.8667 78.6977 25.4C77.1643 23.9333 74.7643 23.2 71.4977 23.2H52.3977L62.8977 12.5V50.3ZM111.138 75V5H134.738V56.7H166.338V75H111.138ZM164.733 75L195.333 5H218.533L249.133 75H224.733L202.133 16.2H211.333L188.733 75H164.733ZM182.933 62.8L188.933 45.8H221.133L227.133 62.8H182.933ZM251.399 75V5H270.799L306.399 47.6H297.399V5H320.399V75H300.999L265.399 32.4H274.399V75H251.399ZM345.47 75V23.3H324.97V5H389.57V23.3H369.07V75H345.47ZM6.28984 171V101H40.7898C48.5898 101 55.4565 102.433 61.3898 105.3C67.3232 108.1 71.9565 112.1 75.2898 117.3C78.6232 122.5 80.2898 128.7 80.2898 135.9C80.2898 143.167 78.6232 149.433 75.2898 154.7C71.9565 159.9 67.3232 163.933 61.3898 166.8C55.4565 169.6 48.5898 171 40.7898 171H6.28984ZM29.8898 152.6H39.7898C43.1232 152.6 46.0232 151.967 48.4898 150.7C51.0232 149.433 52.9898 147.567 54.3898 145.1C55.7898 142.567 56.4898 139.5 56.4898 135.9C56.4898 132.367 55.7898 129.367 54.3898 126.9C52.9898 124.433 51.0232 122.567 48.4898 121.3C46.0232 120.033 43.1232 119.4 39.7898 119.4H29.8898V152.6ZM78.8305 171L109.43 101H132.63L163.23 171H138.83L116.23 112.2H125.43L102.83 171H78.8305ZM97.0305 158.8L103.03 141.8H135.23L141.23 158.8H97.0305ZM165.497 171V101H199.997C207.797 101 214.664 102.433 220.597 105.3C226.53 108.1 231.164 112.1 234.497 117.3C237.83 122.5 239.497 128.7 239.497 135.9C239.497 143.167 237.83 149.433 234.497 154.7C231.164 159.9 226.53 163.933 220.597 166.8C214.664 169.6 207.797 171 199.997 171H165.497ZM189.097 152.6H198.997C202.33 152.6 205.23 151.967 207.697 150.7C210.23 149.433 212.197 147.567 213.597 145.1C214.997 142.567 215.697 139.5 215.697 135.9C215.697 132.367 214.997 129.367 213.597 126.9C212.197 124.433 210.23 122.567 207.697 121.3C205.23 120.033 202.33 119.4 198.997 119.4H189.097V152.6ZM246.614 171V101H281.114C288.914 101 295.781 102.433 301.714 105.3C307.647 108.1 312.281 112.1 315.614 117.3C318.947 122.5 320.614 128.7 320.614 135.9C320.614 143.167 318.947 149.433 315.614 154.7C312.281 159.9 307.647 163.933 301.714 166.8C295.781 169.6 288.914 171 281.114 171H246.614ZM270.214 152.6H280.114C283.447 152.6 286.347 151.967 288.814 150.7C291.347 149.433 293.314 147.567 294.714 145.1C296.114 142.567 296.814 139.5 296.814 135.9C296.814 132.367 296.114 129.367 294.714 126.9C293.314 124.433 291.347 122.567 288.814 121.3C286.347 120.033 283.447 119.4 280.114 119.4H270.214V152.6ZM342.704 171V140.3L348.104 154.4L316.304 101H341.204L362.704 137.5H348.204L369.904 101H392.704L361.104 154.4L366.304 140.3V171H342.704Z" fill="#223B2E"/>
</svg>
