<svg width="779" height="198" viewBox="0 0 779 198" fill="none" xmlns="http://www.w3.org/2000/svg">
<mask id="path-1-outside-1_2186_238" maskUnits="userSpaceOnUse" x="10" y="9" width="768" height="180" fill="black">
<rect fill="white" x="10" y="9" width="768" height="180"/>
<path d="M15.7 86V16H53.1C62.7667 16 69.9 17.7333 74.5 21.2C79.1 24.6 81.4 28.9667 81.4 34.3C81.4 37.8333 80.4 41 78.4 43.8C76.4667 46.5333 73.6333 48.7 69.9 50.3C66.1667 51.9 61.5667 52.7 56.1 52.7L58.1 47.3C63.5667 47.3 68.2667 48.0667 72.2 49.6C76.2 51.1333 79.2667 53.3667 81.4 56.3C83.6 59.1667 84.7 62.6333 84.7 66.7C84.7 72.7667 82.1667 77.5 77.1 80.9C72.1 84.3 64.7667 86 55.1 86H15.7ZM38.9 69.5H53.1C55.7 69.5 57.6333 69.0333 58.9 68.1C60.2333 67.1667 60.9 65.8 60.9 64C60.9 62.2 60.2333 60.8333 58.9 59.9C57.6333 58.9667 55.7 58.5 53.1 58.5H37.3V42.9H49.9C52.5667 42.9 54.5 42.4667 55.7 41.6C56.9667 40.6667 57.6 39.3667 57.6 37.7C57.6 35.9667 56.9667 34.6667 55.7 33.8C54.5 32.9333 52.5667 32.5 49.9 32.5H38.9V69.5ZM91.5438 86V16H115.144V67.7H146.744V86H91.5438ZM187.486 87.6C181.819 87.6 176.553 86.7 171.686 84.9C166.886 83.1 162.719 80.5667 159.186 77.3C155.653 73.9667 152.886 70.0667 150.886 65.6C148.953 61.1333 147.986 56.2667 147.986 51C147.986 45.6667 148.953 40.8 150.886 36.4C152.886 31.9333 155.653 28.0667 159.186 24.8C162.719 21.4667 166.886 18.9 171.686 17.1C176.553 15.3 181.819 14.4 187.486 14.4C193.219 14.4 198.486 15.3 203.286 17.1C208.086 18.9 212.253 21.4667 215.786 24.8C219.319 28.0667 222.053 31.9333 223.986 36.4C225.986 40.8 226.986 45.6667 226.986 51C226.986 56.2667 225.986 61.1333 223.986 65.6C222.053 70.0667 219.319 73.9667 215.786 77.3C212.253 80.5667 208.086 83.1 203.286 84.9C198.486 86.7 193.219 87.6 187.486 87.6ZM187.486 68.5C189.686 68.5 191.719 68.1 193.586 67.3C195.519 66.5 197.186 65.3667 198.586 63.9C200.053 62.3667 201.186 60.5333 201.986 58.4C202.786 56.2 203.186 53.7333 203.186 51C203.186 48.2667 202.786 45.8333 201.986 43.7C201.186 41.5 200.053 39.6667 198.586 38.2C197.186 36.6667 195.519 35.5 193.586 34.7C191.719 33.9 189.686 33.5 187.486 33.5C185.286 33.5 183.219 33.9 181.286 34.7C179.419 35.5 177.753 36.6667 176.286 38.2C174.886 39.6667 173.786 41.5 172.986 43.7C172.186 45.8333 171.786 48.2667 171.786 51C171.786 53.7333 172.186 56.2 172.986 58.4C173.786 60.5333 174.886 62.3667 176.286 63.9C177.753 65.3667 179.419 66.5 181.286 67.3C183.219 68.1 185.286 68.5 187.486 68.5ZM270.252 87.6C264.652 87.6 259.452 86.7333 254.652 85C249.918 83.2 245.785 80.6667 242.252 77.4C238.785 74.1333 236.085 70.2667 234.152 65.8C232.218 61.3333 231.252 56.4 231.252 51C231.252 45.6 232.218 40.6667 234.152 36.2C236.085 31.7333 238.785 27.8667 242.252 24.6C245.785 21.3333 249.918 18.8333 254.652 17.1C259.452 15.3 264.652 14.4 270.252 14.4C277.118 14.4 283.185 15.6 288.452 18C293.785 20.4 298.185 23.8667 301.652 28.4L286.752 41.7C284.685 39.1 282.385 37.1 279.852 35.7C277.385 34.2333 274.585 33.5 271.452 33.5C268.985 33.5 266.752 33.9 264.752 34.7C262.752 35.5 261.018 36.6667 259.552 38.2C258.152 39.7333 257.052 41.6 256.252 43.8C255.452 45.9333 255.052 48.3333 255.052 51C255.052 53.6667 255.452 56.1 256.252 58.3C257.052 60.4333 258.152 62.2667 259.552 63.8C261.018 65.3333 262.752 66.5 264.752 67.3C266.752 68.1 268.985 68.5 271.452 68.5C274.585 68.5 277.385 67.8 279.852 66.4C282.385 64.9333 284.685 62.9 286.752 60.3L301.652 73.6C298.185 78.0667 293.785 81.5333 288.452 84C283.185 86.4 277.118 87.6 270.252 87.6ZM352.366 16H375.966V86H352.366V16ZM330.566 86H306.966V16H330.566V86ZM353.966 60.2H328.966V40.8H353.966V60.2ZM61.1 112H84.7V182H61.1V112ZM39.3 182H15.7V112H39.3V182ZM62.7 156.2H37.7V136.8H62.7V156.2ZM86.9711 182L117.571 112H140.771L171.371 182H146.971L124.371 123.2H133.571L110.971 182H86.9711ZM105.171 169.8L111.171 152.8H143.371L149.371 169.8H105.171ZM173.638 182V112H193.038L228.638 154.6H219.638V112H242.638V182H223.238L187.638 139.4H196.638V182H173.638ZM252.509 182V112H287.009C294.809 112 301.675 113.433 307.609 116.3C313.542 119.1 318.175 123.1 321.509 128.3C324.842 133.5 326.509 139.7 326.509 146.9C326.509 154.167 324.842 160.433 321.509 165.7C318.175 170.9 313.542 174.933 307.609 177.8C301.675 180.6 294.809 182 287.009 182H252.509ZM276.109 163.6H286.009C289.342 163.6 292.242 162.967 294.709 161.7C297.242 160.433 299.209 158.567 300.609 156.1C302.009 153.567 302.709 150.5 302.709 146.9C302.709 143.367 302.009 140.367 300.609 137.9C299.209 135.433 297.242 133.567 294.709 132.3C292.242 131.033 289.342 130.4 286.009 130.4H276.109V163.6ZM333.626 182V112H357.226V182H333.626ZM384.787 182L362.387 112H386.687L404.787 171.1H392.587L411.787 112H433.487L451.387 171.1H439.687L458.587 112H480.987L458.587 182H433.287L418.687 133.6H425.487L410.087 182H384.787ZM520.451 183.6C514.784 183.6 509.517 182.7 504.651 180.9C499.851 179.1 495.684 176.567 492.151 173.3C488.617 169.967 485.851 166.067 483.851 161.6C481.917 157.133 480.951 152.267 480.951 147C480.951 141.667 481.917 136.8 483.851 132.4C485.851 127.933 488.617 124.067 492.151 120.8C495.684 117.467 499.851 114.9 504.651 113.1C509.517 111.3 514.784 110.4 520.451 110.4C526.184 110.4 531.451 111.3 536.251 113.1C541.051 114.9 545.217 117.467 548.751 120.8C552.284 124.067 555.017 127.933 556.951 132.4C558.951 136.8 559.951 141.667 559.951 147C559.951 152.267 558.951 157.133 556.951 161.6C555.017 166.067 552.284 169.967 548.751 173.3C545.217 176.567 541.051 179.1 536.251 180.9C531.451 182.7 526.184 183.6 520.451 183.6ZM520.451 164.5C522.651 164.5 524.684 164.1 526.551 163.3C528.484 162.5 530.151 161.367 531.551 159.9C533.017 158.367 534.151 156.533 534.951 154.4C535.751 152.2 536.151 149.733 536.151 147C536.151 144.267 535.751 141.833 534.951 139.7C534.151 137.5 533.017 135.667 531.551 134.2C530.151 132.667 528.484 131.5 526.551 130.7C524.684 129.9 522.651 129.5 520.451 129.5C518.251 129.5 516.184 129.9 514.251 130.7C512.384 131.5 510.717 132.667 509.251 134.2C507.851 135.667 506.751 137.5 505.951 139.7C505.151 141.833 504.751 144.267 504.751 147C504.751 149.733 505.151 152.2 505.951 154.4C506.751 156.533 507.851 158.367 509.251 159.9C510.717 161.367 512.384 162.5 514.251 163.3C516.184 164.1 518.251 164.5 520.451 164.5ZM567.016 182V112H600.716C607.25 112 612.883 113.067 617.616 115.2C622.416 117.333 626.116 120.4 628.716 124.4C631.316 128.333 632.616 133 632.616 138.4C632.616 143.8 631.316 148.467 628.716 152.4C626.116 156.267 622.416 159.233 617.616 161.3C612.883 163.367 607.25 164.4 600.716 164.4H580.116L590.616 154.7V182H567.016ZM608.916 182L591.716 156.5H616.716L634.116 182H608.916ZM590.616 157.3L580.116 146.6H599.216C602.483 146.6 604.883 145.867 606.416 144.4C608.016 142.933 608.816 140.933 608.816 138.4C608.816 135.867 608.016 133.867 606.416 132.4C604.883 130.933 602.483 130.2 599.216 130.2H580.116L590.616 119.5V157.3ZM661.128 167L659.828 141.1L686.228 112H711.928L682.328 144.6L669.228 158L661.128 167ZM640.028 182V112H663.228V182H640.028ZM686.028 182L665.428 154.8L680.728 138.6L713.328 182H686.028ZM739.628 183.6C733.761 183.6 728.095 182.933 722.628 181.6C717.161 180.267 712.661 178.533 709.128 176.4L716.728 159.2C720.061 161.133 723.761 162.7 727.828 163.9C731.961 165.033 735.961 165.6 739.828 165.6C742.095 165.6 743.861 165.467 745.128 165.2C746.461 164.867 747.428 164.433 748.028 163.9C748.628 163.3 748.928 162.6 748.928 161.8C748.928 160.533 748.228 159.533 746.828 158.8C745.428 158.067 743.561 157.467 741.228 157C738.961 156.467 736.461 155.933 733.728 155.4C730.995 154.8 728.228 154.033 725.428 153.1C722.695 152.167 720.161 150.933 717.828 149.4C715.561 147.867 713.728 145.867 712.328 143.4C710.928 140.867 710.228 137.733 710.228 134C710.228 129.667 711.428 125.733 713.828 122.2C716.295 118.6 719.928 115.733 724.728 113.6C729.595 111.467 735.628 110.4 742.828 110.4C747.561 110.4 752.228 110.9 756.828 111.9C761.428 112.9 765.561 114.433 769.228 116.5L762.128 133.6C758.661 131.867 755.295 130.567 752.028 129.7C748.828 128.833 745.695 128.4 742.628 128.4C740.361 128.4 738.561 128.6 737.228 129C735.895 129.4 734.928 129.933 734.328 130.6C733.795 131.267 733.528 132 733.528 132.8C733.528 134 734.228 134.967 735.628 135.7C737.028 136.367 738.861 136.933 741.128 137.4C743.461 137.867 745.995 138.367 748.728 138.9C751.528 139.433 754.295 140.167 757.028 141.1C759.761 142.033 762.261 143.267 764.528 144.8C766.861 146.333 768.728 148.333 770.128 150.8C771.528 153.267 772.228 156.333 772.228 160C772.228 164.267 770.995 168.2 768.528 171.8C766.128 175.333 762.528 178.2 757.728 180.4C752.928 182.533 746.895 183.6 739.628 183.6Z"/>
</mask>
<path d="M15.7 86H10.7V91H15.7V86ZM15.7 16V11H10.7V16H15.7ZM74.5 21.2L71.4908 25.193L71.5093 25.207L71.528 25.2209L74.5 21.2ZM78.4 43.8L74.3313 40.8938L74.3246 40.9032L74.3179 40.9127L78.4 43.8ZM69.9 50.3L67.9304 45.7043L67.9304 45.7043L69.9 50.3ZM56.1 52.7L51.4113 50.9634L48.9162 57.7H56.1V52.7ZM58.1 47.3V42.3H54.6199L53.4113 45.5634L58.1 47.3ZM72.2 49.6L70.384 54.2585L70.3971 54.2637L70.4103 54.2687L72.2 49.6ZM81.4 56.3L77.3563 59.2409L77.3942 59.293L77.4335 59.3441L81.4 56.3ZM77.1 80.9L74.3139 76.7482L74.3012 76.7567L74.2884 76.7654L77.1 80.9ZM38.9 69.5H33.9V74.5H38.9V69.5ZM58.9 68.1L56.0327 64.0038L55.9829 64.0387L55.934 64.0747L58.9 68.1ZM58.9 59.9L55.934 63.9253L55.9829 63.9613L56.0327 63.9962L58.9 59.9ZM37.3 58.5H32.3V63.5H37.3V58.5ZM37.3 42.9V37.9H32.3V42.9H37.3ZM55.7 41.6L58.6275 45.6534L58.6468 45.6394L58.666 45.6253L55.7 41.6ZM55.7 33.8L52.7725 37.8534L52.8241 37.8906L52.8766 37.9265L55.7 33.8ZM38.9 32.5V27.5H33.9V32.5H38.9ZM15.7 86H20.7V16H15.7H10.7V86H15.7ZM15.7 16V21H53.1V16V11H15.7V16ZM53.1 16V21C62.3495 21 68.172 22.692 71.4908 25.193L74.5 21.2L77.5093 17.207C71.628 12.7747 63.1839 11 53.1 11V16ZM74.5 21.2L71.528 25.2209C74.9604 27.7578 76.4 30.6822 76.4 34.3H81.4H86.4C86.4 27.2511 83.2396 21.4422 77.472 17.1791L74.5 21.2ZM81.4 34.3H76.4C76.4 36.8211 75.7085 38.9658 74.3313 40.8938L78.4 43.8L82.4687 46.7062C85.0915 43.0342 86.4 38.8455 86.4 34.3H81.4ZM78.4 43.8L74.3179 40.9127C73.0211 42.7461 70.9968 44.3901 67.9304 45.7043L69.9 50.3L71.8696 54.8957C76.2699 53.0099 79.9123 50.3205 82.4821 46.6873L78.4 43.8ZM69.9 50.3L67.9304 45.7043C64.9947 46.9624 61.1106 47.7 56.1 47.7V52.7V57.7C62.0228 57.7 67.3386 56.8376 71.8696 54.8957L69.9 50.3ZM56.1 52.7L60.7887 54.4366L62.7887 49.0366L58.1 47.3L53.4113 45.5634L51.4113 50.9634L56.1 52.7ZM58.1 47.3V52.3C63.1198 52.3 67.1724 53.0066 70.384 54.2585L72.2 49.6L74.016 44.9415C69.361 43.1268 64.0136 42.3 58.1 42.3V47.3ZM72.2 49.6L70.4103 54.2687C73.674 55.5198 75.8879 57.2217 77.3563 59.2409L81.4 56.3L85.4437 53.3591C82.6455 49.5116 78.726 46.7469 73.9897 44.9313L72.2 49.6ZM81.4 56.3L77.4335 59.3441C78.88 61.2289 79.7 63.589 79.7 66.7H84.7H89.7C89.7 61.6777 88.32 57.1044 85.3666 53.2559L81.4 56.3ZM84.7 66.7H79.7C79.7 71.0887 78.0065 74.2702 74.3139 76.7482L77.1 80.9L79.8861 85.0518C86.3268 80.7298 89.7 74.4447 89.7 66.7H84.7ZM77.1 80.9L74.2884 76.7654C70.4787 79.356 64.3141 81 55.1 81V86V91C65.2193 91 73.7213 89.244 79.9116 85.0346L77.1 80.9ZM55.1 86V81H15.7V86V91H55.1V86ZM38.9 69.5V74.5H53.1V69.5V64.5H38.9V69.5ZM53.1 69.5V74.5C56.1325 74.5 59.3407 73.986 61.866 72.1253L58.9 68.1L55.934 64.0747C55.958 64.057 55.8108 64.1728 55.3268 64.2896C54.8408 64.4069 54.1182 64.5 53.1 64.5V69.5ZM58.9 68.1L61.7673 72.1962C64.5945 70.2171 65.9 67.2298 65.9 64H60.9H55.9C55.9 64.142 55.8868 64.217 55.8823 64.2387C55.8782 64.2579 55.8814 64.2335 55.9062 64.1829C55.9179 64.1588 55.9326 64.1328 55.95 64.1064C55.9674 64.0801 55.9853 64.0571 56.002 64.0379C56.037 63.9976 56.0546 63.9885 56.0327 64.0038L58.9 68.1ZM60.9 64H65.9C65.9 60.7702 64.5945 57.7829 61.7673 55.8038L58.9 59.9L56.0327 63.9962C56.0546 64.0115 56.037 64.0024 56.002 63.9621C55.9853 63.9429 55.9674 63.9199 55.95 63.8936C55.9326 63.8672 55.9179 63.8412 55.9062 63.8171C55.8814 63.7665 55.8782 63.7421 55.8823 63.7613C55.8868 63.783 55.9 63.858 55.9 64H60.9ZM58.9 59.9L61.866 55.8747C59.3407 54.014 56.1325 53.5 53.1 53.5V58.5V63.5C54.1182 63.5 54.8408 63.5931 55.3268 63.7104C55.8108 63.8272 55.958 63.943 55.934 63.9253L58.9 59.9ZM53.1 58.5V53.5H37.3V58.5V63.5H53.1V58.5ZM37.3 58.5H42.3V42.9H37.3H32.3V58.5H37.3ZM37.3 42.9V47.9H49.9V42.9V37.9H37.3V42.9ZM49.9 42.9V47.9C52.8802 47.9 56.1268 47.4594 58.6275 45.6534L55.7 41.6L52.7725 37.5466C52.8737 37.4736 52.7738 37.5801 52.2564 37.696C51.7477 37.8101 50.983 37.9 49.9 37.9V42.9ZM55.7 41.6L58.666 45.6253C61.2979 43.686 62.6 40.8452 62.6 37.7H57.6H52.6C52.6 37.7999 52.5906 37.8415 52.5914 37.8374C52.5928 37.831 52.6023 37.7921 52.6301 37.7351C52.6582 37.6775 52.6922 37.6275 52.723 37.5914C52.7525 37.5566 52.7631 37.5533 52.734 37.5747L55.7 41.6ZM57.6 37.7H62.6C62.6 34.565 61.3454 31.6043 58.5234 29.6735L55.7 33.8L52.8766 37.9265C52.8702 37.9222 52.8278 37.8915 52.772 37.8279C52.715 37.7629 52.6659 37.6884 52.6301 37.6148C52.5548 37.4603 52.6 37.4432 52.6 37.7H57.6ZM55.7 33.8L58.6275 29.7466C56.1268 27.9406 52.8802 27.5 49.9 27.5V32.5V37.5C50.983 37.5 51.7477 37.5899 52.2564 37.7039C52.7738 37.8199 52.8737 37.9264 52.7725 37.8534L55.7 33.8ZM49.9 32.5V27.5H38.9V32.5V37.5H49.9V32.5ZM38.9 32.5H33.9V69.5H38.9H43.9V32.5H38.9ZM91.5438 86H86.5438V91H91.5438V86ZM91.5438 16V11H86.5438V16H91.5438ZM115.144 16H120.144V11H115.144V16ZM115.144 67.7H110.144V72.7H115.144V67.7ZM146.744 67.7H151.744V62.7H146.744V67.7ZM146.744 86V91H151.744V86H146.744ZM91.5438 86H96.5438V16H91.5438H86.5438V86H91.5438ZM91.5438 16V21H115.144V16V11H91.5438V16ZM115.144 16H110.144V67.7H115.144H120.144V16H115.144ZM115.144 67.7V72.7H146.744V67.7V62.7H115.144V67.7ZM146.744 67.7H141.744V86H146.744H151.744V67.7H146.744ZM146.744 86V81H91.5438V86V91H146.744V86ZM171.686 84.9L169.93 89.5816L169.941 89.5856L169.951 89.5895L171.686 84.9ZM159.186 77.3L155.755 80.937L155.773 80.9543L155.792 80.9714L159.186 77.3ZM150.886 65.6L146.297 67.5861L146.31 67.6148L146.323 67.6433L150.886 65.6ZM150.886 36.4L146.323 34.3567L146.315 34.3726L146.308 34.3886L150.886 36.4ZM159.186 24.8L162.58 28.4714L162.599 28.4543L162.617 28.437L159.186 24.8ZM171.686 17.1L169.951 12.4105L169.941 12.4144L169.93 12.4184L171.686 17.1ZM203.286 17.1L201.53 21.7816L201.53 21.7816L203.286 17.1ZM215.786 24.8L212.355 28.437L212.373 28.4543L212.392 28.4714L215.786 24.8ZM223.986 36.4L219.397 38.3861L219.415 38.4277L219.434 38.469L223.986 36.4ZM223.986 65.6L219.423 63.5567L219.41 63.5852L219.397 63.6139L223.986 65.6ZM215.786 77.3L219.18 80.9714L219.199 80.9543L219.217 80.937L215.786 77.3ZM203.286 84.9L201.53 80.2184L201.53 80.2184L203.286 84.9ZM193.586 67.3L191.674 62.6799L191.645 62.6919L191.616 62.7043L193.586 67.3ZM198.586 63.9L194.973 60.4439L194.969 60.4476L198.586 63.9ZM201.986 58.4L206.668 60.1556L206.676 60.1322L206.685 60.1087L201.986 58.4ZM201.986 43.7L197.287 45.4087L197.296 45.4322L197.304 45.4556L201.986 43.7ZM198.586 38.2L194.894 41.5713L194.97 41.6552L195.05 41.7355L198.586 38.2ZM193.586 34.7L191.616 39.2957L191.645 39.3081L191.674 39.3201L193.586 34.7ZM181.286 34.7L179.374 30.0799L179.345 30.0919L179.316 30.1043L181.286 34.7ZM176.286 38.2L172.673 34.7439L172.669 34.7476L176.286 38.2ZM172.986 43.7L177.668 45.4556L177.676 45.4322L177.685 45.4087L172.986 43.7ZM172.986 58.4L168.287 60.1087L168.296 60.1322L168.304 60.1556L172.986 58.4ZM176.286 63.9L172.594 67.2713L172.67 67.3552L172.75 67.4355L176.286 63.9ZM181.286 67.3L179.316 71.8957L179.345 71.9081L179.374 71.9201L181.286 67.3ZM187.486 87.6V82.6C182.357 82.6 177.683 81.787 173.42 80.2105L171.686 84.9L169.951 89.5895C175.422 91.613 181.282 92.6 187.486 92.6V87.6ZM171.686 84.9L173.442 80.2184C169.208 78.6308 165.607 76.4274 162.58 73.6286L159.186 77.3L155.792 80.9714C159.831 84.7059 164.564 87.5692 169.93 89.5816L171.686 84.9ZM159.186 77.3L162.617 73.663C159.566 70.7847 157.183 67.4274 155.449 63.5567L150.886 65.6L146.323 67.6433C148.589 72.7059 151.739 77.1486 155.755 80.937L159.186 77.3ZM150.886 65.6L155.475 63.6139C153.834 59.8242 152.986 55.6402 152.986 51H147.986H142.986C142.986 56.8932 144.071 62.4424 146.297 67.5861L150.886 65.6ZM147.986 51H152.986C152.986 46.2828 153.838 42.1111 155.464 38.4114L150.886 36.4L146.308 34.3886C144.067 39.4889 142.986 45.0505 142.986 51H147.986ZM150.886 36.4L155.449 38.4433C157.178 34.5819 159.551 31.2719 162.58 28.4714L159.186 24.8L155.792 21.1286C151.754 24.8615 148.594 29.2848 146.323 34.3567L150.886 36.4ZM159.186 24.8L162.617 28.437C165.64 25.5847 169.229 23.3614 173.442 21.7816L171.686 17.1L169.93 12.4184C164.543 14.4386 159.798 17.3486 155.755 21.163L159.186 24.8ZM171.686 17.1L173.42 21.7895C177.683 20.213 182.357 19.4 187.486 19.4V14.4V9.4C181.282 9.4 175.422 10.387 169.951 12.4105L171.686 17.1ZM187.486 14.4V19.4C192.69 19.4 197.354 20.2156 201.53 21.7816L203.286 17.1L205.042 12.4184C199.618 10.3844 193.748 9.4 187.486 9.4V14.4ZM203.286 17.1L201.53 21.7816C205.743 23.3614 209.331 25.5847 212.355 28.437L215.786 24.8L219.217 21.163C215.174 17.3486 210.429 14.4386 205.042 12.4184L203.286 17.1ZM215.786 24.8L212.392 28.4714C215.408 31.26 217.737 34.5507 219.397 38.3861L223.986 36.4L228.575 34.4139C226.368 29.316 223.231 24.8733 219.18 21.1286L215.786 24.8ZM223.986 36.4L219.434 38.469C221.109 42.1547 221.986 46.306 221.986 51H226.986H231.986C231.986 45.0274 230.862 39.4453 228.538 34.331L223.986 36.4ZM226.986 51H221.986C221.986 55.6168 221.113 59.7806 219.423 63.5567L223.986 65.6L228.549 67.6433C230.859 62.486 231.986 56.9165 231.986 51H226.986ZM223.986 65.6L219.397 63.6139C217.733 67.4586 215.393 70.7966 212.355 73.663L215.786 77.3L219.217 80.937C223.245 77.1367 226.372 72.6747 228.575 67.5861L223.986 65.6ZM215.786 77.3L212.392 73.6286C209.364 76.4274 205.764 78.6308 201.53 80.2184L203.286 84.9L205.042 89.5816C210.408 87.5692 215.141 84.7059 219.18 80.9714L215.786 77.3ZM203.286 84.9L201.53 80.2184C197.354 81.7844 192.69 82.6 187.486 82.6V87.6V92.6C193.748 92.6 199.618 91.6156 205.042 89.5816L203.286 84.9ZM187.486 68.5V73.5C190.306 73.5 193.016 72.984 195.556 71.8957L193.586 67.3L191.616 62.7043C190.422 63.216 189.066 63.5 187.486 63.5V68.5ZM193.586 67.3L195.498 71.9201C198.053 70.8625 200.306 69.339 202.203 67.3524L198.586 63.9L194.969 60.4476C194.065 61.3943 192.985 62.1375 191.674 62.6799L193.586 67.3ZM198.586 63.9L202.199 67.3561C204.167 65.2988 205.648 62.8749 206.668 60.1556L201.986 58.4L197.304 56.6444C196.724 58.1918 195.938 59.4345 194.973 60.4439L198.586 63.9ZM201.986 58.4L206.685 60.1087C207.714 57.2777 208.186 54.2203 208.186 51H203.186H198.186C198.186 53.2463 197.858 55.1223 197.287 56.6913L201.986 58.4ZM203.186 51H208.186C208.186 47.7837 207.715 44.7388 206.668 41.9444L201.986 43.7L197.304 45.4556C197.856 46.9279 198.186 48.7497 198.186 51H203.186ZM201.986 43.7L206.685 41.9913C205.667 39.1933 204.168 36.7105 202.121 34.6645L198.586 38.2L195.05 41.7355C195.938 42.6228 196.704 43.8067 197.287 45.4087L201.986 43.7ZM198.586 38.2L202.278 34.8287C200.38 32.7492 198.104 31.1582 195.498 30.0799L193.586 34.7L191.674 39.3201C192.935 39.8418 193.992 40.5842 194.894 41.5713L198.586 38.2ZM193.586 34.7L195.556 30.1043C193.016 29.016 190.306 28.5 187.486 28.5V33.5V38.5C189.066 38.5 190.422 38.784 191.616 39.2957L193.586 34.7ZM187.486 33.5V28.5C184.664 28.5 181.945 29.0163 179.374 30.0799L181.286 34.7L183.198 39.3201C184.494 38.7837 185.908 38.5 187.486 38.5V33.5ZM181.286 34.7L179.316 30.1043C176.803 31.1814 174.584 32.7461 172.673 34.7439L176.286 38.2L179.899 41.6561C180.922 40.5872 182.036 39.8186 183.256 39.2957L181.286 34.7ZM176.286 38.2L172.669 34.7476C170.724 36.7859 169.287 39.2412 168.287 41.9913L172.986 43.7L177.685 45.4087C178.285 43.7588 179.048 42.5475 179.903 41.6524L176.286 38.2ZM172.986 43.7L168.304 41.9444C167.256 44.7388 166.786 47.7837 166.786 51H171.786H176.786C176.786 48.7497 177.115 46.9279 177.668 45.4556L172.986 43.7ZM171.786 51H166.786C166.786 54.2203 167.258 57.2777 168.287 60.1087L172.986 58.4L177.685 56.6913C177.114 55.1223 176.786 53.2463 176.786 51H171.786ZM172.986 58.4L168.304 60.1556C169.306 62.8274 170.724 65.2235 172.594 67.2713L176.286 63.9L179.978 60.5287C179.048 59.5098 178.266 58.2393 177.668 56.6444L172.986 58.4ZM176.286 63.9L172.75 67.4355C174.657 69.3422 176.852 70.8397 179.316 71.8957L181.286 67.3L183.256 62.7043C181.986 62.1602 180.848 61.3911 179.821 60.3645L176.286 63.9ZM181.286 67.3L179.374 71.9201C181.945 72.9837 184.664 73.5 187.486 73.5V68.5V63.5C185.908 63.5 184.494 63.2163 183.198 62.6799L181.286 67.3ZM254.652 85L252.874 89.6735L252.914 89.6885L252.953 89.7028L254.652 85ZM242.252 77.4L238.823 81.0389L238.84 81.0552L238.857 81.0714L242.252 77.4ZM234.152 65.8L229.563 67.7861L229.563 67.7861L234.152 65.8ZM234.152 36.2L229.563 34.2139L229.563 34.2139L234.152 36.2ZM242.252 24.6L238.857 20.9286L238.84 20.9448L238.823 20.9611L242.252 24.6ZM254.652 17.1L256.371 21.7951L256.389 21.7884L256.407 21.7816L254.652 17.1ZM288.452 18L286.378 22.5499L286.389 22.5548L286.4 22.5596L288.452 18ZM301.652 28.4L304.981 32.1301L308.438 29.0441L305.623 25.3627L301.652 28.4ZM286.752 41.7L282.837 44.8112L286.132 48.9555L290.081 45.4301L286.752 41.7ZM279.852 35.7L277.296 39.9977L277.364 40.038L277.433 40.0762L279.852 35.7ZM264.752 34.7L266.609 39.3424L266.609 39.3424L264.752 34.7ZM259.552 38.2L255.938 34.7439L255.898 34.7858L255.859 34.8287L259.552 38.2ZM256.252 43.8L260.933 45.5556L260.942 45.5322L260.951 45.5087L256.252 43.8ZM256.252 58.3L251.553 60.0087L251.561 60.0322L251.57 60.0556L256.252 58.3ZM259.552 63.8L255.859 67.1713L255.898 67.2142L255.938 67.2561L259.552 63.8ZM264.752 67.3L262.895 71.9424L262.895 71.9424L264.752 67.3ZM279.852 66.4L282.32 70.7484L282.338 70.7379L282.357 70.7271L279.852 66.4ZM286.752 60.3L290.081 56.5699L286.132 53.0445L282.837 57.1888L286.752 60.3ZM301.652 73.6L305.602 76.6656L308.463 72.9782L304.981 69.8699L301.652 73.6ZM288.452 84L290.525 88.5499L290.538 88.544L290.55 88.5381L288.452 84ZM270.252 87.6V82.6C265.174 82.6 260.555 81.8157 256.35 80.2972L254.652 85L252.953 89.7028C258.348 91.651 264.129 92.6 270.252 92.6V87.6ZM254.652 85L256.429 80.3265C252.262 78.7419 248.685 76.5384 245.646 73.7286L242.252 77.4L238.857 81.0714C242.885 84.795 247.575 87.6581 252.874 89.6735L254.652 85ZM242.252 77.4L245.681 73.7611C242.72 70.9711 240.409 67.6704 238.74 63.8139L234.152 65.8L229.563 67.7861C231.76 72.8629 234.85 77.2956 238.823 81.0389L242.252 77.4ZM234.152 65.8L238.74 63.8139C237.107 60.0396 236.252 55.7919 236.252 51H231.252H226.252C226.252 57.0081 227.33 62.627 229.563 67.7861L234.152 65.8ZM231.252 51H236.252C236.252 46.2081 237.107 41.9604 238.74 38.1861L234.152 36.2L229.563 34.2139C227.33 39.373 226.252 44.9919 226.252 51H231.252ZM234.152 36.2L238.74 38.1861C240.409 34.3296 242.72 31.0289 245.681 28.2389L242.252 24.6L238.823 20.9611C234.85 24.7044 231.76 29.1371 229.563 34.2139L234.152 36.2ZM242.252 24.6L245.646 28.2714C248.671 25.4745 252.228 23.3122 256.371 21.7951L254.652 17.1L252.932 12.4049C247.608 14.3545 242.899 17.1922 238.857 20.9286L242.252 24.6ZM254.652 17.1L256.407 21.7816C260.596 20.2108 265.196 19.4 270.252 19.4V14.4V9.4C264.107 9.4 258.307 10.3892 252.896 12.4184L254.652 17.1ZM270.252 14.4V19.4C276.535 19.4 281.872 20.4966 286.378 22.5499L288.452 18L290.525 13.4501C284.497 10.7034 277.702 9.4 270.252 9.4V14.4ZM288.452 18L286.4 22.5596C290.996 24.628 294.73 27.5796 297.68 31.4372L301.652 28.4L305.623 25.3627C301.64 20.1538 296.574 16.172 290.503 13.4404L288.452 18ZM301.652 28.4L298.322 24.6699L283.422 37.9699L286.752 41.7L290.081 45.4301L304.981 32.1301L301.652 28.4ZM286.752 41.7L290.666 38.5888C288.249 35.5481 285.459 33.0863 282.27 31.3238L279.852 35.7L277.433 40.0762C279.311 41.1137 281.121 42.6519 282.837 44.8112L286.752 41.7ZM279.852 35.7L282.407 31.4023C279.097 29.4343 275.399 28.5 271.452 28.5V33.5V38.5C273.771 38.5 275.673 39.0324 277.296 39.9977L279.852 35.7ZM271.452 33.5V28.5C268.44 28.5 265.565 28.9896 262.895 30.0576L264.752 34.7L266.609 39.3424C267.939 38.8104 269.53 38.5 271.452 38.5V33.5ZM264.752 34.7L262.895 30.0576C260.242 31.1188 257.907 32.6861 255.938 34.7439L259.552 38.2L263.165 41.6561C264.13 40.6472 265.262 39.8812 266.609 39.3424L264.752 34.7ZM259.552 38.2L255.859 34.8287C253.965 36.9028 252.548 39.3546 251.553 42.0913L256.252 43.8L260.951 45.5087C261.555 43.8454 262.338 42.5639 263.244 41.5713L259.552 38.2ZM256.252 43.8L251.57 42.0444C250.527 44.8259 250.052 47.834 250.052 51H255.052H260.052C260.052 48.8326 260.376 47.0408 260.933 45.5556L256.252 43.8ZM255.052 51H250.052C250.052 54.1693 250.528 57.1905 251.553 60.0087L256.252 58.3L260.951 56.5913C260.375 55.0095 260.052 53.164 260.052 51H255.052ZM256.252 58.3L251.57 60.0556C252.572 62.7274 253.989 65.1235 255.859 67.1713L259.552 63.8L263.244 60.4287C262.314 59.4098 261.531 58.1393 260.933 56.5444L256.252 58.3ZM259.552 63.8L255.938 67.2561C257.907 69.3138 260.242 70.8812 262.895 71.9424L264.752 67.3L266.609 62.6576C265.262 62.1188 264.13 61.3528 263.165 60.3439L259.552 63.8ZM264.752 67.3L262.895 71.9424C265.565 73.0104 268.44 73.5 271.452 73.5V68.5V63.5C269.53 63.5 267.939 63.1896 266.609 62.6576L264.752 67.3ZM271.452 68.5V73.5C275.357 73.5 279.024 72.6191 282.32 70.7484L279.852 66.4L277.384 62.0516C275.746 62.9809 273.813 63.5 271.452 63.5V68.5ZM279.852 66.4L282.357 70.7271C285.5 68.9076 288.262 66.4357 290.666 63.4112L286.752 60.3L282.837 57.1888C281.108 59.3643 279.27 60.9591 277.346 62.0729L279.852 66.4ZM286.752 60.3L283.422 64.0301L298.322 77.3301L301.652 73.6L304.981 69.8699L290.081 56.5699L286.752 60.3ZM301.652 73.6L297.702 70.5344C294.745 74.3441 290.99 77.3173 286.353 79.4619L288.452 84L290.55 88.5381C296.58 85.7494 301.625 81.7893 305.602 76.6656L301.652 73.6ZM288.452 84L286.378 79.4501C281.872 81.5034 276.535 82.6 270.252 82.6V87.6V92.6C277.702 92.6 284.497 91.2966 290.525 88.5499L288.452 84ZM352.366 16V11H347.366V16H352.366ZM375.966 16H380.966V11H375.966V16ZM375.966 86V91H380.966V86H375.966ZM352.366 86H347.366V91H352.366V86ZM330.566 86V91H335.566V86H330.566ZM306.966 86H301.966V91H306.966V86ZM306.966 16V11H301.966V16H306.966ZM330.566 16H335.566V11H330.566V16ZM353.966 60.2V65.2H358.966V60.2H353.966ZM328.966 60.2H323.966V65.2H328.966V60.2ZM328.966 40.8V35.8H323.966V40.8H328.966ZM353.966 40.8H358.966V35.8H353.966V40.8ZM352.366 16V21H375.966V16V11H352.366V16ZM375.966 16H370.966V86H375.966H380.966V16H375.966ZM375.966 86V81H352.366V86V91H375.966V86ZM352.366 86H357.366V16H352.366H347.366V86H352.366ZM330.566 86V81H306.966V86V91H330.566V86ZM306.966 86H311.966V16H306.966H301.966V86H306.966ZM306.966 16V21H330.566V16V11H306.966V16ZM330.566 16H325.566V86H330.566H335.566V16H330.566ZM353.966 60.2V55.2H328.966V60.2V65.2H353.966V60.2ZM328.966 60.2H333.966V40.8H328.966H323.966V60.2H328.966ZM328.966 40.8V45.8H353.966V40.8V35.8H328.966V40.8ZM353.966 40.8H348.966V60.2H353.966H358.966V40.8H353.966ZM61.1 112V107H56.1V112H61.1ZM84.7 112H89.7V107H84.7V112ZM84.7 182V187H89.7V182H84.7ZM61.1 182H56.1V187H61.1V182ZM39.3 182V187H44.3V182H39.3ZM15.7 182H10.7V187H15.7V182ZM15.7 112V107H10.7V112H15.7ZM39.3 112H44.3V107H39.3V112ZM62.7 156.2V161.2H67.7V156.2H62.7ZM37.7 156.2H32.7V161.2H37.7V156.2ZM37.7 136.8V131.8H32.7V136.8H37.7ZM62.7 136.8H67.7V131.8H62.7V136.8ZM61.1 112V117H84.7V112V107H61.1V112ZM84.7 112H79.7V182H84.7H89.7V112H84.7ZM84.7 182V177H61.1V182V187H84.7V182ZM61.1 182H66.1V112H61.1H56.1V182H61.1ZM39.3 182V177H15.7V182V187H39.3V182ZM15.7 182H20.7V112H15.7H10.7V182H15.7ZM15.7 112V117H39.3V112V107H15.7V112ZM39.3 112H34.3V182H39.3H44.3V112H39.3ZM62.7 156.2V151.2H37.7V156.2V161.2H62.7V156.2ZM37.7 156.2H42.7V136.8H37.7H32.7V156.2H37.7ZM37.7 136.8V141.8H62.7V136.8V131.8H37.7V136.8ZM62.7 136.8H57.7V156.2H62.7H67.7V136.8H62.7ZM86.9711 182L82.3897 179.997L79.3285 187H86.9711V182ZM117.571 112V107H114.3L112.99 109.997L117.571 112ZM140.771 112L145.352 109.997L144.042 107H140.771V112ZM171.371 182V187H179.014L175.952 179.997L171.371 182ZM146.971 182L142.304 183.794L143.536 187H146.971V182ZM124.371 123.2V118.2H117.093L119.704 124.994L124.371 123.2ZM133.571 123.2L138.238 124.994L140.849 118.2H133.571V123.2ZM110.971 182V187H114.406L115.638 183.794L110.971 182ZM105.171 169.8L100.456 168.136L98.1041 174.8H105.171V169.8ZM111.171 152.8V147.8H107.634L106.456 151.136L111.171 152.8ZM143.371 152.8L148.086 151.136L146.909 147.8H143.371V152.8ZM149.371 169.8V174.8H156.438L154.086 168.136L149.371 169.8ZM86.9711 182L91.5525 184.003L122.152 114.003L117.571 112L112.99 109.997L82.3897 179.997L86.9711 182ZM117.571 112V117H140.771V112V107H117.571V112ZM140.771 112L136.19 114.003L166.79 184.003L171.371 182L175.952 179.997L145.352 109.997L140.771 112ZM171.371 182V177H146.971V182V187H171.371V182ZM146.971 182L151.638 180.206L129.038 121.406L124.371 123.2L119.704 124.994L142.304 183.794L146.971 182ZM124.371 123.2V128.2H133.571V123.2V118.2H124.371V123.2ZM133.571 123.2L128.904 121.406L106.304 180.206L110.971 182L115.638 183.794L138.238 124.994L133.571 123.2ZM110.971 182V177H86.9711V182V187H110.971V182ZM105.171 169.8L109.886 171.464L115.886 154.464L111.171 152.8L106.456 151.136L100.456 168.136L105.171 169.8ZM111.171 152.8V157.8H143.371V152.8V147.8H111.171V152.8ZM143.371 152.8L138.656 154.464L144.656 171.464L149.371 169.8L154.086 168.136L148.086 151.136L143.371 152.8ZM149.371 169.8V164.8H105.171V169.8V174.8H149.371V169.8ZM173.638 182H168.638V187H173.638V182ZM173.638 112V107H168.638V112H173.638ZM193.038 112L196.874 108.794L195.375 107H193.038V112ZM228.638 154.6V159.6H239.332L232.474 151.394L228.638 154.6ZM219.638 154.6H214.638V159.6H219.638V154.6ZM219.638 112V107H214.638V112H219.638ZM242.638 112H247.638V107H242.638V112ZM242.638 182V187H247.638V182H242.638ZM223.238 182L219.401 185.206L220.9 187H223.238V182ZM187.638 139.4V134.4H176.943L183.801 142.606L187.638 139.4ZM196.638 139.4H201.638V134.4H196.638V139.4ZM196.638 182V187H201.638V182H196.638ZM173.638 182H178.638V112H173.638H168.638V182H173.638ZM173.638 112V117H193.038V112V107H173.638V112ZM193.038 112L189.201 115.206L224.801 157.806L228.638 154.6L232.474 151.394L196.874 108.794L193.038 112ZM228.638 154.6V149.6H219.638V154.6V159.6H228.638V154.6ZM219.638 154.6H224.638V112H219.638H214.638V154.6H219.638ZM219.638 112V117H242.638V112V107H219.638V112ZM242.638 112H237.638V182H242.638H247.638V112H242.638ZM242.638 182V177H223.238V182V187H242.638V182ZM223.238 182L227.074 178.794L191.474 136.194L187.638 139.4L183.801 142.606L219.401 185.206L223.238 182ZM187.638 139.4V144.4H196.638V139.4V134.4H187.638V139.4ZM196.638 139.4H191.638V182H196.638H201.638V139.4H196.638ZM196.638 182V177H173.638V182V187H196.638V182ZM252.509 182H247.509V187H252.509V182ZM252.509 112V107H247.509V112H252.509ZM307.609 116.3L305.433 120.802L305.454 120.812L305.475 120.822L307.609 116.3ZM321.509 128.3L317.299 130.998L317.299 130.998L321.509 128.3ZM321.509 165.7L325.718 168.398L325.726 168.386L325.733 168.374L321.509 165.7ZM307.609 177.8L309.742 182.322L309.763 182.312L309.784 182.302L307.609 177.8ZM276.109 163.6H271.109V168.6H276.109V163.6ZM294.709 161.7L292.473 157.228L292.448 157.24L292.425 157.252L294.709 161.7ZM300.609 156.1L304.957 158.568L304.971 158.543L304.985 158.518L300.609 156.1ZM300.609 137.9L304.957 135.432L304.957 135.432L300.609 137.9ZM294.709 132.3L292.425 136.748L292.448 136.76L292.473 136.772L294.709 132.3ZM276.109 130.4V125.4H271.109V130.4H276.109ZM252.509 182H257.509V112H252.509H247.509V182H252.509ZM252.509 112V117H287.009V112V107H252.509V112ZM287.009 112V117C294.193 117 300.292 118.318 305.433 120.802L307.609 116.3L309.784 111.798C303.059 108.549 295.425 107 287.009 107V112ZM307.609 116.3L305.475 120.822C310.614 123.247 314.505 126.639 317.299 130.998L321.509 128.3L325.718 125.602C321.846 119.561 316.47 114.953 309.742 111.778L307.609 116.3ZM321.509 128.3L317.299 130.998C320.036 135.267 321.509 140.495 321.509 146.9H326.509H331.509C331.509 138.905 329.648 131.733 325.718 125.602L321.509 128.3ZM326.509 146.9H321.509C321.509 153.38 320.031 158.684 317.284 163.026L321.509 165.7L325.733 168.374C329.652 162.182 331.509 154.953 331.509 146.9H326.509ZM321.509 165.7L317.299 163.002C314.498 167.372 310.593 170.805 305.433 173.298L307.609 177.8L309.784 182.302C316.491 179.062 321.853 174.428 325.718 168.398L321.509 165.7ZM307.609 177.8L305.475 173.278C300.323 175.709 294.209 177 287.009 177V182V187C295.409 187 303.028 185.491 309.742 182.322L307.609 177.8ZM287.009 182V177H252.509V182V187H287.009V182ZM276.109 163.6V168.6H286.009V163.6V158.6H276.109V163.6ZM286.009 163.6V168.6C289.977 168.6 293.69 167.844 296.993 166.148L294.709 161.7L292.425 157.252C290.794 158.09 288.707 158.6 286.009 158.6V163.6ZM294.709 161.7L296.945 166.172C300.367 164.461 303.068 161.896 304.957 158.568L300.609 156.1L296.26 153.632C295.349 155.237 294.117 156.406 292.473 157.228L294.709 161.7ZM300.609 156.1L304.985 158.518C306.882 155.085 307.709 151.143 307.709 146.9H302.709H297.709C297.709 149.857 297.135 152.048 296.232 153.682L300.609 156.1ZM302.709 146.9H307.709C307.709 142.711 306.877 138.815 304.957 135.432L300.609 137.9L296.26 140.368C297.14 141.919 297.709 144.022 297.709 146.9H302.709ZM300.609 137.9L304.957 135.432C303.068 132.104 300.367 129.539 296.945 127.828L294.709 132.3L292.473 136.772C294.117 137.594 295.349 138.763 296.26 140.368L300.609 137.9ZM294.709 132.3L296.993 127.852C293.69 126.156 289.977 125.4 286.009 125.4V130.4V135.4C288.707 135.4 290.794 135.91 292.425 136.748L294.709 132.3ZM286.009 130.4V125.4H276.109V130.4V135.4H286.009V130.4ZM276.109 130.4H271.109V163.6H276.109H281.109V130.4H276.109ZM333.626 182H328.626V187H333.626V182ZM333.626 112V107H328.626V112H333.626ZM357.226 112H362.226V107H357.226V112ZM357.226 182V187H362.226V182H357.226ZM333.626 182H338.626V112H333.626H328.626V182H333.626ZM333.626 112V117H357.226V112V107H333.626V112ZM357.226 112H352.226V182H357.226H362.226V112H357.226ZM357.226 182V177H333.626V182V187H357.226V182ZM384.787 182L380.025 183.524L381.137 187H384.787V182ZM362.387 112V107H355.537L357.625 113.524L362.387 112ZM386.687 112L391.468 110.536L390.385 107H386.687V112ZM404.787 171.1V176.1H411.547L409.568 169.636L404.787 171.1ZM392.587 171.1L387.831 169.555L385.705 176.1H392.587V171.1ZM411.787 112V107H408.154L407.031 110.455L411.787 112ZM433.487 112L438.272 110.551L437.197 107H433.487V112ZM451.387 171.1V176.1H458.125L456.172 169.651L451.387 171.1ZM439.687 171.1L434.924 169.577L432.838 176.1H439.687V171.1ZM458.587 112V107H454.936L453.824 110.477L458.587 112ZM480.987 112L485.749 113.524L487.836 107H480.987V112ZM458.587 182V187H462.236L463.349 183.524L458.587 182ZM433.287 182L428.5 183.444L429.572 187H433.287V182ZM418.687 133.6V128.6H411.956L413.9 135.044L418.687 133.6ZM425.487 133.6L430.251 135.116L432.325 128.6H425.487V133.6ZM410.087 182V187H413.743L414.851 183.516L410.087 182ZM384.787 182L389.549 180.476L367.149 110.476L362.387 112L357.625 113.524L380.025 183.524L384.787 182ZM362.387 112V117H386.687V112V107H362.387V112ZM386.687 112L381.906 113.464L400.006 172.564L404.787 171.1L409.568 169.636L391.468 110.536L386.687 112ZM404.787 171.1V166.1H392.587V171.1V176.1H404.787V171.1ZM392.587 171.1L397.342 172.645L416.542 113.545L411.787 112L407.031 110.455L387.831 169.555L392.587 171.1ZM411.787 112V117H433.487V112V107H411.787V112ZM433.487 112L428.701 113.449L446.601 172.549L451.387 171.1L456.172 169.651L438.272 110.551L433.487 112ZM451.387 171.1V166.1H439.687V171.1V176.1H451.387V171.1ZM439.687 171.1L444.449 172.623L463.349 113.523L458.587 112L453.824 110.477L434.924 169.577L439.687 171.1ZM458.587 112V117H480.987V112V107H458.587V112ZM480.987 112L476.225 110.476L453.825 180.476L458.587 182L463.349 183.524L485.749 113.524L480.987 112ZM458.587 182V177H433.287V182V187H458.587V182ZM433.287 182L438.074 180.556L423.474 132.156L418.687 133.6L413.9 135.044L428.5 183.444L433.287 182ZM418.687 133.6V138.6H425.487V133.6V128.6H418.687V133.6ZM425.487 133.6L420.722 132.084L405.322 180.484L410.087 182L414.851 183.516L430.251 135.116L425.487 133.6ZM410.087 182V177H384.787V182V187H410.087V182ZM504.651 180.9L502.895 185.582L502.906 185.586L502.916 185.59L504.651 180.9ZM492.151 173.3L488.72 176.937L488.738 176.954L488.757 176.971L492.151 173.3ZM483.851 161.6L479.262 163.586L479.275 163.615L479.287 163.643L483.851 161.6ZM483.851 132.4L479.287 130.357L479.28 130.373L479.273 130.389L483.851 132.4ZM492.151 120.8L495.545 124.471L495.564 124.454L495.582 124.437L492.151 120.8ZM504.651 113.1L502.916 108.41L502.906 108.414L502.895 108.418L504.651 113.1ZM536.251 113.1L534.495 117.782L534.495 117.782L536.251 113.1ZM548.751 120.8L545.32 124.437L545.338 124.454L545.357 124.471L548.751 120.8ZM556.951 132.4L552.362 134.386L552.38 134.428L552.399 134.469L556.951 132.4ZM556.951 161.6L552.387 159.557L552.375 159.585L552.362 159.614L556.951 161.6ZM548.751 173.3L552.145 176.971L552.164 176.954L552.182 176.937L548.751 173.3ZM536.251 180.9L534.495 176.218L534.495 176.218L536.251 180.9ZM526.551 163.3L524.639 158.68L524.61 158.692L524.581 158.704L526.551 163.3ZM531.551 159.9L527.938 156.444L527.934 156.448L531.551 159.9ZM534.951 154.4L539.632 156.156L539.641 156.132L539.65 156.109L534.951 154.4ZM534.951 139.7L530.252 141.409L530.26 141.432L530.269 141.456L534.951 139.7ZM531.551 134.2L527.858 137.571L527.935 137.655L528.015 137.736L531.551 134.2ZM526.551 130.7L524.581 135.296L524.61 135.308L524.639 135.32L526.551 130.7ZM514.251 130.7L512.339 126.08L512.31 126.092L512.281 126.104L514.251 130.7ZM509.251 134.2L505.638 130.744L505.634 130.748L509.251 134.2ZM505.951 139.7L510.632 141.456L510.641 141.432L510.65 141.409L505.951 139.7ZM505.951 154.4L501.252 156.109L501.26 156.132L501.269 156.156L505.951 154.4ZM509.251 159.9L505.558 163.271L505.635 163.355L505.715 163.436L509.251 159.9ZM514.251 163.3L512.281 167.896L512.31 167.908L512.339 167.92L514.251 163.3ZM520.451 183.6V178.6C515.322 178.6 510.648 177.787 506.385 176.21L504.651 180.9L502.916 185.59C508.387 187.613 514.247 188.6 520.451 188.6V183.6ZM504.651 180.9L506.406 176.218C502.173 174.631 498.572 172.427 495.545 169.629L492.151 173.3L488.757 176.971C492.796 180.706 497.529 183.569 502.895 185.582L504.651 180.9ZM492.151 173.3L495.582 169.663C492.531 166.785 490.147 163.427 488.414 159.557L483.851 161.6L479.287 163.643C481.554 168.706 484.704 173.149 488.72 176.937L492.151 173.3ZM483.851 161.6L488.439 159.614C486.799 155.824 485.951 151.64 485.951 147H480.951H475.951C475.951 152.893 477.036 158.442 479.262 163.586L483.851 161.6ZM480.951 147H485.951C485.951 142.283 486.803 138.111 488.428 134.411L483.851 132.4L479.273 130.389C477.032 135.489 475.951 141.051 475.951 147H480.951ZM483.851 132.4L488.414 134.443C490.143 130.582 492.516 127.272 495.545 124.471L492.151 120.8L488.757 117.129C484.719 120.861 481.558 125.285 479.287 130.357L483.851 132.4ZM492.151 120.8L495.582 124.437C498.605 121.585 502.194 119.361 506.406 117.782L504.651 113.1L502.895 108.418C497.508 110.439 492.763 113.349 488.72 117.163L492.151 120.8ZM504.651 113.1L506.385 117.79C510.648 116.213 515.322 115.4 520.451 115.4V110.4V105.4C514.247 105.4 508.387 106.387 502.916 108.41L504.651 113.1ZM520.451 110.4V115.4C525.655 115.4 530.319 116.216 534.495 117.782L536.251 113.1L538.006 108.418C532.583 106.384 526.713 105.4 520.451 105.4V110.4ZM536.251 113.1L534.495 117.782C538.708 119.361 542.296 121.585 545.32 124.437L548.751 120.8L552.182 117.163C548.139 113.349 543.394 110.439 538.006 108.418L536.251 113.1ZM548.751 120.8L545.357 124.471C548.373 127.26 550.702 130.551 552.362 134.386L556.951 132.4L561.539 130.414C559.333 125.316 556.195 120.873 552.145 117.129L548.751 120.8ZM556.951 132.4L552.399 134.469C554.074 138.155 554.951 142.306 554.951 147H559.951H564.951C564.951 141.027 563.827 135.445 561.503 130.331L556.951 132.4ZM559.951 147H554.951C554.951 151.617 554.078 155.781 552.387 159.557L556.951 161.6L561.514 163.643C563.823 158.486 564.951 152.917 564.951 147H559.951ZM556.951 161.6L552.362 159.614C550.698 163.459 548.358 166.797 545.32 169.663L548.751 173.3L552.182 176.937C556.21 173.137 559.337 168.675 561.539 163.586L556.951 161.6ZM548.751 173.3L545.357 169.629C542.329 172.427 538.729 174.631 534.495 176.218L536.251 180.9L538.006 185.582C543.373 183.569 548.106 180.706 552.145 176.971L548.751 173.3ZM536.251 180.9L534.495 176.218C530.319 177.784 525.655 178.6 520.451 178.6V183.6V188.6C526.713 188.6 532.583 187.616 538.006 185.582L536.251 180.9ZM520.451 164.5V169.5C523.271 169.5 525.981 168.984 528.52 167.896L526.551 163.3L524.581 158.704C523.387 159.216 522.031 159.5 520.451 159.5V164.5ZM526.551 163.3L528.463 167.92C531.018 166.863 533.271 165.339 535.168 163.352L531.551 159.9L527.934 156.448C527.03 157.394 525.95 158.137 524.639 158.68L526.551 163.3ZM531.551 159.9L535.164 163.356C537.132 161.299 538.613 158.875 539.632 156.156L534.951 154.4L530.269 152.644C529.689 154.192 528.903 155.435 527.938 156.444L531.551 159.9ZM534.951 154.4L539.65 156.109C540.679 153.278 541.151 150.22 541.151 147H536.151H531.151C531.151 149.246 530.822 151.122 530.252 152.691L534.951 154.4ZM536.151 147H541.151C541.151 143.784 540.68 140.739 539.632 137.944L534.951 139.7L530.269 141.456C530.821 142.928 531.151 144.75 531.151 147H536.151ZM534.951 139.7L539.65 137.991C538.632 135.193 537.132 132.711 535.086 130.664L531.551 134.2L528.015 137.736C528.903 138.623 529.669 139.807 530.252 141.409L534.951 139.7ZM531.551 134.2L535.243 130.829C533.345 128.749 531.068 127.158 528.463 126.08L526.551 130.7L524.639 135.32C525.9 135.842 526.957 136.584 527.858 137.571L531.551 134.2ZM526.551 130.7L528.52 126.104C525.981 125.016 523.271 124.5 520.451 124.5V129.5V134.5C522.031 134.5 523.387 134.784 524.581 135.296L526.551 130.7ZM520.451 129.5V124.5C517.629 124.5 514.909 125.016 512.339 126.08L514.251 130.7L516.163 135.32C517.459 134.784 518.872 134.5 520.451 134.5V129.5ZM514.251 130.7L512.281 126.104C509.768 127.181 507.549 128.746 505.638 130.744L509.251 134.2L512.864 137.656C513.886 136.587 515 135.819 516.22 135.296L514.251 130.7ZM509.251 134.2L505.634 130.748C503.688 132.786 502.252 135.241 501.252 137.991L505.951 139.7L510.65 141.409C511.25 139.759 512.013 138.547 512.868 137.652L509.251 134.2ZM505.951 139.7L501.269 137.944C500.221 140.739 499.751 143.784 499.751 147H504.751H509.751C509.751 144.75 510.08 142.928 510.632 141.456L505.951 139.7ZM504.751 147H499.751C499.751 150.22 500.222 153.278 501.252 156.109L505.951 154.4L510.65 152.691C510.079 151.122 509.751 149.246 509.751 147H504.751ZM505.951 154.4L501.269 156.156C502.271 158.827 503.689 161.224 505.558 163.271L509.251 159.9L512.943 156.529C512.013 155.51 511.231 154.239 510.632 152.644L505.951 154.4ZM509.251 159.9L505.715 163.436C507.622 165.342 509.817 166.84 512.281 167.896L514.251 163.3L516.22 158.704C514.951 158.16 513.813 157.391 512.786 156.364L509.251 159.9ZM514.251 163.3L512.339 167.92C514.909 168.984 517.629 169.5 520.451 169.5V164.5V159.5C518.872 159.5 517.459 159.216 516.163 158.68L514.251 163.3ZM567.016 182H562.016V187H567.016V182ZM567.016 112V107H562.016V112H567.016ZM617.616 115.2L615.562 119.758L615.574 119.764L615.586 119.769L617.616 115.2ZM628.716 124.4L624.524 127.125L624.535 127.141L624.545 127.157L628.716 124.4ZM628.716 152.4L632.866 155.19L632.877 155.174L632.888 155.157L628.716 152.4ZM617.616 161.3L615.639 156.708L615.627 156.713L615.616 156.718L617.616 161.3ZM580.116 164.4L576.724 160.727L567.336 169.4H580.116V164.4ZM590.616 154.7H595.616V143.274L587.224 151.027L590.616 154.7ZM590.616 182V187H595.616V182H590.616ZM608.916 182L604.771 184.796L606.258 187H608.916V182ZM591.716 156.5V151.5H582.313L587.571 159.296L591.716 156.5ZM616.716 156.5L620.847 153.682L619.358 151.5H616.716V156.5ZM634.116 182V187H643.581L638.247 179.182L634.116 182ZM590.616 157.3L587.048 160.802L595.616 169.534V157.3H590.616ZM580.116 146.6V141.6H568.205L576.548 150.102L580.116 146.6ZM606.416 144.4L603.038 140.714L602.999 140.75L602.96 140.787L606.416 144.4ZM606.416 132.4L602.96 136.013L602.999 136.05L603.038 136.086L606.416 132.4ZM580.116 130.2L576.548 126.698L568.205 135.2H580.116V130.2ZM590.616 119.5H595.616V107.266L587.048 115.998L590.616 119.5ZM567.016 182H572.016V112H567.016H562.016V182H567.016ZM567.016 112V117H600.716V112V107H567.016V112ZM600.716 112V117C606.719 117 611.618 117.981 615.562 119.758L617.616 115.2L619.671 110.642C614.148 108.152 607.781 107 600.716 107V112ZM617.616 115.2L615.586 119.769C619.595 121.551 622.504 124.017 624.524 127.125L628.716 124.4L632.909 121.675C629.729 116.783 625.238 113.116 619.647 110.631L617.616 115.2ZM628.716 124.4L624.545 127.157C626.529 130.158 627.616 133.834 627.616 138.4H632.616H637.616C637.616 132.166 636.104 126.508 632.888 121.643L628.716 124.4ZM632.616 138.4H627.616C627.616 142.966 626.529 146.642 624.545 149.643L628.716 152.4L632.888 155.157C636.104 150.292 637.616 144.634 637.616 138.4H632.616ZM628.716 152.4L624.567 149.61C622.567 152.585 619.668 154.973 615.639 156.708L617.616 161.3L619.594 165.892C625.165 163.494 629.666 159.948 632.866 155.19L628.716 152.4ZM617.616 161.3L615.616 156.718C611.657 158.446 606.737 159.4 600.716 159.4V164.4V169.4C607.762 169.4 614.109 168.287 619.617 165.882L617.616 161.3ZM600.716 164.4V159.4H580.116V164.4V169.4H600.716V164.4ZM580.116 164.4L583.509 168.073L594.009 158.373L590.616 154.7L587.224 151.027L576.724 160.727L580.116 164.4ZM590.616 154.7H585.616V182H590.616H595.616V154.7H590.616ZM590.616 182V177H567.016V182V187H590.616V182ZM608.916 182L613.062 179.204L595.862 153.704L591.716 156.5L587.571 159.296L604.771 184.796L608.916 182ZM591.716 156.5V161.5H616.716V156.5V151.5H591.716V156.5ZM616.716 156.5L612.586 159.318L629.986 184.818L634.116 182L638.247 179.182L620.847 153.682L616.716 156.5ZM634.116 182V177H608.916V182V187H634.116V182ZM590.616 157.3L594.185 153.798L583.685 143.098L580.116 146.6L576.548 150.102L587.048 160.802L590.616 157.3ZM580.116 146.6V151.6H599.216V146.6V141.6H580.116V146.6ZM599.216 146.6V151.6C603.096 151.6 607.015 150.747 609.873 148.013L606.416 144.4L602.96 140.787C602.752 140.986 601.87 141.6 599.216 141.6V146.6ZM606.416 144.4L609.795 148.086C612.603 145.512 613.816 142.078 613.816 138.4H608.816H603.816C603.816 139.788 603.43 140.355 603.038 140.714L606.416 144.4ZM608.816 138.4H613.816C613.816 134.722 612.603 131.288 609.795 128.714L606.416 132.4L603.038 136.086C603.43 136.445 603.816 137.012 603.816 138.4H608.816ZM606.416 132.4L609.873 128.787C607.015 126.053 603.096 125.2 599.216 125.2V130.2V135.2C601.87 135.2 602.752 135.814 602.96 136.013L606.416 132.4ZM599.216 130.2V125.2H580.116V130.2V135.2H599.216V130.2ZM580.116 130.2L583.685 133.702L594.185 123.002L590.616 119.5L587.048 115.998L576.548 126.698L580.116 130.2ZM590.616 119.5H585.616V157.3H590.616H595.616V119.5H590.616ZM661.128 167L656.134 167.251L656.742 179.348L664.845 170.345L661.128 167ZM659.828 141.1L656.125 137.74L654.73 139.278L654.834 141.351L659.828 141.1ZM686.228 112V107H684.013L682.525 108.64L686.228 112ZM711.928 112L715.63 115.361L723.222 107H711.928V112ZM682.328 144.6L685.903 148.095L685.968 148.029L686.03 147.961L682.328 144.6ZM669.228 158L665.653 154.505L665.581 154.578L665.512 154.655L669.228 158ZM640.028 182H635.028V187H640.028V182ZM640.028 112V107H635.028V112H640.028ZM663.228 112H668.228V107H663.228V112ZM663.228 182V187H668.228V182H663.228ZM686.028 182L682.042 185.019L683.543 187H686.028V182ZM665.428 154.8L661.793 151.367L658.887 154.444L661.442 157.819L665.428 154.8ZM680.728 138.6L684.726 135.597L681.165 130.856L677.093 135.167L680.728 138.6ZM713.328 182V187H723.337L717.326 178.997L713.328 182ZM661.128 167L666.122 166.749L664.822 140.849L659.828 141.1L654.834 141.351L656.134 167.251L661.128 167ZM659.828 141.1L663.531 144.46L689.931 115.36L686.228 112L682.525 108.64L656.125 137.74L659.828 141.1ZM686.228 112V117H711.928V112V107H686.228V112ZM711.928 112L708.226 108.639L678.626 141.239L682.328 144.6L686.03 147.961L715.63 115.361L711.928 112ZM682.328 144.6L678.753 141.105L665.653 154.505L669.228 158L672.803 161.495L685.903 148.095L682.328 144.6ZM669.228 158L665.512 154.655L657.412 163.655L661.128 167L664.845 170.345L672.945 161.345L669.228 158ZM640.028 182H645.028V112H640.028H635.028V182H640.028ZM640.028 112V117H663.228V112V107H640.028V112ZM663.228 112H658.228V182H663.228H668.228V112H663.228ZM663.228 182V177H640.028V182V187H663.228V182ZM686.028 182L690.014 178.981L669.414 151.781L665.428 154.8L661.442 157.819L682.042 185.019L686.028 182ZM665.428 154.8L669.063 158.233L684.363 142.033L680.728 138.6L677.093 135.167L661.793 151.367L665.428 154.8ZM680.728 138.6L676.73 141.603L709.33 185.003L713.328 182L717.326 178.997L684.726 135.597L680.728 138.6ZM713.328 182V177H686.028V182V187H713.328V182ZM722.628 181.6L723.813 176.742L722.628 181.6ZM709.128 176.4L704.555 174.379L702.776 178.405L706.544 180.68L709.128 176.4ZM716.728 159.2L719.237 154.875L714.41 152.075L712.155 157.179L716.728 159.2ZM727.828 163.9L726.413 168.696L726.459 168.709L726.506 168.722L727.828 163.9ZM745.128 165.2L746.158 170.093L746.25 170.073L746.341 170.051L745.128 165.2ZM748.028 163.9L751.35 167.637L751.46 167.539L751.564 167.436L748.028 163.9ZM746.828 158.8L744.508 163.229L744.508 163.229L746.828 158.8ZM741.228 157L740.083 161.867L740.165 161.886L740.248 161.903L741.228 157ZM733.728 155.4L732.656 160.284L732.713 160.296L732.771 160.307L733.728 155.4ZM725.428 153.1L723.812 157.832L723.83 157.838L723.847 157.843L725.428 153.1ZM717.828 149.4L715.027 153.541L715.054 153.56L715.082 153.579L717.828 149.4ZM712.328 143.4L707.952 145.818L707.966 145.843L707.98 145.868L712.328 143.4ZM713.828 122.2L709.703 119.374L709.698 119.382L709.692 119.391L713.828 122.2ZM724.728 113.6L722.721 109.021L722.709 109.026L722.697 109.031L724.728 113.6ZM756.828 111.9L755.766 116.786L755.766 116.786L756.828 111.9ZM769.228 116.5L773.846 118.417L775.546 114.322L771.683 112.144L769.228 116.5ZM762.128 133.6L759.892 138.072L764.689 140.471L766.746 135.517L762.128 133.6ZM752.028 129.7L750.721 134.526L750.733 134.53L750.746 134.533L752.028 129.7ZM737.228 129L735.791 124.211L735.791 124.211L737.228 129ZM734.328 130.6L730.612 127.255L730.515 127.363L730.424 127.477L734.328 130.6ZM735.628 135.7L733.308 140.129L733.392 140.173L733.478 140.214L735.628 135.7ZM741.128 137.4L740.12 142.297L740.134 142.3L740.148 142.303L741.128 137.4ZM748.728 138.9L747.771 143.807L747.782 143.81L747.793 143.812L748.728 138.9ZM757.028 141.1L755.412 145.832L755.412 145.832L757.028 141.1ZM764.528 144.8L761.727 148.941L761.754 148.96L761.782 148.979L764.528 144.8ZM770.128 150.8L765.78 153.268L765.78 153.268L770.128 150.8ZM768.528 171.8L764.403 168.974L764.398 168.982L764.392 168.991L768.528 171.8ZM757.728 180.4L759.759 184.969L759.785 184.957L759.811 184.945L757.728 180.4ZM739.628 183.6V178.6C734.144 178.6 728.876 177.977 723.813 176.742L722.628 181.6L721.443 186.458C727.314 187.889 733.379 188.6 739.628 188.6V183.6ZM722.628 181.6L723.813 176.742C718.673 175.489 714.686 173.915 711.712 172.12L709.128 176.4L706.544 180.68C710.637 183.152 715.65 185.045 721.443 186.458L722.628 181.6ZM709.128 176.4L713.702 178.421L721.302 161.221L716.728 159.2L712.155 157.179L704.555 174.379L709.128 176.4ZM716.728 159.2L714.22 163.525C717.93 165.677 722.002 167.394 726.413 168.696L727.828 163.9L729.243 159.104C725.521 158.006 722.193 156.59 719.237 154.875L716.728 159.2ZM727.828 163.9L726.506 168.722C731.024 169.961 735.469 170.6 739.828 170.6V165.6V160.6C736.454 160.6 732.899 160.106 729.15 159.078L727.828 163.9ZM739.828 165.6V170.6C742.224 170.6 744.392 170.465 746.158 170.093L745.128 165.2L744.098 160.307C743.331 160.469 741.965 160.6 739.828 160.6V165.6ZM745.128 165.2L746.341 170.051C747.972 169.643 749.86 168.961 751.35 167.637L748.028 163.9L744.706 160.163C744.887 160.003 744.965 159.992 744.808 160.062C744.658 160.129 744.376 160.234 743.915 160.349L745.128 165.2ZM748.028 163.9L751.564 167.436C753.038 165.961 753.928 164.013 753.928 161.8H748.928H743.928C743.928 161.558 743.977 161.259 744.107 160.955C744.235 160.658 744.394 160.463 744.493 160.364L748.028 163.9ZM748.928 161.8H753.928C753.928 158.183 751.711 155.713 749.148 154.371L746.828 158.8L744.508 163.229C744.702 163.331 744.531 163.287 744.307 162.967C744.193 162.804 744.09 162.603 744.02 162.375C743.95 162.149 743.928 161.95 743.928 161.8H748.928ZM746.828 158.8L749.148 154.371C747.171 153.335 744.798 152.615 742.209 152.097L741.228 157L740.248 161.903C742.325 162.318 743.685 162.798 744.508 163.229L746.828 158.8ZM741.228 157L742.373 152.133C740.034 151.582 737.47 151.036 734.686 150.493L733.728 155.4L732.771 160.307C735.453 160.831 737.889 161.351 740.083 161.867L741.228 157ZM733.728 155.4L734.8 150.516C732.248 149.956 729.651 149.237 727.009 148.357L725.428 153.1L723.847 157.843C726.805 158.829 729.742 159.644 732.656 160.284L733.728 155.4ZM725.428 153.1L727.044 148.368C724.695 147.566 722.543 146.516 720.574 145.221L717.828 149.4L715.082 153.579C717.779 155.351 720.694 156.767 723.812 157.832L725.428 153.1ZM717.828 149.4L720.63 145.259C719.024 144.172 717.711 142.754 716.677 140.932L712.328 143.4L707.98 145.868C709.745 148.979 712.099 151.561 715.027 153.541L717.828 149.4ZM712.328 143.4L716.704 140.982C715.815 139.373 715.228 137.126 715.228 134H710.228H705.228C705.228 138.34 706.041 142.361 707.952 145.818L712.328 143.4ZM710.228 134H715.228C715.228 130.653 716.136 127.701 717.964 125.009L713.828 122.2L709.692 119.391C706.72 123.765 705.228 128.68 705.228 134H710.228ZM713.828 122.2L717.953 125.026C719.799 122.332 722.631 120.003 726.759 118.169L724.728 113.6L722.697 109.031C717.225 111.463 712.791 114.868 709.703 119.374L713.828 122.2ZM724.728 113.6L726.736 118.179C730.787 116.403 736.088 115.4 742.828 115.4V110.4V105.4C735.168 105.4 728.402 106.53 722.721 109.021L724.728 113.6ZM742.828 110.4V115.4C747.206 115.4 751.517 115.862 755.766 116.786L756.828 111.9L757.89 107.014C752.939 105.938 747.917 105.4 742.828 105.4V110.4ZM756.828 111.9L755.766 116.786C759.935 117.692 763.59 119.062 766.773 120.856L769.228 116.5L771.683 112.144C767.533 109.805 762.921 108.108 757.89 107.014L756.828 111.9ZM769.228 116.5L764.61 114.583L757.51 131.683L762.128 133.6L766.746 135.517L773.846 118.417L769.228 116.5ZM762.128 133.6L764.364 129.128C760.636 127.264 756.95 125.833 753.31 124.867L752.028 129.7L750.746 134.533C753.639 135.3 756.687 136.469 759.892 138.072L762.128 133.6ZM752.028 129.7L753.335 124.874C749.743 123.901 746.17 123.4 742.628 123.4V128.4V133.4C745.219 133.4 747.913 133.766 750.721 134.526L752.028 129.7ZM742.628 128.4V123.4C740.139 123.4 737.79 123.611 735.791 124.211L737.228 129L738.665 133.789C739.333 133.589 740.584 133.4 742.628 133.4V128.4ZM737.228 129L735.791 124.211C734.025 124.741 732.075 125.629 730.612 127.255L734.328 130.6L738.045 133.945C737.897 134.109 737.815 134.135 737.919 134.078C738.023 134.02 738.254 133.912 738.665 133.789L737.228 129ZM734.328 130.6L730.424 127.477C729.232 128.966 728.528 130.785 728.528 132.8H733.528H738.528C738.528 132.968 738.498 133.164 738.427 133.359C738.358 133.55 738.274 133.672 738.232 133.723L734.328 130.6ZM733.528 132.8H728.528C728.528 136.459 730.869 138.851 733.308 140.129L735.628 135.7L737.948 131.271C737.72 131.151 737.877 131.181 738.103 131.492C738.221 131.655 738.336 131.867 738.417 132.119C738.499 132.371 738.528 132.606 738.528 132.8H733.528ZM735.628 135.7L733.478 140.214C735.373 141.116 737.632 141.785 740.12 142.297L741.128 137.4L742.136 132.503C740.091 132.082 738.683 131.617 737.778 131.186L735.628 135.7ZM741.128 137.4L740.148 142.303C742.49 142.771 745.031 143.273 747.771 143.807L748.728 138.9L749.686 133.993C746.959 133.46 744.433 132.962 742.109 132.497L741.128 137.4ZM748.728 138.9L747.793 143.812C750.359 144.301 752.898 144.973 755.412 145.832L757.028 141.1L758.644 136.368C755.691 135.36 752.697 134.566 749.664 133.988L748.728 138.9ZM757.028 141.1L755.412 145.832C757.749 146.63 759.847 147.67 761.727 148.941L764.528 144.8L767.33 140.659C764.676 138.863 761.774 137.437 758.644 136.368L757.028 141.1ZM764.528 144.8L761.782 148.979C763.443 150.07 764.764 151.479 765.78 153.268L770.128 150.8L774.477 148.332C772.692 145.188 770.28 142.597 767.274 140.621L764.528 144.8ZM770.128 150.8L765.78 153.268C766.645 154.793 767.228 156.951 767.228 160H772.228H777.228C777.228 155.715 776.411 151.74 774.477 148.332L770.128 150.8ZM772.228 160H767.228C767.228 163.234 766.314 166.186 764.403 168.974L768.528 171.8L772.653 174.626C775.676 170.214 777.228 165.3 777.228 160H772.228ZM768.528 171.8L764.392 168.991C762.614 171.609 759.81 173.946 755.645 175.855L757.728 180.4L759.811 184.945C765.246 182.454 769.643 179.058 772.664 174.609L768.528 171.8ZM757.728 180.4L755.697 175.831C751.732 177.593 746.446 178.6 739.628 178.6V183.6V188.6C747.343 188.6 754.124 187.473 759.759 184.969L757.728 180.4Z" fill="#4A8164" mask="url(#path-1-outside-1_2186_238)"/>
<path d="M5.7 79V9H43.1C52.7667 9 59.9 10.7333 64.5 14.2C69.1 17.6 71.4 21.9667 71.4 27.3C71.4 30.8333 70.4 34 68.4 36.8C66.4667 39.5333 63.6333 41.7 59.9 43.3C56.1667 44.9 51.5667 45.7 46.1 45.7L48.1 40.3C53.5667 40.3 58.2667 41.0667 62.2 42.6C66.2 44.1333 69.2667 46.3667 71.4 49.3C73.6 52.1667 74.7 55.6333 74.7 59.7C74.7 65.7667 72.1667 70.5 67.1 73.9C62.1 77.3 54.7667 79 45.1 79H5.7ZM28.9 62.5H43.1C45.7 62.5 47.6333 62.0333 48.9 61.1C50.2333 60.1667 50.9 58.8 50.9 57C50.9 55.2 50.2333 53.8333 48.9 52.9C47.6333 51.9667 45.7 51.5 43.1 51.5H27.3V35.9H39.9C42.5667 35.9 44.5 35.4667 45.7 34.6C46.9667 33.6667 47.6 32.3667 47.6 30.7C47.6 28.9667 46.9667 27.6667 45.7 26.8C44.5 25.9333 42.5667 25.5 39.9 25.5H28.9V62.5ZM81.5438 79V9H105.144V60.7H136.744V79H81.5438ZM177.486 80.6C171.819 80.6 166.553 79.7 161.686 77.9C156.886 76.1 152.719 73.5667 149.186 70.3C145.653 66.9667 142.886 63.0667 140.886 58.6C138.953 54.1333 137.986 49.2667 137.986 44C137.986 38.6667 138.953 33.8 140.886 29.4C142.886 24.9333 145.653 21.0667 149.186 17.8C152.719 14.4667 156.886 11.9 161.686 10.1C166.553 8.3 171.819 7.4 177.486 7.4C183.219 7.4 188.486 8.3 193.286 10.1C198.086 11.9 202.253 14.4667 205.786 17.8C209.319 21.0667 212.053 24.9333 213.986 29.4C215.986 33.8 216.986 38.6667 216.986 44C216.986 49.2667 215.986 54.1333 213.986 58.6C212.053 63.0667 209.319 66.9667 205.786 70.3C202.253 73.5667 198.086 76.1 193.286 77.9C188.486 79.7 183.219 80.6 177.486 80.6ZM177.486 61.5C179.686 61.5 181.719 61.1 183.586 60.3C185.519 59.5 187.186 58.3667 188.586 56.9C190.053 55.3667 191.186 53.5333 191.986 51.4C192.786 49.2 193.186 46.7333 193.186 44C193.186 41.2667 192.786 38.8333 191.986 36.7C191.186 34.5 190.053 32.6667 188.586 31.2C187.186 29.6667 185.519 28.5 183.586 27.7C181.719 26.9 179.686 26.5 177.486 26.5C175.286 26.5 173.219 26.9 171.286 27.7C169.419 28.5 167.753 29.6667 166.286 31.2C164.886 32.6667 163.786 34.5 162.986 36.7C162.186 38.8333 161.786 41.2667 161.786 44C161.786 46.7333 162.186 49.2 162.986 51.4C163.786 53.5333 164.886 55.3667 166.286 56.9C167.753 58.3667 169.419 59.5 171.286 60.3C173.219 61.1 175.286 61.5 177.486 61.5ZM260.252 80.6C254.652 80.6 249.452 79.7333 244.652 78C239.918 76.2 235.785 73.6667 232.252 70.4C228.785 67.1333 226.085 63.2667 224.152 58.8C222.218 54.3333 221.252 49.4 221.252 44C221.252 38.6 222.218 33.6667 224.152 29.2C226.085 24.7333 228.785 20.8667 232.252 17.6C235.785 14.3333 239.918 11.8333 244.652 10.1C249.452 8.3 254.652 7.4 260.252 7.4C267.118 7.4 273.185 8.6 278.452 11C283.785 13.4 288.185 16.8667 291.652 21.4L276.752 34.7C274.685 32.1 272.385 30.1 269.852 28.7C267.385 27.2333 264.585 26.5 261.452 26.5C258.985 26.5 256.752 26.9 254.752 27.7C252.752 28.5 251.018 29.6667 249.552 31.2C248.152 32.7333 247.052 34.6 246.252 36.8C245.452 38.9333 245.052 41.3333 245.052 44C245.052 46.6667 245.452 49.1 246.252 51.3C247.052 53.4333 248.152 55.2667 249.552 56.8C251.018 58.3333 252.752 59.5 254.752 60.3C256.752 61.1 258.985 61.5 261.452 61.5C264.585 61.5 267.385 60.8 269.852 59.4C272.385 57.9333 274.685 55.9 276.752 53.3L291.652 66.6C288.185 71.0667 283.785 74.5333 278.452 77C273.185 79.4 267.118 80.6 260.252 80.6ZM342.366 9H365.966V79H342.366V9ZM320.566 79H296.966V9H320.566V79ZM343.966 53.2H318.966V33.8H343.966V53.2ZM51.1 105H74.7V175H51.1V105ZM29.3 175H5.7V105H29.3V175ZM52.7 149.2H27.7V129.8H52.7V149.2ZM76.9711 175L107.571 105H130.771L161.371 175H136.971L114.371 116.2H123.571L100.971 175H76.9711ZM95.1711 162.8L101.171 145.8H133.371L139.371 162.8H95.1711ZM163.638 175V105H183.038L218.638 147.6H209.638V105H232.638V175H213.238L177.638 132.4H186.638V175H163.638ZM242.509 175V105H277.009C284.809 105 291.675 106.433 297.609 109.3C303.542 112.1 308.175 116.1 311.509 121.3C314.842 126.5 316.509 132.7 316.509 139.9C316.509 147.167 314.842 153.433 311.509 158.7C308.175 163.9 303.542 167.933 297.609 170.8C291.675 173.6 284.809 175 277.009 175H242.509ZM266.109 156.6H276.009C279.342 156.6 282.242 155.967 284.709 154.7C287.242 153.433 289.209 151.567 290.609 149.1C292.009 146.567 292.709 143.5 292.709 139.9C292.709 136.367 292.009 133.367 290.609 130.9C289.209 128.433 287.242 126.567 284.709 125.3C282.242 124.033 279.342 123.4 276.009 123.4H266.109V156.6ZM323.626 175V105H347.226V175H323.626ZM374.787 175L352.387 105H376.687L394.787 164.1H382.587L401.787 105H423.487L441.387 164.1H429.687L448.587 105H470.987L448.587 175H423.287L408.687 126.6H415.487L400.087 175H374.787ZM510.451 176.6C504.784 176.6 499.517 175.7 494.651 173.9C489.851 172.1 485.684 169.567 482.151 166.3C478.617 162.967 475.851 159.067 473.851 154.6C471.917 150.133 470.951 145.267 470.951 140C470.951 134.667 471.917 129.8 473.851 125.4C475.851 120.933 478.617 117.067 482.151 113.8C485.684 110.467 489.851 107.9 494.651 106.1C499.517 104.3 504.784 103.4 510.451 103.4C516.184 103.4 521.451 104.3 526.251 106.1C531.051 107.9 535.217 110.467 538.751 113.8C542.284 117.067 545.017 120.933 546.951 125.4C548.951 129.8 549.951 134.667 549.951 140C549.951 145.267 548.951 150.133 546.951 154.6C545.017 159.067 542.284 162.967 538.751 166.3C535.217 169.567 531.051 172.1 526.251 173.9C521.451 175.7 516.184 176.6 510.451 176.6ZM510.451 157.5C512.651 157.5 514.684 157.1 516.551 156.3C518.484 155.5 520.151 154.367 521.551 152.9C523.017 151.367 524.151 149.533 524.951 147.4C525.751 145.2 526.151 142.733 526.151 140C526.151 137.267 525.751 134.833 524.951 132.7C524.151 130.5 523.017 128.667 521.551 127.2C520.151 125.667 518.484 124.5 516.551 123.7C514.684 122.9 512.651 122.5 510.451 122.5C508.251 122.5 506.184 122.9 504.251 123.7C502.384 124.5 500.717 125.667 499.251 127.2C497.851 128.667 496.751 130.5 495.951 132.7C495.151 134.833 494.751 137.267 494.751 140C494.751 142.733 495.151 145.2 495.951 147.4C496.751 149.533 497.851 151.367 499.251 152.9C500.717 154.367 502.384 155.5 504.251 156.3C506.184 157.1 508.251 157.5 510.451 157.5ZM557.016 175V105H590.716C597.25 105 602.883 106.067 607.616 108.2C612.416 110.333 616.116 113.4 618.716 117.4C621.316 121.333 622.616 126 622.616 131.4C622.616 136.8 621.316 141.467 618.716 145.4C616.116 149.267 612.416 152.233 607.616 154.3C602.883 156.367 597.25 157.4 590.716 157.4H570.116L580.616 147.7V175H557.016ZM598.916 175L581.716 149.5H606.716L624.116 175H598.916ZM580.616 150.3L570.116 139.6H589.216C592.483 139.6 594.883 138.867 596.416 137.4C598.016 135.933 598.816 133.933 598.816 131.4C598.816 128.867 598.016 126.867 596.416 125.4C594.883 123.933 592.483 123.2 589.216 123.2H570.116L580.616 112.5V150.3ZM651.128 160L649.828 134.1L676.228 105H701.928L672.328 137.6L659.228 151L651.128 160ZM630.028 175V105H653.228V175H630.028ZM676.028 175L655.428 147.8L670.728 131.6L703.328 175H676.028ZM729.628 176.6C723.761 176.6 718.095 175.933 712.628 174.6C707.161 173.267 702.661 171.533 699.128 169.4L706.728 152.2C710.061 154.133 713.761 155.7 717.828 156.9C721.961 158.033 725.961 158.6 729.828 158.6C732.095 158.6 733.861 158.467 735.128 158.2C736.461 157.867 737.428 157.433 738.028 156.9C738.628 156.3 738.928 155.6 738.928 154.8C738.928 153.533 738.228 152.533 736.828 151.8C735.428 151.067 733.561 150.467 731.228 150C728.961 149.467 726.461 148.933 723.728 148.4C720.995 147.8 718.228 147.033 715.428 146.1C712.695 145.167 710.161 143.933 707.828 142.4C705.561 140.867 703.728 138.867 702.328 136.4C700.928 133.867 700.228 130.733 700.228 127C700.228 122.667 701.428 118.733 703.828 115.2C706.295 111.6 709.928 108.733 714.728 106.6C719.595 104.467 725.628 103.4 732.828 103.4C737.561 103.4 742.228 103.9 746.828 104.9C751.428 105.9 755.561 107.433 759.228 109.5L752.128 126.6C748.661 124.867 745.295 123.567 742.028 122.7C738.828 121.833 735.695 121.4 732.628 121.4C730.361 121.4 728.561 121.6 727.228 122C725.895 122.4 724.928 122.933 724.328 123.6C723.795 124.267 723.528 125 723.528 125.8C723.528 127 724.228 127.967 725.628 128.7C727.028 129.367 728.861 129.933 731.128 130.4C733.461 130.867 735.995 131.367 738.728 131.9C741.528 132.433 744.295 133.167 747.028 134.1C749.761 135.033 752.261 136.267 754.528 137.8C756.861 139.333 758.728 141.333 760.128 143.8C761.528 146.267 762.228 149.333 762.228 153C762.228 157.267 760.995 161.2 758.528 164.8C756.128 168.333 752.528 171.2 747.728 173.4C742.928 175.533 736.895 176.6 729.628 176.6Z" fill="#223B2E"/>
</svg>
