<svg width="105" height="125" viewBox="0 0 105 125" fill="none" xmlns="http://www.w3.org/2000/svg">
<path d="M96.148 123.955C96.4717 124.41 97.0544 124.473 97.4495 124.097L103.887 117.955C104.282 117.578 104.34 116.904 104.016 116.449C103.692 115.994 103.11 115.93 102.715 116.307L96.9924 121.766L92.303 115.173C91.9793 114.718 91.3966 114.654 91.0015 115.031C90.6065 115.408 90.5487 116.083 90.8724 116.538L96.148 123.955ZM0.330364 7.66633C-0.0216371 8.09654 -0.00698209 8.77369 0.363092 9.17877L6.39379 15.78C6.76386 16.185 7.34921 16.1647 7.7012 15.7344C8.0532 15.3042 8.03855 14.6271 7.66847 14.222L2.30786 8.35427L7.4066 2.12238C7.75859 1.69215 7.74394 1.01501 7.37387 0.609935C7.0038 0.204852 6.41844 0.225226 6.06645 0.655451L0.330364 7.66633ZM97.7835 123.373C101.585 79.0117 96.5171 49.2092 80.7295 30.88C64.9589 12.5707 38.7462 6.01533 0.977291 7.33032L1.02359 9.46926C38.7074 8.15722 64.221 14.7532 79.4161 32.3944C94.5942 50.0159 99.7314 78.9632 95.943 123.172L97.7835 123.373Z" fill="#4a8164"/>
</svg>
