<svg width="224" height="50" viewBox="0 0 224 50" fill="none" xmlns="http://www.w3.org/2000/svg">
<path d="M5 28.0003C18.5 19.9992 38 22.5 43.5 28C49.2563 33.7563 63.5 32.5 66 25C69 12.5 83.5446 12.1072 86 24.9991C88 35.5 103.5 38.5 106 24.9999C108.5 12.5002 119.393 6.12236 126 24.9997C129.5 35.0001 138.5 37 146 25.0005M146 25.0016C160.5 3.99948 167.485 31.9998 176 32C185 32.0002 193.5 18.5 209 25.0016M199 5L218.293 24.2929C218.683 24.6834 218.683 25.3166 218.293 25.7071L199 45M209 25H218.586" stroke="#9FC0AD" stroke-width="10" stroke-linecap="round"/>
</svg>
