<svg width="588" height="90" viewBox="0 0 588 90" fill="none" xmlns="http://www.w3.org/2000/svg">
<mask id="path-1-outside-1_2186_15" maskUnits="userSpaceOnUse" x="9" y="5" width="577" height="84" fill="black">
<rect fill="white" x="9" y="5" width="577" height="84"/>
<path d="M36.3 38H67.5V55H36.3V38ZM37.9 64.2H72.9V82H14.7V12H71.6V29.8H37.9V64.2ZM116.685 83.6C111.085 83.6 105.885 82.7333 101.085 81C96.3518 79.2 92.2185 76.6667 88.6852 73.4C85.2185 70.1333 82.5185 66.2667 80.5852 61.8C78.6518 57.3333 77.6852 52.4 77.6852 47C77.6852 41.6 78.6518 36.6667 80.5852 32.2C82.5185 27.7333 85.2185 23.8667 88.6852 20.6C92.2185 17.3333 96.3518 14.8333 101.085 13.1C105.885 11.3 111.085 10.4 116.685 10.4C123.552 10.4 129.618 11.6 134.885 14C140.218 16.4 144.618 19.8667 148.085 24.4L133.185 37.7C131.118 35.1 128.818 33.1 126.285 31.7C123.818 30.2333 121.018 29.5 117.885 29.5C115.418 29.5 113.185 29.9 111.185 30.7C109.185 31.5 107.452 32.6667 105.985 34.2C104.585 35.7333 103.485 37.6 102.685 39.8C101.885 41.9333 101.485 44.3333 101.485 47C101.485 49.6667 101.885 52.1 102.685 54.3C103.485 56.4333 104.585 58.2667 105.985 59.8C107.452 61.3333 109.185 62.5 111.185 63.3C113.185 64.1 115.418 64.5 117.885 64.5C121.018 64.5 123.818 63.8 126.285 62.4C128.818 60.9333 131.118 58.9 133.185 56.3L148.085 69.6C144.618 74.0667 140.218 77.5333 134.885 80C129.618 82.4 123.552 83.6 116.685 83.6ZM188.634 83.6C182.968 83.6 177.701 82.7 172.834 80.9C168.034 79.1 163.868 76.5667 160.334 73.3C156.801 69.9667 154.034 66.0667 152.034 61.6C150.101 57.1333 149.134 52.2667 149.134 47C149.134 41.6667 150.101 36.8 152.034 32.4C154.034 27.9333 156.801 24.0667 160.334 20.8C163.868 17.4667 168.034 14.9 172.834 13.1C177.701 11.3 182.968 10.4 188.634 10.4C194.368 10.4 199.634 11.3 204.434 13.1C209.234 14.9 213.401 17.4667 216.934 20.8C220.468 24.0667 223.201 27.9333 225.134 32.4C227.134 36.8 228.134 41.6667 228.134 47C228.134 52.2667 227.134 57.1333 225.134 61.6C223.201 66.0667 220.468 69.9667 216.934 73.3C213.401 76.5667 209.234 79.1 204.434 80.9C199.634 82.7 194.368 83.6 188.634 83.6ZM188.634 64.5C190.834 64.5 192.868 64.1 194.734 63.3C196.668 62.5 198.334 61.3667 199.734 59.9C201.201 58.3667 202.334 56.5333 203.134 54.4C203.934 52.2 204.334 49.7333 204.334 47C204.334 44.2667 203.934 41.8333 203.134 39.7C202.334 37.5 201.201 35.6667 199.734 34.2C198.334 32.6667 196.668 31.5 194.734 30.7C192.868 29.9 190.834 29.5 188.634 29.5C186.434 29.5 184.368 29.9 182.434 30.7C180.568 31.5 178.901 32.6667 177.434 34.2C176.034 35.6667 174.934 37.5 174.134 39.7C173.334 41.8333 172.934 44.2667 172.934 47C172.934 49.7333 173.334 52.2 174.134 54.4C174.934 56.5333 176.034 58.3667 177.434 59.9C178.901 61.3667 180.568 62.5 182.434 63.3C184.368 64.1 186.434 64.5 188.634 64.5ZM235.2 82V12H269.7C277.5 12 284.367 13.4333 290.3 16.3C296.233 19.1 300.867 23.1 304.2 28.3C307.533 33.5 309.2 39.7 309.2 46.9C309.2 54.1667 307.533 60.4333 304.2 65.7C300.867 70.9 296.233 74.9333 290.3 77.8C284.367 80.6 277.5 82 269.7 82H235.2ZM258.8 63.6H268.7C272.033 63.6 274.933 62.9667 277.4 61.7C279.933 60.4333 281.9 58.5667 283.3 56.1C284.7 53.5667 285.4 50.5 285.4 46.9C285.4 43.3667 284.7 40.3667 283.3 37.9C281.9 35.4333 279.933 33.5667 277.4 32.3C274.933 31.0333 272.033 30.4 268.7 30.4H258.8V63.6ZM316.317 82V12H350.017C356.551 12 362.184 13.0667 366.917 15.2C371.717 17.3333 375.417 20.4 378.017 24.4C380.617 28.3333 381.917 33 381.917 38.4C381.917 43.8 380.617 48.4667 378.017 52.4C375.417 56.2667 371.717 59.2333 366.917 61.3C362.184 63.3667 356.551 64.4 350.017 64.4H329.417L339.917 54.7V82H316.317ZM358.217 82L341.017 56.5H366.017L383.417 82H358.217ZM339.917 57.3L329.417 46.6H348.517C351.784 46.6 354.184 45.8667 355.717 44.4C357.317 42.9333 358.117 40.9333 358.117 38.4C358.117 35.8667 357.317 33.8667 355.717 32.4C354.184 30.9333 351.784 30.2 348.517 30.2H329.417L339.917 19.5V57.3ZM381.729 82L412.329 12H435.529L466.129 82H441.729L419.129 23.2H428.329L405.729 82H381.729ZM399.929 69.8L405.929 52.8H438.129L444.129 69.8H399.929ZM482.091 82L459.691 12H483.991L502.091 71.1H489.891L509.091 12H530.791L548.691 71.1H536.991L555.891 12H578.291L555.891 82H530.591L515.991 33.6H522.791L507.391 82H482.091Z"/>
</mask>
<path d="M36.3 38V33H31.3V38H36.3ZM67.5 38H72.5V33H67.5V38ZM67.5 55V60H72.5V55H67.5ZM36.3 55H31.3V60H36.3V55ZM37.9 64.2H32.9V69.2H37.9V64.2ZM72.9 64.2H77.9V59.2H72.9V64.2ZM72.9 82V87H77.9V82H72.9ZM14.7 82H9.7V87H14.7V82ZM14.7 12V7H9.7V12H14.7ZM71.6 12H76.6V7H71.6V12ZM71.6 29.8V34.8H76.6V29.8H71.6ZM37.9 29.8V24.8H32.9V29.8H37.9ZM36.3 38V43H67.5V38V33H36.3V38ZM67.5 38H62.5V55H67.5H72.5V38H67.5ZM67.5 55V50H36.3V55V60H67.5V55ZM36.3 55H41.3V38H36.3H31.3V55H36.3ZM37.9 64.2V69.2H72.9V64.2V59.2H37.9V64.2ZM72.9 64.2H67.9V82H72.9H77.9V64.2H72.9ZM72.9 82V77H14.7V82V87H72.9V82ZM14.7 82H19.7V12H14.7H9.7V82H14.7ZM14.7 12V17H71.6V12V7H14.7V12ZM71.6 12H66.6V29.8H71.6H76.6V12H71.6ZM71.6 29.8V24.8H37.9V29.8V34.8H71.6V29.8ZM37.9 29.8H32.9V64.2H37.9H42.9V29.8H37.9ZM101.085 81L99.3079 85.6735L99.3473 85.6885L99.3869 85.7028L101.085 81ZM88.6852 73.4L85.2562 77.0389L85.2734 77.0552L85.2909 77.0714L88.6852 73.4ZM80.5852 61.8L75.9965 63.7861L75.9965 63.7861L80.5852 61.8ZM80.5852 32.2L75.9965 30.2139L75.9965 30.2139L80.5852 32.2ZM88.6852 20.6L85.2909 16.9286L85.2734 16.9448L85.2562 16.9611L88.6852 20.6ZM101.085 13.1L102.804 17.7951L102.823 17.7884L102.841 17.7816L101.085 13.1ZM134.885 14L132.812 18.5499L132.823 18.5548L132.833 18.5596L134.885 14ZM148.085 24.4L151.415 28.1301L154.872 25.0441L152.057 21.3627L148.085 24.4ZM133.185 37.7L129.271 40.8112L132.565 44.9555L136.515 41.4301L133.185 37.7ZM126.285 31.7L123.73 35.9977L123.798 36.038L123.867 36.0762L126.285 31.7ZM111.185 30.7L113.042 35.3424L113.042 35.3424L111.185 30.7ZM105.985 34.2L102.372 30.7439L102.332 30.7858L102.293 30.8287L105.985 34.2ZM102.685 39.8L107.367 41.5556L107.376 41.5322L107.384 41.5087L102.685 39.8ZM102.685 54.3L97.9862 56.0087L97.9947 56.0322L98.0035 56.0556L102.685 54.3ZM105.985 59.8L102.293 63.1713L102.332 63.2142L102.372 63.2561L105.985 59.8ZM111.185 63.3L109.328 67.9424L109.328 67.9424L111.185 63.3ZM126.285 62.4L128.753 66.7484L128.772 66.7379L128.79 66.7271L126.285 62.4ZM133.185 56.3L136.515 52.5699L132.565 49.0445L129.271 53.1888L133.185 56.3ZM148.085 69.6L152.035 72.6656L154.897 68.9782L151.415 65.8699L148.085 69.6ZM134.885 80L136.959 84.5499L136.971 84.544L136.984 84.5381L134.885 80ZM116.685 83.6V78.6C111.608 78.6 106.988 77.8157 102.783 76.2972L101.085 81L99.3869 85.7028C104.782 87.651 110.562 88.6 116.685 88.6V83.6ZM101.085 81L102.862 76.3265C98.6955 74.7419 95.1185 72.5384 92.0794 69.7286L88.6852 73.4L85.2909 77.0714C89.3185 80.795 94.0082 83.6581 99.3079 85.6735L101.085 81ZM88.6852 73.4L92.1142 69.7611C89.1534 66.9711 86.843 63.6704 85.1738 59.8139L80.5852 61.8L75.9965 63.7861C78.194 68.8629 81.2836 73.2956 85.2562 77.0389L88.6852 73.4ZM80.5852 61.8L85.1738 59.8139C83.5401 56.0396 82.6852 51.7919 82.6852 47H77.6852H72.6852C72.6852 53.0081 73.7635 58.627 75.9965 63.7861L80.5852 61.8ZM77.6852 47H82.6852C82.6852 42.2081 83.5401 37.9604 85.1738 34.1861L80.5852 32.2L75.9965 30.2139C73.7635 35.373 72.6852 40.9919 72.6852 47H77.6852ZM80.5852 32.2L85.1738 34.1861C86.843 30.3296 89.1534 27.0289 92.1142 24.2389L88.6852 20.6L85.2562 16.9611C81.2836 20.7044 78.194 25.1371 75.9965 30.2139L80.5852 32.2ZM88.6852 20.6L92.0794 24.2714C95.1047 21.4745 98.6616 19.3122 102.804 17.7951L101.085 13.1L99.3658 8.4049C94.042 10.3545 89.3323 13.1922 85.2909 16.9286L88.6852 20.6ZM101.085 13.1L102.841 17.7816C107.03 16.2108 111.629 15.4 116.685 15.4V10.4V5.4C110.541 5.4 104.741 6.38921 99.3295 8.41835L101.085 13.1ZM116.685 10.4V15.4C122.968 15.4 128.306 16.4966 132.812 18.5499L134.885 14L136.959 9.45014C130.931 6.70338 124.136 5.4 116.685 5.4V10.4ZM134.885 14L132.833 18.5596C137.43 20.628 141.163 23.5796 144.113 27.4372L148.085 24.4L152.057 21.3627C148.074 16.1538 143.007 12.172 136.937 9.44039L134.885 14ZM148.085 24.4L144.756 20.6699L129.856 33.9699L133.185 37.7L136.515 41.4301L151.415 28.1301L148.085 24.4ZM133.185 37.7L137.099 34.5888C134.682 31.5481 131.893 29.0863 128.704 27.3238L126.285 31.7L123.867 36.0762C125.744 37.1137 127.555 38.6519 129.271 40.8112L133.185 37.7ZM126.285 31.7L128.841 27.4023C125.531 25.4343 121.833 24.5 117.885 24.5V29.5V34.5C120.204 34.5 122.106 35.0324 123.73 35.9977L126.285 31.7ZM117.885 29.5V24.5C114.874 24.5 111.998 24.9896 109.328 26.0576L111.185 30.7L113.042 35.3424C114.372 34.8104 115.963 34.5 117.885 34.5V29.5ZM111.185 30.7L109.328 26.0576C106.675 27.1188 104.34 28.6861 102.372 30.7439L105.985 34.2L109.598 37.6561C110.563 36.6472 111.695 35.8812 113.042 35.3424L111.185 30.7ZM105.985 34.2L102.293 30.8287C100.399 32.9028 98.9813 35.3546 97.9862 38.0913L102.685 39.8L107.384 41.5087C107.989 39.8454 108.771 38.5639 109.678 37.5713L105.985 34.2ZM102.685 39.8L98.0035 38.0444C96.9605 40.8259 96.4852 43.834 96.4852 47H101.485H106.485C106.485 44.8326 106.81 43.0408 107.367 41.5556L102.685 39.8ZM101.485 47H96.4852C96.4852 50.1693 96.9614 53.1905 97.9862 56.0087L102.685 54.3L107.384 52.5913C106.809 51.0095 106.485 49.164 106.485 47H101.485ZM102.685 54.3L98.0035 56.0556C99.0054 58.7274 100.423 61.1235 102.293 63.1713L105.985 59.8L109.678 56.4287C108.747 55.4098 107.965 54.1393 107.367 52.5444L102.685 54.3ZM105.985 59.8L102.372 63.2561C104.34 65.3138 106.675 66.8812 109.328 67.9424L111.185 63.3L113.042 58.6576C111.695 58.1188 110.563 57.3528 109.598 56.3439L105.985 59.8ZM111.185 63.3L109.328 67.9424C111.998 69.0104 114.874 69.5 117.885 69.5V64.5V59.5C115.963 59.5 114.372 59.1896 113.042 58.6576L111.185 63.3ZM117.885 64.5V69.5C121.791 69.5 125.457 68.6191 128.753 66.7484L126.285 62.4L123.817 58.0516C122.18 58.9809 120.246 59.5 117.885 59.5V64.5ZM126.285 62.4L128.79 66.7271C131.933 64.9076 134.695 62.4357 137.099 59.4112L133.185 56.3L129.271 53.1888C127.542 55.3643 125.704 56.9591 123.78 58.0729L126.285 62.4ZM133.185 56.3L129.856 60.0301L144.756 73.3301L148.085 69.6L151.415 65.8699L136.515 52.5699L133.185 56.3ZM148.085 69.6L144.135 66.5344C141.178 70.3441 137.423 73.3173 132.786 75.4619L134.885 80L136.984 84.5381C143.014 81.7494 148.059 77.7893 152.035 72.6656L148.085 69.6ZM134.885 80L132.812 75.4501C128.306 77.5034 122.968 78.6 116.685 78.6V83.6V88.6C124.136 88.6 130.931 87.2966 136.959 84.5499L134.885 80ZM172.834 80.9L171.079 85.5816L171.089 85.5856L171.1 85.5895L172.834 80.9ZM160.334 73.3L156.903 76.937L156.922 76.9543L156.94 76.9714L160.334 73.3ZM152.034 61.6L147.446 63.5861L147.458 63.6148L147.471 63.6433L152.034 61.6ZM152.034 32.4L147.471 30.3567L147.464 30.3726L147.457 30.3886L152.034 32.4ZM160.334 20.8L163.729 24.4714L163.747 24.4543L163.765 24.437L160.334 20.8ZM172.834 13.1L171.1 8.41048L171.089 8.41439L171.079 8.41835L172.834 13.1ZM204.434 13.1L202.679 17.7816L202.679 17.7816L204.434 13.1ZM216.934 20.8L213.503 24.437L213.522 24.4543L213.54 24.4714L216.934 20.8ZM225.134 32.4L220.546 34.3861L220.564 34.4277L220.583 34.469L225.134 32.4ZM225.134 61.6L220.571 59.5567L220.558 59.5852L220.546 59.6139L225.134 61.6ZM216.934 73.3L220.329 76.9714L220.347 76.9543L220.365 76.937L216.934 73.3ZM204.434 80.9L202.679 76.2184L202.679 76.2184L204.434 80.9ZM194.734 63.3L192.823 58.6799L192.794 58.6919L192.765 58.7043L194.734 63.3ZM199.734 59.9L196.121 56.4439L196.118 56.4476L199.734 59.9ZM203.134 54.4L207.816 56.1556L207.825 56.1322L207.833 56.1087L203.134 54.4ZM203.134 39.7L198.435 41.4087L198.444 41.4322L198.453 41.4556L203.134 39.7ZM199.734 34.2L196.042 37.5713L196.119 37.6552L196.199 37.7355L199.734 34.2ZM194.734 30.7L192.765 35.2957L192.794 35.3081L192.823 35.3201L194.734 30.7ZM182.434 30.7L180.523 26.0799L180.494 26.0919L180.465 26.1043L182.434 30.7ZM177.434 34.2L173.821 30.7439L173.818 30.7476L177.434 34.2ZM174.134 39.7L178.816 41.4556L178.825 41.4322L178.833 41.4087L174.134 39.7ZM174.134 54.4L169.435 56.1087L169.444 56.1322L169.453 56.1556L174.134 54.4ZM177.434 59.9L173.742 63.2713L173.819 63.3552L173.899 63.4355L177.434 59.9ZM182.434 63.3L180.465 67.8957L180.494 67.9081L180.523 67.9201L182.434 63.3ZM188.634 83.6V78.6C183.505 78.6 178.831 77.787 174.569 76.2105L172.834 80.9L171.1 85.5895C176.571 87.613 182.43 88.6 188.634 88.6V83.6ZM172.834 80.9L174.59 76.2184C170.356 74.6308 166.756 72.4274 163.729 69.6286L160.334 73.3L156.94 76.9714C160.98 80.7059 165.712 83.5692 171.079 85.5816L172.834 80.9ZM160.334 73.3L163.765 69.663C160.714 66.7847 158.331 63.4274 156.598 59.5567L152.034 61.6L147.471 63.6433C149.738 68.7059 152.888 73.1486 156.903 76.937L160.334 73.3ZM152.034 61.6L156.623 59.6139C154.983 55.8242 154.134 51.6402 154.134 47H149.134H144.134C144.134 52.8932 145.219 58.4424 147.446 63.5861L152.034 61.6ZM149.134 47H154.134C154.134 42.2828 154.986 38.1111 156.612 34.4114L152.034 32.4L147.457 30.3886C145.216 35.4889 144.134 41.0505 144.134 47H149.134ZM152.034 32.4L156.598 34.4433C158.327 30.5819 160.7 27.2719 163.729 24.4714L160.334 20.8L156.94 17.1286C152.903 20.8615 149.742 25.2848 147.471 30.3567L152.034 32.4ZM160.334 20.8L163.765 24.437C166.789 21.5847 170.377 19.3614 174.59 17.7816L172.834 13.1L171.079 8.41835C165.691 10.4386 160.947 13.3486 156.903 17.163L160.334 20.8ZM172.834 13.1L174.569 17.7895C178.831 16.213 183.505 15.4 188.634 15.4V10.4V5.4C182.43 5.4 176.571 6.38702 171.1 8.41048L172.834 13.1ZM188.634 10.4V15.4C193.839 15.4 198.503 16.2156 202.679 17.7816L204.434 13.1L206.19 8.41835C200.766 6.3844 194.897 5.4 188.634 5.4V10.4ZM204.434 13.1L202.679 17.7816C206.891 19.3614 210.48 21.5847 213.503 24.437L216.934 20.8L220.365 17.163C216.322 13.3486 211.577 10.4386 206.19 8.41835L204.434 13.1ZM216.934 20.8L213.54 24.4714C216.556 27.26 218.886 30.5507 220.546 34.3861L225.134 32.4L229.723 30.4139C227.516 25.316 224.379 20.8733 220.329 17.1286L216.934 20.8ZM225.134 32.4L220.583 34.469C222.258 38.1547 223.134 42.306 223.134 47H228.134H233.134C233.134 41.0274 232.011 35.4453 229.686 30.331L225.134 32.4ZM228.134 47H223.134C223.134 51.6168 222.262 55.7806 220.571 59.5567L225.134 61.6L229.698 63.6433C232.007 58.486 233.134 52.9165 233.134 47H228.134ZM225.134 61.6L220.546 59.6139C218.882 63.4586 216.542 66.7966 213.503 69.663L216.934 73.3L220.365 76.937C224.394 73.1367 227.52 68.6747 229.723 63.5861L225.134 61.6ZM216.934 73.3L213.54 69.6286C210.513 72.4274 206.912 74.6308 202.679 76.2184L204.434 80.9L206.19 85.5816C211.556 83.5692 216.289 80.7059 220.329 76.9714L216.934 73.3ZM204.434 80.9L202.679 76.2184C198.503 77.7844 193.839 78.6 188.634 78.6V83.6V88.6C194.897 88.6 200.766 87.6156 206.19 85.5816L204.434 80.9ZM188.634 64.5V69.5C191.455 69.5 194.165 68.984 196.704 67.8957L194.734 63.3L192.765 58.7043C191.571 59.216 190.214 59.5 188.634 59.5V64.5ZM194.734 63.3L196.646 67.9201C199.202 66.8625 201.455 65.339 203.351 63.3524L199.734 59.9L196.118 56.4476C195.214 57.3943 194.134 58.1375 192.823 58.6799L194.734 63.3ZM199.734 59.9L203.348 63.3561C205.315 61.2988 206.796 58.8749 207.816 56.1556L203.134 54.4L198.453 52.6444C197.872 54.1918 197.087 55.4345 196.121 56.4439L199.734 59.9ZM203.134 54.4L207.833 56.1087C208.863 53.2777 209.334 50.2203 209.334 47H204.334H199.334C199.334 49.2463 199.006 51.1223 198.435 52.6913L203.134 54.4ZM204.334 47H209.334C209.334 43.7837 208.864 40.7388 207.816 37.9444L203.134 39.7L198.453 41.4556C199.005 42.9279 199.334 44.7497 199.334 47H204.334ZM203.134 39.7L207.833 37.9913C206.816 35.1933 205.316 32.7105 203.27 30.6645L199.734 34.2L196.199 37.7355C197.086 38.6228 197.853 39.8067 198.435 41.4087L203.134 39.7ZM199.734 34.2L203.427 30.8287C201.528 28.7492 199.252 27.1582 196.646 26.0799L194.734 30.7L192.823 35.3201C194.083 35.8418 195.141 36.5842 196.042 37.5713L199.734 34.2ZM194.734 30.7L196.704 26.1043C194.165 25.016 191.455 24.5 188.634 24.5V29.5V34.5C190.214 34.5 191.571 34.784 192.765 35.2957L194.734 30.7ZM188.634 29.5V24.5C185.813 24.5 183.093 25.0163 180.523 26.0799L182.434 30.7L184.346 35.3201C185.642 34.7837 187.056 34.5 188.634 34.5V29.5ZM182.434 30.7L180.465 26.1043C177.951 27.1814 175.732 28.7461 173.821 30.7439L177.434 34.2L181.048 37.6561C182.07 36.5872 183.184 35.8186 184.404 35.2957L182.434 30.7ZM177.434 34.2L173.818 30.7476C171.872 32.7859 170.435 35.2412 169.435 37.9913L174.134 39.7L178.833 41.4087C179.433 39.7588 180.197 38.5475 181.051 37.6524L177.434 34.2ZM174.134 39.7L169.453 37.9444C168.405 40.7388 167.934 43.7837 167.934 47H172.934H177.934C177.934 44.7497 178.264 42.9279 178.816 41.4556L174.134 39.7ZM172.934 47H167.934C167.934 50.2203 168.406 53.2777 169.435 56.1087L174.134 54.4L178.833 52.6913C178.263 51.1223 177.934 49.2463 177.934 47H172.934ZM174.134 54.4L169.453 56.1556C170.455 58.8274 171.872 61.2235 173.742 63.2713L177.434 59.9L181.127 56.5287C180.197 55.5098 179.414 54.2393 178.816 52.6444L174.134 54.4ZM177.434 59.9L173.899 63.4355C175.805 65.3422 178.001 66.8397 180.465 67.8957L182.434 63.3L184.404 58.7043C183.135 58.1602 181.997 57.3911 180.97 56.3645L177.434 59.9ZM182.434 63.3L180.523 67.9201C183.093 68.9837 185.813 69.5 188.634 69.5V64.5V59.5C187.056 59.5 185.642 59.2163 184.346 58.6799L182.434 63.3ZM235.2 82H230.2V87H235.2V82ZM235.2 12V7H230.2V12H235.2ZM290.3 16.3L288.125 20.8021L288.145 20.812L288.166 20.8218L290.3 16.3ZM304.2 28.3L299.991 30.9983L299.991 30.9983L304.2 28.3ZM304.2 65.7L308.409 68.3983L308.417 68.3862L308.425 68.374L304.2 65.7ZM290.3 77.8L292.434 82.3218L292.455 82.312L292.475 82.3021L290.3 77.8ZM258.8 63.6H253.8V68.6H258.8V63.6ZM277.4 61.7L275.164 57.2279L275.14 57.2399L275.116 57.2522L277.4 61.7ZM283.3 56.1L287.648 58.568L287.662 58.5433L287.676 58.5184L283.3 56.1ZM283.3 37.9L287.648 35.432L287.648 35.432L283.3 37.9ZM277.4 32.3L275.116 36.7478L275.14 36.7601L275.164 36.7721L277.4 32.3ZM258.8 30.4V25.4H253.8V30.4H258.8ZM235.2 82H240.2V12H235.2H230.2V82H235.2ZM235.2 12V17H269.7V12V7H235.2V12ZM269.7 12V17C276.884 17 282.983 18.318 288.125 20.8021L290.3 16.3L292.475 11.7979C285.75 8.54867 278.116 7 269.7 7V12ZM290.3 16.3L288.166 20.8218C293.305 23.247 297.196 26.6389 299.991 30.9983L304.2 28.3L308.409 25.6017C304.537 19.5611 299.161 14.953 292.434 11.7782L290.3 16.3ZM304.2 28.3L299.991 30.9983C302.727 35.267 304.2 40.4949 304.2 46.9H309.2H314.2C314.2 38.9051 312.34 31.733 308.409 25.6017L304.2 28.3ZM309.2 46.9H304.2C304.2 53.3799 302.723 58.6845 299.975 63.026L304.2 65.7L308.425 68.374C312.344 62.1822 314.2 54.9535 314.2 46.9H309.2ZM304.2 65.7L299.991 63.0017C297.189 67.3716 293.284 70.8051 288.125 73.2979L290.3 77.8L292.475 82.3021C299.182 79.0616 304.544 74.4284 308.409 68.3983L304.2 65.7ZM290.3 77.8L288.166 73.2782C283.014 75.7094 276.9 77 269.7 77V82V87C278.1 87 285.719 85.4906 292.434 82.3218L290.3 77.8ZM269.7 82V77H235.2V82V87H269.7V82ZM258.8 63.6V68.6H268.7V63.6V58.6H258.8V63.6ZM268.7 63.6V68.6C272.669 68.6 276.382 67.8437 279.684 66.1478L277.4 61.7L275.116 57.2522C273.485 58.0896 271.398 58.6 268.7 58.6V63.6ZM277.4 61.7L279.636 66.1721C283.058 64.4611 285.759 61.8962 287.648 58.568L283.3 56.1L278.952 53.632C278.041 55.2371 276.809 56.4055 275.164 57.2279L277.4 61.7ZM283.3 56.1L287.676 58.5184C289.574 55.0851 290.4 51.1426 290.4 46.9H285.4H280.4C280.4 49.8574 279.826 52.0483 278.924 53.6816L283.3 56.1ZM285.4 46.9H290.4C290.4 42.7115 289.568 38.8148 287.648 35.432L283.3 37.9L278.952 40.368C279.832 41.9185 280.4 44.0218 280.4 46.9H285.4ZM283.3 37.9L287.648 35.432C285.759 32.1038 283.058 29.5389 279.636 27.8279L277.4 32.3L275.164 36.7721C276.809 37.5945 278.041 38.7629 278.952 40.368L283.3 37.9ZM277.4 32.3L279.684 27.8522C276.382 26.1563 272.669 25.4 268.7 25.4V30.4V35.4C271.398 35.4 273.485 35.9104 275.116 36.7478L277.4 32.3ZM268.7 30.4V25.4H258.8V30.4V35.4H268.7V30.4ZM258.8 30.4H253.8V63.6H258.8H263.8V30.4H258.8ZM316.317 82H311.317V87H316.317V82ZM316.317 12V7H311.317V12H316.317ZM366.917 15.2L364.863 19.7584L364.875 19.7638L364.886 19.7691L366.917 15.2ZM378.017 24.4L373.825 27.1249L373.835 27.1411L373.846 27.1572L378.017 24.4ZM378.017 52.4L382.166 55.19L382.177 55.1736L382.188 55.1572L378.017 52.4ZM366.917 61.3L364.94 56.7076L364.928 56.7126L364.916 56.7177L366.917 61.3ZM329.417 64.4L326.024 60.7273L316.636 69.4H329.417V64.4ZM339.917 54.7H344.917V43.2739L336.524 51.0273L339.917 54.7ZM339.917 82V87H344.917V82H339.917ZM358.217 82L354.072 84.796L355.559 87H358.217V82ZM341.017 56.5V51.5H331.614L336.872 59.296L341.017 56.5ZM366.017 56.5L370.147 53.6818L368.659 51.5H366.017V56.5ZM383.417 82V87H392.882L387.547 79.1818L383.417 82ZM339.917 57.3L336.348 60.802L344.917 69.534V57.3H339.917ZM329.417 46.6V41.6H317.505L325.848 50.102L329.417 46.6ZM355.717 44.4L352.339 40.7142L352.299 40.7501L352.261 40.7868L355.717 44.4ZM355.717 32.4L352.261 36.0132L352.299 36.0499L352.339 36.0858L355.717 32.4ZM329.417 30.2L325.848 26.698L317.505 35.2H329.417V30.2ZM339.917 19.5H344.917V7.26603L336.348 15.998L339.917 19.5ZM316.317 82H321.317V12H316.317H311.317V82H316.317ZM316.317 12V17H350.017V12V7H316.317V12ZM350.017 12V17C356.019 17 360.919 17.9811 364.863 19.7584L366.917 15.2L368.972 10.6416C363.448 8.15224 357.082 7 350.017 7V12ZM366.917 15.2L364.886 19.7691C368.896 21.5508 371.805 24.0168 373.825 27.1249L378.017 24.4L382.209 21.6751C379.03 16.7832 374.539 13.1158 368.948 10.6309L366.917 15.2ZM378.017 24.4L373.846 27.1572C375.83 30.1584 376.917 33.8339 376.917 38.4H381.917H386.917C386.917 32.1661 385.404 26.5083 382.188 21.6428L378.017 24.4ZM381.917 38.4H376.917C376.917 42.9661 375.83 46.6416 373.846 49.6428L378.017 52.4L382.188 55.1572C385.404 50.2917 386.917 44.6339 386.917 38.4H381.917ZM378.017 52.4L373.868 49.61C371.867 52.5853 368.969 54.973 364.94 56.7076L366.917 61.3L368.894 65.8924C374.466 63.4936 378.967 59.948 382.166 55.19L378.017 52.4ZM366.917 61.3L364.916 56.7177C360.958 58.4462 356.038 59.4 350.017 59.4V64.4V69.4C357.063 69.4 363.41 68.2871 368.918 65.8823L366.917 61.3ZM350.017 64.4V59.4H329.417V64.4V69.4H350.017V64.4ZM329.417 64.4L332.81 68.0727L343.31 58.3727L339.917 54.7L336.524 51.0273L326.024 60.7273L329.417 64.4ZM339.917 54.7H334.917V82H339.917H344.917V54.7H339.917ZM339.917 82V77H316.317V82V87H339.917V82ZM358.217 82L362.362 79.204L345.162 53.704L341.017 56.5L336.872 59.296L354.072 84.796L358.217 82ZM341.017 56.5V61.5H366.017V56.5V51.5H341.017V56.5ZM366.017 56.5L361.887 59.3182L379.287 84.8182L383.417 82L387.547 79.1818L370.147 53.6818L366.017 56.5ZM383.417 82V77H358.217V82V87H383.417V82ZM339.917 57.3L343.486 53.798L332.986 43.098L329.417 46.6L325.848 50.102L336.348 60.802L339.917 57.3ZM329.417 46.6V51.6H348.517V46.6V41.6H329.417V46.6ZM348.517 46.6V51.6C352.397 51.6 356.315 50.747 359.173 48.0132L355.717 44.4L352.261 40.7868C352.052 40.9864 351.171 41.6 348.517 41.6V46.6ZM355.717 44.4L359.096 48.0858C361.904 45.5116 363.117 42.0784 363.117 38.4H358.117H353.117C353.117 39.7883 352.73 40.3551 352.339 40.7142L355.717 44.4ZM358.117 38.4H363.117C363.117 34.7216 361.904 31.2884 359.096 28.7142L355.717 32.4L352.339 36.0858C352.73 36.4449 353.117 37.0117 353.117 38.4H358.117ZM355.717 32.4L359.173 28.7868C356.315 26.053 352.397 25.2 348.517 25.2V30.2V35.2C351.171 35.2 352.052 35.8136 352.261 36.0132L355.717 32.4ZM348.517 30.2V25.2H329.417V30.2V35.2H348.517V30.2ZM329.417 30.2L332.986 33.702L343.486 23.002L339.917 19.5L336.348 15.998L325.848 26.698L329.417 30.2ZM339.917 19.5H334.917V57.3H339.917H344.917V19.5H339.917ZM381.729 82L377.148 79.9973L374.086 87H381.729V82ZM412.329 12V7H409.058L407.748 9.99727L412.329 12ZM435.529 12L440.11 9.99727L438.8 7H435.529V12ZM466.129 82V87H473.771L470.71 79.9973L466.129 82ZM441.729 82L437.062 83.7938L438.294 87H441.729V82ZM419.129 23.2V18.2H411.851L414.462 24.9938L419.129 23.2ZM428.329 23.2L432.996 24.9938L435.607 18.2H428.329V23.2ZM405.729 82V87H409.164L410.396 83.7938L405.729 82ZM399.929 69.8L395.214 68.1359L392.862 74.8H399.929V69.8ZM405.929 52.8V47.8H402.391L401.214 51.1359L405.929 52.8ZM438.129 52.8L442.844 51.1359L441.666 47.8H438.129V52.8ZM444.129 69.8V74.8H451.196L448.844 68.1359L444.129 69.8ZM381.729 82L386.31 84.0027L416.91 14.0027L412.329 12L407.748 9.99727L377.148 79.9973L381.729 82ZM412.329 12V17H435.529V12V7H412.329V12ZM435.529 12L430.948 14.0027L461.548 84.0027L466.129 82L470.71 79.9973L440.11 9.99727L435.529 12ZM466.129 82V77H441.729V82V87H466.129V82ZM441.729 82L446.396 80.2062L423.796 21.4062L419.129 23.2L414.462 24.9938L437.062 83.7938L441.729 82ZM419.129 23.2V28.2H428.329V23.2V18.2H419.129V23.2ZM428.329 23.2L423.662 21.4062L401.062 80.2062L405.729 82L410.396 83.7938L432.996 24.9938L428.329 23.2ZM405.729 82V77H381.729V82V87H405.729V82ZM399.929 69.8L404.644 71.4641L410.644 54.4641L405.929 52.8L401.214 51.1359L395.214 68.1359L399.929 69.8ZM405.929 52.8V57.8H438.129V52.8V47.8H405.929V52.8ZM438.129 52.8L433.414 54.4641L439.414 71.4641L444.129 69.8L448.844 68.1359L442.844 51.1359L438.129 52.8ZM444.129 69.8V64.8H399.929V69.8V74.8H444.129V69.8ZM482.091 82L477.329 83.5239L478.442 87H482.091V82ZM459.691 12V7H452.842L454.929 13.5239L459.691 12ZM483.991 12L488.772 10.5358L487.689 7H483.991V12ZM502.091 71.1V76.1H508.852L506.872 69.6358L502.091 71.1ZM489.891 71.1L485.136 69.5551L483.01 76.1H489.891V71.1ZM509.091 12V7H505.459L504.336 10.4551L509.091 12ZM530.791 12L535.577 10.5506L534.501 7H530.791V12ZM548.691 71.1V76.1H555.43L553.477 69.6506L548.691 71.1ZM536.991 71.1L532.229 69.577L530.143 76.1H536.991V71.1ZM555.891 12V7H552.241L551.129 10.477L555.891 12ZM578.291 12L583.054 13.5239L585.141 7H578.291V12ZM555.891 82V87H559.541L560.654 83.5239L555.891 82ZM530.591 82L525.804 83.444L526.877 87H530.591V82ZM515.991 33.6V28.6H509.261L511.204 35.044L515.991 33.6ZM522.791 33.6L527.556 35.116L529.629 28.6H522.791V33.6ZM507.391 82V87H511.047L512.156 83.516L507.391 82ZM482.091 82L486.854 80.4761L464.454 10.4761L459.691 12L454.929 13.5239L477.329 83.5239L482.091 82ZM459.691 12V17H483.991V12V7H459.691V12ZM483.991 12L479.211 13.4642L497.311 72.5642L502.091 71.1L506.872 69.6358L488.772 10.5358L483.991 12ZM502.091 71.1V66.1H489.891V71.1V76.1H502.091V71.1ZM489.891 71.1L494.647 72.6449L513.847 13.5449L509.091 12L504.336 10.4551L485.136 69.5551L489.891 71.1ZM509.091 12V17H530.791V12V7H509.091V12ZM530.791 12L526.006 13.4494L543.906 72.5494L548.691 71.1L553.477 69.6506L535.577 10.5506L530.791 12ZM548.691 71.1V66.1H536.991V71.1V76.1H548.691V71.1ZM536.991 71.1L541.754 72.623L560.654 13.523L555.891 12L551.129 10.477L532.229 69.577L536.991 71.1ZM555.891 12V17H578.291V12V7H555.891V12ZM578.291 12L573.529 10.4761L551.129 80.4761L555.891 82L560.654 83.5239L583.054 13.5239L578.291 12ZM555.891 82V77H530.591V82V87H555.891V82ZM530.591 82L535.378 80.556L520.778 32.156L515.991 33.6L511.204 35.044L525.804 83.444L530.591 82ZM515.991 33.6V38.6H522.791V33.6V28.6H515.991V33.6ZM522.791 33.6L518.027 32.084L502.627 80.484L507.391 82L512.156 83.516L527.556 35.116L522.791 33.6ZM507.391 82V77H482.091V82V87H507.391V82Z" fill="#4A8164" mask="url(#path-1-outside-1_2186_15)"/>
<path d="M26.3 31H57.5V48H26.3V31ZM27.9 57.2H62.9V75H4.7V5H61.6V22.8H27.9V57.2ZM106.685 76.6C101.085 76.6 95.8852 75.7333 91.0852 74C86.3518 72.2 82.2185 69.6667 78.6852 66.4C75.2185 63.1333 72.5185 59.2667 70.5852 54.8C68.6518 50.3333 67.6852 45.4 67.6852 40C67.6852 34.6 68.6518 29.6667 70.5852 25.2C72.5185 20.7333 75.2185 16.8667 78.6852 13.6C82.2185 10.3333 86.3518 7.83333 91.0852 6.1C95.8852 4.3 101.085 3.4 106.685 3.4C113.552 3.4 119.618 4.6 124.885 7C130.218 9.4 134.618 12.8667 138.085 17.4L123.185 30.7C121.118 28.1 118.818 26.1 116.285 24.7C113.818 23.2333 111.018 22.5 107.885 22.5C105.418 22.5 103.185 22.9 101.185 23.7C99.1852 24.5 97.4518 25.6667 95.9852 27.2C94.5852 28.7333 93.4852 30.6 92.6852 32.8C91.8852 34.9333 91.4852 37.3333 91.4852 40C91.4852 42.6667 91.8852 45.1 92.6852 47.3C93.4852 49.4333 94.5852 51.2667 95.9852 52.8C97.4518 54.3333 99.1852 55.5 101.185 56.3C103.185 57.1 105.418 57.5 107.885 57.5C111.018 57.5 113.818 56.8 116.285 55.4C118.818 53.9333 121.118 51.9 123.185 49.3L138.085 62.6C134.618 67.0667 130.218 70.5333 124.885 73C119.618 75.4 113.552 76.6 106.685 76.6ZM178.634 76.6C172.968 76.6 167.701 75.7 162.834 73.9C158.034 72.1 153.868 69.5667 150.334 66.3C146.801 62.9667 144.034 59.0667 142.034 54.6C140.101 50.1333 139.134 45.2667 139.134 40C139.134 34.6667 140.101 29.8 142.034 25.4C144.034 20.9333 146.801 17.0667 150.334 13.8C153.868 10.4667 158.034 7.9 162.834 6.1C167.701 4.3 172.968 3.4 178.634 3.4C184.368 3.4 189.634 4.3 194.434 6.1C199.234 7.9 203.401 10.4667 206.934 13.8C210.468 17.0667 213.201 20.9333 215.134 25.4C217.134 29.8 218.134 34.6667 218.134 40C218.134 45.2667 217.134 50.1333 215.134 54.6C213.201 59.0667 210.468 62.9667 206.934 66.3C203.401 69.5667 199.234 72.1 194.434 73.9C189.634 75.7 184.368 76.6 178.634 76.6ZM178.634 57.5C180.834 57.5 182.868 57.1 184.734 56.3C186.668 55.5 188.334 54.3667 189.734 52.9C191.201 51.3667 192.334 49.5333 193.134 47.4C193.934 45.2 194.334 42.7333 194.334 40C194.334 37.2667 193.934 34.8333 193.134 32.7C192.334 30.5 191.201 28.6667 189.734 27.2C188.334 25.6667 186.668 24.5 184.734 23.7C182.868 22.9 180.834 22.5 178.634 22.5C176.434 22.5 174.368 22.9 172.434 23.7C170.568 24.5 168.901 25.6667 167.434 27.2C166.034 28.6667 164.934 30.5 164.134 32.7C163.334 34.8333 162.934 37.2667 162.934 40C162.934 42.7333 163.334 45.2 164.134 47.4C164.934 49.5333 166.034 51.3667 167.434 52.9C168.901 54.3667 170.568 55.5 172.434 56.3C174.368 57.1 176.434 57.5 178.634 57.5ZM225.2 75V5H259.7C267.5 5 274.367 6.43333 280.3 9.3C286.233 12.1 290.867 16.1 294.2 21.3C297.533 26.5 299.2 32.7 299.2 39.9C299.2 47.1667 297.533 53.4333 294.2 58.7C290.867 63.9 286.233 67.9333 280.3 70.8C274.367 73.6 267.5 75 259.7 75H225.2ZM248.8 56.6H258.7C262.033 56.6 264.933 55.9667 267.4 54.7C269.933 53.4333 271.9 51.5667 273.3 49.1C274.7 46.5667 275.4 43.5 275.4 39.9C275.4 36.3667 274.7 33.3667 273.3 30.9C271.9 28.4333 269.933 26.5667 267.4 25.3C264.933 24.0333 262.033 23.4 258.7 23.4H248.8V56.6ZM306.317 75V5H340.017C346.551 5 352.184 6.06666 356.917 8.2C361.717 10.3333 365.417 13.4 368.017 17.4C370.617 21.3333 371.917 26 371.917 31.4C371.917 36.8 370.617 41.4667 368.017 45.4C365.417 49.2667 361.717 52.2333 356.917 54.3C352.184 56.3667 346.551 57.4 340.017 57.4H319.417L329.917 47.7V75H306.317ZM348.217 75L331.017 49.5H356.017L373.417 75H348.217ZM329.917 50.3L319.417 39.6H338.517C341.784 39.6 344.184 38.8667 345.717 37.4C347.317 35.9333 348.117 33.9333 348.117 31.4C348.117 28.8667 347.317 26.8667 345.717 25.4C344.184 23.9333 341.784 23.2 338.517 23.2H319.417L329.917 12.5V50.3ZM371.729 75L402.329 5H425.529L456.129 75H431.729L409.129 16.2H418.329L395.729 75H371.729ZM389.929 62.8L395.929 45.8H428.129L434.129 62.8H389.929ZM472.091 75L449.691 5H473.991L492.091 64.1H479.891L499.091 5H520.791L538.691 64.1H526.991L545.891 5H568.291L545.891 75H520.591L505.991 26.6H512.791L497.391 75H472.091Z" fill="#223B2E"/>
</svg>
