<svg width="588" height="90" viewBox="0 0 588 90" fill="none" xmlns="http://www.w3.org/2000/svg">
<mask id="path-1-outside-1_2186_15" maskUnits="userSpaceOnUse" x="10" y="5" width="576" height="84" fill="black">
<rect fill="white" x="10" y="5" width="576" height="84"/>
<path d="M37.0031 38H68.2031V55H37.0031V38ZM38.6031 64.2H73.6031V82H15.4031V12H72.3031V29.8H38.6031V64.2ZM117.388 83.6C111.788 83.6 106.588 82.7333 101.788 81C97.0549 79.2 92.9216 76.6667 89.3883 73.4C85.9216 70.1333 83.2216 66.2667 81.2883 61.8C79.3549 57.3333 78.3883 52.4 78.3883 47C78.3883 41.6 79.3549 36.6667 81.2883 32.2C83.2216 27.7333 85.9216 23.8667 89.3883 20.6C92.9216 17.3333 97.0549 14.8333 101.788 13.1C106.588 11.3 111.788 10.4 117.388 10.4C124.255 10.4 130.322 11.6 135.588 14C140.922 16.4 145.322 19.8667 148.788 24.4L133.888 37.7C131.822 35.1 129.522 33.1 126.988 31.7C124.522 30.2333 121.722 29.5 118.588 29.5C116.122 29.5 113.888 29.9 111.888 30.7C109.888 31.5 108.155 32.6667 106.688 34.2C105.288 35.7333 104.188 37.6 103.388 39.8C102.588 41.9333 102.188 44.3333 102.188 47C102.188 49.6667 102.588 52.1 103.388 54.3C104.188 56.4333 105.288 58.2667 106.688 59.8C108.155 61.3333 109.888 62.5 111.888 63.3C113.888 64.1 116.122 64.5 118.588 64.5C121.722 64.5 124.522 63.8 126.988 62.4C129.522 60.9333 131.822 58.9 133.888 56.3L148.788 69.6C145.322 74.0667 140.922 77.5333 135.588 80C130.322 82.4 124.255 83.6 117.388 83.6ZM189.338 83.6C183.671 83.6 178.404 82.7 173.538 80.9C168.738 79.1 164.571 76.5667 161.038 73.3C157.504 69.9667 154.738 66.0667 152.738 61.6C150.804 57.1333 149.838 52.2667 149.838 47C149.838 41.6667 150.804 36.8 152.738 32.4C154.738 27.9333 157.504 24.0667 161.038 20.8C164.571 17.4667 168.738 14.9 173.538 13.1C178.404 11.3 183.671 10.4 189.338 10.4C195.071 10.4 200.338 11.3 205.138 13.1C209.938 14.9 214.104 17.4667 217.638 20.8C221.171 24.0667 223.904 27.9333 225.838 32.4C227.838 36.8 228.838 41.6667 228.838 47C228.838 52.2667 227.838 57.1333 225.838 61.6C223.904 66.0667 221.171 69.9667 217.638 73.3C214.104 76.5667 209.938 79.1 205.138 80.9C200.338 82.7 195.071 83.6 189.338 83.6ZM189.338 64.5C191.538 64.5 193.571 64.1 195.438 63.3C197.371 62.5 199.038 61.3667 200.438 59.9C201.904 58.3667 203.038 56.5333 203.838 54.4C204.638 52.2 205.038 49.7333 205.038 47C205.038 44.2667 204.638 41.8333 203.838 39.7C203.038 37.5 201.904 35.6667 200.438 34.2C199.038 32.6667 197.371 31.5 195.438 30.7C193.571 29.9 191.538 29.5 189.338 29.5C187.138 29.5 185.071 29.9 183.138 30.7C181.271 31.5 179.604 32.6667 178.138 34.2C176.738 35.6667 175.638 37.5 174.838 39.7C174.038 41.8333 173.638 44.2667 173.638 47C173.638 49.7333 174.038 52.2 174.838 54.4C175.638 56.5333 176.738 58.3667 178.138 59.9C179.604 61.3667 181.271 62.5 183.138 63.3C185.071 64.1 187.138 64.5 189.338 64.5ZM235.903 82V12H270.403C278.203 12 285.07 13.4333 291.003 16.3C296.936 19.1 301.57 23.1 304.903 28.3C308.236 33.5 309.903 39.7 309.903 46.9C309.903 54.1667 308.236 60.4333 304.903 65.7C301.57 70.9 296.936 74.9333 291.003 77.8C285.07 80.6 278.203 82 270.403 82H235.903ZM259.503 63.6H269.403C272.736 63.6 275.636 62.9667 278.103 61.7C280.636 60.4333 282.603 58.5667 284.003 56.1C285.403 53.5667 286.103 50.5 286.103 46.9C286.103 43.3667 285.403 40.3667 284.003 37.9C282.603 35.4333 280.636 33.5667 278.103 32.3C275.636 31.0333 272.736 30.4 269.403 30.4H259.503V63.6ZM317.02 82V12H350.72C357.254 12 362.887 13.0667 367.62 15.2C372.42 17.3333 376.12 20.4 378.72 24.4C381.32 28.3333 382.62 33 382.62 38.4C382.62 43.8 381.32 48.4667 378.72 52.4C376.12 56.2667 372.42 59.2333 367.62 61.3C362.887 63.3667 357.254 64.4 350.72 64.4H330.12L340.62 54.7V82H317.02ZM358.92 82L341.72 56.5H366.72L384.12 82H358.92ZM340.62 57.3L330.12 46.6H349.22C352.487 46.6 354.887 45.8667 356.42 44.4C358.02 42.9333 358.82 40.9333 358.82 38.4C358.82 35.8667 358.02 33.8667 356.42 32.4C354.887 30.9333 352.487 30.2 349.22 30.2H330.12L340.62 19.5V57.3ZM382.432 82L413.032 12H436.232L466.832 82H442.432L419.832 23.2H429.032L406.432 82H382.432ZM400.632 69.8L406.632 52.8H438.832L444.832 69.8H400.632ZM482.795 82L460.395 12H484.695L502.795 71.1H490.595L509.795 12H531.495L549.395 71.1H537.695L556.595 12H578.995L556.595 82H531.295L516.695 33.6H523.495L508.095 82H482.795Z"/>
</mask>
<path d="M37.0031 38V33H32.0031V38H37.0031ZM68.2031 38H73.2031V33H68.2031V38ZM68.2031 55V60H73.2031V55H68.2031ZM37.0031 55H32.0031V60H37.0031V55ZM38.6031 64.2H33.6031V69.2H38.6031V64.2ZM73.6031 64.2H78.6031V59.2H73.6031V64.2ZM73.6031 82V87H78.6031V82H73.6031ZM15.4031 82H10.4031V87H15.4031V82ZM15.4031 12V7H10.4031V12H15.4031ZM72.3031 12H77.3031V7H72.3031V12ZM72.3031 29.8V34.8H77.3031V29.8H72.3031ZM38.6031 29.8V24.8H33.6031V29.8H38.6031ZM37.0031 43H68.2031V33H37.0031V43ZM63.2031 38V55H73.2031V38H63.2031ZM68.2031 50H37.0031V60H68.2031V50ZM42.0031 55V38H32.0031V55H42.0031ZM38.6031 69.2H73.6031V59.2H38.6031V69.2ZM68.6031 64.2V82H78.6031V64.2H68.6031ZM73.6031 77H15.4031V87H73.6031V77ZM20.4031 82V12H10.4031V82H20.4031ZM15.4031 17H72.3031V7H15.4031V17ZM67.3031 12V29.8H77.3031V12H67.3031ZM72.3031 24.8H38.6031V34.8H72.3031V24.8ZM33.6031 29.8V64.2H43.6031V29.8H33.6031ZM101.788 81L100.011 85.6735L100.05 85.6885L100.09 85.7028L101.788 81ZM89.3883 73.4L85.9593 77.0389L85.9766 77.0552L85.994 77.0714L89.3883 73.4ZM81.2883 61.8L76.6997 63.7861L81.2883 61.8ZM81.2883 32.2L76.6997 30.2139L81.2883 32.2ZM89.3883 20.6L85.994 16.9286L85.9766 16.9448L85.9593 16.9611L89.3883 20.6ZM101.788 13.1L103.508 17.7951L103.526 17.7884L103.544 17.7816L101.788 13.1ZM135.588 14L133.515 18.5499L133.526 18.5548L133.536 18.5596L135.588 14ZM148.788 24.4L152.118 28.1301L155.575 25.0441L152.76 21.3627L148.788 24.4ZM133.888 37.7L129.974 40.8112L133.268 44.9555L137.218 41.4301L133.888 37.7ZM126.988 31.7L124.433 35.9977L124.501 36.038L124.57 36.0762L126.988 31.7ZM111.888 30.7L113.745 35.3424L113.745 35.3424L111.888 30.7ZM106.688 34.2L103.075 30.7439L103.035 30.7858L102.996 30.8287L106.688 34.2ZM103.388 39.8L108.07 41.5556L108.079 41.5322L108.087 41.5087L103.388 39.8ZM103.388 54.3L98.6893 56.0087L98.6979 56.0322L98.7066 56.0556L103.388 54.3ZM106.688 59.8L102.996 63.1713L103.035 63.2142L103.075 63.2561L106.688 59.8ZM111.888 63.3L110.031 67.9424H110.031L111.888 63.3ZM126.988 62.4L129.456 66.7484L129.475 66.7379L129.493 66.7271L126.988 62.4ZM133.888 56.3L137.218 52.5699L133.268 49.0445L129.974 53.1888L133.888 56.3ZM148.788 69.6L152.738 72.6656L155.6 68.9782L152.118 65.8699L148.788 69.6ZM135.588 80L137.662 84.5499L137.674 84.544L137.687 84.5381L135.588 80ZM117.388 78.6C112.311 78.6 107.691 77.8157 103.487 76.2972L100.09 85.7028C105.485 87.651 111.266 88.6 117.388 88.6V78.6ZM103.566 76.3265C99.3986 74.7419 95.8216 72.5384 92.7826 69.7286L85.994 77.0714C90.0216 80.795 94.7113 83.6581 100.011 85.6735L103.566 76.3265ZM92.8173 69.7611C89.8565 66.9711 87.5462 63.6704 85.8769 59.8139L76.6997 63.7861C78.8971 68.8629 81.9867 73.2956 85.9593 77.0389L92.8173 69.7611ZM85.8769 59.8139C84.2433 56.0396 83.3883 51.7919 83.3883 47H73.3883C73.3883 53.0081 74.4666 58.627 76.6997 63.7861L85.8769 59.8139ZM83.3883 47C83.3883 42.2081 84.2433 37.9604 85.8769 34.1861L76.6997 30.2139C74.4666 35.373 73.3883 40.9919 73.3883 47H83.3883ZM85.8769 34.1861C87.5462 30.3296 89.8565 27.0289 92.8173 24.2389L85.9593 16.9611C81.9867 20.7044 78.8971 25.1371 76.6997 30.2139L85.8769 34.1861ZM92.7826 24.2714C95.8078 21.4745 99.3647 19.3122 103.508 17.7951L100.069 8.4049C94.7452 10.3545 90.0355 13.1922 85.994 16.9286L92.7826 24.2714ZM103.544 17.7816C107.733 16.2108 112.332 15.4 117.388 15.4V5.4C111.244 5.4 105.444 6.38921 100.033 8.41835L103.544 17.7816ZM117.388 15.4C123.671 15.4 129.009 16.4966 133.515 18.5499L137.662 9.45014C131.634 6.70338 124.839 5.4 117.388 5.4V15.4ZM133.536 18.5596C138.133 20.628 141.867 23.5796 144.816 27.4372L152.76 21.3627C148.777 16.1538 143.71 12.172 137.64 9.44039L133.536 18.5596ZM145.459 20.6699L130.559 33.9699L137.218 41.4301L152.118 28.1301L145.459 20.6699ZM137.802 34.5888C135.385 31.5481 132.596 29.0863 129.407 27.3238L124.57 36.0762C126.447 37.1137 128.258 38.6519 129.974 40.8112L137.802 34.5888ZM129.544 27.4023C126.234 25.4343 122.536 24.5 118.588 24.5V34.5C120.907 34.5 122.809 35.0324 124.433 35.9977L129.544 27.4023ZM118.588 24.5C115.577 24.5 112.701 24.9896 110.031 26.0576L113.745 35.3424C115.075 34.8104 116.666 34.5 118.588 34.5V24.5ZM110.031 26.0576C107.378 27.1188 105.043 28.6861 103.075 30.7439L110.301 37.6561C111.267 36.6472 112.398 35.8812 113.745 35.3424L110.031 26.0576ZM102.996 30.8287C101.102 32.9028 99.6845 35.3546 98.6893 38.0913L108.087 41.5087C108.692 39.8453 109.475 38.5639 110.381 37.5713L102.996 30.8287ZM98.7066 38.0444C97.6636 40.8259 97.1883 43.834 97.1883 47H107.188C107.188 44.8326 107.513 43.0408 108.07 41.5556L98.7066 38.0444ZM97.1883 47C97.1883 50.1693 97.6645 53.1905 98.6893 56.0087L108.087 52.5913C107.512 51.0095 107.188 49.164 107.188 47H97.1883ZM98.7066 56.0556C99.7086 58.7274 101.126 61.1235 102.996 63.1713L110.381 56.4286C109.45 55.4098 108.668 54.1393 108.07 52.5444L98.7066 56.0556ZM103.075 63.2561C105.043 65.3138 107.378 66.8812 110.031 67.9424L113.745 58.6576C112.398 58.1188 111.267 57.3528 110.301 56.3439L103.075 63.2561ZM110.031 67.9424C112.701 69.0104 115.577 69.5 118.588 69.5V59.5C116.666 59.5 115.075 59.1896 113.745 58.6576L110.031 67.9424ZM118.588 69.5C122.494 69.5 126.16 68.6191 129.456 66.7484L124.52 58.0516C122.883 58.9809 120.949 59.5 118.588 59.5V69.5ZM129.493 66.7271C132.636 64.9076 135.398 62.4357 137.802 59.4112L129.974 53.1888C128.245 55.3643 126.407 56.9591 124.483 58.0729L129.493 66.7271ZM130.559 60.0301L145.459 73.3301L152.118 65.8699L137.218 52.5699L130.559 60.0301ZM144.838 66.5344C141.882 70.3441 138.126 73.3173 133.489 75.4619L137.687 84.5381C143.717 81.7494 148.762 77.7893 152.738 72.6656L144.838 66.5344ZM133.515 75.4501C129.009 77.5034 123.671 78.6 117.388 78.6V88.6C124.839 88.6 131.634 87.2966 137.662 84.5499L133.515 75.4501ZM173.538 80.9L171.782 85.5816L171.792 85.5856L171.803 85.5895L173.538 80.9ZM161.038 73.3L157.606 76.937L157.625 76.9543L157.643 76.9714L161.038 73.3ZM152.738 61.6L148.149 63.5861L148.161 63.6148L148.174 63.6433L152.738 61.6ZM152.738 32.4L148.174 30.3567L148.167 30.3726L148.16 30.3886L152.738 32.4ZM161.038 20.8L164.432 24.4714L164.45 24.4543L164.469 24.437L161.038 20.8ZM173.538 13.1L171.803 8.41048L171.792 8.41439L171.782 8.41835L173.538 13.1ZM205.137 13.1L203.382 17.7816V17.7816L205.137 13.1ZM217.637 20.8L214.206 24.437L214.225 24.4543L214.243 24.4714L217.637 20.8ZM225.838 32.4L221.249 34.3861L221.267 34.4277L221.286 34.469L225.838 32.4ZM225.838 61.6L221.274 59.5567L221.261 59.5852L221.249 59.6139L225.838 61.6ZM217.637 73.3L221.032 76.9714L221.05 76.9543L221.069 76.937L217.637 73.3ZM205.137 80.9L203.382 76.2184L205.137 80.9ZM195.438 63.3L193.526 58.6799L193.497 58.6919L193.468 58.7043L195.438 63.3ZM200.438 59.9L196.824 56.4439L196.821 56.4476L200.438 59.9ZM203.837 54.4L208.519 56.1556L208.528 56.1322L208.536 56.1087L203.837 54.4ZM203.837 39.7L199.139 41.4087L199.147 41.4322L199.156 41.4556L203.837 39.7ZM200.438 34.2L196.745 37.5713L196.822 37.6552L196.902 37.7355L200.438 34.2ZM195.438 30.7L193.468 35.2957L193.497 35.3081L193.526 35.3201L195.438 30.7ZM183.137 30.7L181.226 26.0799L181.197 26.0919L181.168 26.1043L183.137 30.7ZM178.137 34.2L174.524 30.7439L174.521 30.7476L178.137 34.2ZM174.837 39.7L179.519 41.4556L179.528 41.4322L179.536 41.4087L174.837 39.7ZM174.837 54.4L170.139 56.1087L170.147 56.1322L170.156 56.1556L174.837 54.4ZM178.137 59.9L174.445 63.2713L174.522 63.3552L174.602 63.4355L178.137 59.9ZM183.137 63.3L181.168 67.8957L181.197 67.9081L181.226 67.9201L183.137 63.3ZM189.338 78.6C184.208 78.6 179.534 77.787 175.272 76.2105L171.803 85.5895C177.274 87.613 183.133 88.6 189.338 88.6V78.6ZM175.293 76.2184C171.06 74.6308 167.459 72.4274 164.432 69.6286L157.643 76.9714C161.683 80.7059 166.415 83.5692 171.782 85.5816L175.293 76.2184ZM164.469 69.663C161.418 66.7847 159.034 63.4274 157.301 59.5567L148.174 63.6433C150.441 68.7059 153.591 73.1486 157.606 76.937L164.469 69.663ZM157.326 59.6139C155.686 55.8242 154.837 51.6402 154.837 47H144.837C144.837 52.8932 145.923 58.4424 148.149 63.5861L157.326 59.6139ZM154.837 47C154.837 42.2828 155.689 38.1111 157.315 34.4114L148.16 30.3886C145.919 35.4889 144.837 41.0505 144.837 47H154.837ZM157.301 34.4433C159.03 30.5819 161.403 27.2719 164.432 24.4714L157.643 17.1286C153.606 20.8615 150.445 25.2848 148.174 30.3567L157.301 34.4433ZM164.469 24.437C167.492 21.5847 171.08 19.3614 175.293 17.7816L171.782 8.41835C166.395 10.4386 161.65 13.3486 157.606 17.163L164.469 24.437ZM175.272 17.7895C179.534 16.213 184.208 15.4 189.338 15.4V5.4C183.133 5.4 177.274 6.38702 171.803 8.41048L175.272 17.7895ZM189.338 15.4C194.542 15.4 199.206 16.2156 203.382 17.7816L206.893 8.41835C201.469 6.3844 195.6 5.4 189.338 5.4V15.4ZM203.382 17.7816C207.595 19.3614 211.183 21.5847 214.206 24.437L221.069 17.163C217.025 13.3486 212.281 10.4386 206.893 8.41835L203.382 17.7816ZM214.243 24.4714C217.259 27.26 219.589 30.5507 221.249 34.3861L230.426 30.4139C228.22 25.316 225.082 20.8733 221.032 17.1286L214.243 24.4714ZM221.286 34.469C222.961 38.1547 223.838 42.306 223.838 47H233.838C233.838 41.0274 232.714 35.4453 230.389 30.331L221.286 34.469ZM223.838 47C223.838 51.6168 222.965 55.7806 221.274 59.5567L230.401 63.6433C232.71 58.486 233.838 52.9165 233.838 47H223.838ZM221.249 59.6139C219.585 63.4586 217.245 66.7966 214.206 69.663L221.069 76.937C225.097 73.1367 228.224 68.6747 230.426 63.5861L221.249 59.6139ZM214.243 69.6286C211.216 72.4274 207.615 74.6308 203.382 76.2184L206.893 85.5816C212.26 83.5692 216.992 80.7059 221.032 76.9714L214.243 69.6286ZM203.382 76.2184C199.206 77.7844 194.542 78.6 189.338 78.6V88.6C195.6 88.6 201.469 87.6156 206.893 85.5816L203.382 76.2184ZM189.338 69.5C192.158 69.5 194.868 68.984 197.407 67.8957L193.468 58.7043C192.274 59.216 190.917 59.5 189.338 59.5V69.5ZM197.349 67.9201C199.905 66.8625 202.158 65.339 204.054 63.3524L196.821 56.4476C195.917 57.3943 194.837 58.1375 193.526 58.6799L197.349 67.9201ZM204.051 63.3561C206.019 61.2988 207.499 58.8749 208.519 56.1556L199.156 52.6444C198.576 54.1918 197.79 55.4345 196.824 56.4439L204.051 63.3561ZM208.536 56.1087C209.566 53.2777 210.038 50.2203 210.038 47H200.038C200.038 49.2463 199.709 51.1223 199.139 52.6913L208.536 56.1087ZM210.038 47C210.038 43.7837 209.567 40.7388 208.519 37.9444L199.156 41.4556C199.708 42.9279 200.038 44.7497 200.038 47H210.038ZM208.536 37.9913C207.519 35.1933 206.019 32.7105 203.973 30.6645L196.902 37.7355C197.789 38.6228 198.556 39.8067 199.139 41.4087L208.536 37.9913ZM204.13 30.8287C202.231 28.7492 199.955 27.1582 197.349 26.0799L193.526 35.3201C194.786 35.8418 195.844 36.5842 196.745 37.5713L204.13 30.8287ZM197.407 26.1043C194.868 25.016 192.158 24.5 189.338 24.5V34.5C190.917 34.5 192.274 34.784 193.468 35.2957L197.407 26.1043ZM189.338 24.5C186.516 24.5 183.796 25.0163 181.226 26.0799L185.049 35.3201C186.346 34.7837 187.759 34.5 189.338 34.5V24.5ZM181.168 26.1043C178.655 27.1814 176.435 28.7461 174.524 30.7439L181.751 37.6561C182.773 36.5872 183.887 35.8186 185.107 35.2957L181.168 26.1043ZM174.521 30.7476C172.575 32.7859 171.139 35.2412 170.139 37.9913L179.536 41.4087C180.136 39.7588 180.9 38.5475 181.754 37.6524L174.521 30.7476ZM170.156 37.9444C169.108 40.7388 168.637 43.7837 168.637 47H178.637C178.637 44.7497 178.967 42.9279 179.519 41.4556L170.156 37.9444ZM168.637 47C168.637 50.2203 169.109 53.2777 170.139 56.1087L179.536 52.6913C178.966 51.1223 178.637 49.2463 178.637 47H168.637ZM170.156 56.1556C171.158 58.8274 172.575 61.2235 174.445 63.2713L181.83 56.5287C180.9 55.5098 180.117 54.2393 179.519 52.6444L170.156 56.1556ZM174.602 63.4355C176.509 65.3422 178.704 66.8397 181.168 67.8957L185.107 58.7043C183.838 58.1603 182.7 57.3911 181.673 56.3645L174.602 63.4355ZM181.226 67.9201C183.796 68.9837 186.516 69.5 189.338 69.5V59.5C187.759 59.5 186.346 59.2163 185.049 58.6799L181.226 67.9201ZM235.903 82H230.903V87H235.903V82ZM235.903 12V7H230.903V12H235.903ZM291.003 16.3L288.828 20.8021L288.849 20.812L288.869 20.8218L291.003 16.3ZM304.903 28.3L300.694 30.9983L304.903 28.3ZM304.903 65.7L309.113 68.3983L309.12 68.3862L309.128 68.374L304.903 65.7ZM291.003 77.8L293.137 82.3218L293.158 82.312L293.178 82.3021L291.003 77.8ZM259.503 63.6H254.503V68.6H259.503V63.6ZM278.103 61.7L275.867 57.2279L275.843 57.2399L275.819 57.2522L278.103 61.7ZM284.003 56.1L288.352 58.568L288.366 58.5433L288.379 58.5184L284.003 56.1ZM284.003 37.9L288.352 35.432V35.432L284.003 37.9ZM278.103 32.3L275.819 36.7478L275.843 36.7601L275.867 36.7721L278.103 32.3ZM259.503 30.4V25.4H254.503V30.4H259.503ZM240.903 82V12H230.903V82H240.903ZM235.903 17H270.403V7H235.903V17ZM270.403 17C277.587 17 283.686 18.318 288.828 20.8021L293.178 11.7979C286.453 8.54867 278.819 7 270.403 7V17ZM288.869 20.8218C294.008 23.247 297.899 26.6389 300.694 30.9983L309.113 25.6017C305.24 19.5611 299.865 14.953 293.137 11.7782L288.869 20.8218ZM300.694 30.9983C303.43 35.267 304.903 40.4949 304.903 46.9H314.903C314.903 38.9051 313.043 31.733 309.113 25.6017L300.694 30.9983ZM304.903 46.9C304.903 53.3799 303.426 58.6845 300.678 63.026L309.128 68.374C313.047 62.1822 314.903 54.9535 314.903 46.9H304.903ZM300.694 63.0017C297.892 67.3716 293.988 70.8051 288.828 73.2979L293.178 82.3021C299.885 79.0616 305.247 74.4284 309.113 68.3983L300.694 63.0017ZM288.869 73.2782C283.718 75.7094 277.603 77 270.403 77V87C278.803 87 286.422 85.4906 293.137 82.3218L288.869 73.2782ZM270.403 77H235.903V87H270.403V77ZM259.503 68.6H269.403V58.6H259.503V68.6ZM269.403 68.6C273.372 68.6 277.085 67.8437 280.387 66.1478L275.819 57.2522C274.188 58.0896 272.101 58.6 269.403 58.6V68.6ZM280.339 66.1721C283.761 64.4611 286.463 61.8962 288.352 58.568L279.655 53.632C278.744 55.2371 277.512 56.4055 275.867 57.2279L280.339 66.1721ZM288.379 58.5184C290.277 55.0851 291.103 51.1426 291.103 46.9H281.103C281.103 49.8574 280.53 52.0483 279.627 53.6816L288.379 58.5184ZM291.103 46.9C291.103 42.7115 290.272 38.8148 288.352 35.432L279.655 40.368C280.535 41.9185 281.103 44.0218 281.103 46.9H291.103ZM288.352 35.432C286.463 32.1038 283.761 29.5389 280.339 27.8279L275.867 36.7721C277.512 37.5945 278.744 38.7629 279.655 40.368L288.352 35.432ZM280.387 27.8522C277.085 26.1563 273.372 25.4 269.403 25.4V35.4C272.101 35.4 274.188 35.9104 275.819 36.7478L280.387 27.8522ZM269.403 25.4H259.503V35.4H269.403V25.4ZM254.503 30.4V63.6H264.503V30.4H254.503ZM317.02 82H312.02V87H317.02V82ZM317.02 12V7H312.02V12H317.02ZM367.62 15.2L365.566 19.7584L365.578 19.7638L365.59 19.7691L367.62 15.2ZM378.72 24.4L374.528 27.1249L374.539 27.1411L374.549 27.1572L378.72 24.4ZM378.72 52.4L382.87 55.19L382.881 55.1736L382.891 55.1572L378.72 52.4ZM367.62 61.3L365.643 56.7076L365.631 56.7126L365.62 56.7177L367.62 61.3ZM330.12 64.4L326.727 60.7273L317.34 69.4H330.12V64.4ZM340.62 54.7H345.62V43.2739L337.227 51.0273L340.62 54.7ZM340.62 82V87H345.62V82H340.62ZM358.92 82L354.775 84.796L356.262 87H358.92V82ZM341.72 56.5V51.5H332.317L337.575 59.296L341.72 56.5ZM366.72 56.5L370.85 53.6818L369.362 51.5H366.72V56.5ZM384.12 82V87H393.585L388.25 79.1818L384.12 82ZM340.62 57.3L337.052 60.802L345.62 69.534V57.3H340.62ZM330.12 46.6V41.6H318.208L326.552 50.102L330.12 46.6ZM356.42 44.4L353.042 40.7142L353.003 40.7501L352.964 40.7868L356.42 44.4ZM356.42 32.4L352.964 36.0132L353.003 36.0499L353.042 36.0858L356.42 32.4ZM330.12 30.2L326.552 26.698L318.208 35.2H330.12V30.2ZM340.62 19.5H345.62V7.26603L337.052 15.998L340.62 19.5ZM322.02 82V12H312.02V82H322.02ZM317.02 17H350.72V7H317.02V17ZM350.72 17C356.722 17 361.622 17.9811 365.566 19.7584L369.675 10.6416C364.152 8.15224 357.785 7 350.72 7V17ZM365.59 19.7691C369.599 21.5508 372.508 24.0168 374.528 27.1249L382.913 21.6751C379.733 16.7832 375.242 13.1158 369.651 10.6309L365.59 19.7691ZM374.549 27.1572C376.533 30.1584 377.62 33.8339 377.62 38.4H387.62C387.62 32.1661 386.108 26.5083 382.891 21.6428L374.549 27.1572ZM377.62 38.4C377.62 42.9661 376.533 46.6416 374.549 49.6428L382.891 55.1572C386.108 50.2917 387.62 44.6339 387.62 38.4H377.62ZM374.571 49.61C372.57 52.5853 369.672 54.973 365.643 56.7076L369.598 65.8924C375.169 63.4936 379.67 59.948 382.87 55.19L374.571 49.61ZM365.62 56.7177C361.661 58.4462 356.741 59.4 350.72 59.4V69.4C357.766 69.4 364.113 68.2871 369.621 65.8823L365.62 56.7177ZM350.72 59.4H330.12V69.4H350.72V59.4ZM333.513 68.0727L344.013 58.3727L337.227 51.0273L326.727 60.7273L333.513 68.0727ZM335.62 54.7V82H345.62V54.7H335.62ZM340.62 77H317.02V87H340.62V77ZM363.065 79.204L345.866 53.704L337.575 59.296L354.775 84.796L363.065 79.204ZM341.72 61.5H366.72V51.5H341.72V61.5ZM362.59 59.3182L379.99 84.8182L388.25 79.1818L370.85 53.6818L362.59 59.3182ZM384.12 77H358.92V87H384.12V77ZM344.189 53.798L333.689 43.098L326.552 50.102L337.052 60.802L344.189 53.798ZM330.12 51.6H349.22V41.6H330.12V51.6ZM349.22 51.6C353.1 51.6 357.018 50.747 359.876 48.0132L352.964 40.7868C352.756 40.9864 351.874 41.6 349.22 41.6V51.6ZM359.799 48.0858C362.607 45.5116 363.82 42.0784 363.82 38.4H353.82C353.82 39.7883 353.434 40.3551 353.042 40.7142L359.799 48.0858ZM363.82 38.4C363.82 34.7216 362.607 31.2884 359.799 28.7142L353.042 36.0858C353.434 36.4449 353.82 37.0117 353.82 38.4H363.82ZM359.876 28.7868C357.018 26.053 353.1 25.2 349.22 25.2V35.2C351.874 35.2 352.756 35.8136 352.964 36.0132L359.876 28.7868ZM349.22 25.2H330.12V35.2H349.22V25.2ZM333.689 33.702L344.189 23.002L337.052 15.998L326.552 26.698L333.689 33.702ZM335.62 19.5V57.3H345.62V19.5H335.62ZM382.432 82L377.851 79.9973L374.789 87H382.432V82ZM413.032 12V7H409.761L408.451 9.99727L413.032 12ZM436.232 12L440.813 9.99727L439.503 7H436.232V12ZM466.832 82V87H474.475L471.413 79.9973L466.832 82ZM442.432 82L437.765 83.7938L438.997 87H442.432V82ZM419.832 23.2V18.2H412.554L415.165 24.9938L419.832 23.2ZM429.032 23.2L433.699 24.9938L436.31 18.2H429.032V23.2ZM406.432 82V87H409.867L411.099 83.7938L406.432 82ZM400.632 69.8L395.917 68.1359L393.565 74.8H400.632V69.8ZM406.632 52.8V47.8H403.094L401.917 51.1359L406.632 52.8ZM438.832 52.8L443.547 51.1359L442.37 47.8H438.832V52.8ZM444.832 69.8V74.8H451.899L449.547 68.1359L444.832 69.8ZM387.013 84.0027L417.613 14.0027L408.451 9.99727L377.851 79.9973L387.013 84.0027ZM413.032 17H436.232V7H413.032V17ZM431.651 14.0027L462.251 84.0027L471.413 79.9973L440.813 9.99727L431.651 14.0027ZM466.832 77H442.432V87H466.832V77ZM447.099 80.2062L424.499 21.4062L415.165 24.9938L437.765 83.7938L447.099 80.2062ZM419.832 28.2H429.032V18.2H419.832V28.2ZM424.365 21.4062L401.765 80.2062L411.099 83.7938L433.699 24.9938L424.365 21.4062ZM406.432 77H382.432V87H406.432V77ZM405.347 71.4641L411.347 54.4641L401.917 51.1359L395.917 68.1359L405.347 71.4641ZM406.632 57.8H438.832V47.8H406.632V57.8ZM434.117 54.4641L440.117 71.4641L449.547 68.1359L443.547 51.1359L434.117 54.4641ZM444.832 64.8H400.632V74.8H444.832V64.8ZM482.795 82L478.032 83.5239L479.145 87H482.795V82ZM460.395 12V7H453.545L455.632 13.5239L460.395 12ZM484.695 12L489.475 10.5358L488.392 7H484.695V12ZM502.795 71.1V76.1H509.555L507.575 69.6358L502.795 71.1ZM490.595 71.1L485.839 69.5551L483.713 76.1H490.595V71.1ZM509.795 12V7H506.162L505.039 10.4551L509.795 12ZM531.495 12L536.28 10.5506L535.204 7H531.495V12ZM549.395 71.1V76.1H556.133L554.18 69.6506L549.395 71.1ZM537.695 71.1L532.932 69.577L530.846 76.1H537.695V71.1ZM556.595 12V7H552.944L551.832 10.477L556.595 12ZM578.995 12L583.757 13.5239L585.844 7H578.995V12ZM556.595 82V87H560.244L561.357 83.5239L556.595 82ZM531.295 82L526.508 83.444L527.58 87H531.295V82ZM516.695 33.6V28.6H509.964L511.908 35.044L516.695 33.6ZM523.495 33.6L528.259 35.116L530.332 28.6H523.495V33.6ZM508.095 82V87H511.751L512.859 83.516L508.095 82ZM487.557 80.4761L465.157 10.4761L455.632 13.5239L478.032 83.5239L487.557 80.4761ZM460.395 17H484.695V7H460.395V17ZM479.914 13.4642L498.014 72.5642L507.575 69.6358L489.475 10.5358L479.914 13.4642ZM502.795 66.1H490.595V76.1H502.795V66.1ZM495.35 72.6449L514.55 13.5449L505.039 10.4551L485.839 69.5551L495.35 72.6449ZM509.795 17H531.495V7H509.795V17ZM526.709 13.4494L544.609 72.5494L554.18 69.6506L536.28 10.5506L526.709 13.4494ZM549.395 66.1H537.695V76.1H549.395V66.1ZM542.457 72.623L561.357 13.523L551.832 10.477L532.932 69.577L542.457 72.623ZM556.595 17H578.995V7H556.595V17ZM574.232 10.4761L551.832 80.4761L561.357 83.5239L583.757 13.5239L574.232 10.4761ZM556.595 77H531.295V87H556.595V77ZM536.081 80.556L521.482 32.156L511.908 35.044L526.508 83.444L536.081 80.556ZM516.695 38.6H523.495V28.6H516.695V38.6ZM518.73 32.084L503.33 80.484L512.859 83.516L528.259 35.116L518.73 32.084ZM508.095 77H482.795V87H508.095V77Z" fill="#4A8164" mask="url(#path-1-outside-1_2186_15)"/>
<path d="M27.0031 31H58.2031V48H27.0031V31ZM28.6031 57.2H63.6031V75H5.40313V5H62.3031V22.8H28.6031V57.2ZM107.388 76.6C101.788 76.6 96.5883 75.7333 91.7883 74C87.0549 72.2 82.9216 69.6667 79.3883 66.4C75.9216 63.1333 73.2216 59.2667 71.2883 54.8C69.3549 50.3333 68.3883 45.4 68.3883 40C68.3883 34.6 69.3549 29.6667 71.2883 25.2C73.2216 20.7333 75.9216 16.8667 79.3883 13.6C82.9216 10.3333 87.0549 7.83333 91.7883 6.1C96.5883 4.3 101.788 3.4 107.388 3.4C114.255 3.4 120.322 4.6 125.588 7C130.922 9.4 135.322 12.8667 138.788 17.4L123.888 30.7C121.822 28.1 119.522 26.1 116.988 24.7C114.522 23.2333 111.722 22.5 108.588 22.5C106.122 22.5 103.888 22.9 101.888 23.7C99.8883 24.5 98.1549 25.6667 96.6883 27.2C95.2883 28.7333 94.1883 30.6 93.3883 32.8C92.5883 34.9333 92.1883 37.3333 92.1883 40C92.1883 42.6667 92.5883 45.1 93.3883 47.3C94.1883 49.4333 95.2883 51.2667 96.6883 52.8C98.1549 54.3333 99.8883 55.5 101.888 56.3C103.888 57.1 106.122 57.5 108.588 57.5C111.722 57.5 114.522 56.8 116.988 55.4C119.522 53.9333 121.822 51.9 123.888 49.3L138.788 62.6C135.322 67.0667 130.922 70.5333 125.588 73C120.322 75.4 114.255 76.6 107.388 76.6ZM179.338 76.6C173.671 76.6 168.404 75.7 163.538 73.9C158.738 72.1 154.571 69.5667 151.038 66.3C147.504 62.9667 144.738 59.0667 142.738 54.6C140.804 50.1333 139.838 45.2667 139.838 40C139.838 34.6667 140.804 29.8 142.738 25.4C144.738 20.9333 147.504 17.0667 151.038 13.8C154.571 10.4667 158.738 7.9 163.538 6.1C168.404 4.3 173.671 3.4 179.338 3.4C185.071 3.4 190.338 4.3 195.138 6.1C199.938 7.9 204.104 10.4667 207.638 13.8C211.171 17.0667 213.904 20.9333 215.838 25.4C217.838 29.8 218.838 34.6667 218.838 40C218.838 45.2667 217.838 50.1333 215.838 54.6C213.904 59.0667 211.171 62.9667 207.638 66.3C204.104 69.5667 199.938 72.1 195.138 73.9C190.338 75.7 185.071 76.6 179.338 76.6ZM179.338 57.5C181.538 57.5 183.571 57.1 185.438 56.3C187.371 55.5 189.038 54.3667 190.438 52.9C191.904 51.3667 193.038 49.5333 193.838 47.4C194.638 45.2 195.038 42.7333 195.038 40C195.038 37.2667 194.638 34.8333 193.838 32.7C193.038 30.5 191.904 28.6667 190.438 27.2C189.038 25.6667 187.371 24.5 185.438 23.7C183.571 22.9 181.538 22.5 179.338 22.5C177.138 22.5 175.071 22.9 173.138 23.7C171.271 24.5 169.604 25.6667 168.138 27.2C166.738 28.6667 165.638 30.5 164.838 32.7C164.038 34.8333 163.638 37.2667 163.638 40C163.638 42.7333 164.038 45.2 164.838 47.4C165.638 49.5333 166.738 51.3667 168.138 52.9C169.604 54.3667 171.271 55.5 173.138 56.3C175.071 57.1 177.138 57.5 179.338 57.5ZM225.903 75V5H260.403C268.203 5 275.07 6.43333 281.003 9.3C286.936 12.1 291.57 16.1 294.903 21.3C298.236 26.5 299.903 32.7 299.903 39.9C299.903 47.1667 298.236 53.4333 294.903 58.7C291.57 63.9 286.936 67.9333 281.003 70.8C275.07 73.6 268.203 75 260.403 75H225.903ZM249.503 56.6H259.403C262.736 56.6 265.636 55.9667 268.103 54.7C270.636 53.4333 272.603 51.5667 274.003 49.1C275.403 46.5667 276.103 43.5 276.103 39.9C276.103 36.3667 275.403 33.3667 274.003 30.9C272.603 28.4333 270.636 26.5667 268.103 25.3C265.636 24.0333 262.736 23.4 259.403 23.4H249.503V56.6ZM307.02 75V5H340.72C347.254 5 352.887 6.06666 357.62 8.2C362.42 10.3333 366.12 13.4 368.72 17.4C371.32 21.3333 372.62 26 372.62 31.4C372.62 36.8 371.32 41.4667 368.72 45.4C366.12 49.2667 362.42 52.2333 357.62 54.3C352.887 56.3667 347.254 57.4 340.72 57.4H320.12L330.62 47.7V75H307.02ZM348.92 75L331.72 49.5H356.72L374.12 75H348.92ZM330.62 50.3L320.12 39.6H339.22C342.487 39.6 344.887 38.8667 346.42 37.4C348.02 35.9333 348.82 33.9333 348.82 31.4C348.82 28.8667 348.02 26.8667 346.42 25.4C344.887 23.9333 342.487 23.2 339.22 23.2H320.12L330.62 12.5V50.3ZM372.432 75L403.032 5H426.232L456.832 75H432.432L409.832 16.2H419.032L396.432 75H372.432ZM390.632 62.8L396.632 45.8H428.832L434.832 62.8H390.632ZM472.795 75L450.395 5H474.695L492.795 64.1H480.595L499.795 5H521.495L539.395 64.1H527.695L546.595 5H568.995L546.595 75H521.295L506.695 26.6H513.495L498.095 75H472.795Z" fill="#223B2E"/>
</svg>
