<svg width="2101" height="2041" viewBox="0 0 2101 2041" fill="none" xmlns="http://www.w3.org/2000/svg">
<rect y="79" width="2001" height="1869" fill="#223B2E"/>
<path d="M0 176V39.7951C42.2542 51.4804 84.5084 63.1657 112 70.305C139.492 77.4443 152.221 80.0377 184 71.3946C215.779 62.7516 266.609 42.8721 301.333 40.8847C336.058 38.8973 354.678 54.802 385.333 59.4086C415.988 64.0152 458.678 57.3236 493.333 54.5052C527.988 51.6868 554.608 52.7415 578.667 40.8847C602.725 29.028 624.223 4.25967 654.667 1.1129C685.11 -2.03387 724.499 16.4409 764 15.2782C803.501 14.1156 843.116 -6.68449 872 2.20254C900.884 11.0896 919.038 49.6637 944 55.05C968.962 60.4364 1000.73 32.6349 1037.33 27.8091C1073.94 22.9832 1115.37 41.1329 1154.67 40.8847C1193.96 40.6366 1231.12 21.9905 1257.33 26.7194C1283.54 31.4483 1298.81 59.5521 1329.33 58.8638C1359.86 58.1754 1405.65 28.6949 1441.33 15.823C1477.01 2.95116 1502.58 6.68795 1536 20.7264C1569.42 34.7649 1610.69 59.105 1641.33 67.0361C1671.98 74.9671 1691.99 66.4892 1717.33 58.8638C1742.67 51.2384 1773.34 44.4656 1808 41.4296C1842.66 38.3935 1996 38.5 2020 79L1920 176H0Z" fill="#223B2E"/>
<path d="M1920 1865L2049 1948C1996 1996.5 1835.49 1977.83 1808 1970.7C1780.51 1963.56 1767.78 1960.96 1736 1969.61C1704.22 1978.25 1653.39 1998.13 1618.67 2000.12C1583.94 2002.1 1565.32 1986.2 1534.67 1981.59C1504.01 1976.98 1461.32 1983.68 1426.67 1986.49C1392.01 1989.31 1365.39 1988.26 1341.33 2000.12C1317.27 2011.97 1295.78 2036.74 1265.33 2039.89C1234.89 2043.03 1195.5 2024.56 1156 2025.72C1116.5 2026.88 1076.88 2047.68 1048 2038.8C1019.12 2029.91 1000.96 1991.34 976 1985.95C951.038 1980.56 919.269 2008.37 882.667 2013.19C846.065 2018.02 804.63 1999.87 765.333 2000.12C726.036 2000.36 688.877 2019.01 662.667 2014.28C636.456 2009.55 621.194 1981.45 590.667 1982.14C560.139 1982.82 514.347 2012.31 478.667 2025.18C442.987 2038.05 417.419 2034.31 384 2020.27C350.581 2006.24 309.31 1981.9 278.667 1973.96C248.023 1966.03 228.006 1974.51 202.667 1982.14C177.327 1989.76 146.665 1996.53 112 1999.57C77.3351 2002.61 38.6676 2001.91 0 2001.2V1865L1920 1865Z" fill="#223B2E"/>
<path d="M1920 176L2018 76C2042.5 103.065 2032.84 213.587 2025.7 233.972C2018.56 254.357 2015.97 263.796 2024.61 287.36C2033.25 310.924 2053.13 348.613 2055.12 374.362C2057.11 400.11 2041.2 413.916 2036.59 436.647C2031.99 459.377 2009.68 481.804 2012.5 507.5C2015.32 533.196 2043.26 562.163 2055.12 580.002C2066.98 597.842 2090.65 629.427 2093.8 652C2096.95 674.573 2067.03 694.21 2068.19 723.5C2069.36 752.79 2102.69 776.09 2093.8 797.507C2084.91 818.924 2046.34 832.386 2040.95 850.895C2035.57 869.404 2063.37 892.96 2068.19 920.101C2073.02 947.241 2036.89 963.362 2037.14 992.5C2037.39 1021.64 2059.85 1062.06 2055.12 1081.5C2050.39 1100.94 2011.81 1143.86 2012.5 1166.5C2013.19 1189.14 2067.31 1238.04 2080.18 1264.5C2093.05 1290.96 2051.18 1356.72 2037.14 1381.5C2023.1 1406.28 2020.43 1446.28 2012.5 1469C2004.57 1491.72 2029.51 1549.71 2037.14 1568.5C2044.76 1587.29 2077.14 1673.3 2080.18 1699C2083.21 1724.7 2139.5 1884.86 2048 1949L1920 1865L1920 176Z" fill="#223B2E"/>
</svg>
