<svg width="3650" height="2098" viewBox="0 0 3650 2098" fill="none" xmlns="http://www.w3.org/2000/svg">
<rect x="0.996094" y="116" width="3554" height="1869" fill="#223B2E"/>
<path d="M1553.99 213V77C1596.25 88.6853 1638.5 100.166 1665.99 107.305C1693.48 114.444 1706.21 117.038 1737.99 108.395C1769.77 99.7516 1820.6 79.8721 1855.33 77.8847C1890.05 75.8973 1908.67 91.802 1939.33 96.4086C1969.98 101.015 2012.67 94.3236 2047.33 91.5052C2081.98 88.6868 2108.6 89.7415 2132.66 77.8847C2156.72 66.028 2178.22 41.2597 2208.66 38.1129C2239.1 34.9661 2278.49 53.4409 2317.99 52.2782C2357.49 51.1156 2397.11 30.3155 2425.99 39.2025C2454.88 48.0896 2473.03 86.6637 2497.99 92.05C2522.95 97.4364 2554.72 69.6349 2591.33 64.8091C2627.93 59.9832 2669.36 78.1329 2708.66 77.8847C2747.96 77.6366 2785.11 58.9905 2811.33 63.7194C2837.54 68.4483 2852.8 96.5521 2883.33 95.8638C2913.85 95.1754 2959.65 65.6949 2995.33 52.823C3031.01 39.9512 3056.57 43.688 3089.99 57.7264C3123.41 71.7649 3164.68 96.105 3195.33 104.036C3225.97 111.967 3245.99 103.489 3271.33 95.8638C3296.67 88.2384 3327.33 81.4656 3361.99 78.4296C3396.66 75.3935 3549.99 75.5 3573.99 116L3473.99 213H1553.99Z" fill="#223B2E"/>
<path d="M0.914358 161.5L0.914953 140C0.914358 116 0.912322 153.5 0.91401 123.5C0.914867 111.5 0.907133 127 0.914606 115.5C0.922077 104 0.915681 132.92 0.921785 94.5C0.919663 88.5 0.915285 104 0.90255 86C0.924225 77 0.915679 71.5 0.903735 59.5C35.5585 56.6816 88.603 52.7415 112.662 40.8847C136.721 29.028 158.218 4.25967 188.662 1.1129C219.105 -2.03387 258.493 16.4409 297.995 15.2782C337.496 14.1156 377.11 -6.68449 405.994 2.20254C434.879 11.0896 453.032 49.6637 477.994 55.05C502.956 60.4364 534.725 32.6349 571.327 27.8091C607.929 22.9832 649.364 41.1329 688.66 40.8847C727.957 40.6366 765.116 21.9905 791.327 26.7194C817.537 31.4483 832.799 59.5521 863.327 58.8638C893.854 58.1754 939.646 28.6949 975.326 15.823C1011.01 2.95116 1036.57 6.68795 1069.99 20.7264C1103.41 34.7649 1144.68 59.105 1175.33 67.0361C1205.97 74.9671 1225.99 66.4892 1251.33 58.8638C1276.67 51.2384 1307.33 44.4656 1341.99 41.4296C1376.66 38.3935 1496.53 61.5 1553.99 77L1554.03 161L0.914358 161.5Z" fill="#223B2E"/>
<path d="M1554.11 1936L1554.11 1957.5C1554.11 1981.5 1554.12 1944 1554.11 1974C1554.11 1986 1554.12 1970.5 1554.11 1982C1554.11 1993.5 1554.11 1964.58 1554.11 2003C1554.11 2009 1554.11 1993.5 1554.12 2011.5C1554.1 2020.5 1553.99 2026 1554 2038C1519.35 2040.82 1466.42 2044.76 1442.37 2056.62C1418.31 2068.47 1396.81 2093.24 1366.37 2096.39C1335.92 2099.53 1296.53 2081.06 1257.03 2082.22C1217.53 2083.38 1177.92 2104.18 1149.03 2095.3C1120.15 2086.41 1101.99 2047.84 1077.03 2042.45C1052.07 2037.06 1020.3 2064.87 983.7 2069.69C947.098 2074.52 905.664 2056.37 866.367 2056.62C827.07 2056.86 789.911 2075.51 763.701 2070.78C737.49 2066.05 722.228 2037.95 691.701 2038.64C661.173 2039.32 615.381 2068.81 579.701 2081.68C544.021 2094.55 518.453 2090.81 485.034 2076.77C451.615 2062.74 410.344 2038.4 379.701 2030.46C349.057 2022.53 329.04 2031.01 303.701 2038.64C278.361 2046.26 247.699 2053.03 213.034 2056.07C178.37 2059.11 58.5016 2036 1.03503 2020.5L1.00171 1936.5L1554.11 1936Z" fill="#223B2E"/>
<path d="M3473.99 1902L3602.99 1985C3549.99 2033.5 3389.48 2014.83 3361.99 2007.7C3334.5 2000.56 3321.77 1997.96 3289.99 2006.61C3258.21 2015.25 3207.38 2035.13 3172.66 2037.12C3137.93 2039.1 3119.31 2023.2 3088.66 2018.59C3058 2013.98 3015.31 2020.68 2980.66 2023.49C2946 2026.31 2919.38 2025.26 2895.33 2037.12C2871.27 2048.97 2849.77 2073.74 2819.33 2076.89C2788.88 2080.03 2749.49 2061.56 2709.99 2062.72C2670.49 2063.88 2630.88 2084.68 2601.99 2075.8C2573.11 2066.91 2554.95 2028.34 2529.99 2022.95C2505.03 2017.56 2473.26 2045.37 2436.66 2050.19C2400.06 2055.02 2358.62 2036.87 2319.33 2037.12C2280.03 2037.36 2242.87 2056.01 2216.66 2051.28C2190.45 2046.55 2175.19 2018.45 2144.66 2019.14C2114.13 2019.82 2068.34 2049.31 2032.66 2062.18C1996.98 2075.05 1971.41 2071.31 1937.99 2057.27C1904.57 2043.24 1863.3 2018.9 1832.66 2010.96C1802.02 2003.03 1782 2011.51 1756.66 2019.14C1731.32 2026.76 1700.66 2033.53 1665.99 2036.57C1631.33 2039.61 1592.66 2038.7 1553.99 2038V1902L3473.99 1902Z" fill="#223B2E"/>
<path d="M3473.99 213L3571.99 113C3596.49 140.065 3586.83 250.587 3579.69 270.972C3572.55 291.357 3569.96 300.796 3578.6 324.36C3587.24 347.924 3607.12 385.613 3609.11 411.362C3611.1 437.11 3595.19 450.916 3590.59 473.647C3585.98 496.377 3563.67 518.804 3566.49 544.5C3569.31 570.196 3597.25 599.163 3609.11 617.002C3620.97 634.842 3644.65 666.427 3647.79 689C3650.94 711.573 3621.02 731.21 3622.19 760.5C3623.35 789.79 3656.68 813.09 3647.79 834.507C3638.91 855.924 3600.33 869.386 3594.94 887.895C3589.56 906.404 3617.36 929.96 3622.19 957.101C3627.01 984.241 3590.88 1000.36 3591.13 1029.5C3591.38 1058.64 3613.84 1099.06 3609.11 1118.5C3604.38 1137.94 3565.8 1180.86 3566.49 1203.5C3567.18 1226.14 3621.3 1275.04 3634.17 1301.5C3647.04 1327.96 3605.17 1393.72 3591.13 1418.5C3577.09 1443.28 3617.04 1570.28 3609.11 1593C3601.18 1615.72 3558.87 1672.71 3566.49 1691.5C3574.12 1710.29 3604.5 1736.5 3599.5 1794.5C3595.5 1827 3693.49 1921.86 3601.99 1986L3473.99 1902L3473.99 213Z" fill="#223B2E"/>
</svg>
