<svg width="72" height="74" viewBox="0 0 72 74" fill="none" xmlns="http://www.w3.org/2000/svg">
<path d="M5 32C2.23858 32 0 34.2386 0 37C0 39.7614 2.23858 42 5 42V32ZM70.5355 40.5355C72.4882 38.5829 72.4882 35.4171 70.5355 33.4645L38.7157 1.64466C36.7631 -0.307961 33.5973 -0.307961 31.6447 1.64466C29.692 3.59728 29.692 6.76311 31.6447 8.71573L59.9289 37L31.6447 65.2843C29.692 67.2369 29.692 70.4027 31.6447 72.3553C33.5973 74.308 36.7631 74.308 38.7157 72.3553L70.5355 40.5355ZM5 42H67V32H5V42Z" fill="#FDFAF8"/>
</svg>
