<svg width="118" height="171" viewBox="0 0 118 171" fill="none" xmlns="http://www.w3.org/2000/svg">
<g clip-path="url(#clip0_1708_46)">
<path fill-rule="evenodd" clip-rule="evenodd" d="M52.3346 13.3333H32.668C21.8064 13.3333 13.0013 22.1384 13.0013 33C13.0013 43.8616 21.8064 52.6667 32.668 52.6667H52.3346V13.3333ZM52.3346 0H65.668H85.3346C103.561 0 118.334 14.7745 118.334 33C118.334 43.7552 113.19 53.3088 105.226 59.3333C113.19 65.358 118.334 74.9116 118.334 85.6668C118.334 103.892 103.561 118.667 85.3346 118.667C77.9654 118.667 71.1604 116.251 65.668 112.169V118.667V138.333C65.668 156.559 50.8933 171.333 32.668 171.333C14.4425 171.333 -0.332031 156.559 -0.332031 138.333C-0.332031 127.577 4.81304 118.025 12.7762 112C4.81304 105.975 -0.332031 96.4219 -0.332031 85.6668C-0.332031 74.9116 4.81317 65.358 12.7765 59.3335C4.81317 53.3088 -0.332031 43.7552 -0.332031 33C-0.332031 14.7745 14.4425 0 32.668 0H52.3346ZM65.668 13.3333V52.6667H85.3346C96.1966 52.6667 105.001 43.8616 105.001 33C105.001 22.1384 96.1966 13.3333 85.3346 13.3333H65.668ZM32.668 105.333H52.3346V85.7175V85.6668V85.6161V66.0001H32.668C21.8064 66.0001 13.0013 74.8052 13.0013 85.6668C13.0013 96.5024 21.7642 105.291 32.59 105.333L32.668 105.333ZM13.0013 138.333C13.0013 127.497 21.7642 118.709 32.59 118.667L32.668 118.667H52.3346V138.333C52.3346 149.195 43.5296 158 32.668 158C21.8064 158 13.0013 149.195 13.0013 138.333ZM65.668 85.6276C65.6892 74.784 74.4861 66.0001 85.3346 66.0001C96.1966 66.0001 105.001 74.8052 105.001 85.6668C105.001 96.5284 96.1966 105.333 85.3346 105.333C74.4861 105.333 65.6892 96.5496 65.668 85.706V85.6276Z" fill="#4A8164"/>
</g>
<defs>
<clipPath id="clip0_1708_46">
<rect width="118" height="171" fill="white"/>
</clipPath>
</defs>
</svg>
