<svg width="261" height="397" viewBox="0 0 261 397" fill="none" xmlns="http://www.w3.org/2000/svg">
<rect x="166" y="16" width="95" height="50" fill="#9FC0AD"/>
<path d="M190 347H165V397H190V347ZM49.7986 151.554L20.0714 182.063L55.8831 216.956L85.6103 186.446L49.7986 151.554ZM78.3133 301H138.109V251H78.3133V301ZM138.109 301H192.5V251H138.109V301ZM70.2442 301H78.3133V251H70.2442V301ZM211 319.5V326H261V319.5H211ZM211 326C211 337.598 201.598 347 190 347V397C229.212 397 261 365.212 261 326H211ZM4.13118 254.105C13.9692 282.194 40.4821 301 70.2442 301V251C61.7253 251 54.1365 245.617 51.3205 237.577L4.13118 254.105ZM192.5 301C202.717 301 211 309.283 211 319.5H261C261 281.668 230.331 251 192.5 251V301ZM20.0714 182.063C1.51696 201.106 -4.65753 229.012 4.13118 254.105L51.3205 237.577C48.8049 230.395 50.5722 222.407 55.8831 216.956L20.0714 182.063Z" fill="#9FC0AD"/>
<path fill-rule="evenodd" clip-rule="evenodd" d="M114.5 223C177.737 223 229 173.08 229 111.5C229 49.9202 177.737 0 114.5 0C51.2634 0 0 49.9202 0 111.5C0 173.08 51.2634 223 114.5 223ZM115 174C150.346 174 179 146.018 179 111.5C179 76.9822 150.346 49 115 49C79.6538 49 51 76.9822 51 111.5C51 146.018 79.6538 174 115 174Z" fill="#9FC0AD"/>
</svg>
