<svg width="261" height="397" viewBox="0 0 261 397" fill="none" xmlns="http://www.w3.org/2000/svg">
<rect x="166" y="16" width="95" height="50" fill="#CBA784"/>
<path d="M67.7044 169L37.9772 199.51C26.0446 211.757 22.0737 229.703 27.7258 245.841V245.841C34.0528 263.906 51.1037 276 70.2442 276H78.3133H138.109H192.5C216.524 276 236 295.476 236 319.5V319.5V332C236 354.091 218.088 372 195.997 372C169.68 372 145.97 372 115 372" stroke="#CBA784" stroke-width="50"/>
<path fill-rule="evenodd" clip-rule="evenodd" d="M114.5 223C177.737 223 229 173.08 229 111.5C229 49.9202 177.737 0 114.5 0C51.2634 0 0 49.9202 0 111.5C0 173.08 51.2634 223 114.5 223ZM115 174C150.346 174 179 146.018 179 111.5C179 76.9822 150.346 49 115 49C79.6538 49 51 76.9822 51 111.5C51 146.018 79.6538 174 115 174Z" fill="#CBA784"/>
</svg>
