<svg width="410" height="466" viewBox="0 0 410 466" fill="none" xmlns="http://www.w3.org/2000/svg">
<path d="M399.397 82.0472L215.399 411.068C211.6 417.861 201.84 417.901 197.984 411.141L10.3379 82.0789C6.1371 74.7122 12.4364 65.7891 20.7843 67.2812L204.979 100.205C206.154 100.415 207.357 100.413 208.532 100.199L388.875 67.3284C397.195 65.812 403.524 74.666 399.397 82.0472Z" fill="#4A8164"/>
<path d="M291.664 18.6992L291.664 18.6992L155.5 45.38C155.5 45.38 155.5 45.38 155.5 45.38C150.8 46.3009 147.321 50.2841 147.037 55.0629L147.037 55.0635L138.661 196.527L138.661 196.528C138.248 203.523 144.673 208.955 151.503 207.379L151.503 207.379L188.655 198.805L177.548 253.197L182.937 254.297L177.548 253.197C175.956 260.991 183.274 267.657 190.887 265.345L190.887 265.345L213.497 258.475L195.768 344.284C193.417 355.663 208.554 361.87 214.866 352.113L216.874 349.01L217.038 348.756L217.174 348.486L328.128 127.058C328.128 127.058 328.128 127.058 328.128 127.058C332.03 119.271 325.3 110.395 316.75 112.045L316.75 112.045L278.529 119.421L303.772 31.9134L303.772 31.9125C305.948 24.3671 299.373 17.1888 291.664 18.6992ZM213.667 257.651L213.667 257.651L213.667 257.651Z" fill="#4A8164" stroke="#FDFAF8" stroke-width="11"/>
</svg>
