<svg width="1728" height="176" viewBox="0 0 1728 176" fill="none" xmlns="http://www.w3.org/2000/svg">
<path d="M0 176V39.7951C38.0288 51.4804 76.0575 63.1657 100.8 70.305C125.542 77.4443 136.999 80.0377 165.6 71.3946C194.201 62.7516 239.948 42.8721 271.2 40.8847C302.452 38.8973 319.21 54.802 346.8 59.4086C374.39 64.0152 412.811 57.3236 444 54.5052C475.189 51.6868 499.147 52.7415 520.8 40.8847C542.453 29.028 561.801 4.25967 589.2 1.1129C616.599 -2.03387 652.049 16.4409 687.6 15.2782C723.151 14.1156 758.804 -6.68449 784.8 2.20254C810.796 11.0896 827.134 49.6637 849.6 55.05C872.066 60.4364 900.658 32.6349 933.6 27.8091C966.542 22.9832 1003.83 41.1329 1039.2 40.8847C1074.57 40.6366 1108.01 21.9905 1131.6 26.7194C1155.19 31.4483 1168.93 59.5521 1196.4 58.8638C1223.87 58.1754 1265.09 28.6949 1297.2 15.823C1329.31 2.95116 1352.32 6.68795 1382.4 20.7264C1412.48 34.7649 1449.62 59.105 1477.2 67.0361C1504.78 74.9672 1522.79 66.4892 1545.6 58.8638C1568.41 51.2384 1596 44.4656 1627.2 41.4296C1658.4 38.3935 1693.2 39.0943 1728 39.7951V176H0Z" fill="#FDFAF8"/>
</svg>
