<svg width="666" height="198" viewBox="0 0 666 198" fill="none" xmlns="http://www.w3.org/2000/svg">
<mask id="path-1-outside-1_2077_51" maskUnits="userSpaceOnUse" x="8" y="12" width="659" height="180" fill="black">
<rect fill="white" x="8" y="12" width="659" height="180"/>
<path d="M240.744 90.6C235.144 90.6 229.944 89.7333 225.144 88C220.41 86.2 216.277 83.6667 212.744 80.4C209.277 77.1333 206.577 73.2667 204.644 68.8C202.71 64.3333 201.744 59.4 201.744 54C201.744 48.6 202.71 43.6667 204.644 39.2C206.577 34.7333 209.277 30.8667 212.744 27.6C216.277 24.3333 220.41 21.8333 225.144 20.1C229.944 18.3 235.144 17.4 240.744 17.4C247.61 17.4 253.677 18.6 258.944 21C264.277 23.4 268.677 26.8667 272.144 31.4L257.244 44.7C255.177 42.1 252.877 40.1 250.344 38.7C247.877 37.2333 245.077 36.5 241.944 36.5C239.477 36.5 237.244 36.9 235.244 37.7C233.244 38.5 231.51 39.6667 230.044 41.2C228.644 42.7333 227.544 44.6 226.744 46.8C225.944 48.9333 225.544 51.3333 225.544 54C225.544 56.6667 225.944 59.1 226.744 61.3C227.544 63.4333 228.644 65.2667 230.044 66.8C231.51 68.3333 233.244 69.5 235.244 70.3C237.244 71.1 239.477 71.5 241.944 71.5C245.077 71.5 247.877 70.8 250.344 69.4C252.877 67.9333 255.177 65.9 257.244 63.3L272.144 76.6C268.677 81.0667 264.277 84.5333 258.944 87C253.677 89.4 247.61 90.6 240.744 90.6ZM268.881 89L299.481 19H322.681L353.281 89H328.881L306.281 30.2H315.481L292.881 89H268.881ZM287.081 76.8L293.081 59.8H325.281L331.281 76.8H287.081ZM355.548 89V19H374.948L402.948 64.7H392.748L419.948 19H439.348L439.548 89H418.048L417.848 51.4H421.248L402.648 82.7H392.248L372.848 51.4H377.048V89H355.548ZM449.458 89V19H483.158C489.691 19 495.324 20.0667 500.058 22.2C504.858 24.3333 508.558 27.4 511.158 31.4C513.758 35.3333 515.058 40 515.058 45.4C515.058 50.8 513.758 55.4667 511.158 59.4C508.558 63.3333 504.858 66.4 500.058 68.6C495.324 70.7333 489.691 71.8 483.158 71.8H462.558L473.058 61.7V89H449.458ZM473.058 64.3L462.558 53.6H481.658C484.924 53.6 487.324 52.8667 488.858 51.4C490.458 49.9333 491.258 47.9333 491.258 45.4C491.258 42.8667 490.458 40.8667 488.858 39.4C487.324 37.9333 484.924 37.2 481.658 37.2H462.558L473.058 26.5V64.3ZM542.898 45H574.098V62H542.898V45ZM544.498 71.2H579.498V89H521.298V19H578.198V36.8H544.498V71.2ZM587.083 89V19H621.583C629.383 19 636.249 20.4333 642.183 23.3C648.116 26.1 652.749 30.1 656.083 35.3C659.416 40.5 661.083 46.7 661.083 53.9C661.083 61.1667 659.416 67.4333 656.083 72.7C652.749 77.9 648.116 81.9333 642.183 84.8C636.249 87.6 629.383 89 621.583 89H587.083ZM610.683 70.6H620.583C623.916 70.6 626.816 69.9667 629.283 68.7C631.816 67.4333 633.783 65.5667 635.183 63.1C636.583 60.5667 637.283 57.5 637.283 53.9C637.283 50.3667 636.583 47.3667 635.183 44.9C633.783 42.4333 631.816 40.5667 629.283 39.3C626.816 38.0333 623.916 37.4 620.583 37.4H610.683V70.6ZM52.2125 186.6C46.6125 186.6 41.4125 185.733 36.6125 184C31.8792 182.2 27.7458 179.667 24.2125 176.4C20.7458 173.133 18.0458 169.267 16.1125 164.8C14.1792 160.333 13.2125 155.4 13.2125 150C13.2125 144.6 14.1792 139.667 16.1125 135.2C18.0458 130.733 20.7458 126.867 24.2125 123.6C27.7458 120.333 31.8792 117.833 36.6125 116.1C41.4125 114.3 46.6125 113.4 52.2125 113.4C59.0792 113.4 65.1458 114.6 70.4125 117C75.7458 119.4 80.1458 122.867 83.6125 127.4L68.7125 140.7C66.6458 138.1 64.3458 136.1 61.8125 134.7C59.3458 133.233 56.5458 132.5 53.4125 132.5C50.9458 132.5 48.7125 132.9 46.7125 133.7C44.7125 134.5 42.9792 135.667 41.5125 137.2C40.1125 138.733 39.0125 140.6 38.2125 142.8C37.4125 144.933 37.0125 147.333 37.0125 150C37.0125 152.667 37.4125 155.1 38.2125 157.3C39.0125 159.433 40.1125 161.267 41.5125 162.8C42.9792 164.333 44.7125 165.5 46.7125 166.3C48.7125 167.1 50.9458 167.5 53.4125 167.5C56.5458 167.5 59.3458 166.8 61.8125 165.4C64.3458 163.933 66.6458 161.9 68.7125 159.3L83.6125 172.6C80.1458 177.067 75.7458 180.533 70.4125 183C65.1458 185.4 59.0792 186.6 52.2125 186.6ZM124.162 186.6C118.495 186.6 113.228 185.7 108.362 183.9C103.562 182.1 99.3951 179.567 95.8617 176.3C92.3284 172.967 89.5617 169.067 87.5617 164.6C85.6284 160.133 84.6617 155.267 84.6617 150C84.6617 144.667 85.6284 139.8 87.5617 135.4C89.5617 130.933 92.3284 127.067 95.8617 123.8C99.3951 120.467 103.562 117.9 108.362 116.1C113.228 114.3 118.495 113.4 124.162 113.4C129.895 113.4 135.162 114.3 139.962 116.1C144.762 117.9 148.928 120.467 152.462 123.8C155.995 127.067 158.728 130.933 160.662 135.4C162.662 139.8 163.662 144.667 163.662 150C163.662 155.267 162.662 160.133 160.662 164.6C158.728 169.067 155.995 172.967 152.462 176.3C148.928 179.567 144.762 182.1 139.962 183.9C135.162 185.7 129.895 186.6 124.162 186.6ZM124.162 167.5C126.362 167.5 128.395 167.1 130.262 166.3C132.195 165.5 133.862 164.367 135.262 162.9C136.728 161.367 137.862 159.533 138.662 157.4C139.462 155.2 139.862 152.733 139.862 150C139.862 147.267 139.462 144.833 138.662 142.7C137.862 140.5 136.728 138.667 135.262 137.2C133.862 135.667 132.195 134.5 130.262 133.7C128.395 132.9 126.362 132.5 124.162 132.5C121.962 132.5 119.895 132.9 117.962 133.7C116.095 134.5 114.428 135.667 112.962 137.2C111.562 138.667 110.462 140.5 109.662 142.7C108.862 144.833 108.462 147.267 108.462 150C108.462 152.733 108.862 155.2 109.662 157.4C110.462 159.533 111.562 161.367 112.962 162.9C114.428 164.367 116.095 165.5 117.962 166.3C119.895 167.1 121.962 167.5 124.162 167.5ZM170.727 185V115H194.327V166.7H225.927V185H170.727ZM230.946 185V115H254.546V166.7H286.146V185H230.946ZM312.765 141H343.965V158H312.765V141ZM314.365 167.2H349.365V185H291.165V115H348.065V132.8H314.365V167.2ZM393.15 186.6C387.55 186.6 382.35 185.733 377.55 184C372.817 182.2 368.683 179.667 365.15 176.4C361.683 173.133 358.983 169.267 357.05 164.8C355.117 160.333 354.15 155.4 354.15 150C354.15 144.6 355.117 139.667 357.05 135.2C358.983 130.733 361.683 126.867 365.15 123.6C368.683 120.333 372.817 117.833 377.55 116.1C382.35 114.3 387.55 113.4 393.15 113.4C400.017 113.4 406.083 114.6 411.35 117C416.683 119.4 421.083 122.867 424.55 127.4L409.65 140.7C407.583 138.1 405.283 136.1 402.75 134.7C400.283 133.233 397.483 132.5 394.35 132.5C391.883 132.5 389.65 132.9 387.65 133.7C385.65 134.5 383.917 135.667 382.45 137.2C381.05 138.733 379.95 140.6 379.15 142.8C378.35 144.933 377.95 147.333 377.95 150C377.95 152.667 378.35 155.1 379.15 157.3C379.95 159.433 381.05 161.267 382.45 162.8C383.917 164.333 385.65 165.5 387.65 166.3C389.65 167.1 391.883 167.5 394.35 167.5C397.483 167.5 400.283 166.8 402.75 165.4C405.283 163.933 407.583 161.9 409.65 159.3L424.55 172.6C421.083 177.067 416.683 180.533 411.35 183C406.083 185.4 400.017 186.6 393.15 186.6ZM444.576 185V133.3H424.076V115H488.676V133.3H468.176V185H444.576ZM493.305 185V115H516.905V185H493.305ZM548.766 185L519.166 115H544.566L568.666 174.1H553.566L578.366 115H601.566L571.966 185H548.766ZM624.015 141H655.215V158H624.015V141ZM625.615 167.2H660.615V185H602.415V115H659.315V132.8H625.615V167.2Z"/>
</mask>
<path d="M225.144 88L223.367 92.6735L223.406 92.6885L223.446 92.7028L225.144 88ZM212.744 80.4L209.315 84.0389L209.332 84.0552L209.349 84.0714L212.744 80.4ZM204.644 68.8L200.055 70.7861L200.055 70.7861L204.644 68.8ZM204.644 39.2L200.055 37.2139L200.055 37.2139L204.644 39.2ZM212.744 27.6L209.349 23.9286L209.332 23.9448L209.315 23.9611L212.744 27.6ZM225.144 20.1L226.863 24.7951L226.881 24.7884L226.899 24.7816L225.144 20.1ZM258.944 21L256.87 25.5499L256.881 25.5548L256.892 25.5596L258.944 21ZM272.144 31.4L275.473 35.1301L278.931 32.0441L276.116 28.3627L272.144 31.4ZM257.244 44.7L253.33 47.8112L256.624 51.9555L260.573 48.4301L257.244 44.7ZM250.344 38.7L247.788 42.9977L247.856 43.038L247.925 43.0762L250.344 38.7ZM235.244 37.7L237.101 42.3424L237.101 42.3424L235.244 37.7ZM230.044 41.2L226.431 37.7439L226.39 37.7858L226.351 37.8287L230.044 41.2ZM226.744 46.8L231.425 48.5556L231.434 48.5322L231.443 48.5087L226.744 46.8ZM226.744 61.3L222.045 63.0087L222.053 63.0322L222.062 63.0556L226.744 61.3ZM230.044 66.8L226.351 70.1713L226.39 70.2142L226.431 70.2561L230.044 66.8ZM235.244 70.3L233.387 74.9424L233.387 74.9424L235.244 70.3ZM250.344 69.4L252.812 73.7484L252.83 73.7379L252.849 73.7271L250.344 69.4ZM257.244 63.3L260.573 59.5699L256.624 56.0445L253.33 60.1888L257.244 63.3ZM272.144 76.6L276.094 79.6656L278.956 75.9782L275.473 72.8699L272.144 76.6ZM258.944 87L261.017 91.5499L261.03 91.544L261.043 91.5381L258.944 87ZM240.744 85.6C235.667 85.6 231.047 84.8157 226.842 83.2972L223.446 92.7028C228.841 94.651 234.621 95.6 240.744 95.6V85.6ZM226.921 83.3265C222.754 81.7419 219.177 79.5384 216.138 76.7286L209.349 84.0714C213.377 87.795 218.067 90.6581 223.367 92.6735L226.921 83.3265ZM216.173 76.7611C213.212 73.9711 210.902 70.6704 209.232 66.8139L200.055 70.7861C202.253 75.8629 205.342 80.2956 209.315 84.0389L216.173 76.7611ZM209.232 66.8139C207.599 63.0396 206.744 58.7919 206.744 54H196.744C196.744 60.0081 197.822 65.627 200.055 70.7861L209.232 66.8139ZM206.744 54C206.744 49.2081 207.599 44.9604 209.232 41.1861L200.055 37.2139C197.822 42.373 196.744 47.9919 196.744 54H206.744ZM209.232 41.1861C210.902 37.3296 213.212 34.0289 216.173 31.2389L209.315 23.9611C205.342 27.7044 202.253 32.1371 200.055 37.2139L209.232 41.1861ZM216.138 31.2714C219.163 28.4745 222.72 26.3122 226.863 24.7951L223.424 15.4049C218.101 17.3545 213.391 20.1922 209.349 23.9286L216.138 31.2714ZM226.899 24.7816C231.088 23.2108 235.688 22.4 240.744 22.4V12.4C234.6 12.4 228.799 13.3892 223.388 15.4184L226.899 24.7816ZM240.744 22.4C247.027 22.4 252.365 23.4966 256.87 25.5499L261.017 16.4501C254.989 13.7034 248.194 12.4 240.744 12.4V22.4ZM256.892 25.5596C261.488 27.628 265.222 30.5796 268.172 34.4372L276.116 28.3627C272.132 23.1538 267.066 19.172 260.996 16.4404L256.892 25.5596ZM268.814 27.6699L253.914 40.9699L260.573 48.4301L275.473 35.1301L268.814 27.6699ZM261.158 41.5888C258.741 38.5481 255.951 36.0863 252.762 34.3238L247.925 43.0762C249.803 44.1137 251.613 45.6519 253.33 47.8112L261.158 41.5888ZM252.899 34.4023C249.589 32.4343 245.891 31.5 241.944 31.5V41.5C244.263 41.5 246.165 42.0324 247.788 42.9977L252.899 34.4023ZM241.944 31.5C238.932 31.5 236.057 31.9896 233.387 33.0576L237.101 42.3424C238.431 41.8104 240.022 41.5 241.944 41.5V31.5ZM233.387 33.0576C230.734 34.1188 228.399 35.6861 226.431 37.7439L233.657 44.6561C234.622 43.6472 235.754 42.8812 237.101 42.3424L233.387 33.0576ZM226.351 37.8287C224.458 39.9028 223.04 42.3546 222.045 45.0913L231.443 48.5087C232.048 46.8454 232.83 45.5639 233.736 44.5713L226.351 37.8287ZM222.062 45.0444C221.019 47.8259 220.544 50.834 220.544 54H230.544C230.544 51.8326 230.868 50.0408 231.425 48.5556L222.062 45.0444ZM220.544 54C220.544 57.1693 221.02 60.1905 222.045 63.0087L231.443 59.5913C230.868 58.0095 230.544 56.164 230.544 54H220.544ZM222.062 63.0556C223.064 65.7274 224.482 68.1235 226.351 70.1713L233.736 63.4287C232.806 62.4098 232.023 61.1393 231.425 59.5444L222.062 63.0556ZM226.431 70.2561C228.399 72.3138 230.734 73.8812 233.387 74.9424L237.101 65.6576C235.754 65.1188 234.622 64.3528 233.657 63.3439L226.431 70.2561ZM233.387 74.9424C236.057 76.0104 238.932 76.5 241.944 76.5V66.5C240.022 66.5 238.431 66.1896 237.101 65.6576L233.387 74.9424ZM241.944 76.5C245.849 76.5 249.516 75.6191 252.812 73.7484L247.876 65.0516C246.238 65.9809 244.305 66.5 241.944 66.5V76.5ZM252.849 73.7271C255.992 71.9076 258.754 69.4357 261.158 66.4112L253.33 60.1888C251.6 62.3643 249.762 63.9591 247.839 65.0729L252.849 73.7271ZM253.914 67.0301L268.814 80.3301L275.473 72.8699L260.573 59.5699L253.914 67.0301ZM268.194 73.5344C265.237 77.3441 261.482 80.3173 256.845 82.4619L261.043 91.5381C267.072 88.7494 272.117 84.7893 276.094 79.6656L268.194 73.5344ZM256.87 82.4501C252.365 84.5034 247.027 85.6 240.744 85.6V95.6C248.194 95.6 254.989 94.2966 261.017 91.5499L256.87 82.4501ZM268.881 89L264.3 86.9973L261.239 94H268.881V89ZM299.481 19V14H296.21L294.9 16.9973L299.481 19ZM322.681 19L327.263 16.9973L325.952 14H322.681V19ZM353.281 89V94H360.924L357.863 86.9973L353.281 89ZM328.881 89L324.214 90.7938L325.446 94H328.881V89ZM306.281 30.2V25.2H299.003L301.614 31.9938L306.281 30.2ZM315.481 30.2L320.148 31.9938L322.76 25.2H315.481V30.2ZM292.881 89V94H296.316L297.548 90.7938L292.881 89ZM287.081 76.8L282.366 75.1359L280.014 81.8H287.081V76.8ZM293.081 59.8V54.8H289.544L288.366 58.1359L293.081 59.8ZM325.281 59.8L329.996 58.1359L328.819 54.8H325.281V59.8ZM331.281 76.8V81.8H338.348L335.996 75.1359L331.281 76.8ZM273.463 91.0027L304.063 21.0027L294.9 16.9973L264.3 86.9973L273.463 91.0027ZM299.481 24H322.681V14H299.481V24ZM318.1 21.0027L348.7 91.0027L357.863 86.9973L327.263 16.9973L318.1 21.0027ZM353.281 84H328.881V94H353.281V84ZM333.548 87.2062L310.948 28.4062L301.614 31.9938L324.214 90.7938L333.548 87.2062ZM306.281 35.2H315.481V25.2H306.281V35.2ZM310.814 28.4062L288.214 87.2062L297.548 90.7938L320.148 31.9938L310.814 28.4062ZM292.881 84H268.881V94H292.881V84ZM291.796 78.4641L297.796 61.4641L288.366 58.1359L282.366 75.1359L291.796 78.4641ZM293.081 64.8H325.281V54.8H293.081V64.8ZM320.566 61.4641L326.566 78.4641L335.996 75.1359L329.996 58.1359L320.566 61.4641ZM331.281 71.8H287.081V81.8H331.281V71.8ZM355.548 89H350.548V94H355.548V89ZM355.548 19V14H350.548V19H355.548ZM374.948 19L379.211 16.3878L377.748 14H374.948V19ZM402.948 64.7V69.7H411.875L407.211 62.0878L402.948 64.7ZM392.748 64.7L388.451 62.1427L383.953 69.7H392.748V64.7ZM419.948 19V14H417.105L415.651 16.4427L419.948 19ZM439.348 19L444.348 18.9857L444.333 14H439.348V19ZM439.548 89V94H444.562L444.548 88.9857L439.548 89ZM418.048 89L413.048 89.0266L413.074 94H418.048V89ZM417.848 51.4V46.4H412.821L412.848 51.4266L417.848 51.4ZM421.248 51.4L425.546 53.9543L430.035 46.4H421.248V51.4ZM402.648 82.7V87.7H405.493L406.946 85.2543L402.648 82.7ZM392.248 82.7L387.998 85.3341L389.464 87.7H392.248V82.7ZM372.848 51.4V46.4H363.866L368.598 54.0341L372.848 51.4ZM377.048 51.4H382.048V46.4H377.048V51.4ZM377.048 89V94H382.048V89H377.048ZM360.548 89V19H350.548V89H360.548ZM355.548 24H374.948V14H355.548V24ZM370.684 21.6121L398.684 67.3122L407.211 62.0878L379.211 16.3878L370.684 21.6121ZM402.948 59.7H392.748V69.7H402.948V59.7ZM397.044 67.2573L424.244 21.5572L415.651 16.4427L388.451 62.1427L397.044 67.2573ZM419.948 24H439.348V14H419.948V24ZM434.348 19.0143L434.548 89.0143L444.548 88.9857L444.348 18.9857L434.348 19.0143ZM439.548 84H418.048V94H439.548V84ZM423.048 88.9734L422.848 51.3734L412.848 51.4266L413.048 89.0266L423.048 88.9734ZM417.848 56.4H421.248V46.4H417.848V56.4ZM416.949 48.8457L398.349 80.1457L406.946 85.2543L425.546 53.9543L416.949 48.8457ZM402.648 77.7H392.248V87.7H402.648V77.7ZM396.498 80.0659L377.098 48.7659L368.598 54.0341L387.998 85.3341L396.498 80.0659ZM372.848 56.4H377.048V46.4H372.848V56.4ZM372.048 51.4V89H382.048V51.4H372.048ZM377.048 84H355.548V94H377.048V84ZM449.458 89H444.458V94H449.458V89ZM449.458 19V14H444.458V19H449.458ZM500.058 22.2L498.003 26.7584L498.015 26.7638L498.027 26.7691L500.058 22.2ZM511.158 31.4L506.966 34.1249L506.976 34.1411L506.987 34.1572L511.158 31.4ZM511.158 59.4L506.987 56.6428L506.987 56.6428L511.158 59.4ZM500.058 68.6L502.112 73.1584L502.127 73.1519L502.141 73.1453L500.058 68.6ZM462.558 71.8L459.092 68.1965L450.147 76.8H462.558V71.8ZM473.058 61.7H478.058V49.9528L469.592 58.0965L473.058 61.7ZM473.058 89V94H478.058V89H473.058ZM473.058 64.3L469.489 67.802L478.058 76.534V64.3H473.058ZM462.558 53.6V48.6H450.646L458.989 57.102L462.558 53.6ZM488.858 51.4L485.479 47.7142L485.44 47.7501L485.402 47.7868L488.858 51.4ZM488.858 39.4L485.402 43.0132L485.44 43.0499L485.479 43.0858L488.858 39.4ZM462.558 37.2L458.989 33.698L450.646 42.2H462.558V37.2ZM473.058 26.5H478.058V14.266L469.489 22.998L473.058 26.5ZM454.458 89V19H444.458V89H454.458ZM449.458 24H483.158V14H449.458V24ZM483.158 24C489.16 24 494.06 24.9811 498.003 26.7584L502.112 17.6416C496.589 15.1522 490.222 14 483.158 14V24ZM498.027 26.7691C502.036 28.5508 504.945 31.0168 506.966 34.1249L515.35 28.6751C512.17 23.7832 507.679 20.1158 502.089 17.6309L498.027 26.7691ZM506.987 34.1572C508.971 37.1584 510.058 40.8339 510.058 45.4H520.058C520.058 39.1661 518.545 33.5083 515.329 28.6428L506.987 34.1572ZM510.058 45.4C510.058 49.9661 508.971 53.6416 506.987 56.6428L515.329 62.1572C518.545 57.2917 520.058 51.6339 520.058 45.4H510.058ZM506.987 56.6428C504.962 59.7059 502.03 62.1959 497.975 64.0547L502.141 73.1453C507.686 70.6041 512.154 66.9608 515.329 62.1572L506.987 56.6428ZM498.003 64.0416C494.06 65.8189 489.16 66.8 483.158 66.8V76.8C490.222 76.8 496.589 75.6478 502.112 73.1584L498.003 64.0416ZM483.158 66.8H462.558V76.8H483.158V66.8ZM466.024 75.4035L476.524 65.3035L469.592 58.0965L459.092 68.1965L466.024 75.4035ZM468.058 61.7V89H478.058V61.7H468.058ZM473.058 84H449.458V94H473.058V84ZM476.627 60.798L466.127 50.098L458.989 57.102L469.489 67.802L476.627 60.798ZM462.558 58.6H481.658V48.6H462.558V58.6ZM481.658 58.6C485.537 58.6 489.456 57.747 492.314 55.0132L485.402 47.7868C485.193 47.9864 484.312 48.6 481.658 48.6V58.6ZM492.236 55.0858C495.045 52.5116 496.258 49.0784 496.258 45.4H486.258C486.258 46.7883 485.871 47.3551 485.479 47.7142L492.236 55.0858ZM496.258 45.4C496.258 41.7216 495.045 38.2884 492.236 35.7142L485.479 43.0858C485.871 43.4449 486.258 44.0117 486.258 45.4H496.258ZM492.314 35.7868C489.456 33.053 485.537 32.2 481.658 32.2V42.2C484.312 42.2 485.193 42.8136 485.402 43.0132L492.314 35.7868ZM481.658 32.2H462.558V42.2H481.658V32.2ZM466.127 40.702L476.627 30.002L469.489 22.998L458.989 33.698L466.127 40.702ZM468.058 26.5V64.3H478.058V26.5H468.058ZM542.898 45V40H537.898V45H542.898ZM574.098 45H579.098V40H574.098V45ZM574.098 62V67H579.098V62H574.098ZM542.898 62H537.898V67H542.898V62ZM544.498 71.2H539.498V76.2H544.498V71.2ZM579.498 71.2H584.498V66.2H579.498V71.2ZM579.498 89V94H584.498V89H579.498ZM521.298 89H516.298V94H521.298V89ZM521.298 19V14H516.298V19H521.298ZM578.198 19H583.198V14H578.198V19ZM578.198 36.8V41.8H583.198V36.8H578.198ZM544.498 36.8V31.8H539.498V36.8H544.498ZM542.898 50H574.098V40H542.898V50ZM569.098 45V62H579.098V45H569.098ZM574.098 57H542.898V67H574.098V57ZM547.898 62V45H537.898V62H547.898ZM544.498 76.2H579.498V66.2H544.498V76.2ZM574.498 71.2V89H584.498V71.2H574.498ZM579.498 84H521.298V94H579.498V84ZM526.298 89V19H516.298V89H526.298ZM521.298 24H578.198V14H521.298V24ZM573.198 19V36.8H583.198V19H573.198ZM578.198 31.8H544.498V41.8H578.198V31.8ZM539.498 36.8V71.2H549.498V36.8H539.498ZM587.083 89H582.083V94H587.083V89ZM587.083 19V14H582.083V19H587.083ZM642.183 23.3L640.008 27.8021L640.028 27.812L640.049 27.8218L642.183 23.3ZM656.083 35.3L651.873 37.9983L651.873 37.9983L656.083 35.3ZM656.083 72.7L660.292 75.3983L660.3 75.3862L660.308 75.374L656.083 72.7ZM642.183 84.8L644.317 89.3218L644.337 89.312L644.358 89.3021L642.183 84.8ZM610.683 70.6H605.683V75.6H610.683V70.6ZM629.283 68.7L627.047 64.2279L627.023 64.2399L626.999 64.2522L629.283 68.7ZM635.183 63.1L639.531 65.568L639.545 65.5433L639.559 65.5184L635.183 63.1ZM635.183 44.9L639.531 42.432L639.531 42.432L635.183 44.9ZM629.283 39.3L626.999 43.7478L627.023 43.7601L627.047 43.7721L629.283 39.3ZM610.683 37.4V32.4H605.683V37.4H610.683ZM592.083 89V19H582.083V89H592.083ZM587.083 24H621.583V14H587.083V24ZM621.583 24C628.767 24 634.866 25.318 640.008 27.8021L644.358 18.7979C637.633 15.5487 629.999 14 621.583 14V24ZM640.049 27.8218C645.188 30.247 649.079 33.6389 651.873 37.9983L660.292 32.6017C656.42 26.5611 651.044 21.953 644.317 18.7782L640.049 27.8218ZM651.873 37.9983C654.61 42.267 656.083 47.4949 656.083 53.9H666.083C666.083 45.9051 664.223 38.733 660.292 32.6017L651.873 37.9983ZM656.083 53.9C656.083 60.3799 654.606 65.6845 651.858 70.026L660.308 75.374C664.227 69.1822 666.083 61.9535 666.083 53.9H656.083ZM651.873 70.0017C649.072 74.3716 645.167 77.8051 640.008 80.2979L644.358 89.3021C651.065 86.0616 656.427 81.4284 660.292 75.3983L651.873 70.0017ZM640.049 80.2782C634.897 82.7094 628.783 84 621.583 84V94C629.983 94 637.602 92.4906 644.317 89.3218L640.049 80.2782ZM621.583 84H587.083V94H621.583V84ZM610.683 75.6H620.583V65.6H610.683V75.6ZM620.583 75.6C624.551 75.6 628.264 74.8437 631.567 73.1478L626.999 64.2522C625.368 65.0896 623.281 65.6 620.583 65.6V75.6ZM631.519 73.1721C634.941 71.4611 637.642 68.8962 639.531 65.568L630.834 60.632C629.923 62.2371 628.691 63.4055 627.047 64.2279L631.519 73.1721ZM639.559 65.5184C641.456 62.0851 642.283 58.1426 642.283 53.9H632.283C632.283 56.8574 631.709 59.0483 630.807 60.6816L639.559 65.5184ZM642.283 53.9C642.283 49.7115 641.451 45.8148 639.531 42.432L630.834 47.368C631.714 48.9185 632.283 51.0218 632.283 53.9H642.283ZM639.531 42.432C637.642 39.1038 634.941 36.5389 631.519 34.8279L627.047 43.7721C628.691 44.5945 629.923 45.7629 630.834 47.368L639.531 42.432ZM631.567 34.8522C628.264 33.1563 624.551 32.4 620.583 32.4V42.4C623.281 42.4 625.368 42.9104 626.999 43.7478L631.567 34.8522ZM620.583 32.4H610.683V42.4H620.583V32.4ZM605.683 37.4V70.6H615.683V37.4H605.683ZM36.6125 184L34.8353 188.673L34.8746 188.688L34.9143 188.703L36.6125 184ZM24.2125 176.4L20.7835 180.039L20.8008 180.055L20.8182 180.071L24.2125 176.4ZM16.1125 164.8L11.5239 166.786L11.5239 166.786L16.1125 164.8ZM16.1125 135.2L11.5239 133.214L11.5239 133.214L16.1125 135.2ZM24.2125 123.6L20.8182 119.929L20.8008 119.945L20.7835 119.961L24.2125 123.6ZM36.6125 116.1L38.3318 120.795L38.35 120.788L38.3681 120.782L36.6125 116.1ZM70.4125 117L68.3391 121.55L68.3499 121.555L68.3607 121.56L70.4125 117ZM83.6125 127.4L86.9421 131.13L90.3994 128.044L87.5843 124.363L83.6125 127.4ZM68.7125 140.7L64.7984 143.811L68.0926 147.956L72.0421 144.43L68.7125 140.7ZM61.8125 134.7L59.2571 138.998L59.325 139.038L59.3941 139.076L61.8125 134.7ZM46.7125 133.7L48.5695 138.342L48.5695 138.342L46.7125 133.7ZM41.5125 137.2L37.8993 133.744L37.8592 133.786L37.8201 133.829L41.5125 137.2ZM38.2125 142.8L42.8941 144.556L42.9029 144.532L42.9115 144.509L38.2125 142.8ZM38.2125 157.3L33.5135 159.009L33.5221 159.032L33.5309 159.056L38.2125 157.3ZM41.5125 162.8L37.8201 166.171L37.8592 166.214L37.8993 166.256L41.5125 162.8ZM46.7125 166.3L44.8555 170.942L44.8555 170.942L46.7125 166.3ZM61.8125 165.4L64.2805 169.748L64.2992 169.738L64.3177 169.727L61.8125 165.4ZM68.7125 159.3L72.0421 155.57L68.0926 152.044L64.7984 156.189L68.7125 159.3ZM83.6125 172.6L87.5624 175.666L90.4243 171.978L86.9421 168.87L83.6125 172.6ZM70.4125 183L72.4859 187.55L72.4986 187.544L72.5114 187.538L70.4125 183ZM52.2125 181.6C47.1353 181.6 42.5156 180.816 38.3107 179.297L34.9143 188.703C40.3094 190.651 46.0897 191.6 52.2125 191.6V181.6ZM38.3897 179.327C34.2228 177.742 30.6459 175.538 27.6068 172.729L20.8182 180.071C24.8458 183.795 29.5355 186.658 34.8353 188.673L38.3897 179.327ZM27.6415 172.761C24.6807 169.971 22.3704 166.67 20.7011 162.814L11.5239 166.786C13.7213 171.863 16.811 176.296 20.7835 180.039L27.6415 172.761ZM20.7011 162.814C19.0675 159.04 18.2125 154.792 18.2125 150H8.2125C8.2125 156.008 9.29086 161.627 11.5239 166.786L20.7011 162.814ZM18.2125 150C18.2125 145.208 19.0675 140.96 20.7011 137.186L11.5239 133.214C9.29086 138.373 8.2125 143.992 8.2125 150H18.2125ZM20.7011 137.186C22.3704 133.33 24.6807 130.029 27.6415 127.239L20.7835 119.961C16.811 123.704 13.7213 128.137 11.5239 133.214L20.7011 137.186ZM27.6068 127.271C30.632 124.474 34.189 122.312 38.3318 120.795L34.8932 111.405C29.5694 113.354 24.8597 116.192 20.8182 119.929L27.6068 127.271ZM38.3681 120.782C42.5571 119.211 47.1566 118.4 52.2125 118.4V108.4C46.0684 108.4 40.2679 109.389 34.8569 111.418L38.3681 120.782ZM52.2125 118.4C58.4954 118.4 63.8334 119.497 68.3391 121.55L72.4859 112.45C66.4582 109.703 59.6629 108.4 52.2125 108.4V118.4ZM68.3607 121.56C72.9572 123.628 76.6907 126.58 79.6407 130.437L87.5843 124.363C83.601 119.154 78.5345 115.172 72.4643 112.44L68.3607 121.56ZM80.2829 123.67L65.3829 136.97L72.0421 144.43L86.9421 131.13L80.2829 123.67ZM72.6266 137.589C70.2097 134.548 67.4202 132.086 64.2309 130.324L59.3941 139.076C61.2715 140.114 63.082 141.652 64.7984 143.811L72.6266 137.589ZM64.3679 130.402C61.058 128.434 57.36 127.5 53.4125 127.5V137.5C55.7316 137.5 57.6337 138.032 59.2571 138.998L64.3679 130.402ZM53.4125 127.5C50.4012 127.5 47.5255 127.99 44.8555 129.058L48.5695 138.342C49.8995 137.81 51.4905 137.5 53.4125 137.5V127.5ZM44.8556 129.058C42.2025 130.119 39.8676 131.686 37.8993 133.744L45.1257 140.656C46.0908 139.647 47.2225 138.881 48.5695 138.342L44.8556 129.058ZM37.8201 133.829C35.9263 135.903 34.5087 138.355 33.5135 141.091L42.9115 144.509C43.5163 142.845 44.2987 141.564 45.2049 140.571L37.8201 133.829ZM33.5309 141.044C32.4878 143.826 32.0125 146.834 32.0125 150H42.0125C42.0125 147.833 42.3372 146.041 42.8941 144.556L33.5309 141.044ZM32.0125 150C32.0125 153.169 32.4887 156.191 33.5135 159.009L42.9115 155.591C42.3363 154.009 42.0125 152.164 42.0125 150H32.0125ZM33.5309 159.056C34.5328 161.727 35.9503 164.124 37.8201 166.171L45.2049 159.429C44.2747 158.41 43.4922 157.139 42.8941 155.544L33.5309 159.056ZM37.8993 166.256C39.8676 168.314 42.2025 169.881 44.8555 170.942L48.5695 161.658C47.2225 161.119 46.0908 160.353 45.1257 159.344L37.8993 166.256ZM44.8555 170.942C47.5255 172.01 50.4012 172.5 53.4125 172.5V162.5C51.4905 162.5 49.8995 162.19 48.5695 161.658L44.8555 170.942ZM53.4125 172.5C57.3182 172.5 60.9846 171.619 64.2805 169.748L59.3445 161.052C57.7071 161.981 55.7735 162.5 53.4125 162.5V172.5ZM64.3177 169.727C67.4605 167.908 70.2226 165.436 72.6266 162.411L64.7984 156.189C63.0691 158.364 61.2311 159.959 59.3073 161.073L64.3177 169.727ZM65.3829 163.03L80.2829 176.33L86.9421 168.87L72.0421 155.57L65.3829 163.03ZM79.6626 169.534C76.7058 173.344 72.9505 176.317 68.3136 178.462L72.5114 187.538C78.5412 184.749 83.5859 180.789 87.5624 175.666L79.6626 169.534ZM68.3391 178.45C63.8334 180.503 58.4954 181.6 52.2125 181.6V191.6C59.6629 191.6 66.4582 190.297 72.4859 187.55L68.3391 178.45ZM108.362 183.9L106.606 188.582L106.617 188.586L106.627 188.59L108.362 183.9ZM95.8617 176.3L92.4306 179.937L92.4489 179.954L92.4674 179.971L95.8617 176.3ZM87.5617 164.6L82.9731 166.586L82.9855 166.615L82.9983 166.643L87.5617 164.6ZM87.5617 135.4L82.9983 133.357L82.9912 133.373L82.9841 133.389L87.5617 135.4ZM95.8617 123.8L99.256 127.471L99.2745 127.454L99.2928 127.437L95.8617 123.8ZM108.362 116.1L106.627 111.41L106.617 111.414L106.606 111.418L108.362 116.1ZM139.962 116.1L138.206 120.782L138.206 120.782L139.962 116.1ZM152.462 123.8L149.031 127.437L149.049 127.454L149.067 127.471L152.462 123.8ZM160.662 135.4L156.073 137.386L156.091 137.428L156.11 137.469L160.662 135.4ZM160.662 164.6L156.098 162.557L156.086 162.585L156.073 162.614L160.662 164.6ZM152.462 176.3L155.856 179.971L155.874 179.954L155.893 179.937L152.462 176.3ZM139.962 183.9L138.206 179.218L138.206 179.218L139.962 183.9ZM130.262 166.3L128.35 161.68L128.321 161.692L128.292 161.704L130.262 166.3ZM135.262 162.9L131.649 159.444L131.645 159.448L135.262 162.9ZM138.662 157.4L143.343 159.156L143.352 159.132L143.361 159.109L138.662 157.4ZM138.662 142.7L133.963 144.409L133.971 144.432L133.98 144.456L138.662 142.7ZM135.262 137.2L131.569 140.571L131.646 140.655L131.726 140.736L135.262 137.2ZM130.262 133.7L128.292 138.296L128.321 138.308L128.35 138.32L130.262 133.7ZM117.962 133.7L116.05 129.08L116.021 129.092L115.992 129.104L117.962 133.7ZM112.962 137.2L109.349 133.744L109.345 133.748L112.962 137.2ZM109.662 142.7L114.343 144.456L114.352 144.432L114.361 144.409L109.662 142.7ZM109.662 157.4L104.963 159.109L104.971 159.132L104.98 159.156L109.662 157.4ZM112.962 162.9L109.269 166.271L109.346 166.355L109.426 166.436L112.962 162.9ZM117.962 166.3L115.992 170.896L116.021 170.908L116.05 170.92L117.962 166.3ZM124.162 181.6C119.033 181.6 114.359 180.787 110.096 179.21L106.627 188.59C112.098 190.613 117.958 191.6 124.162 191.6V181.6ZM110.117 179.218C105.884 177.631 102.283 175.427 99.256 172.629L92.4674 179.971C96.5069 183.706 101.24 186.569 106.606 188.582L110.117 179.218ZM99.2928 172.663C96.2418 169.785 93.8583 166.427 92.1251 162.557L82.9983 166.643C85.2651 171.706 88.415 176.149 92.4306 179.937L99.2928 172.663ZM92.1503 162.614C90.51 158.824 89.6617 154.64 89.6617 150H79.6617C79.6617 155.893 80.7467 161.442 82.9731 166.586L92.1503 162.614ZM89.6617 150C89.6617 145.283 90.5137 141.111 92.1393 137.411L82.9841 133.389C80.7431 138.489 79.6617 144.051 79.6617 150H89.6617ZM92.1251 137.443C93.8541 133.582 96.2269 130.272 99.256 127.471L92.4674 120.129C88.4299 123.861 85.2693 128.285 82.9983 133.357L92.1251 137.443ZM99.2928 127.437C102.316 124.585 105.905 122.361 110.117 120.782L106.606 111.418C101.219 113.439 96.4739 116.349 92.4306 120.163L99.2928 127.437ZM110.096 120.79C114.359 119.213 119.033 118.4 124.162 118.4V108.4C117.958 108.4 112.098 109.387 106.627 111.41L110.096 120.79ZM124.162 118.4C129.366 118.4 134.03 119.216 138.206 120.782L141.717 111.418C136.293 109.384 130.424 108.4 124.162 108.4V118.4ZM138.206 120.782C142.419 122.361 146.007 124.585 149.031 127.437L155.893 120.163C151.85 116.349 147.105 113.439 141.717 111.418L138.206 120.782ZM149.067 127.471C152.084 130.26 154.413 133.551 156.073 137.386L165.25 133.414C163.044 128.316 159.906 123.873 155.856 120.129L149.067 127.471ZM156.11 137.469C157.785 141.155 158.662 145.306 158.662 150H168.662C168.662 144.027 167.538 138.445 165.214 133.331L156.11 137.469ZM158.662 150C158.662 154.617 157.789 158.781 156.098 162.557L165.225 166.643C167.534 161.486 168.662 155.917 168.662 150H158.662ZM156.073 162.614C154.409 166.459 152.069 169.797 149.031 172.663L155.893 179.937C159.921 176.137 163.048 171.675 165.25 166.586L156.073 162.614ZM149.067 172.629C146.04 175.427 142.44 177.631 138.206 179.218L141.717 188.582C147.084 186.569 151.817 183.706 155.856 179.971L149.067 172.629ZM138.206 179.218C134.03 180.784 129.366 181.6 124.162 181.6V191.6C130.424 191.6 136.293 190.616 141.717 188.582L138.206 179.218ZM124.162 172.5C126.982 172.5 129.692 171.984 132.231 170.896L128.292 161.704C127.098 162.216 125.742 162.5 124.162 162.5V172.5ZM132.173 170.92C134.729 169.863 136.982 168.339 138.878 166.352L131.645 159.448C130.741 160.394 129.661 161.137 128.35 161.68L132.173 170.92ZM138.875 166.356C140.843 164.299 142.324 161.875 143.343 159.156L133.98 155.644C133.4 157.192 132.614 158.435 131.649 159.444L138.875 166.356ZM143.361 159.109C144.39 156.278 144.862 153.22 144.862 150H134.862C134.862 152.246 134.533 154.122 133.963 155.691L143.361 159.109ZM144.862 150C144.862 146.784 144.391 143.739 143.343 140.944L133.98 144.456C134.532 145.928 134.862 147.75 134.862 150H144.862ZM143.361 140.991C142.343 138.193 140.843 135.711 138.797 133.664L131.726 140.736C132.613 141.623 133.38 142.807 133.963 144.409L143.361 140.991ZM138.954 133.829C137.055 131.749 134.779 130.158 132.173 129.08L128.35 138.32C129.611 138.842 130.668 139.584 131.569 140.571L138.954 133.829ZM132.231 129.104C129.692 128.016 126.982 127.5 124.162 127.5V137.5C125.742 137.5 127.098 137.784 128.292 138.296L132.231 129.104ZM124.162 127.5C121.34 127.5 118.62 128.016 116.05 129.08L119.873 138.32C121.17 137.784 122.583 137.5 124.162 137.5V127.5ZM115.992 129.104C113.479 130.181 111.259 131.746 109.349 133.744L116.575 140.656C117.597 139.587 118.711 138.819 119.931 138.296L115.992 129.104ZM109.345 133.748C107.399 135.786 105.963 138.241 104.963 140.991L114.361 144.409C114.961 142.759 115.724 141.547 116.578 140.652L109.345 133.748ZM104.98 140.944C103.932 143.739 103.462 146.784 103.462 150H113.462C113.462 147.75 113.791 145.928 114.343 144.456L104.98 140.944ZM103.462 150C103.462 153.22 103.933 156.278 104.963 159.109L114.361 155.691C113.79 154.122 113.462 152.246 113.462 150H103.462ZM104.98 159.156C105.982 161.827 107.4 164.224 109.269 166.271L116.654 159.529C115.724 158.51 114.941 157.239 114.343 155.644L104.98 159.156ZM109.426 166.436C111.333 168.342 113.528 169.84 115.992 170.896L119.931 161.704C118.662 161.16 117.524 160.391 116.497 159.364L109.426 166.436ZM116.05 170.92C118.62 171.984 121.34 172.5 124.162 172.5V162.5C122.583 162.5 121.17 162.216 119.873 161.68L116.05 170.92ZM170.727 185H165.727V190H170.727V185ZM170.727 115V110H165.727V115H170.727ZM194.327 115H199.327V110H194.327V115ZM194.327 166.7H189.327V171.7H194.327V166.7ZM225.927 166.7H230.927V161.7H225.927V166.7ZM225.927 185V190H230.927V185H225.927ZM175.727 185V115H165.727V185H175.727ZM170.727 120H194.327V110H170.727V120ZM189.327 115V166.7H199.327V115H189.327ZM194.327 171.7H225.927V161.7H194.327V171.7ZM220.927 166.7V185H230.927V166.7H220.927ZM225.927 180H170.727V190H225.927V180ZM230.946 185H225.946V190H230.946V185ZM230.946 115V110H225.946V115H230.946ZM254.546 115H259.546V110H254.546V115ZM254.546 166.7H249.546V171.7H254.546V166.7ZM286.146 166.7H291.146V161.7H286.146V166.7ZM286.146 185V190H291.146V185H286.146ZM235.946 185V115H225.946V185H235.946ZM230.946 120H254.546V110H230.946V120ZM249.546 115V166.7H259.546V115H249.546ZM254.546 171.7H286.146V161.7H254.546V171.7ZM281.146 166.7V185H291.146V166.7H281.146ZM286.146 180H230.946V190H286.146V180ZM312.765 141V136H307.765V141H312.765ZM343.965 141H348.965V136H343.965V141ZM343.965 158V163H348.965V158H343.965ZM312.765 158H307.765V163H312.765V158ZM314.365 167.2H309.365V172.2H314.365V167.2ZM349.365 167.2H354.365V162.2H349.365V167.2ZM349.365 185V190H354.365V185H349.365ZM291.165 185H286.165V190H291.165V185ZM291.165 115V110H286.165V115H291.165ZM348.065 115H353.065V110H348.065V115ZM348.065 132.8V137.8H353.065V132.8H348.065ZM314.365 132.8V127.8H309.365V132.8H314.365ZM312.765 146H343.965V136H312.765V146ZM338.965 141V158H348.965V141H338.965ZM343.965 153H312.765V163H343.965V153ZM317.765 158V141H307.765V158H317.765ZM314.365 172.2H349.365V162.2H314.365V172.2ZM344.365 167.2V185H354.365V167.2H344.365ZM349.365 180H291.165V190H349.365V180ZM296.165 185V115H286.165V185H296.165ZM291.165 120H348.065V110H291.165V120ZM343.065 115V132.8H353.065V115H343.065ZM348.065 127.8H314.365V137.8H348.065V127.8ZM309.365 132.8V167.2H319.365V132.8H309.365ZM377.55 184L375.773 188.673L375.812 188.688L375.852 188.703L377.55 184ZM365.15 176.4L361.721 180.039L361.738 180.055L361.756 180.071L365.15 176.4ZM357.05 164.8L352.461 166.786L352.461 166.786L357.05 164.8ZM357.05 135.2L352.461 133.214L352.461 133.214L357.05 135.2ZM365.15 123.6L361.756 119.929L361.738 119.945L361.721 119.961L365.15 123.6ZM377.55 116.1L379.269 120.795L379.287 120.788L379.306 120.782L377.55 116.1ZM411.35 117L409.277 121.55L409.287 121.555L409.298 121.56L411.35 117ZM424.55 127.4L427.88 131.13L431.337 128.044L428.522 124.363L424.55 127.4ZM409.65 140.7L405.736 143.811L409.03 147.956L412.98 144.43L409.65 140.7ZM402.75 134.7L400.195 138.998L400.262 139.038L400.332 139.076L402.75 134.7ZM387.65 133.7L389.507 138.342L389.507 138.342L387.65 133.7ZM382.45 137.2L378.837 133.744L378.797 133.786L378.758 133.829L382.45 137.2ZM379.15 142.8L383.832 144.556L383.84 144.532L383.849 144.509L379.15 142.8ZM379.15 157.3L374.451 159.009L374.46 159.032L374.468 159.056L379.15 157.3ZM382.45 162.8L378.758 166.171L378.797 166.214L378.837 166.256L382.45 162.8ZM387.65 166.3L385.793 170.942L385.793 170.942L387.65 166.3ZM402.75 165.4L405.218 169.748L405.237 169.738L405.255 169.727L402.75 165.4ZM409.65 159.3L412.98 155.57L409.03 152.044L405.736 156.189L409.65 159.3ZM424.55 172.6L428.5 175.666L431.362 171.978L427.88 168.87L424.55 172.6ZM411.35 183L413.423 187.55L413.436 187.544L413.449 187.538L411.35 183ZM393.15 181.6C388.073 181.6 383.453 180.816 379.248 179.297L375.852 188.703C381.247 190.651 387.027 191.6 393.15 191.6V181.6ZM379.327 179.327C375.16 177.742 371.583 175.538 368.544 172.729L361.756 180.071C365.783 183.795 370.473 186.658 375.773 188.673L379.327 179.327ZM368.579 172.761C365.618 169.971 363.308 166.67 361.639 162.814L352.461 166.786C354.659 171.863 357.748 176.296 361.721 180.039L368.579 172.761ZM361.639 162.814C360.005 159.04 359.15 154.792 359.15 150H349.15C349.15 156.008 350.228 161.627 352.461 166.786L361.639 162.814ZM359.15 150C359.15 145.208 360.005 140.96 361.639 137.186L352.461 133.214C350.228 138.373 349.15 143.992 349.15 150H359.15ZM361.639 137.186C363.308 133.33 365.618 130.029 368.579 127.239L361.721 119.961C357.748 123.704 354.659 128.137 352.461 133.214L361.639 137.186ZM368.544 127.271C371.569 124.474 375.126 122.312 379.269 120.795L375.831 111.405C370.507 113.354 365.797 116.192 361.756 119.929L368.544 127.271ZM379.306 120.782C383.495 119.211 388.094 118.4 393.15 118.4V108.4C387.006 108.4 381.205 109.389 375.794 111.418L379.306 120.782ZM393.15 118.4C399.433 118.4 404.771 119.497 409.277 121.55L413.423 112.45C407.396 109.703 400.6 108.4 393.15 108.4V118.4ZM409.298 121.56C413.895 123.628 417.628 126.58 420.578 130.437L428.522 124.363C424.538 119.154 419.472 115.172 413.402 112.44L409.298 121.56ZM421.22 123.67L406.32 136.97L412.98 144.43L427.88 131.13L421.22 123.67ZM413.564 137.589C411.147 134.548 408.358 132.086 405.168 130.324L400.332 139.076C402.209 140.114 404.019 141.652 405.736 143.811L413.564 137.589ZM405.305 130.402C401.995 128.434 398.298 127.5 394.35 127.5V137.5C396.669 137.5 398.571 138.032 400.195 138.998L405.305 130.402ZM394.35 127.5C391.339 127.5 388.463 127.99 385.793 129.058L389.507 138.342C390.837 137.81 392.428 137.5 394.35 137.5V127.5ZM385.793 129.058C383.14 130.119 380.805 131.686 378.837 133.744L386.063 140.656C387.028 139.647 388.16 138.881 389.507 138.342L385.793 129.058ZM378.758 133.829C376.864 135.903 375.446 138.355 374.451 141.091L383.849 144.509C384.454 142.845 385.236 141.564 386.142 140.571L378.758 133.829ZM374.468 141.044C373.425 143.826 372.95 146.834 372.95 150H382.95C382.95 147.833 383.275 146.041 383.832 144.556L374.468 141.044ZM372.95 150C372.95 153.169 373.426 156.191 374.451 159.009L383.849 155.591C383.274 154.009 382.95 152.164 382.95 150H372.95ZM374.468 159.056C375.47 161.727 376.888 164.124 378.758 166.171L386.142 159.429C385.212 158.41 384.43 157.139 383.832 155.544L374.468 159.056ZM378.837 166.256C380.805 168.314 383.14 169.881 385.793 170.942L389.507 161.658C388.16 161.119 387.028 160.353 386.063 159.344L378.837 166.256ZM385.793 170.942C388.463 172.01 391.339 172.5 394.35 172.5V162.5C392.428 162.5 390.837 162.19 389.507 161.658L385.793 170.942ZM394.35 172.5C398.256 172.5 401.922 171.619 405.218 169.748L400.282 161.052C398.645 161.981 396.711 162.5 394.35 162.5V172.5ZM405.255 169.727C408.398 167.908 411.16 165.436 413.564 162.411L405.736 156.189C404.007 158.364 402.169 159.959 400.245 161.073L405.255 169.727ZM406.32 163.03L421.22 176.33L427.88 168.87L412.98 155.57L406.32 163.03ZM420.6 169.534C417.643 173.344 413.888 176.317 409.251 178.462L413.449 187.538C419.479 184.749 424.523 180.789 428.5 175.666L420.6 169.534ZM409.277 178.45C404.771 180.503 399.433 181.6 393.15 181.6V191.6C400.6 191.6 407.396 190.297 413.423 187.55L409.277 178.45ZM444.576 185H439.576V190H444.576V185ZM444.576 133.3H449.576V128.3H444.576V133.3ZM424.076 133.3H419.076V138.3H424.076V133.3ZM424.076 115V110H419.076V115H424.076ZM488.676 115H493.676V110H488.676V115ZM488.676 133.3V138.3H493.676V133.3H488.676ZM468.176 133.3V128.3H463.176V133.3H468.176ZM468.176 185V190H473.176V185H468.176ZM449.576 185V133.3H439.576V185H449.576ZM444.576 128.3H424.076V138.3H444.576V128.3ZM429.076 133.3V115H419.076V133.3H429.076ZM424.076 120H488.676V110H424.076V120ZM483.676 115V133.3H493.676V115H483.676ZM488.676 128.3H468.176V138.3H488.676V128.3ZM463.176 133.3V185H473.176V133.3H463.176ZM468.176 180H444.576V190H468.176V180ZM493.305 185H488.305V190H493.305V185ZM493.305 115V110H488.305V115H493.305ZM516.905 115H521.905V110H516.905V115ZM516.905 185V190H521.905V185H516.905ZM498.305 185V115H488.305V185H498.305ZM493.305 120H516.905V110H493.305V120ZM511.905 115V185H521.905V115H511.905ZM516.905 180H493.305V190H516.905V180ZM548.766 185L544.161 186.947L545.452 190H548.766V185ZM519.166 115V110H511.623L514.561 116.947L519.166 115ZM544.566 115L549.196 113.112L547.927 110H544.566V115ZM568.666 174.1V179.1H576.105L573.296 172.212L568.666 174.1ZM553.566 174.1L548.956 172.165L546.046 179.1H553.566V174.1ZM578.366 115V110H575.042L573.756 113.065L578.366 115ZM601.566 115L606.172 116.947L609.109 110H601.566V115ZM571.966 185V190H575.281L576.572 186.947L571.966 185ZM553.372 183.053L523.772 113.053L514.561 116.947L544.161 186.947L553.372 183.053ZM519.166 120H544.566V110H519.166V120ZM539.937 116.888L564.037 175.988L573.296 172.212L549.196 113.112L539.937 116.888ZM568.666 169.1H553.566V179.1H568.666V169.1ZM558.177 176.035L582.977 116.935L573.756 113.065L548.956 172.165L558.177 176.035ZM578.366 120H601.566V110H578.366V120ZM596.961 113.053L567.361 183.053L576.572 186.947L606.172 116.947L596.961 113.053ZM571.966 180H548.766V190H571.966V180ZM624.015 141V136H619.015V141H624.015ZM655.215 141H660.215V136H655.215V141ZM655.215 158V163H660.215V158H655.215ZM624.015 158H619.015V163H624.015V158ZM625.615 167.2H620.615V172.2H625.615V167.2ZM660.615 167.2H665.615V162.2H660.615V167.2ZM660.615 185V190H665.615V185H660.615ZM602.415 185H597.415V190H602.415V185ZM602.415 115V110H597.415V115H602.415ZM659.315 115H664.315V110H659.315V115ZM659.315 132.8V137.8H664.315V132.8H659.315ZM625.615 132.8V127.8H620.615V132.8H625.615ZM624.015 146H655.215V136H624.015V146ZM650.215 141V158H660.215V141H650.215ZM655.215 153H624.015V163H655.215V153ZM629.015 158V141H619.015V158H629.015ZM625.615 172.2H660.615V162.2H625.615V172.2ZM655.615 167.2V185H665.615V167.2H655.615ZM660.615 180H602.415V190H660.615V180ZM607.415 185V115H597.415V185H607.415ZM602.415 120H659.315V110H602.415V120ZM654.315 115V132.8H664.315V115H654.315ZM659.315 127.8H625.615V137.8H659.315V127.8ZM620.615 132.8V167.2H630.615V132.8H620.615Z" fill="#4A8164" mask="url(#path-1-outside-1_2077_51)"/>
<path d="M230.744 83.6C225.144 83.6 219.944 82.7333 215.144 81C210.41 79.2 206.277 76.6667 202.744 73.4C199.277 70.1333 196.577 66.2667 194.644 61.8C192.71 57.3333 191.744 52.4 191.744 47C191.744 41.6 192.71 36.6667 194.644 32.2C196.577 27.7333 199.277 23.8667 202.744 20.6C206.277 17.3333 210.41 14.8333 215.144 13.1C219.944 11.3 225.144 10.4 230.744 10.4C237.61 10.4 243.677 11.6 248.944 14C254.277 16.4 258.677 19.8667 262.144 24.4L247.244 37.7C245.177 35.1 242.877 33.1 240.344 31.7C237.877 30.2333 235.077 29.5 231.944 29.5C229.477 29.5 227.244 29.9 225.244 30.7C223.244 31.5 221.51 32.6667 220.044 34.2C218.644 35.7333 217.544 37.6 216.744 39.8C215.944 41.9333 215.544 44.3333 215.544 47C215.544 49.6667 215.944 52.1 216.744 54.3C217.544 56.4333 218.644 58.2667 220.044 59.8C221.51 61.3333 223.244 62.5 225.244 63.3C227.244 64.1 229.477 64.5 231.944 64.5C235.077 64.5 237.877 63.8 240.344 62.4C242.877 60.9333 245.177 58.9 247.244 56.3L262.144 69.6C258.677 74.0667 254.277 77.5333 248.944 80C243.677 82.4 237.61 83.6 230.744 83.6ZM258.881 82L289.481 12H312.681L343.281 82H318.881L296.281 23.2H305.481L282.881 82H258.881ZM277.081 69.8L283.081 52.8H315.281L321.281 69.8H277.081ZM345.548 82V12H364.948L392.948 57.7H382.748L409.948 12H429.348L429.548 82H408.048L407.848 44.4H411.248L392.648 75.7H382.248L362.848 44.4H367.048V82H345.548ZM439.458 82V12H473.158C479.691 12 485.324 13.0667 490.058 15.2C494.858 17.3333 498.558 20.4 501.158 24.4C503.758 28.3333 505.058 33 505.058 38.4C505.058 43.8 503.758 48.4667 501.158 52.4C498.558 56.3333 494.858 59.4 490.058 61.6C485.324 63.7333 479.691 64.8 473.158 64.8H452.558L463.058 54.7V82H439.458ZM463.058 57.3L452.558 46.6H471.658C474.924 46.6 477.324 45.8667 478.858 44.4C480.458 42.9333 481.258 40.9333 481.258 38.4C481.258 35.8667 480.458 33.8667 478.858 32.4C477.324 30.9333 474.924 30.2 471.658 30.2H452.558L463.058 19.5V57.3ZM532.898 38H564.098V55H532.898V38ZM534.498 64.2H569.498V82H511.298V12H568.198V29.8H534.498V64.2ZM577.083 82V12H611.583C619.383 12 626.249 13.4333 632.183 16.3C638.116 19.1 642.749 23.1 646.083 28.3C649.416 33.5 651.083 39.7 651.083 46.9C651.083 54.1667 649.416 60.4333 646.083 65.7C642.749 70.9 638.116 74.9333 632.183 77.8C626.249 80.6 619.383 82 611.583 82H577.083ZM600.683 63.6H610.583C613.916 63.6 616.816 62.9667 619.283 61.7C621.816 60.4333 623.783 58.5667 625.183 56.1C626.583 53.5667 627.283 50.5 627.283 46.9C627.283 43.3667 626.583 40.3667 625.183 37.9C623.783 35.4333 621.816 33.5667 619.283 32.3C616.816 31.0333 613.916 30.4 610.583 30.4H600.683V63.6ZM42.2125 179.6C36.6125 179.6 31.4125 178.733 26.6125 177C21.8792 175.2 17.7458 172.667 14.2125 169.4C10.7458 166.133 8.04583 162.267 6.1125 157.8C4.17917 153.333 3.2125 148.4 3.2125 143C3.2125 137.6 4.17917 132.667 6.1125 128.2C8.04583 123.733 10.7458 119.867 14.2125 116.6C17.7458 113.333 21.8792 110.833 26.6125 109.1C31.4125 107.3 36.6125 106.4 42.2125 106.4C49.0792 106.4 55.1458 107.6 60.4125 110C65.7458 112.4 70.1458 115.867 73.6125 120.4L58.7125 133.7C56.6458 131.1 54.3458 129.1 51.8125 127.7C49.3458 126.233 46.5458 125.5 43.4125 125.5C40.9458 125.5 38.7125 125.9 36.7125 126.7C34.7125 127.5 32.9792 128.667 31.5125 130.2C30.1125 131.733 29.0125 133.6 28.2125 135.8C27.4125 137.933 27.0125 140.333 27.0125 143C27.0125 145.667 27.4125 148.1 28.2125 150.3C29.0125 152.433 30.1125 154.267 31.5125 155.8C32.9792 157.333 34.7125 158.5 36.7125 159.3C38.7125 160.1 40.9458 160.5 43.4125 160.5C46.5458 160.5 49.3458 159.8 51.8125 158.4C54.3458 156.933 56.6458 154.9 58.7125 152.3L73.6125 165.6C70.1458 170.067 65.7458 173.533 60.4125 176C55.1458 178.4 49.0792 179.6 42.2125 179.6ZM114.162 179.6C108.495 179.6 103.228 178.7 98.3617 176.9C93.5617 175.1 89.3951 172.567 85.8617 169.3C82.3284 165.967 79.5617 162.067 77.5617 157.6C75.6284 153.133 74.6617 148.267 74.6617 143C74.6617 137.667 75.6284 132.8 77.5617 128.4C79.5617 123.933 82.3284 120.067 85.8617 116.8C89.3951 113.467 93.5617 110.9 98.3617 109.1C103.228 107.3 108.495 106.4 114.162 106.4C119.895 106.4 125.162 107.3 129.962 109.1C134.762 110.9 138.928 113.467 142.462 116.8C145.995 120.067 148.728 123.933 150.662 128.4C152.662 132.8 153.662 137.667 153.662 143C153.662 148.267 152.662 153.133 150.662 157.6C148.728 162.067 145.995 165.967 142.462 169.3C138.928 172.567 134.762 175.1 129.962 176.9C125.162 178.7 119.895 179.6 114.162 179.6ZM114.162 160.5C116.362 160.5 118.395 160.1 120.262 159.3C122.195 158.5 123.862 157.367 125.262 155.9C126.728 154.367 127.862 152.533 128.662 150.4C129.462 148.2 129.862 145.733 129.862 143C129.862 140.267 129.462 137.833 128.662 135.7C127.862 133.5 126.728 131.667 125.262 130.2C123.862 128.667 122.195 127.5 120.262 126.7C118.395 125.9 116.362 125.5 114.162 125.5C111.962 125.5 109.895 125.9 107.962 126.7C106.095 127.5 104.428 128.667 102.962 130.2C101.562 131.667 100.462 133.5 99.6617 135.7C98.8617 137.833 98.4617 140.267 98.4617 143C98.4617 145.733 98.8617 148.2 99.6617 150.4C100.462 152.533 101.562 154.367 102.962 155.9C104.428 157.367 106.095 158.5 107.962 159.3C109.895 160.1 111.962 160.5 114.162 160.5ZM160.727 178V108H184.327V159.7H215.927V178H160.727ZM220.946 178V108H244.546V159.7H276.146V178H220.946ZM302.765 134H333.965V151H302.765V134ZM304.365 160.2H339.365V178H281.165V108H338.065V125.8H304.365V160.2ZM383.15 179.6C377.55 179.6 372.35 178.733 367.55 177C362.817 175.2 358.683 172.667 355.15 169.4C351.683 166.133 348.983 162.267 347.05 157.8C345.117 153.333 344.15 148.4 344.15 143C344.15 137.6 345.117 132.667 347.05 128.2C348.983 123.733 351.683 119.867 355.15 116.6C358.683 113.333 362.817 110.833 367.55 109.1C372.35 107.3 377.55 106.4 383.15 106.4C390.017 106.4 396.083 107.6 401.35 110C406.683 112.4 411.083 115.867 414.55 120.4L399.65 133.7C397.583 131.1 395.283 129.1 392.75 127.7C390.283 126.233 387.483 125.5 384.35 125.5C381.883 125.5 379.65 125.9 377.65 126.7C375.65 127.5 373.917 128.667 372.45 130.2C371.05 131.733 369.95 133.6 369.15 135.8C368.35 137.933 367.95 140.333 367.95 143C367.95 145.667 368.35 148.1 369.15 150.3C369.95 152.433 371.05 154.267 372.45 155.8C373.917 157.333 375.65 158.5 377.65 159.3C379.65 160.1 381.883 160.5 384.35 160.5C387.483 160.5 390.283 159.8 392.75 158.4C395.283 156.933 397.583 154.9 399.65 152.3L414.55 165.6C411.083 170.067 406.683 173.533 401.35 176C396.083 178.4 390.017 179.6 383.15 179.6ZM434.576 178V126.3H414.076V108H478.676V126.3H458.176V178H434.576ZM483.305 178V108H506.905V178H483.305ZM538.766 178L509.166 108H534.566L558.666 167.1H543.566L568.366 108H591.566L561.966 178H538.766ZM614.015 134H645.215V151H614.015V134ZM615.615 160.2H650.615V178H592.415V108H649.315V125.8H615.615V160.2Z" fill="#223B2E"/>
</svg>
