<svg width="667" height="185" viewBox="0 0 667 185" fill="none" xmlns="http://www.w3.org/2000/svg">
<mask id="path-1-outside-1_2178_1533" maskUnits="userSpaceOnUse" x="8" y="5" width="658" height="180" fill="black">
<rect fill="white" x="8" y="5" width="658" height="180"/>
<path d="M146.322 83.6C140.722 83.6 135.522 82.7333 130.722 81C125.989 79.2 121.855 76.6667 118.322 73.4C114.855 70.1333 112.155 66.2667 110.222 61.8C108.289 57.3333 107.322 52.4 107.322 47C107.322 41.6 108.289 36.6667 110.222 32.2C112.155 27.7333 114.855 23.8667 118.322 20.6C121.855 17.3333 125.989 14.8333 130.722 13.1C135.522 11.3 140.722 10.4 146.322 10.4C153.189 10.4 159.255 11.6 164.522 14C169.855 16.4 174.255 19.8667 177.722 24.4L162.822 37.7C160.755 35.1 158.455 33.1 155.922 31.7C153.455 30.2333 150.655 29.5 147.522 29.5C145.055 29.5 142.822 29.9 140.822 30.7C138.822 31.5 137.089 32.6667 135.622 34.2C134.222 35.7333 133.122 37.6 132.322 39.8C131.522 41.9333 131.122 44.3333 131.122 47C131.122 49.6667 131.522 52.1 132.322 54.3C133.122 56.4333 134.222 58.2667 135.622 59.8C137.089 61.3333 138.822 62.5 140.822 63.3C142.822 64.1 145.055 64.5 147.522 64.5C150.655 64.5 153.455 63.8 155.922 62.4C158.455 60.9333 160.755 58.9 162.822 56.3L177.722 69.6C174.255 74.0667 169.855 77.5333 164.522 80C159.255 82.4 153.189 83.6 146.322 83.6ZM174.459 82L205.059 12H228.259L258.859 82H234.459L211.859 23.2H221.059L198.459 82H174.459ZM192.659 69.8L198.659 52.8H230.859L236.859 69.8H192.659ZM261.126 82V12H280.526L308.526 57.7H298.326L325.526 12H344.926L345.126 82H323.626L323.426 44.4H326.826L308.226 75.7H297.826L278.426 44.4H282.626V82H261.126ZM355.036 82V12H388.736C395.269 12 400.903 13.0667 405.636 15.2C410.436 17.3333 414.136 20.4 416.736 24.4C419.336 28.3333 420.636 33 420.636 38.4C420.636 43.8 419.336 48.4667 416.736 52.4C414.136 56.3333 410.436 59.4 405.636 61.6C400.903 63.7333 395.269 64.8 388.736 64.8H368.136L378.636 54.7V82H355.036ZM378.636 57.3L368.136 46.6H387.236C390.503 46.6 392.903 45.8667 394.436 44.4C396.036 42.9333 396.836 40.9333 396.836 38.4C396.836 35.8667 396.036 33.8667 394.436 32.4C392.903 30.9333 390.503 30.2 387.236 30.2H368.136L378.636 19.5V57.3ZM448.476 38H479.676V55H448.476V38ZM450.076 64.2H485.076V82H426.876V12H483.776V29.8H450.076V64.2ZM492.661 82V12H527.161C534.961 12 541.828 13.4333 547.761 16.3C553.694 19.1 558.328 23.1 561.661 28.3C564.994 33.5 566.661 39.7 566.661 46.9C566.661 54.1667 564.994 60.4333 561.661 65.7C558.328 70.9 553.694 74.9333 547.761 77.8C541.828 80.6 534.961 82 527.161 82H492.661ZM516.261 63.6H526.161C529.494 63.6 532.394 62.9667 534.861 61.7C537.394 60.4333 539.361 58.5667 540.761 56.1C542.161 53.5667 542.861 50.5 542.861 46.9C542.861 43.3667 542.161 40.3667 540.761 37.9C539.361 35.4333 537.394 33.5667 534.861 32.3C532.394 31.0333 529.494 30.4 526.161 30.4H516.261V63.6ZM52.0563 179.6C46.4563 179.6 41.2563 178.733 36.4563 177C31.7229 175.2 27.5896 172.667 24.0563 169.4C20.5896 166.133 17.8896 162.267 15.9563 157.8C14.0229 153.333 13.0563 148.4 13.0563 143C13.0563 137.6 14.0229 132.667 15.9563 128.2C17.8896 123.733 20.5896 119.867 24.0563 116.6C27.5896 113.333 31.7229 110.833 36.4563 109.1C41.2563 107.3 46.4563 106.4 52.0563 106.4C58.9229 106.4 64.9896 107.6 70.2563 110C75.5896 112.4 79.9896 115.867 83.4563 120.4L68.5563 133.7C66.4896 131.1 64.1896 129.1 61.6563 127.7C59.1896 126.233 56.3896 125.5 53.2563 125.5C50.7896 125.5 48.5563 125.9 46.5563 126.7C44.5563 127.5 42.8229 128.667 41.3563 130.2C39.9563 131.733 38.8563 133.6 38.0563 135.8C37.2563 137.933 36.8563 140.333 36.8563 143C36.8563 145.667 37.2563 148.1 38.0563 150.3C38.8563 152.433 39.9563 154.267 41.3563 155.8C42.8229 157.333 44.5563 158.5 46.5563 159.3C48.5563 160.1 50.7896 160.5 53.2563 160.5C56.3896 160.5 59.1896 159.8 61.6563 158.4C64.1896 156.933 66.4896 154.9 68.5563 152.3L83.4563 165.6C79.9896 170.067 75.5896 173.533 70.2563 176C64.9896 178.4 58.9229 179.6 52.0563 179.6ZM124.005 179.6C118.339 179.6 113.072 178.7 108.205 176.9C103.405 175.1 99.2388 172.567 95.7055 169.3C92.1721 165.967 89.4055 162.067 87.4055 157.6C85.4721 153.133 84.5055 148.267 84.5055 143C84.5055 137.667 85.4721 132.8 87.4055 128.4C89.4055 123.933 92.1721 120.067 95.7055 116.8C99.2388 113.467 103.405 110.9 108.205 109.1C113.072 107.3 118.339 106.4 124.005 106.4C129.739 106.4 135.005 107.3 139.805 109.1C144.605 110.9 148.772 113.467 152.305 116.8C155.839 120.067 158.572 123.933 160.505 128.4C162.505 132.8 163.505 137.667 163.505 143C163.505 148.267 162.505 153.133 160.505 157.6C158.572 162.067 155.839 165.967 152.305 169.3C148.772 172.567 144.605 175.1 139.805 176.9C135.005 178.7 129.739 179.6 124.005 179.6ZM124.005 160.5C126.205 160.5 128.239 160.1 130.105 159.3C132.039 158.5 133.705 157.367 135.105 155.9C136.572 154.367 137.705 152.533 138.505 150.4C139.305 148.2 139.705 145.733 139.705 143C139.705 140.267 139.305 137.833 138.505 135.7C137.705 133.5 136.572 131.667 135.105 130.2C133.705 128.667 132.039 127.5 130.105 126.7C128.239 125.9 126.205 125.5 124.005 125.5C121.805 125.5 119.739 125.9 117.805 126.7C115.939 127.5 114.272 128.667 112.805 130.2C111.405 131.667 110.305 133.5 109.505 135.7C108.705 137.833 108.305 140.267 108.305 143C108.305 145.733 108.705 148.2 109.505 150.4C110.305 152.533 111.405 154.367 112.805 155.9C114.272 157.367 115.939 158.5 117.805 159.3C119.739 160.1 121.805 160.5 124.005 160.5ZM170.571 178V108H194.171V159.7H225.771V178H170.571ZM230.79 178V108H254.39V159.7H285.99V178H230.79ZM312.609 134H343.809V151H312.609V134ZM314.209 160.2H349.209V178H291.009V108H347.909V125.8H314.209V160.2ZM392.994 179.6C387.394 179.6 382.194 178.733 377.394 177C372.66 175.2 368.527 172.667 364.994 169.4C361.527 166.133 358.827 162.267 356.894 157.8C354.96 153.333 353.994 148.4 353.994 143C353.994 137.6 354.96 132.667 356.894 128.2C358.827 123.733 361.527 119.867 364.994 116.6C368.527 113.333 372.66 110.833 377.394 109.1C382.194 107.3 387.394 106.4 392.994 106.4C399.86 106.4 405.927 107.6 411.194 110C416.527 112.4 420.927 115.867 424.394 120.4L409.494 133.7C407.427 131.1 405.127 129.1 402.594 127.7C400.127 126.233 397.327 125.5 394.194 125.5C391.727 125.5 389.494 125.9 387.494 126.7C385.494 127.5 383.76 128.667 382.294 130.2C380.894 131.733 379.794 133.6 378.994 135.8C378.194 137.933 377.794 140.333 377.794 143C377.794 145.667 378.194 148.1 378.994 150.3C379.794 152.433 380.894 154.267 382.294 155.8C383.76 157.333 385.494 158.5 387.494 159.3C389.494 160.1 391.727 160.5 394.194 160.5C397.327 160.5 400.127 159.8 402.594 158.4C405.127 156.933 407.427 154.9 409.494 152.3L424.394 165.6C420.927 170.067 416.527 173.533 411.194 176C405.927 178.4 399.86 179.6 392.994 179.6ZM444.42 178V126.3H423.92V108H488.52V126.3H468.02V178H444.42ZM493.149 178V108H516.749V178H493.149ZM548.61 178L519.01 108H544.41L568.51 167.1H553.41L578.21 108H601.41L571.81 178H548.61ZM623.859 134H655.059V151H623.859V134ZM625.459 160.2H660.459V178H602.259V108H659.159V125.8H625.459V160.2Z"/>
</mask>
<path d="M130.722 81L128.945 85.6735L128.984 85.6885L129.024 85.7028L130.722 81ZM118.322 73.4L114.893 77.0389L114.91 77.0552L114.928 77.0714L118.322 73.4ZM110.222 61.8L105.633 63.7861L105.633 63.7861L110.222 61.8ZM110.222 32.2L105.633 30.2139L105.633 30.2139L110.222 32.2ZM118.322 20.6L114.928 16.9286L114.91 16.9448L114.893 16.9611L118.322 20.6ZM130.722 13.1L132.441 17.7951L132.459 17.7884L132.477 17.7816L130.722 13.1ZM164.522 14L162.449 18.5499L162.459 18.5548L162.47 18.5596L164.522 14ZM177.722 24.4L181.051 28.1301L184.509 25.0441L181.694 21.3627L177.722 24.4ZM162.822 37.7L158.908 40.8112L162.202 44.9555L166.151 41.4301L162.822 37.7ZM155.922 31.7L153.367 35.9977L153.434 36.038L153.503 36.0762L155.922 31.7ZM140.822 30.7L142.679 35.3424L142.679 35.3424L140.822 30.7ZM135.622 34.2L132.009 30.7439L131.969 30.7858L131.929 30.8287L135.622 34.2ZM132.322 39.8L137.004 41.5556L137.012 41.5322L137.021 41.5087L132.322 39.8ZM132.322 54.3L127.623 56.0087L127.631 56.0322L127.64 56.0556L132.322 54.3ZM135.622 59.8L131.929 63.1713L131.969 63.2142L132.009 63.2561L135.622 59.8ZM140.822 63.3L138.965 67.9424L138.965 67.9424L140.822 63.3ZM155.922 62.4L158.39 66.7484L158.409 66.7379L158.427 66.7271L155.922 62.4ZM162.822 56.3L166.151 52.5699L162.202 49.0445L158.908 53.1888L162.822 56.3ZM177.722 69.6L181.672 72.6656L184.534 68.9782L181.051 65.8699L177.722 69.6ZM164.522 80L166.595 84.5499L166.608 84.544L166.621 84.5381L164.522 80ZM146.322 78.6C141.245 78.6 136.625 77.8157 132.42 76.2972L129.024 85.7028C134.419 87.651 140.199 88.6 146.322 88.6V78.6ZM132.499 76.3265C128.332 74.7419 124.755 72.5384 121.716 69.7286L114.928 77.0714C118.955 80.795 123.645 83.6581 128.945 85.6735L132.499 76.3265ZM121.751 69.7611C118.79 66.9711 116.48 63.6704 114.81 59.8139L105.633 63.7861C107.831 68.8629 110.92 73.2956 114.893 77.0389L121.751 69.7611ZM114.81 59.8139C113.177 56.0396 112.322 51.7919 112.322 47H102.322C102.322 53.0081 103.4 58.627 105.633 63.7861L114.81 59.8139ZM112.322 47C112.322 42.2081 113.177 37.9604 114.81 34.1861L105.633 30.2139C103.4 35.373 102.322 40.9919 102.322 47H112.322ZM114.81 34.1861C116.48 30.3296 118.79 27.0289 121.751 24.2389L114.893 16.9611C110.92 20.7044 107.831 25.1371 105.633 30.2139L114.81 34.1861ZM121.716 24.2714C124.741 21.4745 128.298 19.3122 132.441 17.7951L129.003 8.4049C123.679 10.3545 118.969 13.1922 114.928 16.9286L121.716 24.2714ZM132.477 17.7816C136.666 16.2108 141.266 15.4 146.322 15.4V5.4C140.178 5.4 134.377 6.38921 128.966 8.41835L132.477 17.7816ZM146.322 15.4C152.605 15.4 157.943 16.4966 162.449 18.5499L166.595 9.45014C160.568 6.70338 153.772 5.4 146.322 5.4V15.4ZM162.47 18.5596C167.067 20.628 170.8 23.5796 173.75 27.4372L181.694 21.3627C177.71 16.1538 172.644 12.172 166.574 9.44039L162.47 18.5596ZM174.392 20.6699L159.492 33.9699L166.151 41.4301L181.051 28.1301L174.392 20.6699ZM166.736 34.5888C164.319 31.5481 161.53 29.0863 158.34 27.3238L153.503 36.0762C155.381 37.1137 157.191 38.6519 158.908 40.8112L166.736 34.5888ZM158.477 27.4023C155.167 25.4343 151.469 24.5 147.522 24.5V34.5C149.841 34.5 151.743 35.0324 153.367 35.9977L158.477 27.4023ZM147.522 24.5C144.511 24.5 141.635 24.9896 138.965 26.0576L142.679 35.3424C144.009 34.8104 145.6 34.5 147.522 34.5V24.5ZM138.965 26.0576C136.312 27.1188 133.977 28.6861 132.009 30.7439L139.235 37.6561C140.2 36.6472 141.332 35.8812 142.679 35.3424L138.965 26.0576ZM131.929 30.8287C130.036 32.9028 128.618 35.3546 127.623 38.0913L137.021 41.5087C137.626 39.8454 138.408 38.5639 139.314 37.5713L131.929 30.8287ZM127.64 38.0444C126.597 40.8259 126.122 43.834 126.122 47H136.122C136.122 44.8326 136.447 43.0408 137.004 41.5556L127.64 38.0444ZM126.122 47C126.122 50.1693 126.598 53.1905 127.623 56.0087L137.021 52.5913C136.446 51.0095 136.122 49.164 136.122 47H126.122ZM127.64 56.0556C128.642 58.7274 130.06 61.1235 131.929 63.1713L139.314 56.4287C138.384 55.4098 137.602 54.1393 137.004 52.5444L127.64 56.0556ZM132.009 63.2561C133.977 65.3138 136.312 66.8812 138.965 67.9424L142.679 58.6576C141.332 58.1188 140.2 57.3528 139.235 56.3439L132.009 63.2561ZM138.965 67.9424C141.635 69.0104 144.511 69.5 147.522 69.5V59.5C145.6 59.5 144.009 59.1896 142.679 58.6576L138.965 67.9424ZM147.522 69.5C151.428 69.5 155.094 68.6191 158.39 66.7484L153.454 58.0516C151.816 58.9809 149.883 59.5 147.522 59.5V69.5ZM158.427 66.7271C161.57 64.9076 164.332 62.4357 166.736 59.4112L158.908 53.1888C157.178 55.3643 155.341 56.9591 153.417 58.0729L158.427 66.7271ZM159.492 60.0301L174.392 73.3301L181.051 65.8699L166.151 52.5699L159.492 60.0301ZM173.772 66.5344C170.815 70.3441 167.06 73.3173 162.423 75.4619L166.621 84.5381C172.651 81.7494 177.695 77.7893 181.672 72.6656L173.772 66.5344ZM162.449 75.4501C157.943 77.5034 152.605 78.6 146.322 78.6V88.6C153.772 88.6 160.568 87.2966 166.595 84.5499L162.449 75.4501ZM174.459 82L169.878 79.9973L166.817 87H174.459V82ZM205.059 12V7H201.788L200.478 9.99727L205.059 12ZM228.259 12L232.841 9.99727L231.531 7H228.259V12ZM258.859 82V87H266.502L263.441 79.9973L258.859 82ZM234.459 82L229.792 83.7938L231.025 87H234.459V82ZM211.859 23.2V18.2H204.581L207.192 24.9938L211.859 23.2ZM221.059 23.2L225.727 24.9938L228.338 18.2H221.059V23.2ZM198.459 82V87H201.894L203.127 83.7938L198.459 82ZM192.659 69.8L187.944 68.1359L185.592 74.8H192.659V69.8ZM198.659 52.8V47.8H195.122L193.944 51.1359L198.659 52.8ZM230.859 52.8L235.574 51.1359L234.397 47.8H230.859V52.8ZM236.859 69.8V74.8H243.926L241.574 68.1359L236.859 69.8ZM179.041 84.0027L209.641 14.0027L200.478 9.99727L169.878 79.9973L179.041 84.0027ZM205.059 17H228.259V7H205.059V17ZM223.678 14.0027L254.278 84.0027L263.441 79.9973L232.841 9.99727L223.678 14.0027ZM258.859 77H234.459V87H258.859V77ZM239.127 80.2062L216.527 21.4062L207.192 24.9938L229.792 83.7938L239.127 80.2062ZM211.859 28.2H221.059V18.2H211.859V28.2ZM216.392 21.4062L193.792 80.2062L203.127 83.7938L225.727 24.9938L216.392 21.4062ZM198.459 77H174.459V87H198.459V77ZM197.374 71.4641L203.374 54.4641L193.944 51.1359L187.944 68.1359L197.374 71.4641ZM198.659 57.8H230.859V47.8H198.659V57.8ZM226.144 54.4641L232.144 71.4641L241.574 68.1359L235.574 51.1359L226.144 54.4641ZM236.859 64.8H192.659V74.8H236.859V64.8ZM261.126 82H256.126V87H261.126V82ZM261.126 12V7H256.126V12H261.126ZM280.526 12L284.789 9.38784L283.326 7H280.526V12ZM308.526 57.7V62.7H317.453L312.789 55.0878L308.526 57.7ZM298.326 57.7L294.029 55.1427L289.531 62.7H298.326V57.7ZM325.526 12V7H322.683L321.229 9.44274L325.526 12ZM344.926 12L349.926 11.9857L349.912 7H344.926V12ZM345.126 82V87H350.14L350.126 81.9857L345.126 82ZM323.626 82L318.626 82.0266L318.652 87H323.626V82ZM323.426 44.4V39.4H318.399L318.426 44.4266L323.426 44.4ZM326.826 44.4L331.124 46.9543L335.613 39.4H326.826V44.4ZM308.226 75.7V80.7H311.071L312.524 78.2543L308.226 75.7ZM297.826 75.7L293.576 78.3341L295.042 80.7H297.826V75.7ZM278.426 44.4V39.4H269.444L274.176 47.0341L278.426 44.4ZM282.626 44.4H287.626V39.4H282.626V44.4ZM282.626 82V87H287.626V82H282.626ZM266.126 82V12H256.126V82H266.126ZM261.126 17H280.526V7H261.126V17ZM276.262 14.6121L304.262 60.3122L312.789 55.0878L284.789 9.38784L276.262 14.6121ZM308.526 52.7H298.326V62.7H308.526V52.7ZM302.622 60.2573L329.822 14.5572L321.229 9.44274L294.029 55.1427L302.622 60.2573ZM325.526 17H344.926V7H325.526V17ZM339.926 12.0143L340.126 82.0143L350.126 81.9857L349.926 11.9857L339.926 12.0143ZM345.126 77H323.626V87H345.126V77ZM328.626 81.9734L328.426 44.3734L318.426 44.4266L318.626 82.0266L328.626 81.9734ZM323.426 49.4H326.826V39.4H323.426V49.4ZM322.527 41.8457L303.927 73.1457L312.524 78.2543L331.124 46.9543L322.527 41.8457ZM308.226 70.7H297.826V80.7H308.226V70.7ZM302.076 73.0659L282.676 41.7659L274.176 47.0341L293.576 78.3341L302.076 73.0659ZM278.426 49.4H282.626V39.4H278.426V49.4ZM277.626 44.4V82H287.626V44.4H277.626ZM282.626 77H261.126V87H282.626V77ZM355.036 82H350.036V87H355.036V82ZM355.036 12V7H350.036V12H355.036ZM405.636 15.2L403.581 19.7584L403.593 19.7638L403.605 19.7691L405.636 15.2ZM416.736 24.4L412.544 27.1249L412.554 27.1411L412.565 27.1572L416.736 24.4ZM416.736 52.4L412.565 49.6428L412.565 49.6428L416.736 52.4ZM405.636 61.6L407.69 66.1584L407.705 66.1519L407.719 66.1453L405.636 61.6ZM368.136 64.8L364.67 61.1965L355.725 69.8H368.136V64.8ZM378.636 54.7H383.636V42.9528L375.17 51.0965L378.636 54.7ZM378.636 82V87H383.636V82H378.636ZM378.636 57.3L375.067 60.802L383.636 69.534V57.3H378.636ZM368.136 46.6V41.6H356.224L364.567 50.102L368.136 46.6ZM394.436 44.4L391.057 40.7142L391.018 40.7501L390.98 40.7868L394.436 44.4ZM394.436 32.4L390.98 36.0132L391.018 36.0499L391.057 36.0858L394.436 32.4ZM368.136 30.2L364.567 26.698L356.224 35.2H368.136V30.2ZM378.636 19.5H383.636V7.26603L375.067 15.998L378.636 19.5ZM360.036 82V12H350.036V82H360.036ZM355.036 17H388.736V7H355.036V17ZM388.736 17C394.738 17 399.638 17.9811 403.581 19.7584L407.69 10.6416C402.167 8.15224 395.8 7 388.736 7V17ZM403.605 19.7691C407.614 21.5508 410.523 24.0168 412.544 27.1249L420.928 21.6751C417.748 16.7832 413.258 13.1158 407.667 10.6309L403.605 19.7691ZM412.565 27.1572C414.549 30.1584 415.636 33.8339 415.636 38.4H425.636C425.636 32.1661 424.123 26.5083 420.907 21.6428L412.565 27.1572ZM415.636 38.4C415.636 42.9661 414.549 46.6416 412.565 49.6428L420.907 55.1572C424.123 50.2917 425.636 44.6339 425.636 38.4H415.636ZM412.565 49.6428C410.54 52.7059 407.608 55.1959 403.553 57.0547L407.719 66.1453C413.264 63.6041 417.732 59.9608 420.907 55.1572L412.565 49.6428ZM403.581 57.0416C399.638 58.8189 394.738 59.8 388.736 59.8V69.8C395.8 69.8 402.167 68.6478 407.69 66.1584L403.581 57.0416ZM388.736 59.8H368.136V69.8H388.736V59.8ZM371.602 68.4035L382.102 58.3035L375.17 51.0965L364.67 61.1965L371.602 68.4035ZM373.636 54.7V82H383.636V54.7H373.636ZM378.636 77H355.036V87H378.636V77ZM382.205 53.798L371.705 43.098L364.567 50.102L375.067 60.802L382.205 53.798ZM368.136 51.6H387.236V41.6H368.136V51.6ZM387.236 51.6C391.115 51.6 395.034 50.747 397.892 48.0132L390.98 40.7868C390.771 40.9864 389.89 41.6 387.236 41.6V51.6ZM397.815 48.0858C400.623 45.5116 401.836 42.0784 401.836 38.4H391.836C391.836 39.7883 391.449 40.3551 391.057 40.7142L397.815 48.0858ZM401.836 38.4C401.836 34.7216 400.623 31.2884 397.815 28.7142L391.057 36.0858C391.449 36.4449 391.836 37.0117 391.836 38.4H401.836ZM397.892 28.7868C395.034 26.053 391.115 25.2 387.236 25.2V35.2C389.89 35.2 390.771 35.8136 390.98 36.0132L397.892 28.7868ZM387.236 25.2H368.136V35.2H387.236V25.2ZM371.705 33.702L382.205 23.002L375.067 15.998L364.567 26.698L371.705 33.702ZM373.636 19.5V57.3H383.636V19.5H373.636ZM448.476 38V33H443.476V38H448.476ZM479.676 38H484.676V33H479.676V38ZM479.676 55V60H484.676V55H479.676ZM448.476 55H443.476V60H448.476V55ZM450.076 64.2H445.076V69.2H450.076V64.2ZM485.076 64.2H490.076V59.2H485.076V64.2ZM485.076 82V87H490.076V82H485.076ZM426.876 82H421.876V87H426.876V82ZM426.876 12V7H421.876V12H426.876ZM483.776 12H488.776V7H483.776V12ZM483.776 29.8V34.8H488.776V29.8H483.776ZM450.076 29.8V24.8H445.076V29.8H450.076ZM448.476 43H479.676V33H448.476V43ZM474.676 38V55H484.676V38H474.676ZM479.676 50H448.476V60H479.676V50ZM453.476 55V38H443.476V55H453.476ZM450.076 69.2H485.076V59.2H450.076V69.2ZM480.076 64.2V82H490.076V64.2H480.076ZM485.076 77H426.876V87H485.076V77ZM431.876 82V12H421.876V82H431.876ZM426.876 17H483.776V7H426.876V17ZM478.776 12V29.8H488.776V12H478.776ZM483.776 24.8H450.076V34.8H483.776V24.8ZM445.076 29.8V64.2H455.076V29.8H445.076ZM492.661 82H487.661V87H492.661V82ZM492.661 12V7H487.661V12H492.661ZM547.761 16.3L545.586 20.8021L545.606 20.812L545.627 20.8218L547.761 16.3ZM561.661 28.3L557.452 30.9983L557.452 30.9983L561.661 28.3ZM561.661 65.7L565.87 68.3983L565.878 68.3862L565.886 68.374L561.661 65.7ZM547.761 77.8L549.895 82.3218L549.916 82.312L549.936 82.3021L547.761 77.8ZM516.261 63.6H511.261V68.6H516.261V63.6ZM534.861 61.7L532.625 57.2279L532.601 57.2399L532.577 57.2522L534.861 61.7ZM540.761 56.1L545.109 58.568L545.123 58.5433L545.137 58.5184L540.761 56.1ZM540.761 37.9L545.109 35.432L545.109 35.432L540.761 37.9ZM534.861 32.3L532.577 36.7478L532.601 36.7601L532.625 36.7721L534.861 32.3ZM516.261 30.4V25.4H511.261V30.4H516.261ZM497.661 82V12H487.661V82H497.661ZM492.661 17H527.161V7H492.661V17ZM527.161 17C534.345 17 540.444 18.318 545.586 20.8021L549.936 11.7979C543.211 8.54867 535.577 7 527.161 7V17ZM545.627 20.8218C550.766 23.247 554.657 26.6389 557.452 30.9983L565.87 25.6017C561.998 19.5611 556.622 14.953 549.895 11.7782L545.627 20.8218ZM557.452 30.9983C560.188 35.267 561.661 40.4949 561.661 46.9H571.661C571.661 38.9051 569.801 31.733 565.87 25.6017L557.452 30.9983ZM561.661 46.9C561.661 53.3799 560.184 58.6845 557.436 63.026L565.886 68.374C569.805 62.1822 571.661 54.9535 571.661 46.9H561.661ZM557.452 63.0017C554.65 67.3716 550.745 70.8051 545.586 73.2979L549.936 82.3021C556.643 79.0616 562.005 74.4284 565.87 68.3983L557.452 63.0017ZM545.627 73.2782C540.475 75.7094 534.361 77 527.161 77V87C535.561 87 543.18 85.4906 549.895 82.3218L545.627 73.2782ZM527.161 77H492.661V87H527.161V77ZM516.261 68.6H526.161V58.6H516.261V68.6ZM526.161 68.6C530.13 68.6 533.842 67.8437 537.145 66.1478L532.577 57.2522C530.946 58.0896 528.859 58.6 526.161 58.6V68.6ZM537.097 66.1721C540.519 64.4611 543.22 61.8962 545.109 58.568L536.413 53.632C535.501 55.2371 534.27 56.4055 532.625 57.2279L537.097 66.1721ZM545.137 58.5184C547.035 55.0851 547.861 51.1426 547.861 46.9H537.861C537.861 49.8574 537.287 52.0483 536.385 53.6816L545.137 58.5184ZM547.861 46.9C547.861 42.7115 547.029 38.8148 545.109 35.432L536.413 40.368C537.293 41.9185 537.861 44.0218 537.861 46.9H547.861ZM545.109 35.432C543.22 32.1038 540.519 29.5389 537.097 27.8279L532.625 36.7721C534.27 37.5945 535.501 38.7629 536.413 40.368L545.109 35.432ZM537.145 27.8522C533.842 26.1563 530.13 25.4 526.161 25.4V35.4C528.859 35.4 530.946 35.9104 532.577 36.7478L537.145 27.8522ZM526.161 25.4H516.261V35.4H526.161V25.4ZM511.261 30.4V63.6H521.261V30.4H511.261ZM36.4563 177L34.679 181.673L34.7184 181.688L34.758 181.703L36.4563 177ZM24.0563 169.4L20.6272 173.039L20.6445 173.055L20.662 173.071L24.0563 169.4ZM15.9563 157.8L11.3676 159.786L11.3676 159.786L15.9563 157.8ZM15.9563 128.2L11.3676 126.214L11.3676 126.214L15.9563 128.2ZM24.0563 116.6L20.662 112.929L20.6445 112.945L20.6272 112.961L24.0563 116.6ZM36.4563 109.1L38.1756 113.795L38.1937 113.788L38.2119 113.782L36.4563 109.1ZM70.2563 110L68.1829 114.55L68.1937 114.555L68.2044 114.56L70.2563 110ZM83.4563 120.4L86.7858 124.13L90.2432 121.044L87.428 117.363L83.4563 120.4ZM68.5563 133.7L64.6421 136.811L67.9363 140.956L71.8858 137.43L68.5563 133.7ZM61.6563 127.7L59.1009 131.998L59.1687 132.038L59.2378 132.076L61.6563 127.7ZM46.5563 126.7L48.4132 131.342L48.4132 131.342L46.5563 126.7ZM41.3563 130.2L37.743 126.744L37.7029 126.786L37.6638 126.829L41.3563 130.2ZM38.0563 135.8L42.7379 137.556L42.7467 137.532L42.7552 137.509L38.0563 135.8ZM38.0563 150.3L33.3573 152.009L33.3658 152.032L33.3746 152.056L38.0563 150.3ZM41.3563 155.8L37.6638 159.171L37.7029 159.214L37.743 159.256L41.3563 155.8ZM46.5563 159.3L44.6993 163.942L44.6993 163.942L46.5563 159.3ZM61.6563 158.4L64.1243 162.748L64.1429 162.738L64.1614 162.727L61.6563 158.4ZM68.5563 152.3L71.8858 148.57L67.9363 145.044L64.6421 149.189L68.5563 152.3ZM83.4563 165.6L87.4062 168.666L90.2681 164.978L86.7858 161.87L83.4563 165.6ZM70.2563 176L72.3296 180.55L72.3424 180.544L72.3551 180.538L70.2563 176ZM52.0563 174.6C46.979 174.6 42.3594 173.816 38.1545 172.297L34.758 181.703C40.1531 183.651 45.9335 184.6 52.0563 184.6V174.6ZM38.2335 172.327C34.0665 170.742 30.4896 168.538 27.4505 165.729L20.662 173.071C24.6896 176.795 29.3793 179.658 34.679 181.673L38.2335 172.327ZM27.4853 165.761C24.5245 162.971 22.2141 159.67 20.5449 155.814L11.3676 159.786C13.565 164.863 16.6547 169.296 20.6272 173.039L27.4853 165.761ZM20.5449 155.814C18.9112 152.04 18.0563 147.792 18.0563 143H8.05625C8.05625 149.008 9.13461 154.627 11.3676 159.786L20.5449 155.814ZM18.0563 143C18.0563 138.208 18.9112 133.96 20.5449 130.186L11.3676 126.214C9.13461 131.373 8.05625 136.992 8.05625 143H18.0563ZM20.5449 130.186C22.2141 126.33 24.5245 123.029 27.4853 120.239L20.6272 112.961C16.6547 116.704 13.565 121.137 11.3676 126.214L20.5449 130.186ZM27.4505 120.271C30.4757 117.474 34.0327 115.312 38.1756 113.795L34.7369 104.405C29.4131 106.354 24.7034 109.192 20.662 112.929L27.4505 120.271ZM38.2119 113.782C42.4008 112.211 47.0004 111.4 52.0563 111.4V101.4C45.9121 101.4 40.1117 102.389 34.7006 104.418L38.2119 113.782ZM52.0563 111.4C58.3392 111.4 63.6772 112.497 68.1829 114.55L72.3296 105.45C66.302 102.703 59.5066 101.4 52.0563 101.4V111.4ZM68.2044 114.56C72.8009 116.628 76.5345 119.58 79.4845 123.437L87.428 117.363C83.4447 112.154 78.3782 108.172 72.3081 105.44L68.2044 114.56ZM80.1267 116.67L65.2267 129.97L71.8858 137.43L86.7858 124.13L80.1267 116.67ZM72.4704 130.589C70.0534 127.548 67.2639 125.086 64.0747 123.324L59.2378 132.076C61.1152 133.114 62.9257 134.652 64.6421 136.811L72.4704 130.589ZM64.2116 123.402C60.9017 121.434 57.2038 120.5 53.2563 120.5V130.5C55.5754 130.5 57.4775 131.032 59.1009 131.998L64.2116 123.402ZM53.2563 120.5C50.2449 120.5 47.3692 120.99 44.6993 122.058L48.4132 131.342C49.7433 130.81 51.3342 130.5 53.2563 130.5V120.5ZM44.6993 122.058C42.0462 123.119 39.7113 124.686 37.743 126.744L44.9695 133.656C45.9345 132.647 47.0663 131.881 48.4132 131.342L44.6993 122.058ZM37.6638 126.829C35.77 128.903 34.3524 131.355 33.3573 134.091L42.7552 137.509C43.3601 135.845 44.1425 134.564 45.0487 133.571L37.6638 126.829ZM33.3746 134.044C32.3315 136.826 31.8563 139.834 31.8563 143H41.8563C41.8563 140.833 42.181 139.041 42.7379 137.556L33.3746 134.044ZM31.8563 143C31.8563 146.169 32.3325 149.191 33.3573 152.009L42.7552 148.591C42.18 147.009 41.8563 145.164 41.8563 143H31.8563ZM33.3746 152.056C34.3765 154.727 35.7941 157.124 37.6638 159.171L45.0487 152.429C44.1184 151.41 43.336 150.139 42.7379 148.544L33.3746 152.056ZM37.743 159.256C39.7113 161.314 42.0462 162.881 44.6993 163.942L48.4132 154.658C47.0663 154.119 45.9345 153.353 44.9695 152.344L37.743 159.256ZM44.6993 163.942C47.3692 165.01 50.2449 165.5 53.2563 165.5V155.5C51.3342 155.5 49.7433 155.19 48.4132 154.658L44.6993 163.942ZM53.2563 165.5C57.1619 165.5 60.8284 164.619 64.1243 162.748L59.1882 154.052C57.5508 154.981 55.6172 155.5 53.2563 155.5V165.5ZM64.1614 162.727C67.3043 160.908 70.0663 158.436 72.4704 155.411L64.6421 149.189C62.9129 151.364 61.0749 152.959 59.1511 154.073L64.1614 162.727ZM65.2267 156.03L80.1267 169.33L86.7858 161.87L71.8858 148.57L65.2267 156.03ZM79.5063 162.534C76.5496 166.344 72.7943 169.317 68.1574 171.462L72.3551 180.538C78.3849 177.749 83.4296 173.789 87.4062 168.666L79.5063 162.534ZM68.1829 171.45C63.6772 173.503 58.3392 174.6 52.0563 174.6V184.6C59.5066 184.6 66.302 183.297 72.3296 180.55L68.1829 171.45ZM108.205 176.9L106.45 181.582L106.46 181.586L106.471 181.59L108.205 176.9ZM95.7055 169.3L92.2744 172.937L92.2927 172.954L92.3112 172.971L95.7055 169.3ZM87.4055 157.6L82.8169 159.586L82.8293 159.615L82.842 159.643L87.4055 157.6ZM87.4055 128.4L82.842 126.357L82.8349 126.373L82.8279 126.389L87.4055 128.4ZM95.7055 116.8L99.0997 120.471L99.1182 120.454L99.1366 120.437L95.7055 116.8ZM108.205 109.1L106.471 104.41L106.46 104.414L106.45 104.418L108.205 109.1ZM139.805 109.1L138.05 113.782L138.05 113.782L139.805 109.1ZM152.305 116.8L148.874 120.437L148.893 120.454L148.911 120.471L152.305 116.8ZM160.505 128.4L155.917 130.386L155.935 130.428L155.954 130.469L160.505 128.4ZM160.505 157.6L155.942 155.557L155.929 155.585L155.917 155.614L160.505 157.6ZM152.305 169.3L155.7 172.971L155.718 172.954L155.737 172.937L152.305 169.3ZM139.805 176.9L138.05 172.218L138.05 172.218L139.805 176.9ZM130.105 159.3L128.194 154.68L128.165 154.692L128.136 154.704L130.105 159.3ZM135.105 155.9L131.492 152.444L131.489 152.448L135.105 155.9ZM138.505 150.4L143.187 152.156L143.196 152.132L143.204 152.109L138.505 150.4ZM138.505 135.7L133.807 137.409L133.815 137.432L133.824 137.456L138.505 135.7ZM135.105 130.2L131.413 133.571L131.49 133.655L131.57 133.736L135.105 130.2ZM130.105 126.7L128.136 131.296L128.165 131.308L128.194 131.32L130.105 126.7ZM117.805 126.7L115.894 122.08L115.865 122.092L115.836 122.104L117.805 126.7ZM112.805 130.2L109.192 126.744L109.189 126.748L112.805 130.2ZM109.505 135.7L114.187 137.456L114.196 137.432L114.204 137.409L109.505 135.7ZM109.505 150.4L104.807 152.109L104.815 152.132L104.824 152.156L109.505 150.4ZM112.805 155.9L109.113 159.271L109.19 159.355L109.27 159.436L112.805 155.9ZM117.805 159.3L115.836 163.896L115.865 163.908L115.894 163.92L117.805 159.3ZM124.005 174.6C118.876 174.6 114.202 173.787 109.94 172.21L106.471 181.59C111.942 183.613 117.801 184.6 124.005 184.6V174.6ZM109.961 172.218C105.727 170.631 102.127 168.427 99.0997 165.629L92.3112 172.971C96.3506 176.706 101.083 179.569 106.45 181.582L109.961 172.218ZM99.1366 165.663C96.0855 162.785 93.7021 159.427 91.9689 155.557L82.842 159.643C85.1089 164.706 88.2587 169.149 92.2744 172.937L99.1366 165.663ZM91.9941 155.614C90.3538 151.824 89.5055 147.64 89.5055 143H79.5055C79.5055 148.893 80.5905 154.442 82.8169 159.586L91.9941 155.614ZM89.5055 143C89.5055 138.283 90.3574 134.111 91.9831 130.411L82.8279 126.389C80.5868 131.489 79.5055 137.051 79.5055 143H89.5055ZM91.9689 130.443C93.6979 126.582 96.0706 123.272 99.0997 120.471L92.3112 113.129C88.2737 116.861 85.1131 121.285 82.842 126.357L91.9689 130.443ZM99.1366 120.437C102.16 117.585 105.748 115.361 109.961 113.782L106.45 104.418C101.062 106.439 96.3177 109.349 92.2744 113.163L99.1366 120.437ZM109.94 113.79C114.202 112.213 118.876 111.4 124.005 111.4V101.4C117.801 101.4 111.942 102.387 106.471 104.41L109.94 113.79ZM124.005 111.4C129.21 111.4 133.874 112.216 138.05 113.782L141.561 104.418C136.137 102.384 130.268 101.4 124.005 101.4V111.4ZM138.05 113.782C142.262 115.361 145.851 117.585 148.874 120.437L155.737 113.163C151.693 109.349 146.948 106.439 141.561 104.418L138.05 113.782ZM148.911 120.471C151.927 123.26 154.257 126.551 155.917 130.386L165.094 126.414C162.888 121.316 159.75 116.873 155.7 113.129L148.911 120.471ZM155.954 130.469C157.629 134.155 158.505 138.306 158.505 143H168.505C168.505 137.027 167.382 131.445 165.057 126.331L155.954 130.469ZM158.505 143C158.505 147.617 157.633 151.781 155.942 155.557L165.069 159.643C167.378 154.486 168.505 148.917 168.505 143H158.505ZM155.917 155.614C154.253 159.459 151.913 162.797 148.874 165.663L155.737 172.937C159.765 169.137 162.892 164.675 165.094 159.586L155.917 155.614ZM148.911 165.629C145.884 168.427 142.283 170.631 138.05 172.218L141.561 181.582C146.927 179.569 151.66 176.706 155.7 172.971L148.911 165.629ZM138.05 172.218C133.874 173.784 129.21 174.6 124.005 174.6V184.6C130.268 184.6 136.137 183.616 141.561 181.582L138.05 172.218ZM124.005 165.5C126.826 165.5 129.536 164.984 132.075 163.896L128.136 154.704C126.942 155.216 125.585 155.5 124.005 155.5V165.5ZM132.017 163.92C134.573 162.863 136.826 161.339 138.722 159.352L131.489 152.448C130.585 153.394 129.505 154.137 128.194 154.68L132.017 163.92ZM138.719 159.356C140.687 157.299 142.167 154.875 143.187 152.156L133.824 148.644C133.244 150.192 132.458 151.435 131.492 152.444L138.719 159.356ZM143.204 152.109C144.234 149.278 144.705 146.22 144.705 143H134.705C134.705 145.246 134.377 147.122 133.807 148.691L143.204 152.109ZM144.705 143C144.705 139.784 144.235 136.739 143.187 133.944L133.824 137.456C134.376 138.928 134.705 140.75 134.705 143H144.705ZM143.204 133.991C142.187 131.193 140.687 128.711 138.641 126.664L131.57 133.736C132.457 134.623 133.224 135.807 133.807 137.409L143.204 133.991ZM138.798 126.829C136.899 124.749 134.623 123.158 132.017 122.08L128.194 131.32C129.454 131.842 130.512 132.584 131.413 133.571L138.798 126.829ZM132.075 122.104C129.536 121.016 126.826 120.5 124.005 120.5V130.5C125.585 130.5 126.942 130.784 128.136 131.296L132.075 122.104ZM124.005 120.5C121.184 120.5 118.464 121.016 115.894 122.08L119.717 131.32C121.013 130.784 122.427 130.5 124.005 130.5V120.5ZM115.836 122.104C113.323 123.181 111.103 124.746 109.192 126.744L116.419 133.656C117.441 132.587 118.555 131.819 119.775 131.296L115.836 122.104ZM109.189 126.748C107.243 128.786 105.807 131.241 104.807 133.991L114.204 137.409C114.804 135.759 115.568 134.547 116.422 133.652L109.189 126.748ZM104.824 133.944C103.776 136.739 103.305 139.784 103.305 143H113.305C113.305 140.75 113.635 138.928 114.187 137.456L104.824 133.944ZM103.305 143C103.305 146.22 103.777 149.278 104.807 152.109L114.204 148.691C113.634 147.122 113.305 145.246 113.305 143H103.305ZM104.824 152.156C105.826 154.827 107.243 157.224 109.113 159.271L116.498 152.529C115.568 151.51 114.785 150.239 114.187 148.644L104.824 152.156ZM109.27 159.436C111.177 161.342 113.372 162.84 115.836 163.896L119.775 154.704C118.506 154.16 117.368 153.391 116.341 152.364L109.27 159.436ZM115.894 163.92C118.464 164.984 121.184 165.5 124.005 165.5V155.5C122.427 155.5 121.013 155.216 119.717 154.68L115.894 163.92ZM170.571 178H165.571V183H170.571V178ZM170.571 108V103H165.571V108H170.571ZM194.171 108H199.171V103H194.171V108ZM194.171 159.7H189.171V164.7H194.171V159.7ZM225.771 159.7H230.771V154.7H225.771V159.7ZM225.771 178V183H230.771V178H225.771ZM175.571 178V108H165.571V178H175.571ZM170.571 113H194.171V103H170.571V113ZM189.171 108V159.7H199.171V108H189.171ZM194.171 164.7H225.771V154.7H194.171V164.7ZM220.771 159.7V178H230.771V159.7H220.771ZM225.771 173H170.571V183H225.771V173ZM230.79 178H225.79V183H230.79V178ZM230.79 108V103H225.79V108H230.79ZM254.39 108H259.39V103H254.39V108ZM254.39 159.7H249.39V164.7H254.39V159.7ZM285.99 159.7H290.99V154.7H285.99V159.7ZM285.99 178V183H290.99V178H285.99ZM235.79 178V108H225.79V178H235.79ZM230.79 113H254.39V103H230.79V113ZM249.39 108V159.7H259.39V108H249.39ZM254.39 164.7H285.99V154.7H254.39V164.7ZM280.99 159.7V178H290.99V159.7H280.99ZM285.99 173H230.79V183H285.99V173ZM312.609 134V129H307.609V134H312.609ZM343.809 134H348.809V129H343.809V134ZM343.809 151V156H348.809V151H343.809ZM312.609 151H307.609V156H312.609V151ZM314.209 160.2H309.209V165.2H314.209V160.2ZM349.209 160.2H354.209V155.2H349.209V160.2ZM349.209 178V183H354.209V178H349.209ZM291.009 178H286.009V183H291.009V178ZM291.009 108V103H286.009V108H291.009ZM347.909 108H352.909V103H347.909V108ZM347.909 125.8V130.8H352.909V125.8H347.909ZM314.209 125.8V120.8H309.209V125.8H314.209ZM312.609 139H343.809V129H312.609V139ZM338.809 134V151H348.809V134H338.809ZM343.809 146H312.609V156H343.809V146ZM317.609 151V134H307.609V151H317.609ZM314.209 165.2H349.209V155.2H314.209V165.2ZM344.209 160.2V178H354.209V160.2H344.209ZM349.209 173H291.009V183H349.209V173ZM296.009 178V108H286.009V178H296.009ZM291.009 113H347.909V103H291.009V113ZM342.909 108V125.8H352.909V108H342.909ZM347.909 120.8H314.209V130.8H347.909V120.8ZM309.209 125.8V160.2H319.209V125.8H309.209ZM377.394 177L375.617 181.673L375.656 181.688L375.696 181.703L377.394 177ZM364.994 169.4L361.565 173.039L361.582 173.055L361.599 173.071L364.994 169.4ZM356.894 157.8L352.305 159.786L352.305 159.786L356.894 157.8ZM356.894 128.2L352.305 126.214L352.305 126.214L356.894 128.2ZM364.994 116.6L361.599 112.929L361.582 112.945L361.565 112.961L364.994 116.6ZM377.394 109.1L379.113 113.795L379.131 113.788L379.149 113.782L377.394 109.1ZM411.194 110L409.12 114.55L409.131 114.555L409.142 114.56L411.194 110ZM424.394 120.4L427.723 124.13L431.181 121.044L428.366 117.363L424.394 120.4ZM409.494 133.7L405.58 136.811L408.874 140.956L412.823 137.43L409.494 133.7ZM402.594 127.7L400.038 131.998L400.106 132.038L400.175 132.076L402.594 127.7ZM387.494 126.7L389.351 131.342L389.351 131.342L387.494 126.7ZM382.294 130.2L378.681 126.744L378.64 126.786L378.601 126.829L382.294 130.2ZM378.994 135.8L383.675 137.556L383.684 137.532L383.693 137.509L378.994 135.8ZM378.994 150.3L374.295 152.009L374.303 152.032L374.312 152.056L378.994 150.3ZM382.294 155.8L378.601 159.171L378.64 159.214L378.681 159.256L382.294 155.8ZM387.494 159.3L385.637 163.942L385.637 163.942L387.494 159.3ZM402.594 158.4L405.062 162.748L405.08 162.738L405.099 162.727L402.594 158.4ZM409.494 152.3L412.823 148.57L408.874 145.044L405.58 149.189L409.494 152.3ZM424.394 165.6L428.344 168.666L431.206 164.978L427.723 161.87L424.394 165.6ZM411.194 176L413.267 180.55L413.28 180.544L413.293 180.538L411.194 176ZM392.994 174.6C387.917 174.6 383.297 173.816 379.092 172.297L375.696 181.703C381.091 183.651 386.871 184.6 392.994 184.6V174.6ZM379.171 172.327C375.004 170.742 371.427 168.538 368.388 165.729L361.599 173.071C365.627 176.795 370.317 179.658 375.617 181.673L379.171 172.327ZM368.423 165.761C365.462 162.971 363.152 159.67 361.482 155.814L352.305 159.786C354.503 164.863 357.592 169.296 361.565 173.039L368.423 165.761ZM361.482 155.814C359.849 152.04 358.994 147.792 358.994 143H348.994C348.994 149.008 350.072 154.627 352.305 159.786L361.482 155.814ZM358.994 143C358.994 138.208 359.849 133.96 361.482 130.186L352.305 126.214C350.072 131.373 348.994 136.992 348.994 143H358.994ZM361.482 130.186C363.152 126.33 365.462 123.029 368.423 120.239L361.565 112.961C357.592 116.704 354.503 121.137 352.305 126.214L361.482 130.186ZM368.388 120.271C371.413 117.474 374.97 115.312 379.113 113.795L375.674 104.405C370.351 106.354 365.641 109.192 361.599 112.929L368.388 120.271ZM379.149 113.782C383.338 112.211 387.938 111.4 392.994 111.4V101.4C386.85 101.4 381.049 102.389 375.638 104.418L379.149 113.782ZM392.994 111.4C399.277 111.4 404.615 112.497 409.12 114.55L413.267 105.45C407.239 102.703 400.444 101.4 392.994 101.4V111.4ZM409.142 114.56C413.738 116.628 417.472 119.58 420.422 123.437L428.366 117.363C424.382 112.154 419.316 108.172 413.246 105.44L409.142 114.56ZM421.064 116.67L406.164 129.97L412.823 137.43L427.723 124.13L421.064 116.67ZM413.408 130.589C410.991 127.548 408.201 125.086 405.012 123.324L400.175 132.076C402.053 133.114 403.863 134.652 405.58 136.811L413.408 130.589ZM405.149 123.402C401.839 121.434 398.141 120.5 394.194 120.5V130.5C396.513 130.5 398.415 131.032 400.038 131.998L405.149 123.402ZM394.194 120.5C391.182 120.5 388.307 120.99 385.637 122.058L389.351 131.342C390.681 130.81 392.272 130.5 394.194 130.5V120.5ZM385.637 122.058C382.984 123.119 380.649 124.686 378.681 126.744L385.907 133.656C386.872 132.647 388.004 131.881 389.351 131.342L385.637 122.058ZM378.601 126.829C376.708 128.903 375.29 131.355 374.295 134.091L383.693 137.509C384.298 135.845 385.08 134.564 385.986 133.571L378.601 126.829ZM374.312 134.044C373.269 136.826 372.794 139.834 372.794 143H382.794C382.794 140.833 383.118 139.041 383.675 137.556L374.312 134.044ZM372.794 143C372.794 146.169 373.27 149.191 374.295 152.009L383.693 148.591C383.118 147.009 382.794 145.164 382.794 143H372.794ZM374.312 152.056C375.314 154.727 376.732 157.124 378.601 159.171L385.986 152.429C385.056 151.41 384.273 150.139 383.675 148.544L374.312 152.056ZM378.681 159.256C380.649 161.314 382.984 162.881 385.637 163.942L389.351 154.658C388.004 154.119 386.872 153.353 385.907 152.344L378.681 159.256ZM385.637 163.942C388.307 165.01 391.182 165.5 394.194 165.5V155.5C392.272 155.5 390.681 155.19 389.351 154.658L385.637 163.942ZM394.194 165.5C398.099 165.5 401.766 164.619 405.062 162.748L400.126 154.052C398.488 154.981 396.555 155.5 394.194 155.5V165.5ZM405.099 162.727C408.242 160.908 411.004 158.436 413.408 155.411L405.58 149.189C403.85 151.364 402.012 152.959 400.089 154.073L405.099 162.727ZM406.164 156.03L421.064 169.33L427.723 161.87L412.823 148.57L406.164 156.03ZM420.444 162.534C417.487 166.344 413.732 169.317 409.095 171.462L413.293 180.538C419.322 177.749 424.367 173.789 428.344 168.666L420.444 162.534ZM409.12 171.45C404.615 173.503 399.277 174.6 392.994 174.6V184.6C400.444 184.6 407.239 183.297 413.267 180.55L409.12 171.45ZM444.42 178H439.42V183H444.42V178ZM444.42 126.3H449.42V121.3H444.42V126.3ZM423.92 126.3H418.92V131.3H423.92V126.3ZM423.92 108V103H418.92V108H423.92ZM488.52 108H493.52V103H488.52V108ZM488.52 126.3V131.3H493.52V126.3H488.52ZM468.02 126.3V121.3H463.02V126.3H468.02ZM468.02 178V183H473.02V178H468.02ZM449.42 178V126.3H439.42V178H449.42ZM444.42 121.3H423.92V131.3H444.42V121.3ZM428.92 126.3V108H418.92V126.3H428.92ZM423.92 113H488.52V103H423.92V113ZM483.52 108V126.3H493.52V108H483.52ZM488.52 121.3H468.02V131.3H488.52V121.3ZM463.02 126.3V178H473.02V126.3H463.02ZM468.02 173H444.42V183H468.02V173ZM493.149 178H488.149V183H493.149V178ZM493.149 108V103H488.149V108H493.149ZM516.749 108H521.749V103H516.749V108ZM516.749 178V183H521.749V178H516.749ZM498.149 178V108H488.149V178H498.149ZM493.149 113H516.749V103H493.149V113ZM511.749 108V178H521.749V108H511.749ZM516.749 173H493.149V183H516.749V173ZM548.61 178L544.005 179.947L545.296 183H548.61V178ZM519.01 108V103H511.467L514.405 109.947L519.01 108ZM544.41 108L549.04 106.112L547.771 103H544.41V108ZM568.51 167.1V172.1H575.949L573.14 165.212L568.51 167.1ZM553.41 167.1L548.8 165.165L545.89 172.1H553.41V167.1ZM578.21 108V103H574.886L573.6 106.065L578.21 108ZM601.41 108L606.015 109.947L608.953 103H601.41V108ZM571.81 178V183H575.125L576.415 179.947L571.81 178ZM553.215 176.053L523.615 106.053L514.405 109.947L544.005 179.947L553.215 176.053ZM519.01 113H544.41V103H519.01V113ZM539.78 109.888L563.88 168.988L573.14 165.212L549.04 106.112L539.78 109.888ZM568.51 162.1H553.41V172.1H568.51V162.1ZM558.021 169.035L582.821 109.935L573.6 106.065L548.8 165.165L558.021 169.035ZM578.21 113H601.41V103H578.21V113ZM596.805 106.053L567.205 176.053L576.415 179.947L606.015 109.947L596.805 106.053ZM571.81 173H548.61V183H571.81V173ZM623.859 134V129H618.859V134H623.859ZM655.059 134H660.059V129H655.059V134ZM655.059 151V156H660.059V151H655.059ZM623.859 151H618.859V156H623.859V151ZM625.459 160.2H620.459V165.2H625.459V160.2ZM660.459 160.2H665.459V155.2H660.459V160.2ZM660.459 178V183H665.459V178H660.459ZM602.259 178H597.259V183H602.259V178ZM602.259 108V103H597.259V108H602.259ZM659.159 108H664.159V103H659.159V108ZM659.159 125.8V130.8H664.159V125.8H659.159ZM625.459 125.8V120.8H620.459V125.8H625.459ZM623.859 139H655.059V129H623.859V139ZM650.059 134V151H660.059V134H650.059ZM655.059 146H623.859V156H655.059V146ZM628.859 151V134H618.859V151H628.859ZM625.459 165.2H660.459V155.2H625.459V165.2ZM655.459 160.2V178H665.459V160.2H655.459ZM660.459 173H602.259V183H660.459V173ZM607.259 178V108H597.259V178H607.259ZM602.259 113H659.159V103H602.259V113ZM654.159 108V125.8H664.159V108H654.159ZM659.159 120.8H625.459V130.8H659.159V120.8ZM620.459 125.8V160.2H630.459V125.8H620.459Z" fill="#4A8164" mask="url(#path-1-outside-1_2178_1533)"/>
<path d="M136.322 76.6C130.722 76.6 125.522 75.7333 120.722 74C115.989 72.2 111.855 69.6667 108.322 66.4C104.855 63.1333 102.155 59.2667 100.222 54.8C98.2885 50.3333 97.3219 45.4 97.3219 40C97.3219 34.6 98.2885 29.6667 100.222 25.2C102.155 20.7333 104.855 16.8667 108.322 13.6C111.855 10.3333 115.989 7.83333 120.722 6.1C125.522 4.3 130.722 3.4 136.322 3.4C143.189 3.4 149.255 4.6 154.522 7C159.855 9.4 164.255 12.8667 167.722 17.4L152.822 30.7C150.755 28.1 148.455 26.1 145.922 24.7C143.455 23.2333 140.655 22.5 137.522 22.5C135.055 22.5 132.822 22.9 130.822 23.7C128.822 24.5 127.089 25.6667 125.622 27.2C124.222 28.7333 123.122 30.6 122.322 32.8C121.522 34.9333 121.122 37.3333 121.122 40C121.122 42.6667 121.522 45.1 122.322 47.3C123.122 49.4333 124.222 51.2667 125.622 52.8C127.089 54.3333 128.822 55.5 130.822 56.3C132.822 57.1 135.055 57.5 137.522 57.5C140.655 57.5 143.455 56.8 145.922 55.4C148.455 53.9333 150.755 51.9 152.822 49.3L167.722 62.6C164.255 67.0667 159.855 70.5333 154.522 73C149.255 75.4 143.189 76.6 136.322 76.6ZM164.459 75L195.059 5H218.259L248.859 75H224.459L201.859 16.2H211.059L188.459 75H164.459ZM182.659 62.8L188.659 45.8H220.859L226.859 62.8H182.659ZM251.126 75V5H270.526L298.526 50.7H288.326L315.526 5H334.926L335.126 75H313.626L313.426 37.4H316.826L298.226 68.7H287.826L268.426 37.4H272.626V75H251.126ZM345.036 75V5H378.736C385.269 5 390.903 6.06666 395.636 8.2C400.436 10.3333 404.136 13.4 406.736 17.4C409.336 21.3333 410.636 26 410.636 31.4C410.636 36.8 409.336 41.4667 406.736 45.4C404.136 49.3333 400.436 52.4 395.636 54.6C390.903 56.7333 385.269 57.8 378.736 57.8H358.136L368.636 47.7V75H345.036ZM368.636 50.3L358.136 39.6H377.236C380.503 39.6 382.903 38.8667 384.436 37.4C386.036 35.9333 386.836 33.9333 386.836 31.4C386.836 28.8667 386.036 26.8667 384.436 25.4C382.903 23.9333 380.503 23.2 377.236 23.2H358.136L368.636 12.5V50.3ZM438.476 31H469.676V48H438.476V31ZM440.076 57.2H475.076V75H416.876V5H473.776V22.8H440.076V57.2ZM482.661 75V5H517.161C524.961 5 531.828 6.43333 537.761 9.3C543.694 12.1 548.328 16.1 551.661 21.3C554.994 26.5 556.661 32.7 556.661 39.9C556.661 47.1667 554.994 53.4333 551.661 58.7C548.328 63.9 543.694 67.9333 537.761 70.8C531.828 73.6 524.961 75 517.161 75H482.661ZM506.261 56.6H516.161C519.494 56.6 522.394 55.9667 524.861 54.7C527.394 53.4333 529.361 51.5667 530.761 49.1C532.161 46.5667 532.861 43.5 532.861 39.9C532.861 36.3667 532.161 33.3667 530.761 30.9C529.361 28.4333 527.394 26.5667 524.861 25.3C522.394 24.0333 519.494 23.4 516.161 23.4H506.261V56.6ZM42.0563 172.6C36.4563 172.6 31.2563 171.733 26.4563 170C21.7229 168.2 17.5896 165.667 14.0563 162.4C10.5896 159.133 7.88958 155.267 5.95625 150.8C4.02292 146.333 3.05625 141.4 3.05625 136C3.05625 130.6 4.02292 125.667 5.95625 121.2C7.88958 116.733 10.5896 112.867 14.0563 109.6C17.5896 106.333 21.7229 103.833 26.4563 102.1C31.2563 100.3 36.4563 99.4 42.0563 99.4C48.9229 99.4 54.9896 100.6 60.2563 103C65.5896 105.4 69.9896 108.867 73.4563 113.4L58.5563 126.7C56.4896 124.1 54.1896 122.1 51.6563 120.7C49.1896 119.233 46.3896 118.5 43.2563 118.5C40.7896 118.5 38.5563 118.9 36.5563 119.7C34.5563 120.5 32.8229 121.667 31.3563 123.2C29.9563 124.733 28.8563 126.6 28.0563 128.8C27.2563 130.933 26.8563 133.333 26.8563 136C26.8563 138.667 27.2563 141.1 28.0563 143.3C28.8563 145.433 29.9563 147.267 31.3563 148.8C32.8229 150.333 34.5563 151.5 36.5563 152.3C38.5563 153.1 40.7896 153.5 43.2563 153.5C46.3896 153.5 49.1896 152.8 51.6563 151.4C54.1896 149.933 56.4896 147.9 58.5563 145.3L73.4563 158.6C69.9896 163.067 65.5896 166.533 60.2563 169C54.9896 171.4 48.9229 172.6 42.0563 172.6ZM114.005 172.6C108.339 172.6 103.072 171.7 98.2055 169.9C93.4055 168.1 89.2388 165.567 85.7055 162.3C82.1721 158.967 79.4055 155.067 77.4055 150.6C75.4721 146.133 74.5055 141.267 74.5055 136C74.5055 130.667 75.4721 125.8 77.4055 121.4C79.4055 116.933 82.1721 113.067 85.7055 109.8C89.2388 106.467 93.4055 103.9 98.2055 102.1C103.072 100.3 108.339 99.4 114.005 99.4C119.739 99.4 125.005 100.3 129.805 102.1C134.605 103.9 138.772 106.467 142.305 109.8C145.839 113.067 148.572 116.933 150.505 121.4C152.505 125.8 153.505 130.667 153.505 136C153.505 141.267 152.505 146.133 150.505 150.6C148.572 155.067 145.839 158.967 142.305 162.3C138.772 165.567 134.605 168.1 129.805 169.9C125.005 171.7 119.739 172.6 114.005 172.6ZM114.005 153.5C116.205 153.5 118.239 153.1 120.105 152.3C122.039 151.5 123.705 150.367 125.105 148.9C126.572 147.367 127.705 145.533 128.505 143.4C129.305 141.2 129.705 138.733 129.705 136C129.705 133.267 129.305 130.833 128.505 128.7C127.705 126.5 126.572 124.667 125.105 123.2C123.705 121.667 122.039 120.5 120.105 119.7C118.239 118.9 116.205 118.5 114.005 118.5C111.805 118.5 109.739 118.9 107.805 119.7C105.939 120.5 104.272 121.667 102.805 123.2C101.405 124.667 100.305 126.5 99.5055 128.7C98.7055 130.833 98.3055 133.267 98.3055 136C98.3055 138.733 98.7055 141.2 99.5055 143.4C100.305 145.533 101.405 147.367 102.805 148.9C104.272 150.367 105.939 151.5 107.805 152.3C109.739 153.1 111.805 153.5 114.005 153.5ZM160.571 171V101H184.171V152.7H215.771V171H160.571ZM220.79 171V101H244.39V152.7H275.99V171H220.79ZM302.609 127H333.809V144H302.609V127ZM304.209 153.2H339.209V171H281.009V101H337.909V118.8H304.209V153.2ZM382.994 172.6C377.394 172.6 372.194 171.733 367.394 170C362.66 168.2 358.527 165.667 354.994 162.4C351.527 159.133 348.827 155.267 346.894 150.8C344.96 146.333 343.994 141.4 343.994 136C343.994 130.6 344.96 125.667 346.894 121.2C348.827 116.733 351.527 112.867 354.994 109.6C358.527 106.333 362.66 103.833 367.394 102.1C372.194 100.3 377.394 99.4 382.994 99.4C389.86 99.4 395.927 100.6 401.194 103C406.527 105.4 410.927 108.867 414.394 113.4L399.494 126.7C397.427 124.1 395.127 122.1 392.594 120.7C390.127 119.233 387.327 118.5 384.194 118.5C381.727 118.5 379.494 118.9 377.494 119.7C375.494 120.5 373.76 121.667 372.294 123.2C370.894 124.733 369.794 126.6 368.994 128.8C368.194 130.933 367.794 133.333 367.794 136C367.794 138.667 368.194 141.1 368.994 143.3C369.794 145.433 370.894 147.267 372.294 148.8C373.76 150.333 375.494 151.5 377.494 152.3C379.494 153.1 381.727 153.5 384.194 153.5C387.327 153.5 390.127 152.8 392.594 151.4C395.127 149.933 397.427 147.9 399.494 145.3L414.394 158.6C410.927 163.067 406.527 166.533 401.194 169C395.927 171.4 389.86 172.6 382.994 172.6ZM434.42 171V119.3H413.92V101H478.52V119.3H458.02V171H434.42ZM483.149 171V101H506.749V171H483.149ZM538.61 171L509.01 101H534.41L558.51 160.1H543.41L568.21 101H591.41L561.81 171H538.61ZM613.859 127H645.059V144H613.859V127ZM615.459 153.2H650.459V171H592.259V101H649.159V118.8H615.459V153.2Z" fill="#223B2E"/>
</svg>
