<svg width="667" height="184" viewBox="0 0 667 184" fill="none" xmlns="http://www.w3.org/2000/svg">
<mask id="path-1-outside-1_2178_1533" maskUnits="userSpaceOnUse" x="8" y="5" width="659" height="180" fill="black">
<rect fill="white" x="8" y="5" width="659" height="180"/>
<path d="M240.744 83.6C235.144 83.6 229.944 82.7333 225.144 81C220.41 79.2 216.277 76.6667 212.744 73.4C209.277 70.1333 206.577 66.2667 204.644 61.8C202.71 57.3333 201.744 52.4 201.744 47C201.744 41.6 202.71 36.6667 204.644 32.2C206.577 27.7333 209.277 23.8667 212.744 20.6C216.277 17.3333 220.41 14.8333 225.144 13.1C229.944 11.3 235.144 10.4 240.744 10.4C247.61 10.4 253.677 11.6 258.944 14C264.277 16.4 268.677 19.8667 272.144 24.4L257.244 37.7C255.177 35.1 252.877 33.1 250.344 31.7C247.877 30.2333 245.077 29.5 241.944 29.5C239.477 29.5 237.244 29.9 235.244 30.7C233.244 31.5 231.51 32.6667 230.044 34.2C228.644 35.7333 227.544 37.6 226.744 39.8C225.944 41.9333 225.544 44.3333 225.544 47C225.544 49.6667 225.944 52.1 226.744 54.3C227.544 56.4333 228.644 58.2667 230.044 59.8C231.51 61.3333 233.244 62.5 235.244 63.3C237.244 64.1 239.477 64.5 241.944 64.5C245.077 64.5 247.877 63.8 250.344 62.4C252.877 60.9333 255.177 58.9 257.244 56.3L272.144 69.6C268.677 74.0667 264.277 77.5333 258.944 80C253.677 82.4 247.61 83.6 240.744 83.6ZM268.881 82L299.481 12H322.681L353.281 82H328.881L306.281 23.2H315.481L292.881 82H268.881ZM287.081 69.8L293.081 52.8H325.281L331.281 69.8H287.081ZM355.548 82V12H374.948L402.948 57.7H392.748L419.948 12H439.348L439.548 82H418.048L417.848 44.4H421.248L402.648 75.7H392.248L372.848 44.4H377.048V82H355.548ZM449.458 82V12H483.158C489.691 12 495.324 13.0667 500.058 15.2C504.858 17.3333 508.558 20.4 511.158 24.4C513.758 28.3333 515.058 33 515.058 38.4C515.058 43.8 513.758 48.4667 511.158 52.4C508.558 56.3333 504.858 59.4 500.058 61.6C495.324 63.7333 489.691 64.8 483.158 64.8H462.558L473.058 54.7V82H449.458ZM473.058 57.3L462.558 46.6H481.658C484.924 46.6 487.324 45.8667 488.858 44.4C490.458 42.9333 491.258 40.9333 491.258 38.4C491.258 35.8667 490.458 33.8667 488.858 32.4C487.324 30.9333 484.924 30.2 481.658 30.2H462.558L473.058 19.5V57.3ZM542.898 38H574.098V55H542.898V38ZM544.498 64.2H579.498V82H521.298V12H578.198V29.8H544.498V64.2ZM587.083 82V12H621.583C629.383 12 636.249 13.4333 642.183 16.3C648.116 19.1 652.749 23.1 656.083 28.3C659.416 33.5 661.083 39.7 661.083 46.9C661.083 54.1667 659.416 60.4333 656.083 65.7C652.749 70.9 648.116 74.9333 642.183 77.8C636.249 80.6 629.383 82 621.583 82H587.083ZM610.683 63.6H620.583C623.916 63.6 626.816 62.9667 629.283 61.7C631.816 60.4333 633.783 58.5667 635.183 56.1C636.583 53.5667 637.283 50.5 637.283 46.9C637.283 43.3667 636.583 40.3667 635.183 37.9C633.783 35.4333 631.816 33.5667 629.283 32.3C626.816 31.0333 623.916 30.4 620.583 30.4H610.683V63.6ZM52.2125 179.6C46.6125 179.6 41.4125 178.733 36.6125 177C31.8792 175.2 27.7458 172.667 24.2125 169.4C20.7458 166.133 18.0458 162.267 16.1125 157.8C14.1792 153.333 13.2125 148.4 13.2125 143C13.2125 137.6 14.1792 132.667 16.1125 128.2C18.0458 123.733 20.7458 119.867 24.2125 116.6C27.7458 113.333 31.8792 110.833 36.6125 109.1C41.4125 107.3 46.6125 106.4 52.2125 106.4C59.0792 106.4 65.1458 107.6 70.4125 110C75.7458 112.4 80.1458 115.867 83.6125 120.4L68.7125 133.7C66.6458 131.1 64.3458 129.1 61.8125 127.7C59.3458 126.233 56.5458 125.5 53.4125 125.5C50.9458 125.5 48.7125 125.9 46.7125 126.7C44.7125 127.5 42.9792 128.667 41.5125 130.2C40.1125 131.733 39.0125 133.6 38.2125 135.8C37.4125 137.933 37.0125 140.333 37.0125 143C37.0125 145.667 37.4125 148.1 38.2125 150.3C39.0125 152.433 40.1125 154.267 41.5125 155.8C42.9792 157.333 44.7125 158.5 46.7125 159.3C48.7125 160.1 50.9458 160.5 53.4125 160.5C56.5458 160.5 59.3458 159.8 61.8125 158.4C64.3458 156.933 66.6458 154.9 68.7125 152.3L83.6125 165.6C80.1458 170.067 75.7458 173.533 70.4125 176C65.1458 178.4 59.0792 179.6 52.2125 179.6ZM124.162 179.6C118.495 179.6 113.228 178.7 108.362 176.9C103.562 175.1 99.3951 172.567 95.8617 169.3C92.3284 165.967 89.5617 162.067 87.5617 157.6C85.6284 153.133 84.6617 148.267 84.6617 143C84.6617 137.667 85.6284 132.8 87.5617 128.4C89.5617 123.933 92.3284 120.067 95.8617 116.8C99.3951 113.467 103.562 110.9 108.362 109.1C113.228 107.3 118.495 106.4 124.162 106.4C129.895 106.4 135.162 107.3 139.962 109.1C144.762 110.9 148.928 113.467 152.462 116.8C155.995 120.067 158.728 123.933 160.662 128.4C162.662 132.8 163.662 137.667 163.662 143C163.662 148.267 162.662 153.133 160.662 157.6C158.728 162.067 155.995 165.967 152.462 169.3C148.928 172.567 144.762 175.1 139.962 176.9C135.162 178.7 129.895 179.6 124.162 179.6ZM124.162 160.5C126.362 160.5 128.395 160.1 130.262 159.3C132.195 158.5 133.862 157.367 135.262 155.9C136.728 154.367 137.862 152.533 138.662 150.4C139.462 148.2 139.862 145.733 139.862 143C139.862 140.267 139.462 137.833 138.662 135.7C137.862 133.5 136.728 131.667 135.262 130.2C133.862 128.667 132.195 127.5 130.262 126.7C128.395 125.9 126.362 125.5 124.162 125.5C121.962 125.5 119.895 125.9 117.962 126.7C116.095 127.5 114.428 128.667 112.962 130.2C111.562 131.667 110.462 133.5 109.662 135.7C108.862 137.833 108.462 140.267 108.462 143C108.462 145.733 108.862 148.2 109.662 150.4C110.462 152.533 111.562 154.367 112.962 155.9C114.428 157.367 116.095 158.5 117.962 159.3C119.895 160.1 121.962 160.5 124.162 160.5ZM170.727 178V108H194.327V159.7H225.927V178H170.727ZM230.946 178V108H254.546V159.7H286.146V178H230.946ZM312.765 134H343.965V151H312.765V134ZM314.365 160.2H349.365V178H291.165V108H348.065V125.8H314.365V160.2ZM393.15 179.6C387.55 179.6 382.35 178.733 377.55 177C372.817 175.2 368.683 172.667 365.15 169.4C361.683 166.133 358.983 162.267 357.05 157.8C355.117 153.333 354.15 148.4 354.15 143C354.15 137.6 355.117 132.667 357.05 128.2C358.983 123.733 361.683 119.867 365.15 116.6C368.683 113.333 372.817 110.833 377.55 109.1C382.35 107.3 387.55 106.4 393.15 106.4C400.017 106.4 406.083 107.6 411.35 110C416.683 112.4 421.083 115.867 424.55 120.4L409.65 133.7C407.583 131.1 405.283 129.1 402.75 127.7C400.283 126.233 397.483 125.5 394.35 125.5C391.883 125.5 389.65 125.9 387.65 126.7C385.65 127.5 383.917 128.667 382.45 130.2C381.05 131.733 379.95 133.6 379.15 135.8C378.35 137.933 377.95 140.333 377.95 143C377.95 145.667 378.35 148.1 379.15 150.3C379.95 152.433 381.05 154.267 382.45 155.8C383.917 157.333 385.65 158.5 387.65 159.3C389.65 160.1 391.883 160.5 394.35 160.5C397.483 160.5 400.283 159.8 402.75 158.4C405.283 156.933 407.583 154.9 409.65 152.3L424.55 165.6C421.083 170.067 416.683 173.533 411.35 176C406.083 178.4 400.017 179.6 393.15 179.6ZM444.576 178V126.3H424.076V108H488.676V126.3H468.176V178H444.576ZM493.305 178V108H516.905V178H493.305ZM548.766 178L519.166 108H544.566L568.666 167.1H553.566L578.366 108H601.566L571.966 178H548.766ZM624.015 134H655.215V151H624.015V134ZM625.615 160.2H660.615V178H602.415V108H659.315V125.8H625.615V160.2Z"/>
</mask>
<path d="M225.144 81L223.367 85.6735L223.406 85.6885L223.446 85.7028L225.144 81ZM212.744 73.4L209.315 77.0389L209.332 77.0552L209.349 77.0714L212.744 73.4ZM204.644 61.8L200.055 63.7861L200.055 63.7861L204.644 61.8ZM204.644 32.2L200.055 30.2139L200.055 30.2139L204.644 32.2ZM212.744 20.6L209.349 16.9286L209.332 16.9448L209.315 16.9611L212.744 20.6ZM225.144 13.1L226.863 17.7951L226.881 17.7884L226.899 17.7816L225.144 13.1ZM258.944 14L256.87 18.5499L256.881 18.5548L256.892 18.5596L258.944 14ZM272.144 24.4L275.473 28.1301L278.931 25.0441L276.116 21.3627L272.144 24.4ZM257.244 37.7L253.33 40.8112L256.624 44.9555L260.573 41.4301L257.244 37.7ZM250.344 31.7L247.788 35.9977L247.856 36.038L247.925 36.0762L250.344 31.7ZM235.244 30.7L237.101 35.3424L237.101 35.3424L235.244 30.7ZM230.044 34.2L226.431 30.7439L226.39 30.7858L226.351 30.8287L230.044 34.2ZM226.744 39.8L231.425 41.5556L231.434 41.5322L231.443 41.5087L226.744 39.8ZM226.744 54.3L222.045 56.0087L222.053 56.0322L222.062 56.0556L226.744 54.3ZM230.044 59.8L226.351 63.1713L226.39 63.2142L226.431 63.2561L230.044 59.8ZM235.244 63.3L233.387 67.9424L233.387 67.9424L235.244 63.3ZM250.344 62.4L252.812 66.7484L252.83 66.7379L252.849 66.7271L250.344 62.4ZM257.244 56.3L260.573 52.5699L256.624 49.0445L253.33 53.1888L257.244 56.3ZM272.144 69.6L276.094 72.6656L278.956 68.9782L275.473 65.8699L272.144 69.6ZM258.944 80L261.017 84.5499L261.03 84.544L261.043 84.5381L258.944 80ZM240.744 78.6C235.667 78.6 231.047 77.8157 226.842 76.2972L223.446 85.7028C228.841 87.651 234.621 88.6 240.744 88.6V78.6ZM226.921 76.3265C222.754 74.7419 219.177 72.5384 216.138 69.7286L209.349 77.0714C213.377 80.795 218.067 83.6581 223.367 85.6735L226.921 76.3265ZM216.173 69.7611C213.212 66.9711 210.902 63.6704 209.232 59.8139L200.055 63.7861C202.253 68.8629 205.342 73.2956 209.315 77.0389L216.173 69.7611ZM209.232 59.8139C207.599 56.0396 206.744 51.7919 206.744 47H196.744C196.744 53.0081 197.822 58.627 200.055 63.7861L209.232 59.8139ZM206.744 47C206.744 42.2081 207.599 37.9604 209.232 34.1861L200.055 30.2139C197.822 35.373 196.744 40.9919 196.744 47H206.744ZM209.232 34.1861C210.902 30.3296 213.212 27.0289 216.173 24.2389L209.315 16.9611C205.342 20.7044 202.253 25.1371 200.055 30.2139L209.232 34.1861ZM216.138 24.2714C219.163 21.4745 222.72 19.3122 226.863 17.7951L223.424 8.4049C218.101 10.3545 213.391 13.1922 209.349 16.9286L216.138 24.2714ZM226.899 17.7816C231.088 16.2108 235.688 15.4 240.744 15.4V5.4C234.6 5.4 228.799 6.38921 223.388 8.41835L226.899 17.7816ZM240.744 15.4C247.027 15.4 252.365 16.4966 256.87 18.5499L261.017 9.45014C254.989 6.70338 248.194 5.4 240.744 5.4V15.4ZM256.892 18.5596C261.488 20.628 265.222 23.5796 268.172 27.4372L276.116 21.3627C272.132 16.1538 267.066 12.172 260.996 9.44039L256.892 18.5596ZM268.814 20.6699L253.914 33.9699L260.573 41.4301L275.473 28.1301L268.814 20.6699ZM261.158 34.5888C258.741 31.5481 255.951 29.0863 252.762 27.3238L247.925 36.0762C249.803 37.1137 251.613 38.6519 253.33 40.8112L261.158 34.5888ZM252.899 27.4023C249.589 25.4343 245.891 24.5 241.944 24.5V34.5C244.263 34.5 246.165 35.0324 247.788 35.9977L252.899 27.4023ZM241.944 24.5C238.932 24.5 236.057 24.9896 233.387 26.0576L237.101 35.3424C238.431 34.8104 240.022 34.5 241.944 34.5V24.5ZM233.387 26.0576C230.734 27.1188 228.399 28.6861 226.431 30.7439L233.657 37.6561C234.622 36.6472 235.754 35.8812 237.101 35.3424L233.387 26.0576ZM226.351 30.8287C224.458 32.9028 223.04 35.3546 222.045 38.0913L231.443 41.5087C232.048 39.8454 232.83 38.5639 233.736 37.5713L226.351 30.8287ZM222.062 38.0444C221.019 40.8259 220.544 43.834 220.544 47H230.544C230.544 44.8326 230.868 43.0408 231.425 41.5556L222.062 38.0444ZM220.544 47C220.544 50.1693 221.02 53.1905 222.045 56.0087L231.443 52.5913C230.868 51.0095 230.544 49.164 230.544 47H220.544ZM222.062 56.0556C223.064 58.7274 224.482 61.1235 226.351 63.1713L233.736 56.4287C232.806 55.4098 232.023 54.1393 231.425 52.5444L222.062 56.0556ZM226.431 63.2561C228.399 65.3138 230.734 66.8812 233.387 67.9424L237.101 58.6576C235.754 58.1188 234.622 57.3528 233.657 56.3439L226.431 63.2561ZM233.387 67.9424C236.057 69.0104 238.932 69.5 241.944 69.5V59.5C240.022 59.5 238.431 59.1896 237.101 58.6576L233.387 67.9424ZM241.944 69.5C245.849 69.5 249.516 68.6191 252.812 66.7484L247.876 58.0516C246.238 58.9809 244.305 59.5 241.944 59.5V69.5ZM252.849 66.7271C255.992 64.9076 258.754 62.4357 261.158 59.4112L253.33 53.1888C251.6 55.3643 249.762 56.9591 247.839 58.0729L252.849 66.7271ZM253.914 60.0301L268.814 73.3301L275.473 65.8699L260.573 52.5699L253.914 60.0301ZM268.194 66.5344C265.237 70.3441 261.482 73.3173 256.845 75.4619L261.043 84.5381C267.072 81.7494 272.117 77.7893 276.094 72.6656L268.194 66.5344ZM256.87 75.4501C252.365 77.5034 247.027 78.6 240.744 78.6V88.6C248.194 88.6 254.989 87.2966 261.017 84.5499L256.87 75.4501ZM268.881 82L264.3 79.9973L261.239 87H268.881V82ZM299.481 12V7H296.21L294.9 9.99727L299.481 12ZM322.681 12L327.263 9.99727L325.952 7H322.681V12ZM353.281 82V87H360.924L357.863 79.9973L353.281 82ZM328.881 82L324.214 83.7938L325.446 87H328.881V82ZM306.281 23.2V18.2H299.003L301.614 24.9938L306.281 23.2ZM315.481 23.2L320.148 24.9938L322.76 18.2H315.481V23.2ZM292.881 82V87H296.316L297.548 83.7938L292.881 82ZM287.081 69.8L282.366 68.1359L280.014 74.8H287.081V69.8ZM293.081 52.8V47.8H289.544L288.366 51.1359L293.081 52.8ZM325.281 52.8L329.996 51.1359L328.819 47.8H325.281V52.8ZM331.281 69.8V74.8H338.348L335.996 68.1359L331.281 69.8ZM273.463 84.0027L304.063 14.0027L294.9 9.99727L264.3 79.9973L273.463 84.0027ZM299.481 17H322.681V7H299.481V17ZM318.1 14.0027L348.7 84.0027L357.863 79.9973L327.263 9.99727L318.1 14.0027ZM353.281 77H328.881V87H353.281V77ZM333.548 80.2062L310.948 21.4062L301.614 24.9938L324.214 83.7938L333.548 80.2062ZM306.281 28.2H315.481V18.2H306.281V28.2ZM310.814 21.4062L288.214 80.2062L297.548 83.7938L320.148 24.9938L310.814 21.4062ZM292.881 77H268.881V87H292.881V77ZM291.796 71.4641L297.796 54.4641L288.366 51.1359L282.366 68.1359L291.796 71.4641ZM293.081 57.8H325.281V47.8H293.081V57.8ZM320.566 54.4641L326.566 71.4641L335.996 68.1359L329.996 51.1359L320.566 54.4641ZM331.281 64.8H287.081V74.8H331.281V64.8ZM355.548 82H350.548V87H355.548V82ZM355.548 12V7H350.548V12H355.548ZM374.948 12L379.211 9.38784L377.748 7H374.948V12ZM402.948 57.7V62.7H411.875L407.211 55.0878L402.948 57.7ZM392.748 57.7L388.451 55.1427L383.953 62.7H392.748V57.7ZM419.948 12V7H417.105L415.651 9.44274L419.948 12ZM439.348 12L444.348 11.9857L444.333 7H439.348V12ZM439.548 82V87H444.562L444.548 81.9857L439.548 82ZM418.048 82L413.048 82.0266L413.074 87H418.048V82ZM417.848 44.4V39.4H412.821L412.848 44.4266L417.848 44.4ZM421.248 44.4L425.546 46.9543L430.035 39.4H421.248V44.4ZM402.648 75.7V80.7H405.493L406.946 78.2543L402.648 75.7ZM392.248 75.7L387.998 78.3341L389.464 80.7H392.248V75.7ZM372.848 44.4V39.4H363.866L368.598 47.0341L372.848 44.4ZM377.048 44.4H382.048V39.4H377.048V44.4ZM377.048 82V87H382.048V82H377.048ZM360.548 82V12H350.548V82H360.548ZM355.548 17H374.948V7H355.548V17ZM370.684 14.6121L398.684 60.3122L407.211 55.0878L379.211 9.38784L370.684 14.6121ZM402.948 52.7H392.748V62.7H402.948V52.7ZM397.044 60.2573L424.244 14.5572L415.651 9.44274L388.451 55.1427L397.044 60.2573ZM419.948 17H439.348V7H419.948V17ZM434.348 12.0143L434.548 82.0143L444.548 81.9857L444.348 11.9857L434.348 12.0143ZM439.548 77H418.048V87H439.548V77ZM423.048 81.9734L422.848 44.3734L412.848 44.4266L413.048 82.0266L423.048 81.9734ZM417.848 49.4H421.248V39.4H417.848V49.4ZM416.949 41.8457L398.349 73.1457L406.946 78.2543L425.546 46.9543L416.949 41.8457ZM402.648 70.7H392.248V80.7H402.648V70.7ZM396.498 73.0659L377.098 41.7659L368.598 47.0341L387.998 78.3341L396.498 73.0659ZM372.848 49.4H377.048V39.4H372.848V49.4ZM372.048 44.4V82H382.048V44.4H372.048ZM377.048 77H355.548V87H377.048V77ZM449.458 82H444.458V87H449.458V82ZM449.458 12V7H444.458V12H449.458ZM500.058 15.2L498.003 19.7584L498.015 19.7638L498.027 19.7691L500.058 15.2ZM511.158 24.4L506.966 27.1249L506.976 27.1411L506.987 27.1572L511.158 24.4ZM511.158 52.4L506.987 49.6428L506.987 49.6428L511.158 52.4ZM500.058 61.6L502.112 66.1584L502.127 66.1519L502.141 66.1453L500.058 61.6ZM462.558 64.8L459.092 61.1965L450.147 69.8H462.558V64.8ZM473.058 54.7H478.058V42.9528L469.592 51.0965L473.058 54.7ZM473.058 82V87H478.058V82H473.058ZM473.058 57.3L469.489 60.802L478.058 69.534V57.3H473.058ZM462.558 46.6V41.6H450.646L458.989 50.102L462.558 46.6ZM488.858 44.4L485.479 40.7142L485.44 40.7501L485.402 40.7868L488.858 44.4ZM488.858 32.4L485.402 36.0132L485.44 36.0499L485.479 36.0858L488.858 32.4ZM462.558 30.2L458.989 26.698L450.646 35.2H462.558V30.2ZM473.058 19.5H478.058V7.26603L469.489 15.998L473.058 19.5ZM454.458 82V12H444.458V82H454.458ZM449.458 17H483.158V7H449.458V17ZM483.158 17C489.16 17 494.06 17.9811 498.003 19.7584L502.112 10.6416C496.589 8.15224 490.222 7 483.158 7V17ZM498.027 19.7691C502.036 21.5508 504.945 24.0168 506.966 27.1249L515.35 21.6751C512.17 16.7832 507.679 13.1158 502.089 10.6309L498.027 19.7691ZM506.987 27.1572C508.971 30.1584 510.058 33.8339 510.058 38.4H520.058C520.058 32.1661 518.545 26.5083 515.329 21.6428L506.987 27.1572ZM510.058 38.4C510.058 42.9661 508.971 46.6416 506.987 49.6428L515.329 55.1572C518.545 50.2917 520.058 44.6339 520.058 38.4H510.058ZM506.987 49.6428C504.962 52.7059 502.03 55.1959 497.975 57.0547L502.141 66.1453C507.686 63.6041 512.154 59.9608 515.329 55.1572L506.987 49.6428ZM498.003 57.0416C494.06 58.8189 489.16 59.8 483.158 59.8V69.8C490.222 69.8 496.589 68.6478 502.112 66.1584L498.003 57.0416ZM483.158 59.8H462.558V69.8H483.158V59.8ZM466.024 68.4035L476.524 58.3035L469.592 51.0965L459.092 61.1965L466.024 68.4035ZM468.058 54.7V82H478.058V54.7H468.058ZM473.058 77H449.458V87H473.058V77ZM476.627 53.798L466.127 43.098L458.989 50.102L469.489 60.802L476.627 53.798ZM462.558 51.6H481.658V41.6H462.558V51.6ZM481.658 51.6C485.537 51.6 489.456 50.747 492.314 48.0132L485.402 40.7868C485.193 40.9864 484.312 41.6 481.658 41.6V51.6ZM492.236 48.0858C495.045 45.5116 496.258 42.0784 496.258 38.4H486.258C486.258 39.7883 485.871 40.3551 485.479 40.7142L492.236 48.0858ZM496.258 38.4C496.258 34.7216 495.045 31.2884 492.236 28.7142L485.479 36.0858C485.871 36.4449 486.258 37.0117 486.258 38.4H496.258ZM492.314 28.7868C489.456 26.053 485.537 25.2 481.658 25.2V35.2C484.312 35.2 485.193 35.8136 485.402 36.0132L492.314 28.7868ZM481.658 25.2H462.558V35.2H481.658V25.2ZM466.127 33.702L476.627 23.002L469.489 15.998L458.989 26.698L466.127 33.702ZM468.058 19.5V57.3H478.058V19.5H468.058ZM542.898 38V33H537.898V38H542.898ZM574.098 38H579.098V33H574.098V38ZM574.098 55V60H579.098V55H574.098ZM542.898 55H537.898V60H542.898V55ZM544.498 64.2H539.498V69.2H544.498V64.2ZM579.498 64.2H584.498V59.2H579.498V64.2ZM579.498 82V87H584.498V82H579.498ZM521.298 82H516.298V87H521.298V82ZM521.298 12V7H516.298V12H521.298ZM578.198 12H583.198V7H578.198V12ZM578.198 29.8V34.8H583.198V29.8H578.198ZM544.498 29.8V24.8H539.498V29.8H544.498ZM542.898 43H574.098V33H542.898V43ZM569.098 38V55H579.098V38H569.098ZM574.098 50H542.898V60H574.098V50ZM547.898 55V38H537.898V55H547.898ZM544.498 69.2H579.498V59.2H544.498V69.2ZM574.498 64.2V82H584.498V64.2H574.498ZM579.498 77H521.298V87H579.498V77ZM526.298 82V12H516.298V82H526.298ZM521.298 17H578.198V7H521.298V17ZM573.198 12V29.8H583.198V12H573.198ZM578.198 24.8H544.498V34.8H578.198V24.8ZM539.498 29.8V64.2H549.498V29.8H539.498ZM587.083 82H582.083V87H587.083V82ZM587.083 12V7H582.083V12H587.083ZM642.183 16.3L640.008 20.8021L640.028 20.812L640.049 20.8218L642.183 16.3ZM656.083 28.3L651.873 30.9983L651.873 30.9983L656.083 28.3ZM656.083 65.7L660.292 68.3983L660.3 68.3862L660.308 68.374L656.083 65.7ZM642.183 77.8L644.317 82.3218L644.337 82.312L644.358 82.3021L642.183 77.8ZM610.683 63.6H605.683V68.6H610.683V63.6ZM629.283 61.7L627.047 57.2279L627.023 57.2399L626.999 57.2522L629.283 61.7ZM635.183 56.1L639.531 58.568L639.545 58.5433L639.559 58.5184L635.183 56.1ZM635.183 37.9L639.531 35.432L639.531 35.432L635.183 37.9ZM629.283 32.3L626.999 36.7478L627.023 36.7601L627.047 36.7721L629.283 32.3ZM610.683 30.4V25.4H605.683V30.4H610.683ZM592.083 82V12H582.083V82H592.083ZM587.083 17H621.583V7H587.083V17ZM621.583 17C628.767 17 634.866 18.318 640.008 20.8021L644.358 11.7979C637.633 8.54867 629.999 7 621.583 7V17ZM640.049 20.8218C645.188 23.247 649.079 26.6389 651.873 30.9983L660.292 25.6017C656.42 19.5611 651.044 14.953 644.317 11.7782L640.049 20.8218ZM651.873 30.9983C654.61 35.267 656.083 40.4949 656.083 46.9H666.083C666.083 38.9051 664.223 31.733 660.292 25.6017L651.873 30.9983ZM656.083 46.9C656.083 53.3799 654.606 58.6845 651.858 63.026L660.308 68.374C664.227 62.1822 666.083 54.9535 666.083 46.9H656.083ZM651.873 63.0017C649.072 67.3716 645.167 70.8051 640.008 73.2979L644.358 82.3021C651.065 79.0616 656.427 74.4284 660.292 68.3983L651.873 63.0017ZM640.049 73.2782C634.897 75.7094 628.783 77 621.583 77V87C629.983 87 637.602 85.4906 644.317 82.3218L640.049 73.2782ZM621.583 77H587.083V87H621.583V77ZM610.683 68.6H620.583V58.6H610.683V68.6ZM620.583 68.6C624.551 68.6 628.264 67.8437 631.567 66.1478L626.999 57.2522C625.368 58.0896 623.281 58.6 620.583 58.6V68.6ZM631.519 66.1721C634.941 64.4611 637.642 61.8962 639.531 58.568L630.834 53.632C629.923 55.2371 628.691 56.4055 627.047 57.2279L631.519 66.1721ZM639.559 58.5184C641.456 55.0851 642.283 51.1426 642.283 46.9H632.283C632.283 49.8574 631.709 52.0483 630.807 53.6816L639.559 58.5184ZM642.283 46.9C642.283 42.7115 641.451 38.8148 639.531 35.432L630.834 40.368C631.714 41.9185 632.283 44.0218 632.283 46.9H642.283ZM639.531 35.432C637.642 32.1038 634.941 29.5389 631.519 27.8279L627.047 36.7721C628.691 37.5945 629.923 38.7629 630.834 40.368L639.531 35.432ZM631.567 27.8522C628.264 26.1563 624.551 25.4 620.583 25.4V35.4C623.281 35.4 625.368 35.9104 626.999 36.7478L631.567 27.8522ZM620.583 25.4H610.683V35.4H620.583V25.4ZM605.683 30.4V63.6H615.683V30.4H605.683ZM36.6125 177L34.8353 181.673L34.8746 181.688L34.9143 181.703L36.6125 177ZM24.2125 169.4L20.7835 173.039L20.8008 173.055L20.8182 173.071L24.2125 169.4ZM16.1125 157.8L11.5239 159.786L11.5239 159.786L16.1125 157.8ZM16.1125 128.2L11.5239 126.214L11.5239 126.214L16.1125 128.2ZM24.2125 116.6L20.8182 112.929L20.8008 112.945L20.7835 112.961L24.2125 116.6ZM36.6125 109.1L38.3318 113.795L38.35 113.788L38.3681 113.782L36.6125 109.1ZM70.4125 110L68.3391 114.55L68.3499 114.555L68.3607 114.56L70.4125 110ZM83.6125 120.4L86.9421 124.13L90.3994 121.044L87.5843 117.363L83.6125 120.4ZM68.7125 133.7L64.7984 136.811L68.0926 140.956L72.0421 137.43L68.7125 133.7ZM61.8125 127.7L59.2571 131.998L59.325 132.038L59.3941 132.076L61.8125 127.7ZM46.7125 126.7L48.5695 131.342L48.5695 131.342L46.7125 126.7ZM41.5125 130.2L37.8993 126.744L37.8592 126.786L37.8201 126.829L41.5125 130.2ZM38.2125 135.8L42.8941 137.556L42.9029 137.532L42.9115 137.509L38.2125 135.8ZM38.2125 150.3L33.5135 152.009L33.5221 152.032L33.5309 152.056L38.2125 150.3ZM41.5125 155.8L37.8201 159.171L37.8592 159.214L37.8993 159.256L41.5125 155.8ZM46.7125 159.3L44.8555 163.942L44.8555 163.942L46.7125 159.3ZM61.8125 158.4L64.2805 162.748L64.2992 162.738L64.3177 162.727L61.8125 158.4ZM68.7125 152.3L72.0421 148.57L68.0926 145.044L64.7984 149.189L68.7125 152.3ZM83.6125 165.6L87.5624 168.666L90.4243 164.978L86.9421 161.87L83.6125 165.6ZM70.4125 176L72.4859 180.55L72.4986 180.544L72.5114 180.538L70.4125 176ZM52.2125 174.6C47.1353 174.6 42.5156 173.816 38.3107 172.297L34.9143 181.703C40.3094 183.651 46.0897 184.6 52.2125 184.6V174.6ZM38.3897 172.327C34.2228 170.742 30.6459 168.538 27.6068 165.729L20.8182 173.071C24.8458 176.795 29.5355 179.658 34.8353 181.673L38.3897 172.327ZM27.6415 165.761C24.6807 162.971 22.3704 159.67 20.7011 155.814L11.5239 159.786C13.7213 164.863 16.811 169.296 20.7835 173.039L27.6415 165.761ZM20.7011 155.814C19.0675 152.04 18.2125 147.792 18.2125 143H8.2125C8.2125 149.008 9.29086 154.627 11.5239 159.786L20.7011 155.814ZM18.2125 143C18.2125 138.208 19.0675 133.96 20.7011 130.186L11.5239 126.214C9.29086 131.373 8.2125 136.992 8.2125 143H18.2125ZM20.7011 130.186C22.3704 126.33 24.6807 123.029 27.6415 120.239L20.7835 112.961C16.811 116.704 13.7213 121.137 11.5239 126.214L20.7011 130.186ZM27.6068 120.271C30.632 117.474 34.189 115.312 38.3318 113.795L34.8932 104.405C29.5694 106.354 24.8597 109.192 20.8182 112.929L27.6068 120.271ZM38.3681 113.782C42.5571 112.211 47.1566 111.4 52.2125 111.4V101.4C46.0684 101.4 40.2679 102.389 34.8569 104.418L38.3681 113.782ZM52.2125 111.4C58.4954 111.4 63.8334 112.497 68.3391 114.55L72.4859 105.45C66.4582 102.703 59.6629 101.4 52.2125 101.4V111.4ZM68.3607 114.56C72.9572 116.628 76.6907 119.58 79.6407 123.437L87.5843 117.363C83.601 112.154 78.5345 108.172 72.4643 105.44L68.3607 114.56ZM80.2829 116.67L65.3829 129.97L72.0421 137.43L86.9421 124.13L80.2829 116.67ZM72.6266 130.589C70.2097 127.548 67.4202 125.086 64.2309 123.324L59.3941 132.076C61.2715 133.114 63.082 134.652 64.7984 136.811L72.6266 130.589ZM64.3679 123.402C61.058 121.434 57.36 120.5 53.4125 120.5V130.5C55.7316 130.5 57.6337 131.032 59.2571 131.998L64.3679 123.402ZM53.4125 120.5C50.4012 120.5 47.5255 120.99 44.8555 122.058L48.5695 131.342C49.8995 130.81 51.4905 130.5 53.4125 130.5V120.5ZM44.8556 122.058C42.2025 123.119 39.8676 124.686 37.8993 126.744L45.1257 133.656C46.0908 132.647 47.2225 131.881 48.5695 131.342L44.8556 122.058ZM37.8201 126.829C35.9263 128.903 34.5087 131.355 33.5135 134.091L42.9115 137.509C43.5163 135.845 44.2987 134.564 45.2049 133.571L37.8201 126.829ZM33.5309 134.044C32.4878 136.826 32.0125 139.834 32.0125 143H42.0125C42.0125 140.833 42.3372 139.041 42.8941 137.556L33.5309 134.044ZM32.0125 143C32.0125 146.169 32.4887 149.191 33.5135 152.009L42.9115 148.591C42.3363 147.009 42.0125 145.164 42.0125 143H32.0125ZM33.5309 152.056C34.5328 154.727 35.9503 157.124 37.8201 159.171L45.2049 152.429C44.2747 151.41 43.4922 150.139 42.8941 148.544L33.5309 152.056ZM37.8993 159.256C39.8676 161.314 42.2025 162.881 44.8555 163.942L48.5695 154.658C47.2225 154.119 46.0908 153.353 45.1257 152.344L37.8993 159.256ZM44.8555 163.942C47.5255 165.01 50.4012 165.5 53.4125 165.5V155.5C51.4905 155.5 49.8995 155.19 48.5695 154.658L44.8555 163.942ZM53.4125 165.5C57.3182 165.5 60.9846 164.619 64.2805 162.748L59.3445 154.052C57.7071 154.981 55.7735 155.5 53.4125 155.5V165.5ZM64.3177 162.727C67.4605 160.908 70.2226 158.436 72.6266 155.411L64.7984 149.189C63.0691 151.364 61.2311 152.959 59.3073 154.073L64.3177 162.727ZM65.3829 156.03L80.2829 169.33L86.9421 161.87L72.0421 148.57L65.3829 156.03ZM79.6626 162.534C76.7058 166.344 72.9505 169.317 68.3136 171.462L72.5114 180.538C78.5412 177.749 83.5859 173.789 87.5624 168.666L79.6626 162.534ZM68.3391 171.45C63.8334 173.503 58.4954 174.6 52.2125 174.6V184.6C59.6629 184.6 66.4582 183.297 72.4859 180.55L68.3391 171.45ZM108.362 176.9L106.606 181.582L106.617 181.586L106.627 181.59L108.362 176.9ZM95.8617 169.3L92.4306 172.937L92.4489 172.954L92.4674 172.971L95.8617 169.3ZM87.5617 157.6L82.9731 159.586L82.9855 159.615L82.9983 159.643L87.5617 157.6ZM87.5617 128.4L82.9983 126.357L82.9912 126.373L82.9841 126.389L87.5617 128.4ZM95.8617 116.8L99.256 120.471L99.2745 120.454L99.2928 120.437L95.8617 116.8ZM108.362 109.1L106.627 104.41L106.617 104.414L106.606 104.418L108.362 109.1ZM139.962 109.1L138.206 113.782L138.206 113.782L139.962 109.1ZM152.462 116.8L149.031 120.437L149.049 120.454L149.067 120.471L152.462 116.8ZM160.662 128.4L156.073 130.386L156.091 130.428L156.11 130.469L160.662 128.4ZM160.662 157.6L156.098 155.557L156.086 155.585L156.073 155.614L160.662 157.6ZM152.462 169.3L155.856 172.971L155.874 172.954L155.893 172.937L152.462 169.3ZM139.962 176.9L138.206 172.218L138.206 172.218L139.962 176.9ZM130.262 159.3L128.35 154.68L128.321 154.692L128.292 154.704L130.262 159.3ZM135.262 155.9L131.649 152.444L131.645 152.448L135.262 155.9ZM138.662 150.4L143.343 152.156L143.352 152.132L143.361 152.109L138.662 150.4ZM138.662 135.7L133.963 137.409L133.971 137.432L133.98 137.456L138.662 135.7ZM135.262 130.2L131.569 133.571L131.646 133.655L131.726 133.736L135.262 130.2ZM130.262 126.7L128.292 131.296L128.321 131.308L128.35 131.32L130.262 126.7ZM117.962 126.7L116.05 122.08L116.021 122.092L115.992 122.104L117.962 126.7ZM112.962 130.2L109.349 126.744L109.345 126.748L112.962 130.2ZM109.662 135.7L114.343 137.456L114.352 137.432L114.361 137.409L109.662 135.7ZM109.662 150.4L104.963 152.109L104.971 152.132L104.98 152.156L109.662 150.4ZM112.962 155.9L109.269 159.271L109.346 159.355L109.426 159.436L112.962 155.9ZM117.962 159.3L115.992 163.896L116.021 163.908L116.05 163.92L117.962 159.3ZM124.162 174.6C119.033 174.6 114.359 173.787 110.096 172.21L106.627 181.59C112.098 183.613 117.958 184.6 124.162 184.6V174.6ZM110.117 172.218C105.884 170.631 102.283 168.427 99.256 165.629L92.4674 172.971C96.5069 176.706 101.24 179.569 106.606 181.582L110.117 172.218ZM99.2928 165.663C96.2418 162.785 93.8583 159.427 92.1251 155.557L82.9983 159.643C85.2651 164.706 88.415 169.149 92.4306 172.937L99.2928 165.663ZM92.1503 155.614C90.51 151.824 89.6617 147.64 89.6617 143H79.6617C79.6617 148.893 80.7467 154.442 82.9731 159.586L92.1503 155.614ZM89.6617 143C89.6617 138.283 90.5137 134.111 92.1393 130.411L82.9841 126.389C80.7431 131.489 79.6617 137.051 79.6617 143H89.6617ZM92.1251 130.443C93.8541 126.582 96.2269 123.272 99.256 120.471L92.4674 113.129C88.4299 116.861 85.2693 121.285 82.9983 126.357L92.1251 130.443ZM99.2928 120.437C102.316 117.585 105.905 115.361 110.117 113.782L106.606 104.418C101.219 106.439 96.4739 109.349 92.4306 113.163L99.2928 120.437ZM110.096 113.79C114.359 112.213 119.033 111.4 124.162 111.4V101.4C117.958 101.4 112.098 102.387 106.627 104.41L110.096 113.79ZM124.162 111.4C129.366 111.4 134.03 112.216 138.206 113.782L141.717 104.418C136.293 102.384 130.424 101.4 124.162 101.4V111.4ZM138.206 113.782C142.419 115.361 146.007 117.585 149.031 120.437L155.893 113.163C151.85 109.349 147.105 106.439 141.717 104.418L138.206 113.782ZM149.067 120.471C152.084 123.26 154.413 126.551 156.073 130.386L165.25 126.414C163.044 121.316 159.906 116.873 155.856 113.129L149.067 120.471ZM156.11 130.469C157.785 134.155 158.662 138.306 158.662 143H168.662C168.662 137.027 167.538 131.445 165.214 126.331L156.11 130.469ZM158.662 143C158.662 147.617 157.789 151.781 156.098 155.557L165.225 159.643C167.534 154.486 168.662 148.917 168.662 143H158.662ZM156.073 155.614C154.409 159.459 152.069 162.797 149.031 165.663L155.893 172.937C159.921 169.137 163.048 164.675 165.25 159.586L156.073 155.614ZM149.067 165.629C146.04 168.427 142.44 170.631 138.206 172.218L141.717 181.582C147.084 179.569 151.817 176.706 155.856 172.971L149.067 165.629ZM138.206 172.218C134.03 173.784 129.366 174.6 124.162 174.6V184.6C130.424 184.6 136.293 183.616 141.717 181.582L138.206 172.218ZM124.162 165.5C126.982 165.5 129.692 164.984 132.231 163.896L128.292 154.704C127.098 155.216 125.742 155.5 124.162 155.5V165.5ZM132.173 163.92C134.729 162.863 136.982 161.339 138.878 159.352L131.645 152.448C130.741 153.394 129.661 154.137 128.35 154.68L132.173 163.92ZM138.875 159.356C140.843 157.299 142.324 154.875 143.343 152.156L133.98 148.644C133.4 150.192 132.614 151.435 131.649 152.444L138.875 159.356ZM143.361 152.109C144.39 149.278 144.862 146.22 144.862 143H134.862C134.862 145.246 134.533 147.122 133.963 148.691L143.361 152.109ZM144.862 143C144.862 139.784 144.391 136.739 143.343 133.944L133.98 137.456C134.532 138.928 134.862 140.75 134.862 143H144.862ZM143.361 133.991C142.343 131.193 140.843 128.711 138.797 126.664L131.726 133.736C132.613 134.623 133.38 135.807 133.963 137.409L143.361 133.991ZM138.954 126.829C137.055 124.749 134.779 123.158 132.173 122.08L128.35 131.32C129.611 131.842 130.668 132.584 131.569 133.571L138.954 126.829ZM132.231 122.104C129.692 121.016 126.982 120.5 124.162 120.5V130.5C125.742 130.5 127.098 130.784 128.292 131.296L132.231 122.104ZM124.162 120.5C121.34 120.5 118.62 121.016 116.05 122.08L119.873 131.32C121.17 130.784 122.583 130.5 124.162 130.5V120.5ZM115.992 122.104C113.479 123.181 111.259 124.746 109.349 126.744L116.575 133.656C117.597 132.587 118.711 131.819 119.931 131.296L115.992 122.104ZM109.345 126.748C107.399 128.786 105.963 131.241 104.963 133.991L114.361 137.409C114.961 135.759 115.724 134.547 116.578 133.652L109.345 126.748ZM104.98 133.944C103.932 136.739 103.462 139.784 103.462 143H113.462C113.462 140.75 113.791 138.928 114.343 137.456L104.98 133.944ZM103.462 143C103.462 146.22 103.933 149.278 104.963 152.109L114.361 148.691C113.79 147.122 113.462 145.246 113.462 143H103.462ZM104.98 152.156C105.982 154.827 107.4 157.224 109.269 159.271L116.654 152.529C115.724 151.51 114.941 150.239 114.343 148.644L104.98 152.156ZM109.426 159.436C111.333 161.342 113.528 162.84 115.992 163.896L119.931 154.704C118.662 154.16 117.524 153.391 116.497 152.364L109.426 159.436ZM116.05 163.92C118.62 164.984 121.34 165.5 124.162 165.5V155.5C122.583 155.5 121.17 155.216 119.873 154.68L116.05 163.92ZM170.727 178H165.727V183H170.727V178ZM170.727 108V103H165.727V108H170.727ZM194.327 108H199.327V103H194.327V108ZM194.327 159.7H189.327V164.7H194.327V159.7ZM225.927 159.7H230.927V154.7H225.927V159.7ZM225.927 178V183H230.927V178H225.927ZM175.727 178V108H165.727V178H175.727ZM170.727 113H194.327V103H170.727V113ZM189.327 108V159.7H199.327V108H189.327ZM194.327 164.7H225.927V154.7H194.327V164.7ZM220.927 159.7V178H230.927V159.7H220.927ZM225.927 173H170.727V183H225.927V173ZM230.946 178H225.946V183H230.946V178ZM230.946 108V103H225.946V108H230.946ZM254.546 108H259.546V103H254.546V108ZM254.546 159.7H249.546V164.7H254.546V159.7ZM286.146 159.7H291.146V154.7H286.146V159.7ZM286.146 178V183H291.146V178H286.146ZM235.946 178V108H225.946V178H235.946ZM230.946 113H254.546V103H230.946V113ZM249.546 108V159.7H259.546V108H249.546ZM254.546 164.7H286.146V154.7H254.546V164.7ZM281.146 159.7V178H291.146V159.7H281.146ZM286.146 173H230.946V183H286.146V173ZM312.765 134V129H307.765V134H312.765ZM343.965 134H348.965V129H343.965V134ZM343.965 151V156H348.965V151H343.965ZM312.765 151H307.765V156H312.765V151ZM314.365 160.2H309.365V165.2H314.365V160.2ZM349.365 160.2H354.365V155.2H349.365V160.2ZM349.365 178V183H354.365V178H349.365ZM291.165 178H286.165V183H291.165V178ZM291.165 108V103H286.165V108H291.165ZM348.065 108H353.065V103H348.065V108ZM348.065 125.8V130.8H353.065V125.8H348.065ZM314.365 125.8V120.8H309.365V125.8H314.365ZM312.765 139H343.965V129H312.765V139ZM338.965 134V151H348.965V134H338.965ZM343.965 146H312.765V156H343.965V146ZM317.765 151V134H307.765V151H317.765ZM314.365 165.2H349.365V155.2H314.365V165.2ZM344.365 160.2V178H354.365V160.2H344.365ZM349.365 173H291.165V183H349.365V173ZM296.165 178V108H286.165V178H296.165ZM291.165 113H348.065V103H291.165V113ZM343.065 108V125.8H353.065V108H343.065ZM348.065 120.8H314.365V130.8H348.065V120.8ZM309.365 125.8V160.2H319.365V125.8H309.365ZM377.55 177L375.773 181.673L375.812 181.688L375.852 181.703L377.55 177ZM365.15 169.4L361.721 173.039L361.738 173.055L361.756 173.071L365.15 169.4ZM357.05 157.8L352.461 159.786L352.461 159.786L357.05 157.8ZM357.05 128.2L352.461 126.214L352.461 126.214L357.05 128.2ZM365.15 116.6L361.756 112.929L361.738 112.945L361.721 112.961L365.15 116.6ZM377.55 109.1L379.269 113.795L379.287 113.788L379.306 113.782L377.55 109.1ZM411.35 110L409.277 114.55L409.287 114.555L409.298 114.56L411.35 110ZM424.55 120.4L427.88 124.13L431.337 121.044L428.522 117.363L424.55 120.4ZM409.65 133.7L405.736 136.811L409.03 140.956L412.98 137.43L409.65 133.7ZM402.75 127.7L400.195 131.998L400.262 132.038L400.332 132.076L402.75 127.7ZM387.65 126.7L389.507 131.342L389.507 131.342L387.65 126.7ZM382.45 130.2L378.837 126.744L378.797 126.786L378.758 126.829L382.45 130.2ZM379.15 135.8L383.832 137.556L383.84 137.532L383.849 137.509L379.15 135.8ZM379.15 150.3L374.451 152.009L374.46 152.032L374.468 152.056L379.15 150.3ZM382.45 155.8L378.758 159.171L378.797 159.214L378.837 159.256L382.45 155.8ZM387.65 159.3L385.793 163.942L385.793 163.942L387.65 159.3ZM402.75 158.4L405.218 162.748L405.237 162.738L405.255 162.727L402.75 158.4ZM409.65 152.3L412.98 148.57L409.03 145.044L405.736 149.189L409.65 152.3ZM424.55 165.6L428.5 168.666L431.362 164.978L427.88 161.87L424.55 165.6ZM411.35 176L413.423 180.55L413.436 180.544L413.449 180.538L411.35 176ZM393.15 174.6C388.073 174.6 383.453 173.816 379.248 172.297L375.852 181.703C381.247 183.651 387.027 184.6 393.15 184.6V174.6ZM379.327 172.327C375.16 170.742 371.583 168.538 368.544 165.729L361.756 173.071C365.783 176.795 370.473 179.658 375.773 181.673L379.327 172.327ZM368.579 165.761C365.618 162.971 363.308 159.67 361.639 155.814L352.461 159.786C354.659 164.863 357.748 169.296 361.721 173.039L368.579 165.761ZM361.639 155.814C360.005 152.04 359.15 147.792 359.15 143H349.15C349.15 149.008 350.228 154.627 352.461 159.786L361.639 155.814ZM359.15 143C359.15 138.208 360.005 133.96 361.639 130.186L352.461 126.214C350.228 131.373 349.15 136.992 349.15 143H359.15ZM361.639 130.186C363.308 126.33 365.618 123.029 368.579 120.239L361.721 112.961C357.748 116.704 354.659 121.137 352.461 126.214L361.639 130.186ZM368.544 120.271C371.569 117.474 375.126 115.312 379.269 113.795L375.831 104.405C370.507 106.354 365.797 109.192 361.756 112.929L368.544 120.271ZM379.306 113.782C383.495 112.211 388.094 111.4 393.15 111.4V101.4C387.006 101.4 381.205 102.389 375.794 104.418L379.306 113.782ZM393.15 111.4C399.433 111.4 404.771 112.497 409.277 114.55L413.423 105.45C407.396 102.703 400.6 101.4 393.15 101.4V111.4ZM409.298 114.56C413.895 116.628 417.628 119.58 420.578 123.437L428.522 117.363C424.538 112.154 419.472 108.172 413.402 105.44L409.298 114.56ZM421.22 116.67L406.32 129.97L412.98 137.43L427.88 124.13L421.22 116.67ZM413.564 130.589C411.147 127.548 408.358 125.086 405.168 123.324L400.332 132.076C402.209 133.114 404.019 134.652 405.736 136.811L413.564 130.589ZM405.305 123.402C401.995 121.434 398.298 120.5 394.35 120.5V130.5C396.669 130.5 398.571 131.032 400.195 131.998L405.305 123.402ZM394.35 120.5C391.339 120.5 388.463 120.99 385.793 122.058L389.507 131.342C390.837 130.81 392.428 130.5 394.35 130.5V120.5ZM385.793 122.058C383.14 123.119 380.805 124.686 378.837 126.744L386.063 133.656C387.028 132.647 388.16 131.881 389.507 131.342L385.793 122.058ZM378.758 126.829C376.864 128.903 375.446 131.355 374.451 134.091L383.849 137.509C384.454 135.845 385.236 134.564 386.142 133.571L378.758 126.829ZM374.468 134.044C373.425 136.826 372.95 139.834 372.95 143H382.95C382.95 140.833 383.275 139.041 383.832 137.556L374.468 134.044ZM372.95 143C372.95 146.169 373.426 149.191 374.451 152.009L383.849 148.591C383.274 147.009 382.95 145.164 382.95 143H372.95ZM374.468 152.056C375.47 154.727 376.888 157.124 378.758 159.171L386.142 152.429C385.212 151.41 384.43 150.139 383.832 148.544L374.468 152.056ZM378.837 159.256C380.805 161.314 383.14 162.881 385.793 163.942L389.507 154.658C388.16 154.119 387.028 153.353 386.063 152.344L378.837 159.256ZM385.793 163.942C388.463 165.01 391.339 165.5 394.35 165.5V155.5C392.428 155.5 390.837 155.19 389.507 154.658L385.793 163.942ZM394.35 165.5C398.256 165.5 401.922 164.619 405.218 162.748L400.282 154.052C398.645 154.981 396.711 155.5 394.35 155.5V165.5ZM405.255 162.727C408.398 160.908 411.16 158.436 413.564 155.411L405.736 149.189C404.007 151.364 402.169 152.959 400.245 154.073L405.255 162.727ZM406.32 156.03L421.22 169.33L427.88 161.87L412.98 148.57L406.32 156.03ZM420.6 162.534C417.643 166.344 413.888 169.317 409.251 171.462L413.449 180.538C419.479 177.749 424.523 173.789 428.5 168.666L420.6 162.534ZM409.277 171.45C404.771 173.503 399.433 174.6 393.15 174.6V184.6C400.6 184.6 407.396 183.297 413.423 180.55L409.277 171.45ZM444.576 178H439.576V183H444.576V178ZM444.576 126.3H449.576V121.3H444.576V126.3ZM424.076 126.3H419.076V131.3H424.076V126.3ZM424.076 108V103H419.076V108H424.076ZM488.676 108H493.676V103H488.676V108ZM488.676 126.3V131.3H493.676V126.3H488.676ZM468.176 126.3V121.3H463.176V126.3H468.176ZM468.176 178V183H473.176V178H468.176ZM449.576 178V126.3H439.576V178H449.576ZM444.576 121.3H424.076V131.3H444.576V121.3ZM429.076 126.3V108H419.076V126.3H429.076ZM424.076 113H488.676V103H424.076V113ZM483.676 108V126.3H493.676V108H483.676ZM488.676 121.3H468.176V131.3H488.676V121.3ZM463.176 126.3V178H473.176V126.3H463.176ZM468.176 173H444.576V183H468.176V173ZM493.305 178H488.305V183H493.305V178ZM493.305 108V103H488.305V108H493.305ZM516.905 108H521.905V103H516.905V108ZM516.905 178V183H521.905V178H516.905ZM498.305 178V108H488.305V178H498.305ZM493.305 113H516.905V103H493.305V113ZM511.905 108V178H521.905V108H511.905ZM516.905 173H493.305V183H516.905V173ZM548.766 178L544.161 179.947L545.452 183H548.766V178ZM519.166 108V103H511.623L514.561 109.947L519.166 108ZM544.566 108L549.196 106.112L547.927 103H544.566V108ZM568.666 167.1V172.1H576.105L573.296 165.212L568.666 167.1ZM553.566 167.1L548.956 165.165L546.046 172.1H553.566V167.1ZM578.366 108V103H575.042L573.756 106.065L578.366 108ZM601.566 108L606.172 109.947L609.109 103H601.566V108ZM571.966 178V183H575.281L576.572 179.947L571.966 178ZM553.372 176.053L523.772 106.053L514.561 109.947L544.161 179.947L553.372 176.053ZM519.166 113H544.566V103H519.166V113ZM539.937 109.888L564.037 168.988L573.296 165.212L549.196 106.112L539.937 109.888ZM568.666 162.1H553.566V172.1H568.666V162.1ZM558.177 169.035L582.977 109.935L573.756 106.065L548.956 165.165L558.177 169.035ZM578.366 113H601.566V103H578.366V113ZM596.961 106.053L567.361 176.053L576.572 179.947L606.172 109.947L596.961 106.053ZM571.966 173H548.766V183H571.966V173ZM624.015 134V129H619.015V134H624.015ZM655.215 134H660.215V129H655.215V134ZM655.215 151V156H660.215V151H655.215ZM624.015 151H619.015V156H624.015V151ZM625.615 160.2H620.615V165.2H625.615V160.2ZM660.615 160.2H665.615V155.2H660.615V160.2ZM660.615 178V183H665.615V178H660.615ZM602.415 178H597.415V183H602.415V178ZM602.415 108V103H597.415V108H602.415ZM659.315 108H664.315V103H659.315V108ZM659.315 125.8V130.8H664.315V125.8H659.315ZM625.615 125.8V120.8H620.615V125.8H625.615ZM624.015 139H655.215V129H624.015V139ZM650.215 134V151H660.215V134H650.215ZM655.215 146H624.015V156H655.215V146ZM629.015 151V134H619.015V151H629.015ZM625.615 165.2H660.615V155.2H625.615V165.2ZM655.615 160.2V178H665.615V160.2H655.615ZM660.615 173H602.415V183H660.615V173ZM607.415 178V108H597.415V178H607.415ZM602.415 113H659.315V103H602.415V113ZM654.315 108V125.8H664.315V108H654.315ZM659.315 120.8H625.615V130.8H659.315V120.8ZM620.615 125.8V160.2H630.615V125.8H620.615Z" fill="#4A8164" mask="url(#path-1-outside-1_2178_1533)"/>
<path d="M230.744 76.6C225.144 76.6 219.944 75.7333 215.144 74C210.41 72.2 206.277 69.6667 202.744 66.4C199.277 63.1333 196.577 59.2667 194.644 54.8C192.71 50.3333 191.744 45.4 191.744 40C191.744 34.6 192.71 29.6667 194.644 25.2C196.577 20.7333 199.277 16.8667 202.744 13.6C206.277 10.3333 210.41 7.83333 215.144 6.1C219.944 4.3 225.144 3.4 230.744 3.4C237.61 3.4 243.677 4.6 248.944 7C254.277 9.4 258.677 12.8667 262.144 17.4L247.244 30.7C245.177 28.1 242.877 26.1 240.344 24.7C237.877 23.2333 235.077 22.5 231.944 22.5C229.477 22.5 227.244 22.9 225.244 23.7C223.244 24.5 221.51 25.6667 220.044 27.2C218.644 28.7333 217.544 30.6 216.744 32.8C215.944 34.9333 215.544 37.3333 215.544 40C215.544 42.6667 215.944 45.1 216.744 47.3C217.544 49.4333 218.644 51.2667 220.044 52.8C221.51 54.3333 223.244 55.5 225.244 56.3C227.244 57.1 229.477 57.5 231.944 57.5C235.077 57.5 237.877 56.8 240.344 55.4C242.877 53.9333 245.177 51.9 247.244 49.3L262.144 62.6C258.677 67.0667 254.277 70.5333 248.944 73C243.677 75.4 237.61 76.6 230.744 76.6ZM258.881 75L289.481 5H312.681L343.281 75H318.881L296.281 16.2H305.481L282.881 75H258.881ZM277.081 62.8L283.081 45.8H315.281L321.281 62.8H277.081ZM345.548 75V5H364.948L392.948 50.7H382.748L409.948 5H429.348L429.548 75H408.048L407.848 37.4H411.248L392.648 68.7H382.248L362.848 37.4H367.048V75H345.548ZM439.458 75V5H473.158C479.691 5 485.324 6.06666 490.058 8.2C494.858 10.3333 498.558 13.4 501.158 17.4C503.758 21.3333 505.058 26 505.058 31.4C505.058 36.8 503.758 41.4667 501.158 45.4C498.558 49.3333 494.858 52.4 490.058 54.6C485.324 56.7333 479.691 57.8 473.158 57.8H452.558L463.058 47.7V75H439.458ZM463.058 50.3L452.558 39.6H471.658C474.924 39.6 477.324 38.8667 478.858 37.4C480.458 35.9333 481.258 33.9333 481.258 31.4C481.258 28.8667 480.458 26.8667 478.858 25.4C477.324 23.9333 474.924 23.2 471.658 23.2H452.558L463.058 12.5V50.3ZM532.898 31H564.098V48H532.898V31ZM534.498 57.2H569.498V75H511.298V5H568.198V22.8H534.498V57.2ZM577.083 75V5H611.583C619.383 5 626.249 6.43333 632.183 9.3C638.116 12.1 642.749 16.1 646.083 21.3C649.416 26.5 651.083 32.7 651.083 39.9C651.083 47.1667 649.416 53.4333 646.083 58.7C642.749 63.9 638.116 67.9333 632.183 70.8C626.249 73.6 619.383 75 611.583 75H577.083ZM600.683 56.6H610.583C613.916 56.6 616.816 55.9667 619.283 54.7C621.816 53.4333 623.783 51.5667 625.183 49.1C626.583 46.5667 627.283 43.5 627.283 39.9C627.283 36.3667 626.583 33.3667 625.183 30.9C623.783 28.4333 621.816 26.5667 619.283 25.3C616.816 24.0333 613.916 23.4 610.583 23.4H600.683V56.6ZM42.2125 172.6C36.6125 172.6 31.4125 171.733 26.6125 170C21.8792 168.2 17.7458 165.667 14.2125 162.4C10.7458 159.133 8.04583 155.267 6.1125 150.8C4.17917 146.333 3.2125 141.4 3.2125 136C3.2125 130.6 4.17917 125.667 6.1125 121.2C8.04583 116.733 10.7458 112.867 14.2125 109.6C17.7458 106.333 21.8792 103.833 26.6125 102.1C31.4125 100.3 36.6125 99.4 42.2125 99.4C49.0792 99.4 55.1458 100.6 60.4125 103C65.7458 105.4 70.1458 108.867 73.6125 113.4L58.7125 126.7C56.6458 124.1 54.3458 122.1 51.8125 120.7C49.3458 119.233 46.5458 118.5 43.4125 118.5C40.9458 118.5 38.7125 118.9 36.7125 119.7C34.7125 120.5 32.9792 121.667 31.5125 123.2C30.1125 124.733 29.0125 126.6 28.2125 128.8C27.4125 130.933 27.0125 133.333 27.0125 136C27.0125 138.667 27.4125 141.1 28.2125 143.3C29.0125 145.433 30.1125 147.267 31.5125 148.8C32.9792 150.333 34.7125 151.5 36.7125 152.3C38.7125 153.1 40.9458 153.5 43.4125 153.5C46.5458 153.5 49.3458 152.8 51.8125 151.4C54.3458 149.933 56.6458 147.9 58.7125 145.3L73.6125 158.6C70.1458 163.067 65.7458 166.533 60.4125 169C55.1458 171.4 49.0792 172.6 42.2125 172.6ZM114.162 172.6C108.495 172.6 103.228 171.7 98.3617 169.9C93.5617 168.1 89.3951 165.567 85.8617 162.3C82.3284 158.967 79.5617 155.067 77.5617 150.6C75.6284 146.133 74.6617 141.267 74.6617 136C74.6617 130.667 75.6284 125.8 77.5617 121.4C79.5617 116.933 82.3284 113.067 85.8617 109.8C89.3951 106.467 93.5617 103.9 98.3617 102.1C103.228 100.3 108.495 99.4 114.162 99.4C119.895 99.4 125.162 100.3 129.962 102.1C134.762 103.9 138.928 106.467 142.462 109.8C145.995 113.067 148.728 116.933 150.662 121.4C152.662 125.8 153.662 130.667 153.662 136C153.662 141.267 152.662 146.133 150.662 150.6C148.728 155.067 145.995 158.967 142.462 162.3C138.928 165.567 134.762 168.1 129.962 169.9C125.162 171.7 119.895 172.6 114.162 172.6ZM114.162 153.5C116.362 153.5 118.395 153.1 120.262 152.3C122.195 151.5 123.862 150.367 125.262 148.9C126.728 147.367 127.862 145.533 128.662 143.4C129.462 141.2 129.862 138.733 129.862 136C129.862 133.267 129.462 130.833 128.662 128.7C127.862 126.5 126.728 124.667 125.262 123.2C123.862 121.667 122.195 120.5 120.262 119.7C118.395 118.9 116.362 118.5 114.162 118.5C111.962 118.5 109.895 118.9 107.962 119.7C106.095 120.5 104.428 121.667 102.962 123.2C101.562 124.667 100.462 126.5 99.6617 128.7C98.8617 130.833 98.4617 133.267 98.4617 136C98.4617 138.733 98.8617 141.2 99.6617 143.4C100.462 145.533 101.562 147.367 102.962 148.9C104.428 150.367 106.095 151.5 107.962 152.3C109.895 153.1 111.962 153.5 114.162 153.5ZM160.727 171V101H184.327V152.7H215.927V171H160.727ZM220.946 171V101H244.546V152.7H276.146V171H220.946ZM302.765 127H333.965V144H302.765V127ZM304.365 153.2H339.365V171H281.165V101H338.065V118.8H304.365V153.2ZM383.15 172.6C377.55 172.6 372.35 171.733 367.55 170C362.817 168.2 358.683 165.667 355.15 162.4C351.683 159.133 348.983 155.267 347.05 150.8C345.117 146.333 344.15 141.4 344.15 136C344.15 130.6 345.117 125.667 347.05 121.2C348.983 116.733 351.683 112.867 355.15 109.6C358.683 106.333 362.817 103.833 367.55 102.1C372.35 100.3 377.55 99.4 383.15 99.4C390.017 99.4 396.083 100.6 401.35 103C406.683 105.4 411.083 108.867 414.55 113.4L399.65 126.7C397.583 124.1 395.283 122.1 392.75 120.7C390.283 119.233 387.483 118.5 384.35 118.5C381.883 118.5 379.65 118.9 377.65 119.7C375.65 120.5 373.917 121.667 372.45 123.2C371.05 124.733 369.95 126.6 369.15 128.8C368.35 130.933 367.95 133.333 367.95 136C367.95 138.667 368.35 141.1 369.15 143.3C369.95 145.433 371.05 147.267 372.45 148.8C373.917 150.333 375.65 151.5 377.65 152.3C379.65 153.1 381.883 153.5 384.35 153.5C387.483 153.5 390.283 152.8 392.75 151.4C395.283 149.933 397.583 147.9 399.65 145.3L414.55 158.6C411.083 163.067 406.683 166.533 401.35 169C396.083 171.4 390.017 172.6 383.15 172.6ZM434.576 171V119.3H414.076V101H478.676V119.3H458.176V171H434.576ZM483.305 171V101H506.905V171H483.305ZM538.766 171L509.166 101H534.566L558.666 160.1H543.566L568.366 101H591.566L561.966 171H538.766ZM614.015 127H645.215V144H614.015V127ZM615.615 153.2H650.615V171H592.415V101H649.315V118.8H615.615V153.2Z" fill="#223B2E"/>
</svg>
