<svg width="667" height="185" viewBox="0 0 667 185" fill="none" xmlns="http://www.w3.org/2000/svg">
<mask id="path-1-outside-1_2178_1533" maskUnits="userSpaceOnUse" x="7" y="5" width="659" height="180" fill="black">
<rect fill="white" x="7" y="5" width="659" height="180"/>
<path d="M51.9 83.6C46.3 83.6 41.1 82.7333 36.3 81C31.5667 79.2 27.4333 76.6667 23.9 73.4C20.4333 70.1333 17.7333 66.2667 15.8 61.8C13.8667 57.3333 12.9 52.4 12.9 47C12.9 41.6 13.8667 36.6667 15.8 32.2C17.7333 27.7333 20.4333 23.8667 23.9 20.6C27.4333 17.3333 31.5667 14.8333 36.3 13.1C41.1 11.3 46.3 10.4 51.9 10.4C58.7667 10.4 64.8333 11.6 70.1 14C75.4333 16.4 79.8333 19.8667 83.3 24.4L68.4 37.7C66.3333 35.1 64.0333 33.1 61.5 31.7C59.0333 30.2333 56.2333 29.5 53.1 29.5C50.6333 29.5 48.4 29.9 46.4 30.7C44.4 31.5 42.6667 32.6667 41.2 34.2C39.8 35.7333 38.7 37.6 37.9 39.8C37.1 41.9333 36.7 44.3333 36.7 47C36.7 49.6667 37.1 52.1 37.9 54.3C38.7 56.4333 39.8 58.2667 41.2 59.8C42.6667 61.3333 44.4 62.5 46.4 63.3C48.4 64.1 50.6333 64.5 53.1 64.5C56.2333 64.5 59.0333 63.8 61.5 62.4C64.0333 60.9333 66.3333 58.9 68.4 56.3L83.3 69.6C79.8333 74.0667 75.4333 77.5333 70.1 80C64.8333 82.4 58.7667 83.6 51.9 83.6ZM80.0375 82L110.638 12H133.838L164.438 82H140.038L117.438 23.2H126.638L104.038 82H80.0375ZM98.2375 69.8L104.238 52.8H136.438L142.438 69.8H98.2375ZM166.704 82V12H186.104L214.104 57.7H203.904L231.104 12H250.504L250.704 82H229.204L229.004 44.4H232.404L213.804 75.7H203.404L184.004 44.4H188.204V82H166.704ZM260.614 82V12H294.314C300.847 12 306.481 13.0667 311.214 15.2C316.014 17.3333 319.714 20.4 322.314 24.4C324.914 28.3333 326.214 33 326.214 38.4C326.214 43.8 324.914 48.4667 322.314 52.4C319.714 56.3333 316.014 59.4 311.214 61.6C306.481 63.7333 300.847 64.8 294.314 64.8H273.714L284.214 54.7V82H260.614ZM284.214 57.3L273.714 46.6H292.814C296.081 46.6 298.481 45.8667 300.014 44.4C301.614 42.9333 302.414 40.9333 302.414 38.4C302.414 35.8667 301.614 33.8667 300.014 32.4C298.481 30.9333 296.081 30.2 292.814 30.2H273.714L284.214 19.5V57.3ZM354.054 38H385.254V55H354.054V38ZM355.654 64.2H390.654V82H332.454V12H389.354V29.8H355.654V64.2ZM398.239 82V12H432.739C440.539 12 447.406 13.4333 453.339 16.3C459.272 19.1 463.906 23.1 467.239 28.3C470.572 33.5 472.239 39.7 472.239 46.9C472.239 54.1667 470.572 60.4333 467.239 65.7C463.906 70.9 459.272 74.9333 453.339 77.8C447.406 80.6 440.539 82 432.739 82H398.239ZM421.839 63.6H431.739C435.072 63.6 437.972 62.9667 440.439 61.7C442.972 60.4333 444.939 58.5667 446.339 56.1C447.739 53.5667 448.439 50.5 448.439 46.9C448.439 43.3667 447.739 40.3667 446.339 37.9C444.939 35.4333 442.972 33.5667 440.439 32.3C437.972 31.0333 435.072 30.4 431.739 30.4H421.839V63.6ZM51.9 179.6C46.3 179.6 41.1 178.733 36.3 177C31.5667 175.2 27.4333 172.667 23.9 169.4C20.4333 166.133 17.7333 162.267 15.8 157.8C13.8667 153.333 12.9 148.4 12.9 143C12.9 137.6 13.8667 132.667 15.8 128.2C17.7333 123.733 20.4333 119.867 23.9 116.6C27.4333 113.333 31.5667 110.833 36.3 109.1C41.1 107.3 46.3 106.4 51.9 106.4C58.7667 106.4 64.8333 107.6 70.1 110C75.4333 112.4 79.8333 115.867 83.3 120.4L68.4 133.7C66.3333 131.1 64.0333 129.1 61.5 127.7C59.0333 126.233 56.2333 125.5 53.1 125.5C50.6333 125.5 48.4 125.9 46.4 126.7C44.4 127.5 42.6667 128.667 41.2 130.2C39.8 131.733 38.7 133.6 37.9 135.8C37.1 137.933 36.7 140.333 36.7 143C36.7 145.667 37.1 148.1 37.9 150.3C38.7 152.433 39.8 154.267 41.2 155.8C42.6667 157.333 44.4 158.5 46.4 159.3C48.4 160.1 50.6333 160.5 53.1 160.5C56.2333 160.5 59.0333 159.8 61.5 158.4C64.0333 156.933 66.3333 154.9 68.4 152.3L83.3 165.6C79.8333 170.067 75.4333 173.533 70.1 176C64.8333 178.4 58.7667 179.6 51.9 179.6ZM123.849 179.6C118.183 179.6 112.916 178.7 108.049 176.9C103.249 175.1 99.0826 172.567 95.5492 169.3C92.0159 165.967 89.2492 162.067 87.2492 157.6C85.3159 153.133 84.3492 148.267 84.3492 143C84.3492 137.667 85.3159 132.8 87.2492 128.4C89.2492 123.933 92.0159 120.067 95.5492 116.8C99.0826 113.467 103.249 110.9 108.049 109.1C112.916 107.3 118.183 106.4 123.849 106.4C129.583 106.4 134.849 107.3 139.649 109.1C144.449 110.9 148.616 113.467 152.149 116.8C155.683 120.067 158.416 123.933 160.349 128.4C162.349 132.8 163.349 137.667 163.349 143C163.349 148.267 162.349 153.133 160.349 157.6C158.416 162.067 155.683 165.967 152.149 169.3C148.616 172.567 144.449 175.1 139.649 176.9C134.849 178.7 129.583 179.6 123.849 179.6ZM123.849 160.5C126.049 160.5 128.083 160.1 129.949 159.3C131.883 158.5 133.549 157.367 134.949 155.9C136.416 154.367 137.549 152.533 138.349 150.4C139.149 148.2 139.549 145.733 139.549 143C139.549 140.267 139.149 137.833 138.349 135.7C137.549 133.5 136.416 131.667 134.949 130.2C133.549 128.667 131.883 127.5 129.949 126.7C128.083 125.9 126.049 125.5 123.849 125.5C121.649 125.5 119.583 125.9 117.649 126.7C115.783 127.5 114.116 128.667 112.649 130.2C111.249 131.667 110.149 133.5 109.349 135.7C108.549 137.833 108.149 140.267 108.149 143C108.149 145.733 108.549 148.2 109.349 150.4C110.149 152.533 111.249 154.367 112.649 155.9C114.116 157.367 115.783 158.5 117.649 159.3C119.583 160.1 121.649 160.5 123.849 160.5ZM170.415 178V108H194.015V159.7H225.615V178H170.415ZM230.634 178V108H254.234V159.7H285.834V178H230.634ZM312.452 134H343.652V151H312.452V134ZM314.052 160.2H349.052V178H290.852V108H347.752V125.8H314.052V160.2ZM392.838 179.6C387.238 179.6 382.038 178.733 377.238 177C372.504 175.2 368.371 172.667 364.838 169.4C361.371 166.133 358.671 162.267 356.738 157.8C354.804 153.333 353.838 148.4 353.838 143C353.838 137.6 354.804 132.667 356.738 128.2C358.671 123.733 361.371 119.867 364.838 116.6C368.371 113.333 372.504 110.833 377.238 109.1C382.038 107.3 387.238 106.4 392.838 106.4C399.704 106.4 405.771 107.6 411.038 110C416.371 112.4 420.771 115.867 424.238 120.4L409.338 133.7C407.271 131.1 404.971 129.1 402.438 127.7C399.971 126.233 397.171 125.5 394.038 125.5C391.571 125.5 389.338 125.9 387.338 126.7C385.338 127.5 383.604 128.667 382.138 130.2C380.738 131.733 379.638 133.6 378.838 135.8C378.038 137.933 377.638 140.333 377.638 143C377.638 145.667 378.038 148.1 378.838 150.3C379.638 152.433 380.738 154.267 382.138 155.8C383.604 157.333 385.338 158.5 387.338 159.3C389.338 160.1 391.571 160.5 394.038 160.5C397.171 160.5 399.971 159.8 402.438 158.4C404.971 156.933 407.271 154.9 409.338 152.3L424.238 165.6C420.771 170.067 416.371 173.533 411.038 176C405.771 178.4 399.704 179.6 392.838 179.6ZM444.263 178V126.3H423.763V108H488.363V126.3H467.863V178H444.263ZM492.993 178V108H516.593V178H492.993ZM548.454 178L518.854 108H544.254L568.354 167.1H553.254L578.054 108H601.254L571.654 178H548.454ZM623.702 134H654.902V151H623.702V134ZM625.302 160.2H660.302V178H602.102V108H659.002V125.8H625.302V160.2Z"/>
</mask>
<path d="M36.3 81L34.5228 85.6735L34.5621 85.6885L34.6018 85.7028L36.3 81ZM23.9 73.4L20.471 77.0389L20.4883 77.0552L20.5057 77.0714L23.9 73.4ZM15.8 61.8L11.2114 63.7861L11.2114 63.7861L15.8 61.8ZM15.8 32.2L11.2114 30.2139L11.2114 30.2139L15.8 32.2ZM23.9 20.6L20.5057 16.9286L20.4883 16.9448L20.471 16.9611L23.9 20.6ZM36.3 13.1L38.0193 17.7951L38.0375 17.7884L38.0556 17.7816L36.3 13.1ZM70.1 14L68.0266 18.5499L68.0374 18.5548L68.0482 18.5596L70.1 14ZM83.3 24.4L86.6296 28.1301L90.0869 25.0441L87.2718 21.3627L83.3 24.4ZM68.4 37.7L64.4859 40.8112L67.7801 44.9555L71.7296 41.4301L68.4 37.7ZM61.5 31.7L58.9446 35.9977L59.0125 36.038L59.0816 36.0762L61.5 31.7ZM46.4 30.7L48.257 35.3424L48.257 35.3424L46.4 30.7ZM41.2 34.2L37.5868 30.7439L37.5467 30.7858L37.5076 30.8287L41.2 34.2ZM37.9 39.8L42.5816 41.5556L42.5904 41.5322L42.599 41.5087L37.9 39.8ZM37.9 54.3L33.201 56.0087L33.2096 56.0322L33.2184 56.0556L37.9 54.3ZM41.2 59.8L37.5076 63.1713L37.5467 63.2142L37.5868 63.2561L41.2 59.8ZM46.4 63.3L44.543 67.9424L44.543 67.9424L46.4 63.3ZM61.5 62.4L63.968 66.7484L63.9867 66.7379L64.0052 66.7271L61.5 62.4ZM68.4 56.3L71.7296 52.5699L67.7801 49.0445L64.4859 53.1888L68.4 56.3ZM83.3 69.6L87.2499 72.6656L90.1118 68.9782L86.6296 65.8699L83.3 69.6ZM70.1 80L72.1734 84.5499L72.1861 84.544L72.1989 84.5381L70.1 80ZM51.9 83.6V78.6C46.8228 78.6 42.2031 77.8157 37.9982 76.2972L36.3 81L34.6018 85.7028C39.9969 87.651 45.7772 88.6 51.9 88.6V83.6ZM36.3 81L38.0772 76.3265C33.9103 74.7419 30.3334 72.5384 27.2943 69.7286L23.9 73.4L20.5057 77.0714C24.5333 80.795 29.223 83.6581 34.5228 85.6735L36.3 81ZM23.9 73.4L27.329 69.7611C24.3682 66.9711 22.0579 63.6704 20.3886 59.8139L15.8 61.8L11.2114 63.7861C13.4088 68.8629 16.4985 73.2956 20.471 77.0389L23.9 73.4ZM15.8 61.8L20.3886 59.8139C18.755 56.0396 17.9 51.7919 17.9 47H12.9H7.9C7.9 53.0081 8.97836 58.627 11.2114 63.7861L15.8 61.8ZM12.9 47H17.9C17.9 42.2081 18.755 37.9604 20.3886 34.1861L15.8 32.2L11.2114 30.2139C8.97836 35.373 7.9 40.9919 7.9 47H12.9ZM15.8 32.2L20.3886 34.1861C22.0579 30.3296 24.3682 27.0289 27.329 24.2389L23.9 20.6L20.471 16.9611C16.4985 20.7044 13.4088 25.1371 11.2114 30.2139L15.8 32.2ZM23.9 20.6L27.2943 24.2714C30.3195 21.4745 33.8765 19.3122 38.0193 17.7951L36.3 13.1L34.5807 8.4049C29.2569 10.3545 24.5472 13.1922 20.5057 16.9286L23.9 20.6ZM36.3 13.1L38.0556 17.7816C42.2446 16.2108 46.8441 15.4 51.9 15.4V10.4V5.4C45.7559 5.4 39.9554 6.38921 34.5444 8.41835L36.3 13.1ZM51.9 10.4V15.4C58.1829 15.4 63.5209 16.4966 68.0266 18.5499L70.1 14L72.1734 9.45014C66.1457 6.70338 59.3504 5.4 51.9 5.4V10.4ZM70.1 14L68.0482 18.5596C72.6447 20.628 76.3782 23.5796 79.3282 27.4372L83.3 24.4L87.2718 21.3627C83.2885 16.1538 78.222 12.172 72.1518 9.44039L70.1 14ZM83.3 24.4L79.9704 20.6699L65.0704 33.9699L68.4 37.7L71.7296 41.4301L86.6296 28.1301L83.3 24.4ZM68.4 37.7L72.3141 34.5888C69.8972 31.5481 67.1077 29.0863 63.9184 27.3238L61.5 31.7L59.0816 36.0762C60.959 37.1137 62.7695 38.6519 64.4859 40.8112L68.4 37.7ZM61.5 31.7L64.0554 27.4023C60.7455 25.4343 57.0475 24.5 53.1 24.5V29.5V34.5C55.4191 34.5 57.3212 35.0324 58.9446 35.9977L61.5 31.7ZM53.1 29.5V24.5C50.0887 24.5 47.213 24.9896 44.543 26.0576L46.4 30.7L48.257 35.3424C49.587 34.8104 51.178 34.5 53.1 34.5V29.5ZM46.4 30.7L44.5431 26.0576C41.89 27.1188 39.5551 28.6861 37.5868 30.7439L41.2 34.2L44.8132 37.6561C45.7783 36.6472 46.91 35.8812 48.257 35.3424L46.4 30.7ZM41.2 34.2L37.5076 30.8287C35.6138 32.9028 34.1962 35.3546 33.201 38.0913L37.9 39.8L42.599 41.5087C43.2038 39.8454 43.9862 38.5639 44.8924 37.5713L41.2 34.2ZM37.9 39.8L33.2184 38.0444C32.1753 40.8259 31.7 43.834 31.7 47H36.7H41.7C41.7 44.8326 42.0247 43.0408 42.5816 41.5556L37.9 39.8ZM36.7 47H31.7C31.7 50.1693 32.1762 53.1905 33.201 56.0087L37.9 54.3L42.599 52.5913C42.0238 51.0095 41.7 49.164 41.7 47H36.7ZM37.9 54.3L33.2184 56.0556C34.2203 58.7274 35.6378 61.1235 37.5076 63.1713L41.2 59.8L44.8924 56.4287C43.9622 55.4098 43.1797 54.1393 42.5816 52.5444L37.9 54.3ZM41.2 59.8L37.5868 63.2561C39.5551 65.3138 41.89 66.8812 44.543 67.9424L46.4 63.3L48.257 58.6576C46.91 58.1188 45.7783 57.3528 44.8132 56.3439L41.2 59.8ZM46.4 63.3L44.543 67.9424C47.213 69.0104 50.0887 69.5 53.1 69.5V64.5V59.5C51.178 59.5 49.587 59.1896 48.257 58.6576L46.4 63.3ZM53.1 64.5V69.5C57.0057 69.5 60.6721 68.6191 63.968 66.7484L61.5 62.4L59.032 58.0516C57.3946 58.9809 55.461 59.5 53.1 59.5V64.5ZM61.5 62.4L64.0052 66.7271C67.148 64.9076 69.9101 62.4357 72.3141 59.4112L68.4 56.3L64.4859 53.1888C62.7566 55.3643 60.9186 56.9591 58.9948 58.0729L61.5 62.4ZM68.4 56.3L65.0704 60.0301L79.9704 73.3301L83.3 69.6L86.6296 65.8699L71.7296 52.5699L68.4 56.3ZM83.3 69.6L79.3501 66.5344C76.3933 70.3441 72.638 73.3173 68.0011 75.4619L70.1 80L72.1989 84.5381C78.2287 81.7494 83.2734 77.7893 87.2499 72.6656L83.3 69.6ZM70.1 80L68.0266 75.4501C63.5209 77.5034 58.1829 78.6 51.9 78.6V83.6V88.6C59.3504 88.6 66.1457 87.2966 72.1734 84.5499L70.1 80ZM80.0375 82L75.4561 79.9973L72.3949 87H80.0375V82ZM110.638 12V7H107.366L106.056 9.99727L110.638 12ZM133.838 12L138.419 9.99727L137.109 7H133.838V12ZM164.438 82V87H172.08L169.019 79.9973L164.438 82ZM140.038 82L135.37 83.7938L136.603 87H140.038V82ZM117.438 23.2V18.2H110.159L112.77 24.9938L117.438 23.2ZM126.638 23.2L131.305 24.9938L133.916 18.2H126.638V23.2ZM104.038 82V87H107.472L108.705 83.7938L104.038 82ZM98.2375 69.8L93.5225 68.1359L91.1705 74.8H98.2375V69.8ZM104.238 52.8V47.8H100.7L99.5225 51.1359L104.238 52.8ZM136.438 52.8L141.152 51.1359L139.975 47.8H136.438V52.8ZM142.438 69.8V74.8H149.504L147.152 68.1359L142.438 69.8ZM80.0375 82L84.6189 84.0027L115.219 14.0027L110.638 12L106.056 9.99727L75.4561 79.9973L80.0375 82ZM110.638 12V17H133.838V12V7H110.638V12ZM133.838 12L129.256 14.0027L159.856 84.0027L164.438 82L169.019 79.9973L138.419 9.99727L133.838 12ZM164.438 82V77H140.038V82V87H164.438V82ZM140.038 82L144.705 80.2062L122.105 21.4062L117.438 23.2L112.77 24.9938L135.37 83.7938L140.038 82ZM117.438 23.2V28.2H126.638V23.2V18.2H117.438V23.2ZM126.638 23.2L121.97 21.4062L99.3704 80.2062L104.038 82L108.705 83.7938L131.305 24.9938L126.638 23.2ZM104.038 82V77H80.0375V82V87H104.038V82ZM98.2375 69.8L102.952 71.4641L108.952 54.4641L104.238 52.8L99.5225 51.1359L93.5225 68.1359L98.2375 69.8ZM104.238 52.8V57.8H136.438V52.8V47.8H104.238V52.8ZM136.438 52.8L131.723 54.4641L137.723 71.4641L142.438 69.8L147.152 68.1359L141.152 51.1359L136.438 52.8ZM142.438 69.8V64.8H98.2375V69.8V74.8H142.438V69.8ZM166.704 82H161.704V87H166.704V82ZM166.704 12V7H161.704V12H166.704ZM186.104 12L190.367 9.38784L188.904 7H186.104V12ZM214.104 57.7V62.7H223.031L218.367 55.0878L214.104 57.7ZM203.904 57.7L199.607 55.1427L195.109 62.7H203.904V57.7ZM231.104 12V7H228.261L226.807 9.44274L231.104 12ZM250.504 12L255.504 11.9857L255.49 7H250.504V12ZM250.704 82V87H255.718L255.704 81.9857L250.704 82ZM229.204 82L224.204 82.0266L224.23 87H229.204V82ZM229.004 44.4V39.4H223.977L224.004 44.4266L229.004 44.4ZM232.404 44.4L236.702 46.9543L241.191 39.4H232.404V44.4ZM213.804 75.7V80.7H216.649L218.102 78.2543L213.804 75.7ZM203.404 75.7L199.154 78.3341L200.62 80.7H203.404V75.7ZM184.004 44.4V39.4H175.022L179.754 47.0341L184.004 44.4ZM188.204 44.4H193.204V39.4H188.204V44.4ZM188.204 82V87H193.204V82H188.204ZM166.704 82H171.704V12H166.704H161.704V82H166.704ZM166.704 12V17H186.104V12V7H166.704V12ZM186.104 12L181.84 14.6121L209.84 60.3122L214.104 57.7L218.367 55.0878L190.367 9.38784L186.104 12ZM214.104 57.7V52.7H203.904V57.7V62.7H214.104V57.7ZM203.904 57.7L208.2 60.2573L235.4 14.5572L231.104 12L226.807 9.44274L199.607 55.1427L203.904 57.7ZM231.104 12V17H250.504V12V7H231.104V12ZM250.504 12L245.504 12.0143L245.704 82.0143L250.704 82L255.704 81.9857L255.504 11.9857L250.504 12ZM250.704 82V77H229.204V82V87H250.704V82ZM229.204 82L234.204 81.9734L234.004 44.3734L229.004 44.4L224.004 44.4266L224.204 82.0266L229.204 82ZM229.004 44.4V49.4H232.404V44.4V39.4H229.004V44.4ZM232.404 44.4L228.106 41.8457L209.506 73.1457L213.804 75.7L218.102 78.2543L236.702 46.9543L232.404 44.4ZM213.804 75.7V70.7H203.404V75.7V80.7H213.804V75.7ZM203.404 75.7L207.654 73.0659L188.254 41.7659L184.004 44.4L179.754 47.0341L199.154 78.3341L203.404 75.7ZM184.004 44.4V49.4H188.204V44.4V39.4H184.004V44.4ZM188.204 44.4H183.204V82H188.204H193.204V44.4H188.204ZM188.204 82V77H166.704V82V87H188.204V82ZM260.614 82H255.614V87H260.614V82ZM260.614 12V7H255.614V12H260.614ZM311.214 15.2L309.16 19.7584L309.171 19.7638L309.183 19.7691L311.214 15.2ZM322.314 24.4L318.122 27.1249L318.132 27.1411L318.143 27.1572L322.314 24.4ZM322.314 52.4L318.143 49.6428L318.143 49.6428L322.314 52.4ZM311.214 61.6L313.269 66.1584L313.283 66.1519L313.297 66.1453L311.214 61.6ZM273.714 64.8L270.248 61.1965L261.304 69.8H273.714V64.8ZM284.214 54.7H289.214V42.9528L280.748 51.0965L284.214 54.7ZM284.214 82V87H289.214V82H284.214ZM284.214 57.3L280.645 60.802L289.214 69.534V57.3H284.214ZM273.714 46.6V41.6H261.802L270.145 50.102L273.714 46.6ZM300.014 44.4L296.635 40.7142L296.596 40.7501L296.558 40.7868L300.014 44.4ZM300.014 32.4L296.558 36.0132L296.596 36.0499L296.635 36.0858L300.014 32.4ZM273.714 30.2L270.145 26.698L261.802 35.2H273.714V30.2ZM284.214 19.5H289.214V7.26603L280.645 15.998L284.214 19.5ZM260.614 82H265.614V12H260.614H255.614V82H260.614ZM260.614 12V17H294.314V12V7H260.614V12ZM294.314 12V17C300.316 17 305.216 17.9811 309.16 19.7584L311.214 15.2L313.269 10.6416C307.745 8.15224 301.379 7 294.314 7V12ZM311.214 15.2L309.183 19.7691C313.192 21.5508 316.102 24.0168 318.122 27.1249L322.314 24.4L326.506 21.6751C323.327 16.7832 318.836 13.1158 313.245 10.6309L311.214 15.2ZM322.314 24.4L318.143 27.1572C320.127 30.1584 321.214 33.8339 321.214 38.4H326.214H331.214C331.214 32.1661 329.701 26.5083 326.485 21.6428L322.314 24.4ZM326.214 38.4H321.214C321.214 42.9661 320.127 46.6416 318.143 49.6428L322.314 52.4L326.485 55.1572C329.701 50.2917 331.214 44.6339 331.214 38.4H326.214ZM322.314 52.4L318.143 49.6428C316.118 52.7059 313.186 55.1959 309.131 57.0547L311.214 61.6L313.297 66.1453C318.842 63.6041 323.31 59.9608 326.485 55.1572L322.314 52.4ZM311.214 61.6L309.16 57.0416C305.216 58.8189 300.316 59.8 294.314 59.8V64.8V69.8C301.379 69.8 307.745 68.6478 313.269 66.1584L311.214 61.6ZM294.314 64.8V59.8H273.714V64.8V69.8H294.314V64.8ZM273.714 64.8L277.18 68.4035L287.68 58.3035L284.214 54.7L280.748 51.0965L270.248 61.1965L273.714 64.8ZM284.214 54.7H279.214V82H284.214H289.214V54.7H284.214ZM284.214 82V77H260.614V82V87H284.214V82ZM284.214 57.3L287.783 53.798L277.283 43.098L273.714 46.6L270.145 50.102L280.645 60.802L284.214 57.3ZM273.714 46.6V51.6H292.814V46.6V41.6H273.714V46.6ZM292.814 46.6V51.6C296.693 51.6 300.612 50.747 303.47 48.0132L300.014 44.4L296.558 40.7868C296.349 40.9864 295.468 41.6 292.814 41.6V46.6ZM300.014 44.4L303.393 48.0858C306.201 45.5116 307.414 42.0784 307.414 38.4H302.414H297.414C297.414 39.7883 297.027 40.3551 296.635 40.7142L300.014 44.4ZM302.414 38.4H307.414C307.414 34.7216 306.201 31.2884 303.393 28.7142L300.014 32.4L296.635 36.0858C297.027 36.4449 297.414 37.0117 297.414 38.4H302.414ZM300.014 32.4L303.47 28.7868C300.612 26.053 296.693 25.2 292.814 25.2V30.2V35.2C295.468 35.2 296.349 35.8136 296.558 36.0132L300.014 32.4ZM292.814 30.2V25.2H273.714V30.2V35.2H292.814V30.2ZM273.714 30.2L277.283 33.702L287.783 23.002L284.214 19.5L280.645 15.998L270.145 26.698L273.714 30.2ZM284.214 19.5H279.214V57.3H284.214H289.214V19.5H284.214ZM354.054 38V33H349.054V38H354.054ZM385.254 38H390.254V33H385.254V38ZM385.254 55V60H390.254V55H385.254ZM354.054 55H349.054V60H354.054V55ZM355.654 64.2H350.654V69.2H355.654V64.2ZM390.654 64.2H395.654V59.2H390.654V64.2ZM390.654 82V87H395.654V82H390.654ZM332.454 82H327.454V87H332.454V82ZM332.454 12V7H327.454V12H332.454ZM389.354 12H394.354V7H389.354V12ZM389.354 29.8V34.8H394.354V29.8H389.354ZM355.654 29.8V24.8H350.654V29.8H355.654ZM354.054 38V43H385.254V38V33H354.054V38ZM385.254 38H380.254V55H385.254H390.254V38H385.254ZM385.254 55V50H354.054V55V60H385.254V55ZM354.054 55H359.054V38H354.054H349.054V55H354.054ZM355.654 64.2V69.2H390.654V64.2V59.2H355.654V64.2ZM390.654 64.2H385.654V82H390.654H395.654V64.2H390.654ZM390.654 82V77H332.454V82V87H390.654V82ZM332.454 82H337.454V12H332.454H327.454V82H332.454ZM332.454 12V17H389.354V12V7H332.454V12ZM389.354 12H384.354V29.8H389.354H394.354V12H389.354ZM389.354 29.8V24.8H355.654V29.8V34.8H389.354V29.8ZM355.654 29.8H350.654V64.2H355.654H360.654V29.8H355.654ZM398.239 82H393.239V87H398.239V82ZM398.239 12V7H393.239V12H398.239ZM453.339 16.3L451.164 20.8021L451.185 20.812L451.205 20.8218L453.339 16.3ZM467.239 28.3L463.03 30.9983L463.03 30.9983L467.239 28.3ZM467.239 65.7L471.448 68.3983L471.456 68.3862L471.464 68.374L467.239 65.7ZM453.339 77.8L455.473 82.3218L455.494 82.312L455.514 82.3021L453.339 77.8ZM421.839 63.6H416.839V68.6H421.839V63.6ZM440.439 61.7L438.203 57.2279L438.179 57.2399L438.155 57.2522L440.439 61.7ZM446.339 56.1L450.687 58.568L450.702 58.5433L450.715 58.5184L446.339 56.1ZM446.339 37.9L450.687 35.432L450.687 35.432L446.339 37.9ZM440.439 32.3L438.155 36.7478L438.179 36.7601L438.203 36.7721L440.439 32.3ZM421.839 30.4V25.4H416.839V30.4H421.839ZM398.239 82H403.239V12H398.239H393.239V82H398.239ZM398.239 12V17H432.739V12V7H398.239V12ZM432.739 12V17C439.923 17 446.022 18.318 451.164 20.8021L453.339 16.3L455.514 11.7979C448.789 8.54867 441.155 7 432.739 7V12ZM453.339 16.3L451.205 20.8218C456.344 23.247 460.235 26.6389 463.03 30.9983L467.239 28.3L471.448 25.6017C467.576 19.5611 462.2 14.953 455.473 11.7782L453.339 16.3ZM467.239 28.3L463.03 30.9983C465.766 35.267 467.239 40.4949 467.239 46.9H472.239H477.239C477.239 38.9051 475.379 31.733 471.448 25.6017L467.239 28.3ZM472.239 46.9H467.239C467.239 53.3799 465.762 58.6845 463.014 63.026L467.239 65.7L471.464 68.374C475.383 62.1822 477.239 54.9535 477.239 46.9H472.239ZM467.239 65.7L463.03 63.0017C460.228 67.3716 456.323 70.8051 451.164 73.2979L453.339 77.8L455.514 82.3021C462.221 79.0616 467.583 74.4284 471.448 68.3983L467.239 65.7ZM453.339 77.8L451.205 73.2782C446.053 75.7094 439.939 77 432.739 77V82V87C441.139 87 448.758 85.4906 455.473 82.3218L453.339 77.8ZM432.739 82V77H398.239V82V87H432.739V82ZM421.839 63.6V68.6H431.739V63.6V58.6H421.839V63.6ZM431.739 63.6V68.6C435.708 68.6 439.421 67.8437 442.723 66.1478L440.439 61.7L438.155 57.2522C436.524 58.0896 434.437 58.6 431.739 58.6V63.6ZM440.439 61.7L442.675 66.1721C446.097 64.4611 448.799 61.8962 450.687 58.568L446.339 56.1L441.991 53.632C441.08 55.2371 439.848 56.4055 438.203 57.2279L440.439 61.7ZM446.339 56.1L450.715 58.5184C452.613 55.0851 453.439 51.1426 453.439 46.9H448.439H443.439C443.439 49.8574 442.865 52.0483 441.963 53.6816L446.339 56.1ZM448.439 46.9H453.439C453.439 42.7115 452.607 38.8148 450.687 35.432L446.339 37.9L441.991 40.368C442.871 41.9185 443.439 44.0218 443.439 46.9H448.439ZM446.339 37.9L450.687 35.432C448.799 32.1038 446.097 29.5389 442.675 27.8279L440.439 32.3L438.203 36.7721C439.848 37.5945 441.08 38.7629 441.991 40.368L446.339 37.9ZM440.439 32.3L442.723 27.8522C439.421 26.1563 435.708 25.4 431.739 25.4V30.4V35.4C434.437 35.4 436.524 35.9104 438.155 36.7478L440.439 32.3ZM431.739 30.4V25.4H421.839V30.4V35.4H431.739V30.4ZM421.839 30.4H416.839V63.6H421.839H426.839V30.4H421.839ZM36.3 177L34.5228 181.673L34.5621 181.688L34.6018 181.703L36.3 177ZM23.9 169.4L20.471 173.039L20.4883 173.055L20.5057 173.071L23.9 169.4ZM15.8 157.8L11.2114 159.786L11.2114 159.786L15.8 157.8ZM15.8 128.2L11.2114 126.214L11.2114 126.214L15.8 128.2ZM23.9 116.6L20.5057 112.929L20.4883 112.945L20.471 112.961L23.9 116.6ZM36.3 109.1L38.0193 113.795L38.0375 113.788L38.0556 113.782L36.3 109.1ZM70.1 110L68.0266 114.55L68.0374 114.555L68.0482 114.56L70.1 110ZM83.3 120.4L86.6296 124.13L90.0869 121.044L87.2718 117.363L83.3 120.4ZM68.4 133.7L64.4859 136.811L67.7801 140.956L71.7296 137.43L68.4 133.7ZM61.5 127.7L58.9446 131.998L59.0125 132.038L59.0816 132.076L61.5 127.7ZM46.4 126.7L48.257 131.342L48.257 131.342L46.4 126.7ZM41.2 130.2L37.5868 126.744L37.5467 126.786L37.5076 126.829L41.2 130.2ZM37.9 135.8L42.5816 137.556L42.5904 137.532L42.599 137.509L37.9 135.8ZM37.9 150.3L33.201 152.009L33.2096 152.032L33.2184 152.056L37.9 150.3ZM41.2 155.8L37.5076 159.171L37.5467 159.214L37.5868 159.256L41.2 155.8ZM46.4 159.3L44.543 163.942L44.543 163.942L46.4 159.3ZM61.5 158.4L63.968 162.748L63.9867 162.738L64.0052 162.727L61.5 158.4ZM68.4 152.3L71.7296 148.57L67.7801 145.044L64.4859 149.189L68.4 152.3ZM83.3 165.6L87.2499 168.666L90.1118 164.978L86.6296 161.87L83.3 165.6ZM70.1 176L72.1734 180.55L72.1861 180.544L72.1989 180.538L70.1 176ZM51.9 179.6V174.6C46.8228 174.6 42.2031 173.816 37.9982 172.297L36.3 177L34.6018 181.703C39.9969 183.651 45.7772 184.6 51.9 184.6V179.6ZM36.3 177L38.0772 172.327C33.9103 170.742 30.3334 168.538 27.2943 165.729L23.9 169.4L20.5057 173.071C24.5333 176.795 29.223 179.658 34.5228 181.673L36.3 177ZM23.9 169.4L27.329 165.761C24.3682 162.971 22.0579 159.67 20.3886 155.814L15.8 157.8L11.2114 159.786C13.4088 164.863 16.4985 169.296 20.471 173.039L23.9 169.4ZM15.8 157.8L20.3886 155.814C18.755 152.04 17.9 147.792 17.9 143H12.9H7.9C7.9 149.008 8.97836 154.627 11.2114 159.786L15.8 157.8ZM12.9 143H17.9C17.9 138.208 18.755 133.96 20.3886 130.186L15.8 128.2L11.2114 126.214C8.97836 131.373 7.9 136.992 7.9 143H12.9ZM15.8 128.2L20.3886 130.186C22.0579 126.33 24.3682 123.029 27.329 120.239L23.9 116.6L20.471 112.961C16.4985 116.704 13.4088 121.137 11.2114 126.214L15.8 128.2ZM23.9 116.6L27.2943 120.271C30.3195 117.474 33.8765 115.312 38.0193 113.795L36.3 109.1L34.5807 104.405C29.2569 106.354 24.5472 109.192 20.5057 112.929L23.9 116.6ZM36.3 109.1L38.0556 113.782C42.2446 112.211 46.8441 111.4 51.9 111.4V106.4V101.4C45.7559 101.4 39.9554 102.389 34.5444 104.418L36.3 109.1ZM51.9 106.4V111.4C58.1829 111.4 63.5209 112.497 68.0266 114.55L70.1 110L72.1734 105.45C66.1457 102.703 59.3504 101.4 51.9 101.4V106.4ZM70.1 110L68.0482 114.56C72.6447 116.628 76.3782 119.58 79.3282 123.437L83.3 120.4L87.2718 117.363C83.2885 112.154 78.222 108.172 72.1518 105.44L70.1 110ZM83.3 120.4L79.9704 116.67L65.0704 129.97L68.4 133.7L71.7296 137.43L86.6296 124.13L83.3 120.4ZM68.4 133.7L72.3141 130.589C69.8972 127.548 67.1077 125.086 63.9184 123.324L61.5 127.7L59.0816 132.076C60.959 133.114 62.7695 134.652 64.4859 136.811L68.4 133.7ZM61.5 127.7L64.0554 123.402C60.7455 121.434 57.0475 120.5 53.1 120.5V125.5V130.5C55.4191 130.5 57.3212 131.032 58.9446 131.998L61.5 127.7ZM53.1 125.5V120.5C50.0887 120.5 47.213 120.99 44.543 122.058L46.4 126.7L48.257 131.342C49.587 130.81 51.178 130.5 53.1 130.5V125.5ZM46.4 126.7L44.5431 122.058C41.89 123.119 39.5551 124.686 37.5868 126.744L41.2 130.2L44.8132 133.656C45.7783 132.647 46.91 131.881 48.257 131.342L46.4 126.7ZM41.2 130.2L37.5076 126.829C35.6138 128.903 34.1962 131.355 33.201 134.091L37.9 135.8L42.599 137.509C43.2038 135.845 43.9862 134.564 44.8924 133.571L41.2 130.2ZM37.9 135.8L33.2184 134.044C32.1753 136.826 31.7 139.834 31.7 143H36.7H41.7C41.7 140.833 42.0247 139.041 42.5816 137.556L37.9 135.8ZM36.7 143H31.7C31.7 146.169 32.1762 149.191 33.201 152.009L37.9 150.3L42.599 148.591C42.0238 147.009 41.7 145.164 41.7 143H36.7ZM37.9 150.3L33.2184 152.056C34.2203 154.727 35.6378 157.124 37.5076 159.171L41.2 155.8L44.8924 152.429C43.9622 151.41 43.1797 150.139 42.5816 148.544L37.9 150.3ZM41.2 155.8L37.5868 159.256C39.5551 161.314 41.89 162.881 44.543 163.942L46.4 159.3L48.257 154.658C46.91 154.119 45.7783 153.353 44.8132 152.344L41.2 155.8ZM46.4 159.3L44.543 163.942C47.213 165.01 50.0887 165.5 53.1 165.5V160.5V155.5C51.178 155.5 49.587 155.19 48.257 154.658L46.4 159.3ZM53.1 160.5V165.5C57.0057 165.5 60.6721 164.619 63.968 162.748L61.5 158.4L59.032 154.052C57.3946 154.981 55.461 155.5 53.1 155.5V160.5ZM61.5 158.4L64.0052 162.727C67.148 160.908 69.9101 158.436 72.3141 155.411L68.4 152.3L64.4859 149.189C62.7566 151.364 60.9186 152.959 58.9948 154.073L61.5 158.4ZM68.4 152.3L65.0704 156.03L79.9704 169.33L83.3 165.6L86.6296 161.87L71.7296 148.57L68.4 152.3ZM83.3 165.6L79.3501 162.534C76.3933 166.344 72.638 169.317 68.0011 171.462L70.1 176L72.1989 180.538C78.2287 177.749 83.2734 173.789 87.2499 168.666L83.3 165.6ZM70.1 176L68.0266 171.45C63.5209 173.503 58.1829 174.6 51.9 174.6V179.6V184.6C59.3504 184.6 66.1457 183.297 72.1734 180.55L70.1 176ZM108.049 176.9L106.294 181.582L106.304 181.586L106.315 181.59L108.049 176.9ZM95.5492 169.3L92.1181 172.937L92.1364 172.954L92.1549 172.971L95.5492 169.3ZM87.2492 157.6L82.6606 159.586L82.673 159.615L82.6858 159.643L87.2492 157.6ZM87.2492 128.4L82.6858 126.357L82.6787 126.373L82.6716 126.389L87.2492 128.4ZM95.5492 116.8L98.9435 120.471L98.962 120.454L98.9803 120.437L95.5492 116.8ZM108.049 109.1L106.315 104.41L106.304 104.414L106.294 104.418L108.049 109.1ZM139.649 109.1L137.894 113.782L137.894 113.782L139.649 109.1ZM152.149 116.8L148.718 120.437L148.736 120.454L148.755 120.471L152.149 116.8ZM160.349 128.4L155.761 130.386L155.779 130.428L155.797 130.469L160.349 128.4ZM160.349 157.6L155.786 155.557L155.773 155.585L155.761 155.614L160.349 157.6ZM152.149 169.3L155.543 172.971L155.562 172.954L155.58 172.937L152.149 169.3ZM139.649 176.9L137.894 172.218L137.894 172.218L139.649 176.9ZM129.949 159.3L128.037 154.68L128.008 154.692L127.98 154.704L129.949 159.3ZM134.949 155.9L131.336 152.444L131.332 152.448L134.949 155.9ZM138.349 150.4L143.031 152.156L143.04 152.132L143.048 152.109L138.349 150.4ZM138.349 135.7L133.65 137.409L133.659 137.432L133.668 137.456L138.349 135.7ZM134.949 130.2L131.257 133.571L131.333 133.655L131.414 133.736L134.949 130.2ZM129.949 126.7L127.98 131.296L128.008 131.308L128.037 131.32L129.949 126.7ZM117.649 126.7L115.737 122.08L115.708 122.092L115.68 122.104L117.649 126.7ZM112.649 130.2L109.036 126.744L109.032 126.748L112.649 130.2ZM109.349 135.7L114.031 137.456L114.04 137.432L114.048 137.409L109.349 135.7ZM109.349 150.4L104.65 152.109L104.659 152.132L104.668 152.156L109.349 150.4ZM112.649 155.9L108.957 159.271L109.033 159.355L109.114 159.436L112.649 155.9ZM117.649 159.3L115.68 163.896L115.708 163.908L115.737 163.92L117.649 159.3ZM123.849 179.6V174.6C118.72 174.6 114.046 173.787 109.784 172.21L108.049 176.9L106.315 181.59C111.786 183.613 117.645 184.6 123.849 184.6V179.6ZM108.049 176.9L109.805 172.218C105.571 170.631 101.971 168.427 98.9435 165.629L95.5492 169.3L92.1549 172.971C96.1944 176.706 100.927 179.569 106.294 181.582L108.049 176.9ZM95.5492 169.3L98.9803 165.663C95.9293 162.785 93.5458 159.427 91.8126 155.557L87.2492 157.6L82.6858 159.643C84.9526 164.706 88.1025 169.149 92.1181 172.937L95.5492 169.3ZM87.2492 157.6L91.8378 155.614C90.1975 151.824 89.3492 147.64 89.3492 143H84.3492H79.3492C79.3492 148.893 80.4342 154.442 82.6606 159.586L87.2492 157.6ZM84.3492 143H89.3492C89.3492 138.283 90.2012 134.111 91.8268 130.411L87.2492 128.4L82.6716 126.389C80.4306 131.489 79.3492 137.051 79.3492 143H84.3492ZM87.2492 128.4L91.8126 130.443C93.5416 126.582 95.9144 123.272 98.9435 120.471L95.5492 116.8L92.1549 113.129C88.1174 116.861 84.9568 121.285 82.6858 126.357L87.2492 128.4ZM95.5492 116.8L98.9803 120.437C102.004 117.585 105.592 115.361 109.805 113.782L108.049 109.1L106.294 104.418C100.906 106.439 96.1614 109.349 92.1181 113.163L95.5492 116.8ZM108.049 109.1L109.784 113.79C114.046 112.213 118.72 111.4 123.849 111.4V106.4V101.4C117.645 101.4 111.786 102.387 106.315 104.41L108.049 109.1ZM123.849 106.4V111.4C129.054 111.4 133.717 112.216 137.894 113.782L139.649 109.1L141.405 104.418C135.981 102.384 130.112 101.4 123.849 101.4V106.4ZM139.649 109.1L137.894 113.782C142.106 115.361 145.695 117.585 148.718 120.437L152.149 116.8L155.58 113.163C151.537 109.349 146.792 106.439 141.405 104.418L139.649 109.1ZM152.149 116.8L148.755 120.471C151.771 123.26 154.1 126.551 155.761 130.386L160.349 128.4L164.938 126.414C162.731 121.316 159.594 116.873 155.543 113.129L152.149 116.8ZM160.349 128.4L155.797 130.469C157.473 134.155 158.349 138.306 158.349 143H163.349H168.349C168.349 137.027 167.226 131.445 164.901 126.331L160.349 128.4ZM163.349 143H158.349C158.349 147.617 157.477 151.781 155.786 155.557L160.349 157.6L164.913 159.643C167.222 154.486 168.349 148.917 168.349 143H163.349ZM160.349 157.6L155.761 155.614C154.096 159.459 151.757 162.797 148.718 165.663L152.149 169.3L155.58 172.937C159.609 169.137 162.735 164.675 164.938 159.586L160.349 157.6ZM152.149 169.3L148.755 165.629C145.728 168.427 142.127 170.631 137.894 172.218L139.649 176.9L141.405 181.582C146.771 179.569 151.504 176.706 155.543 172.971L152.149 169.3ZM139.649 176.9L137.894 172.218C133.717 173.784 129.054 174.6 123.849 174.6V179.6V184.6C130.112 184.6 135.981 183.616 141.405 181.582L139.649 176.9ZM123.849 160.5V165.5C126.669 165.5 129.379 164.984 131.919 163.896L129.949 159.3L127.98 154.704C126.786 155.216 125.429 155.5 123.849 155.5V160.5ZM129.949 159.3L131.861 163.92C134.417 162.863 136.67 161.339 138.566 159.352L134.949 155.9L131.332 152.448C130.429 153.394 129.348 154.137 128.037 154.68L129.949 159.3ZM134.949 155.9L138.562 159.356C140.53 157.299 142.011 154.875 143.031 152.156L138.349 150.4L133.668 148.644C133.087 150.192 132.301 151.435 131.336 152.444L134.949 155.9ZM138.349 150.4L143.048 152.109C144.078 149.278 144.549 146.22 144.549 143H139.549H134.549C134.549 145.246 134.221 147.122 133.65 148.691L138.349 150.4ZM139.549 143H144.549C144.549 139.784 144.079 136.739 143.031 133.944L138.349 135.7L133.668 137.456C134.22 138.928 134.549 140.75 134.549 143H139.549ZM138.349 135.7L143.048 133.991C142.031 131.193 140.531 128.711 138.485 126.664L134.949 130.2L131.414 133.736C132.301 134.623 133.068 135.807 133.65 137.409L138.349 135.7ZM134.949 130.2L138.642 126.829C136.743 124.749 134.467 123.158 131.861 122.08L129.949 126.7L128.037 131.32C129.298 131.842 130.355 132.584 131.257 133.571L134.949 130.2ZM129.949 126.7L131.919 122.104C129.379 121.016 126.669 120.5 123.849 120.5V125.5V130.5C125.429 130.5 126.786 130.784 127.98 131.296L129.949 126.7ZM123.849 125.5V120.5C121.028 120.5 118.308 121.016 115.737 122.08L117.649 126.7L119.561 131.32C120.857 130.784 122.271 130.5 123.849 130.5V125.5ZM117.649 126.7L115.68 122.104C113.166 123.181 110.947 124.746 109.036 126.744L112.649 130.2L116.262 133.656C117.285 132.587 118.399 131.819 119.619 131.296L117.649 126.7ZM112.649 130.2L109.032 126.748C107.087 128.786 105.65 131.241 104.65 133.991L109.349 135.7L114.048 137.409C114.648 135.759 115.412 134.547 116.266 133.652L112.649 130.2ZM109.349 135.7L104.668 133.944C103.62 136.739 103.149 139.784 103.149 143H108.149H113.149C113.149 140.75 113.479 138.928 114.031 137.456L109.349 135.7ZM108.149 143H103.149C103.149 146.22 103.621 149.278 104.65 152.109L109.349 150.4L114.048 148.691C113.478 147.122 113.149 145.246 113.149 143H108.149ZM109.349 150.4L104.668 152.156C105.669 154.827 107.087 157.224 108.957 159.271L112.649 155.9L116.342 152.529C115.411 151.51 114.629 150.239 114.031 148.644L109.349 150.4ZM112.649 155.9L109.114 159.436C111.02 161.342 113.216 162.84 115.68 163.896L117.649 159.3L119.619 154.704C118.349 154.16 117.211 153.391 116.185 152.364L112.649 155.9ZM117.649 159.3L115.737 163.92C118.308 164.984 121.028 165.5 123.849 165.5V160.5V155.5C122.271 155.5 120.857 155.216 119.561 154.68L117.649 159.3ZM170.415 178H165.415V183H170.415V178ZM170.415 108V103H165.415V108H170.415ZM194.015 108H199.015V103H194.015V108ZM194.015 159.7H189.015V164.7H194.015V159.7ZM225.615 159.7H230.615V154.7H225.615V159.7ZM225.615 178V183H230.615V178H225.615ZM170.415 178H175.415V108H170.415H165.415V178H170.415ZM170.415 108V113H194.015V108V103H170.415V108ZM194.015 108H189.015V159.7H194.015H199.015V108H194.015ZM194.015 159.7V164.7H225.615V159.7V154.7H194.015V159.7ZM225.615 159.7H220.615V178H225.615H230.615V159.7H225.615ZM225.615 178V173H170.415V178V183H225.615V178ZM230.634 178H225.634V183H230.634V178ZM230.634 108V103H225.634V108H230.634ZM254.234 108H259.234V103H254.234V108ZM254.234 159.7H249.234V164.7H254.234V159.7ZM285.834 159.7H290.834V154.7H285.834V159.7ZM285.834 178V183H290.834V178H285.834ZM230.634 178H235.634V108H230.634H225.634V178H230.634ZM230.634 108V113H254.234V108V103H230.634V108ZM254.234 108H249.234V159.7H254.234H259.234V108H254.234ZM254.234 159.7V164.7H285.834V159.7V154.7H254.234V159.7ZM285.834 159.7H280.834V178H285.834H290.834V159.7H285.834ZM285.834 178V173H230.634V178V183H285.834V178ZM312.452 134V129H307.452V134H312.452ZM343.652 134H348.652V129H343.652V134ZM343.652 151V156H348.652V151H343.652ZM312.452 151H307.452V156H312.452V151ZM314.052 160.2H309.052V165.2H314.052V160.2ZM349.052 160.2H354.052V155.2H349.052V160.2ZM349.052 178V183H354.052V178H349.052ZM290.852 178H285.852V183H290.852V178ZM290.852 108V103H285.852V108H290.852ZM347.752 108H352.752V103H347.752V108ZM347.752 125.8V130.8H352.752V125.8H347.752ZM314.052 125.8V120.8H309.052V125.8H314.052ZM312.452 134V139H343.652V134V129H312.452V134ZM343.652 134H338.652V151H343.652H348.652V134H343.652ZM343.652 151V146H312.452V151V156H343.652V151ZM312.452 151H317.452V134H312.452H307.452V151H312.452ZM314.052 160.2V165.2H349.052V160.2V155.2H314.052V160.2ZM349.052 160.2H344.052V178H349.052H354.052V160.2H349.052ZM349.052 178V173H290.852V178V183H349.052V178ZM290.852 178H295.852V108H290.852H285.852V178H290.852ZM290.852 108V113H347.752V108V103H290.852V108ZM347.752 108H342.752V125.8H347.752H352.752V108H347.752ZM347.752 125.8V120.8H314.052V125.8V130.8H347.752V125.8ZM314.052 125.8H309.052V160.2H314.052H319.052V125.8H314.052ZM377.238 177L375.46 181.673L375.5 181.688L375.539 181.703L377.238 177ZM364.838 169.4L361.408 173.039L361.426 173.055L361.443 173.071L364.838 169.4ZM356.738 157.8L352.149 159.786L352.149 159.786L356.738 157.8ZM356.738 128.2L352.149 126.214L352.149 126.214L356.738 128.2ZM364.838 116.6L361.443 112.929L361.426 112.945L361.408 112.961L364.838 116.6ZM377.238 109.1L378.957 113.795L378.975 113.788L378.993 113.782L377.238 109.1ZM411.038 110L408.964 114.55L408.975 114.555L408.986 114.56L411.038 110ZM424.238 120.4L427.567 124.13L431.024 121.044L428.209 117.363L424.238 120.4ZM409.338 133.7L405.423 136.811L408.718 140.956L412.667 137.43L409.338 133.7ZM402.438 127.7L399.882 131.998L399.95 132.038L400.019 132.076L402.438 127.7ZM387.338 126.7L389.194 131.342L389.194 131.342L387.338 126.7ZM382.138 130.2L378.524 126.744L378.484 126.786L378.445 126.829L382.138 130.2ZM378.838 135.8L383.519 137.556L383.528 137.532L383.536 137.509L378.838 135.8ZM378.838 150.3L374.139 152.009L374.147 152.032L374.156 152.056L378.838 150.3ZM382.138 155.8L378.445 159.171L378.484 159.214L378.524 159.256L382.138 155.8ZM387.338 159.3L385.481 163.942L385.481 163.942L387.338 159.3ZM402.438 158.4L404.906 162.748L404.924 162.738L404.943 162.727L402.438 158.4ZM409.338 152.3L412.667 148.57L408.718 145.044L405.423 149.189L409.338 152.3ZM424.238 165.6L428.187 168.666L431.049 164.978L427.567 161.87L424.238 165.6ZM411.038 176L413.111 180.55L413.124 180.544L413.136 180.538L411.038 176ZM392.838 179.6V174.6C387.76 174.6 383.141 173.816 378.936 172.297L377.238 177L375.539 181.703C380.934 183.651 386.715 184.6 392.838 184.6V179.6ZM377.238 177L379.015 172.327C374.848 170.742 371.271 168.538 368.232 165.729L364.838 169.4L361.443 173.071C365.471 176.795 370.161 179.658 375.46 181.673L377.238 177ZM364.838 169.4L368.267 165.761C365.306 162.971 362.995 159.67 361.326 155.814L356.738 157.8L352.149 159.786C354.346 164.863 357.436 169.296 361.408 173.039L364.838 169.4ZM356.738 157.8L361.326 155.814C359.692 152.04 358.838 147.792 358.838 143H353.838H348.838C348.838 149.008 349.916 154.627 352.149 159.786L356.738 157.8ZM353.838 143H358.838C358.838 138.208 359.692 133.96 361.326 130.186L356.738 128.2L352.149 126.214C349.916 131.373 348.838 136.992 348.838 143H353.838ZM356.738 128.2L361.326 130.186C362.995 126.33 365.306 123.029 368.267 120.239L364.838 116.6L361.408 112.961C357.436 116.704 354.346 121.137 352.149 126.214L356.738 128.2ZM364.838 116.6L368.232 120.271C371.257 117.474 374.814 115.312 378.957 113.795L377.238 109.1L375.518 104.405C370.194 106.354 365.485 109.192 361.443 112.929L364.838 116.6ZM377.238 109.1L378.993 113.782C383.182 112.211 387.782 111.4 392.838 111.4V106.4V101.4C386.693 101.4 380.893 102.389 375.482 104.418L377.238 109.1ZM392.838 106.4V111.4C399.12 111.4 404.458 112.497 408.964 114.55L411.038 110L413.111 105.45C407.083 102.703 400.288 101.4 392.838 101.4V106.4ZM411.038 110L408.986 114.56C413.582 116.628 417.316 119.58 420.266 123.437L424.238 120.4L428.209 117.363C424.226 112.154 419.159 108.172 413.089 105.44L411.038 110ZM424.238 120.4L420.908 116.67L406.008 129.97L409.338 133.7L412.667 137.43L427.567 124.13L424.238 120.4ZM409.338 133.7L413.252 130.589C410.835 127.548 408.045 125.086 404.856 123.324L402.438 127.7L400.019 132.076C401.896 133.114 403.707 134.652 405.423 136.811L409.338 133.7ZM402.438 127.7L404.993 123.402C401.683 121.434 397.985 120.5 394.038 120.5V125.5V130.5C396.357 130.5 398.259 131.032 399.882 131.998L402.438 127.7ZM394.038 125.5V120.5C391.026 120.5 388.15 120.99 385.481 122.058L387.338 126.7L389.194 131.342C390.525 130.81 392.115 130.5 394.038 130.5V125.5ZM387.338 126.7L385.481 122.058C382.827 123.119 380.493 124.686 378.524 126.744L382.138 130.2L385.751 133.656C386.716 132.647 387.848 131.881 389.194 131.342L387.338 126.7ZM382.138 130.2L378.445 126.829C376.551 128.903 375.134 131.355 374.139 134.091L378.838 135.8L383.536 137.509C384.141 135.845 384.924 134.564 385.83 133.571L382.138 130.2ZM378.838 135.8L374.156 134.044C373.113 136.826 372.638 139.834 372.638 143H377.638H382.638C382.638 140.833 382.962 139.041 383.519 137.556L378.838 135.8ZM377.638 143H372.638C372.638 146.169 373.114 149.191 374.139 152.009L378.838 150.3L383.536 148.591C382.961 147.009 382.638 145.164 382.638 143H377.638ZM378.838 150.3L374.156 152.056C375.158 154.727 376.575 157.124 378.445 159.171L382.138 155.8L385.83 152.429C384.9 151.41 384.117 150.139 383.519 148.544L378.838 150.3ZM382.138 155.8L378.524 159.256C380.493 161.314 382.827 162.881 385.481 163.942L387.338 159.3L389.194 154.658C387.848 154.119 386.716 153.353 385.751 152.344L382.138 155.8ZM387.338 159.3L385.481 163.942C388.15 165.01 391.026 165.5 394.038 165.5V160.5V155.5C392.115 155.5 390.525 155.19 389.194 154.658L387.338 159.3ZM394.038 160.5V165.5C397.943 165.5 401.61 164.619 404.906 162.748L402.438 158.4L399.969 154.052C398.332 154.981 396.398 155.5 394.038 155.5V160.5ZM402.438 158.4L404.943 162.727C408.086 160.908 410.848 158.436 413.252 155.411L409.338 152.3L405.423 149.189C403.694 151.364 401.856 152.959 399.932 154.073L402.438 158.4ZM409.338 152.3L406.008 156.03L420.908 169.33L424.238 165.6L427.567 161.87L412.667 148.57L409.338 152.3ZM424.238 165.6L420.288 162.534C417.331 166.344 413.576 169.317 408.939 171.462L411.038 176L413.136 180.538C419.166 177.749 424.211 173.789 428.187 168.666L424.238 165.6ZM411.038 176L408.964 171.45C404.458 173.503 399.12 174.6 392.838 174.6V179.6V184.6C400.288 184.6 407.083 183.297 413.111 180.55L411.038 176ZM444.263 178H439.263V183H444.263V178ZM444.263 126.3H449.263V121.3H444.263V126.3ZM423.763 126.3H418.763V131.3H423.763V126.3ZM423.763 108V103H418.763V108H423.763ZM488.363 108H493.363V103H488.363V108ZM488.363 126.3V131.3H493.363V126.3H488.363ZM467.863 126.3V121.3H462.863V126.3H467.863ZM467.863 178V183H472.863V178H467.863ZM444.263 178H449.263V126.3H444.263H439.263V178H444.263ZM444.263 126.3V121.3H423.763V126.3V131.3H444.263V126.3ZM423.763 126.3H428.763V108H423.763H418.763V126.3H423.763ZM423.763 108V113H488.363V108V103H423.763V108ZM488.363 108H483.363V126.3H488.363H493.363V108H488.363ZM488.363 126.3V121.3H467.863V126.3V131.3H488.363V126.3ZM467.863 126.3H462.863V178H467.863H472.863V126.3H467.863ZM467.863 178V173H444.263V178V183H467.863V178ZM492.993 178H487.993V183H492.993V178ZM492.993 108V103H487.993V108H492.993ZM516.593 108H521.593V103H516.593V108ZM516.593 178V183H521.593V178H516.593ZM492.993 178H497.993V108H492.993H487.993V178H492.993ZM492.993 108V113H516.593V108V103H492.993V108ZM516.593 108H511.593V178H516.593H521.593V108H516.593ZM516.593 178V173H492.993V178V183H516.593V178ZM548.454 178L543.849 179.947L545.14 183H548.454V178ZM518.854 108V103H511.311L514.249 109.947L518.854 108ZM544.254 108L548.884 106.112L547.615 103H544.254V108ZM568.354 167.1V172.1H575.793L572.984 165.212L568.354 167.1ZM553.254 167.1L548.643 165.165L545.733 172.1H553.254V167.1ZM578.054 108V103H574.73L573.443 106.065L578.054 108ZM601.254 108L605.859 109.947L608.797 103H601.254V108ZM571.654 178V183H574.968L576.259 179.947L571.654 178ZM548.454 178L553.059 176.053L523.459 106.053L518.854 108L514.249 109.947L543.849 179.947L548.454 178ZM518.854 108V113H544.254V108V103H518.854V108ZM544.254 108L539.624 109.888L563.724 168.988L568.354 167.1L572.984 165.212L548.884 106.112L544.254 108ZM568.354 167.1V162.1H553.254V167.1V172.1H568.354V167.1ZM553.254 167.1L557.864 169.035L582.664 109.935L578.054 108L573.443 106.065L548.643 165.165L553.254 167.1ZM578.054 108V113H601.254V108V103H578.054V108ZM601.254 108L596.649 106.053L567.049 176.053L571.654 178L576.259 179.947L605.859 109.947L601.254 108ZM571.654 178V173H548.454V178V183H571.654V178ZM623.702 134V129H618.702V134H623.702ZM654.902 134H659.902V129H654.902V134ZM654.902 151V156H659.902V151H654.902ZM623.702 151H618.702V156H623.702V151ZM625.302 160.2H620.302V165.2H625.302V160.2ZM660.302 160.2H665.302V155.2H660.302V160.2ZM660.302 178V183H665.302V178H660.302ZM602.102 178H597.102V183H602.102V178ZM602.102 108V103H597.102V108H602.102ZM659.002 108H664.002V103H659.002V108ZM659.002 125.8V130.8H664.002V125.8H659.002ZM625.302 125.8V120.8H620.302V125.8H625.302ZM623.702 134V139H654.902V134V129H623.702V134ZM654.902 134H649.902V151H654.902H659.902V134H654.902ZM654.902 151V146H623.702V151V156H654.902V151ZM623.702 151H628.702V134H623.702H618.702V151H623.702ZM625.302 160.2V165.2H660.302V160.2V155.2H625.302V160.2ZM660.302 160.2H655.302V178H660.302H665.302V160.2H660.302ZM660.302 178V173H602.102V178V183H660.302V178ZM602.102 178H607.102V108H602.102H597.102V178H602.102ZM602.102 108V113H659.002V108V103H602.102V108ZM659.002 108H654.002V125.8H659.002H664.002V108H659.002ZM659.002 125.8V120.8H625.302V125.8V130.8H659.002V125.8ZM625.302 125.8H620.302V160.2H625.302H630.302V125.8H625.302Z" fill="#4A8164" mask="url(#path-1-outside-1_2178_1533)"/>
<path d="M41.9 76.6C36.3 76.6 31.1 75.7333 26.3 74C21.5667 72.2 17.4333 69.6667 13.9 66.4C10.4333 63.1333 7.73333 59.2667 5.8 54.8C3.86667 50.3333 2.9 45.4 2.9 40C2.9 34.6 3.86667 29.6667 5.8 25.2C7.73333 20.7333 10.4333 16.8667 13.9 13.6C17.4333 10.3333 21.5667 7.83333 26.3 6.1C31.1 4.3 36.3 3.4 41.9 3.4C48.7667 3.4 54.8333 4.6 60.1 7C65.4333 9.4 69.8333 12.8667 73.3 17.4L58.4 30.7C56.3333 28.1 54.0333 26.1 51.5 24.7C49.0333 23.2333 46.2333 22.5 43.1 22.5C40.6333 22.5 38.4 22.9 36.4 23.7C34.4 24.5 32.6667 25.6667 31.2 27.2C29.8 28.7333 28.7 30.6 27.9 32.8C27.1 34.9333 26.7 37.3333 26.7 40C26.7 42.6667 27.1 45.1 27.9 47.3C28.7 49.4333 29.8 51.2667 31.2 52.8C32.6667 54.3333 34.4 55.5 36.4 56.3C38.4 57.1 40.6333 57.5 43.1 57.5C46.2333 57.5 49.0333 56.8 51.5 55.4C54.0333 53.9333 56.3333 51.9 58.4 49.3L73.3 62.6C69.8333 67.0667 65.4333 70.5333 60.1 73C54.8333 75.4 48.7667 76.6 41.9 76.6ZM70.0375 75L100.638 5H123.838L154.438 75H130.038L107.438 16.2H116.638L94.0375 75H70.0375ZM88.2375 62.8L94.2375 45.8H126.438L132.438 62.8H88.2375ZM156.704 75V5H176.104L204.104 50.7H193.904L221.104 5H240.504L240.704 75H219.204L219.004 37.4H222.404L203.804 68.7H193.404L174.004 37.4H178.204V75H156.704ZM250.614 75V5H284.314C290.847 5 296.481 6.06666 301.214 8.2C306.014 10.3333 309.714 13.4 312.314 17.4C314.914 21.3333 316.214 26 316.214 31.4C316.214 36.8 314.914 41.4667 312.314 45.4C309.714 49.3333 306.014 52.4 301.214 54.6C296.481 56.7333 290.847 57.8 284.314 57.8H263.714L274.214 47.7V75H250.614ZM274.214 50.3L263.714 39.6H282.814C286.081 39.6 288.481 38.8667 290.014 37.4C291.614 35.9333 292.414 33.9333 292.414 31.4C292.414 28.8667 291.614 26.8667 290.014 25.4C288.481 23.9333 286.081 23.2 282.814 23.2H263.714L274.214 12.5V50.3ZM344.054 31H375.254V48H344.054V31ZM345.654 57.2H380.654V75H322.454V5H379.354V22.8H345.654V57.2ZM388.239 75V5H422.739C430.539 5 437.406 6.43333 443.339 9.3C449.272 12.1 453.906 16.1 457.239 21.3C460.572 26.5 462.239 32.7 462.239 39.9C462.239 47.1667 460.572 53.4333 457.239 58.7C453.906 63.9 449.272 67.9333 443.339 70.8C437.406 73.6 430.539 75 422.739 75H388.239ZM411.839 56.6H421.739C425.072 56.6 427.972 55.9667 430.439 54.7C432.972 53.4333 434.939 51.5667 436.339 49.1C437.739 46.5667 438.439 43.5 438.439 39.9C438.439 36.3667 437.739 33.3667 436.339 30.9C434.939 28.4333 432.972 26.5667 430.439 25.3C427.972 24.0333 425.072 23.4 421.739 23.4H411.839V56.6ZM41.9 172.6C36.3 172.6 31.1 171.733 26.3 170C21.5667 168.2 17.4333 165.667 13.9 162.4C10.4333 159.133 7.73333 155.267 5.8 150.8C3.86667 146.333 2.9 141.4 2.9 136C2.9 130.6 3.86667 125.667 5.8 121.2C7.73333 116.733 10.4333 112.867 13.9 109.6C17.4333 106.333 21.5667 103.833 26.3 102.1C31.1 100.3 36.3 99.4 41.9 99.4C48.7667 99.4 54.8333 100.6 60.1 103C65.4333 105.4 69.8333 108.867 73.3 113.4L58.4 126.7C56.3333 124.1 54.0333 122.1 51.5 120.7C49.0333 119.233 46.2333 118.5 43.1 118.5C40.6333 118.5 38.4 118.9 36.4 119.7C34.4 120.5 32.6667 121.667 31.2 123.2C29.8 124.733 28.7 126.6 27.9 128.8C27.1 130.933 26.7 133.333 26.7 136C26.7 138.667 27.1 141.1 27.9 143.3C28.7 145.433 29.8 147.267 31.2 148.8C32.6667 150.333 34.4 151.5 36.4 152.3C38.4 153.1 40.6333 153.5 43.1 153.5C46.2333 153.5 49.0333 152.8 51.5 151.4C54.0333 149.933 56.3333 147.9 58.4 145.3L73.3 158.6C69.8333 163.067 65.4333 166.533 60.1 169C54.8333 171.4 48.7667 172.6 41.9 172.6ZM113.849 172.6C108.183 172.6 102.916 171.7 98.0492 169.9C93.2492 168.1 89.0826 165.567 85.5492 162.3C82.0159 158.967 79.2492 155.067 77.2492 150.6C75.3159 146.133 74.3492 141.267 74.3492 136C74.3492 130.667 75.3159 125.8 77.2492 121.4C79.2492 116.933 82.0159 113.067 85.5492 109.8C89.0826 106.467 93.2492 103.9 98.0492 102.1C102.916 100.3 108.183 99.4 113.849 99.4C119.583 99.4 124.849 100.3 129.649 102.1C134.449 103.9 138.616 106.467 142.149 109.8C145.683 113.067 148.416 116.933 150.349 121.4C152.349 125.8 153.349 130.667 153.349 136C153.349 141.267 152.349 146.133 150.349 150.6C148.416 155.067 145.683 158.967 142.149 162.3C138.616 165.567 134.449 168.1 129.649 169.9C124.849 171.7 119.583 172.6 113.849 172.6ZM113.849 153.5C116.049 153.5 118.083 153.1 119.949 152.3C121.883 151.5 123.549 150.367 124.949 148.9C126.416 147.367 127.549 145.533 128.349 143.4C129.149 141.2 129.549 138.733 129.549 136C129.549 133.267 129.149 130.833 128.349 128.7C127.549 126.5 126.416 124.667 124.949 123.2C123.549 121.667 121.883 120.5 119.949 119.7C118.083 118.9 116.049 118.5 113.849 118.5C111.649 118.5 109.583 118.9 107.649 119.7C105.783 120.5 104.116 121.667 102.649 123.2C101.249 124.667 100.149 126.5 99.3492 128.7C98.5492 130.833 98.1492 133.267 98.1492 136C98.1492 138.733 98.5492 141.2 99.3492 143.4C100.149 145.533 101.249 147.367 102.649 148.9C104.116 150.367 105.783 151.5 107.649 152.3C109.583 153.1 111.649 153.5 113.849 153.5ZM160.415 171V101H184.015V152.7H215.615V171H160.415ZM220.634 171V101H244.234V152.7H275.834V171H220.634ZM302.452 127H333.652V144H302.452V127ZM304.052 153.2H339.052V171H280.852V101H337.752V118.8H304.052V153.2ZM382.838 172.6C377.238 172.6 372.038 171.733 367.238 170C362.504 168.2 358.371 165.667 354.838 162.4C351.371 159.133 348.671 155.267 346.738 150.8C344.804 146.333 343.838 141.4 343.838 136C343.838 130.6 344.804 125.667 346.738 121.2C348.671 116.733 351.371 112.867 354.838 109.6C358.371 106.333 362.504 103.833 367.238 102.1C372.038 100.3 377.238 99.4 382.838 99.4C389.704 99.4 395.771 100.6 401.038 103C406.371 105.4 410.771 108.867 414.238 113.4L399.338 126.7C397.271 124.1 394.971 122.1 392.438 120.7C389.971 119.233 387.171 118.5 384.038 118.5C381.571 118.5 379.338 118.9 377.338 119.7C375.338 120.5 373.604 121.667 372.138 123.2C370.738 124.733 369.638 126.6 368.838 128.8C368.038 130.933 367.638 133.333 367.638 136C367.638 138.667 368.038 141.1 368.838 143.3C369.638 145.433 370.738 147.267 372.138 148.8C373.604 150.333 375.338 151.5 377.338 152.3C379.338 153.1 381.571 153.5 384.038 153.5C387.171 153.5 389.971 152.8 392.438 151.4C394.971 149.933 397.271 147.9 399.338 145.3L414.238 158.6C410.771 163.067 406.371 166.533 401.038 169C395.771 171.4 389.704 172.6 382.838 172.6ZM434.263 171V119.3H413.763V101H478.363V119.3H457.863V171H434.263ZM482.993 171V101H506.593V171H482.993ZM538.454 171L508.854 101H534.254L558.354 160.1H543.254L568.054 101H591.254L561.654 171H538.454ZM613.702 127H644.902V144H613.702V127ZM615.302 153.2H650.302V171H592.102V101H649.002V118.8H615.302V153.2Z" fill="#223B2E"/>
</svg>
